<svg xmlns="http://www.w3.org/2000/svg" viewBox="0 0 2127.51932 3090.45033"><defs><style>.cls-1{fill:#1b0c16;}.cls-2{fill:#1c0d14;}.cls-3{fill:#35282f;}.cls-4{fill:#473e41;}.cls-5{fill:#2b2028;}.cls-6{fill:#6e696b;}.cls-7{fill:#373135;}.cls-8{fill:#fff1d0;}.cls-9{fill:#d62839;}.cls-10{fill:#2da7d4;}.cls-11{fill:#f0b708;}.cls-12{fill:#392a33;}.cls-13{fill:#3e2d36;}.cls-14{fill:#2d1b21;}.cls-15{fill:#493d46;}.cls-16{fill:#55555a;}.cls-17{fill:#0d0628;}.cls-18{fill:#989399;}</style></defs><g id="Layer_2" data-name="Layer 2"><g id="Layer_1-2" data-name="Layer 1"><path class="cls-1" d="M742.15807,406.99347c8.03352,3.30255,8.10963,3.36666,13.56241-3.10748,5.5345-6.5712,11.26259-12.96171,16.61644-19.71036,11.7499-14.81124,27.2906-24.7599,43.71211-33.93923,14.11315-7.889,27.97405-16.30441,42.35325-23.70362,17.386-8.94649,34.72824-18.24507,52.89127-25.33648A372.03573,372.03573,0,0,1,963.434,285.08319c11.0046-2.52145,22.04836-4.60406,33.16311-6.57263,19.25073-3.40959,38.31239-1.952,57.5219-.37824,26.58079,2.17775,52.19817,9.4703,78.29238,14.20643,12.66879,2.29946,24.516,7.64565,36.42841,12.42237,5.30164,2.1259,10.49728,4.00873,16.21,4.53077a21.38246,21.38246,0,0,1,9.31273,3.25663c4.16051,2.54615,8.70868,4.45875,13.44421,6.81824,4.7964-9.87637,5.8619-20.212,9.3586-29.801,5.00938-13.73687,10.72343-27.12912,16.3643-40.59073,7.58244-18.09437,16.6889-35.44112,25.15545-53.09873,10.65452-22.22088,23.41515-43.35307,39.51049-61.91312,10.106-11.65365,20.95492-23.021,33.97611-31.96471,12.85334-8.82842,24.24706-19.59189,37.02025-28.64315q17.52019-12.41482,35.79533-23.55227c22.0536-13.52523,45.96143-23.27427,70.10334-32.44862,14.11438-5.36373,29.035-7.36814,43.69918-9.43571C1535.53947,5.557,1551.89975.66715,1568.9569.2606c6.95607-.16578,13.80015-.58728,20.81941.20812,11.1339,1.26168,22.23145,3.47087,33.62651,2.12891,6.00852-.7076,11.81077,2.42928,17.04374,4.62161,14.65169,6.13834,30.22776,11.74677,42.61,21.25117,20.93211,16.06673,43.28628,30.87329,59.13985,53.00021,6.3386,8.84715,13.82431,16.97532,20.43931,25.72386,12.66964,16.75517,21.93162,35.58041,32.8101,53.42242,5.88117,9.6458,10.02192,20.1776,15.19561,30.10225,8.73454,16.75517,9.96606,35.5627,16.95506,52.66285,2.8841,7.05646,5.454,14.26615,7.71844,21.54574,4.28176,13.76429,5.62574,27.90111,5.80506,42.33418.315,25.38315,4.99486,50.16763,12.12779,74.51115,4.57037,15.59845,8.24687,31.49538,13.54766,46.83549,9.73966,28.1855,19.3932,56.44993,33.4561,82.92571,13.23782,24.92211,27.51126,49.393,39.0999,75.06881,17.057,37.7922,37.61418,73.914,52.82785,112.58035,4.21125,10.70348,11.08559,20.23746,15.96579,30.82876,4.66771,10.12953,6.71845,20.74938,9.97313,31.10479,4.0705,12.9503,6.82628,26.3076,10.50107,39.39046a189.34479,189.34479,0,0,1,7.45155,46.084c.687,27.20065,2.59794,54.51207.3918,81.68063-1.70114,20.94971-.64089,41.81962-.89143,62.72528-.17126,14.28652-1.32374,28.52716-2.67284,42.7739-1.37448,14.51527-1.55965,29.15108-2.02512,43.74162a180.02508,180.02508,0,0,1-3.01683,25.59036c-1.54622,8.77416-3.35276,17.49818-4.80262,26.27381a26.6065,26.6065,0,0,1-3.50377,10.14752c-8.26491,13.16033-16.93749,26.079-24.77889,39.48489-3.64307,6.228-8.94386,10.82061-13.77015,15.62889-15.23952,15.18213-29.47856,32.06067-48.95666,41.836-10.11073,5.07425-11.09633,11.547-11.11731,21.08854-.04538,20.67654,1.95852,41.1574,3.6982,61.69742a302.44328,302.44328,0,0,1,1.20834,33.86286c-.20614,7.41459,1.00781,14.59786,1.59283,21.86056,1.33056,16.51949,3.31982,32.986,5.07415,49.79089a115.0008,115.0008,0,0,1,22.08824,1.3281c12.2954,1.9664,22.53323,7.75106,32.12115,15.05207,14.28124,10.875,27.44,22.983,37.39656,38.05407,16.63694,25.18336,37.895,47.14823,51.79906,74.20114,5.45668,10.61649,10.45911,21.47943,15.33052,32.38116,6.88288,15.40282,14.17244,30.61471,19.654,46.64779,4.43693,12.9766,4.91948,26.58845,7.68137,39.82393,4.747,22.74445,4.67551,46.13454,7.26882,69.19351,2.68138,23.84294,1.73237,47.76287.05733,71.65828-.51159,7.29881-.6626,14.63837-.624,21.95731.09319,17.67984-2.54427,35.16814-3.44888,52.76209a305.37994,305.37994,0,0,1-5.73187,46.339c-3.21468,15.50384-7.12464,30.85713-13.35419,45.67654-6.79944,16.17436-11.8936,33.08852-17.28587,49.82359-3.35935,10.42569-7.95509,20.42681-10.06438,31.3161-.91607,4.73069-4.2237,8.91288-6.4535,13.29294-10.02924,19.69895-18.49494,40.3051-31.01966,58.58885-4.56452,6.66343-8.36031,14.34629-15.64133,19.01721-3.818,2.44928-5.40716,6.88889-7.0778,10.69579-6.87093,15.65415-18.37248,28.09333-28.06554,41.77936-5.75383,8.12427-12.037,15.88326-17.59473,24.1349-11.845,17.58663-23.85281,35.02955-36.48756,52.07986-9.67623,13.05773-18.43249,26.82306-28.33951,39.74293-7.86579,10.25756-15.24172,20.86942-23.36684,30.95277-7.05512,8.7555-13.16025,18.2713-20.21878,27.0839-9.53473,11.90409-18.29684,24.43087-27.91525,36.26322-9.63989,11.859-19.68913,23.53636-27.49052,36.58115-10.332,17.27627-25.29048,31.28608-33.83742,49.75283-2.63283,5.68889-8.10488,9.519-11.47569,14.98851-8.86653,14.38729-17.39443,29.17523-27.96186,42.26541-9.627,11.92507-17.93041,24.74465-27.46027,36.66557-11.53668,14.43072-18.17413,31.55839-26.9177,47.52461-1.41619,2.58617-1.85093,5.72452-4.55695,7.52281a1.75548,1.75548,0,0,1-2.31177.27254c.696-5.73524-2.60661-10.736-3.01024-16.29,6.37629-15.23934,17.10583-27.67413,26.57079-40.87386,24.63373-34.35343,47.49265-69.9171,71.74337-104.52574q26.92673-38.42836,56.29136-75.05088,19.96395-24.85848,38.68834-50.744c15.02362-20.744,30.69471-40.99758,45.63464-61.816,23.68522-33.00434,46.64855-66.50376,70.11372-99.65474,21.51518-30.39621,42.51584-61.165,62.19863-92.74926,17.63278-28.29341,31.257-58.45977,39.85472-91.05809,5.14441-19.50644,13.63011-38.16424,20.13046-57.39886a237.14623,237.14623,0,0,0,12.41738-61.369c2.52475-41.15862,6.96924-82.24745,6.52352-123.56186-.22981-21.30522-3.05952-42.4367-4.98925-63.61613-.96438-10.58807.15174-21.56007-3.12514-31.72175-7.28078-22.5756-8.375-46.65438-17.9292-68.72356-8.11634-18.74771-18.82526-35.79656-30.19044-52.57934-12.12365-17.9031-20.53519-37.999-33.55808-55.45391-15.16438-20.32555-30.04187-40.78469-51.78491-54.70227-9.35225-5.98645-19.595-9.57461-31.11871-9.30292-7.2093.17007-10.69184,2.62631-9.84164,10.03894,1.707,14.88628,1.75408,29.89992,3.30543,44.78936,3.08343,29.59369-3.655,55.45392-24.26218,78.24241-23.91893,26.45071-49.21283,51.51586-73.62553,77.44161-16.70305,17.738-34.40024,34.19226-52.49094,50.43176-25.288,22.70017-43.20381,51.22379-60.58214,80.15855-14.61572,24.33522-20.91358,51.73278-30.86207,77.78723,3.25078,20.09277-11.98752,32.4346-20.02677,47.79521-8.35433,15.9628-19.49543,29.2921-35.403,38.33015-18.50885,10.51621-37.648,18.28717-59.60142,16.931a281.89252,281.89252,0,0,0-30.96441-.03612c-47.861,2.31948-94.89041-5.502-142.163-10.84073-19.52812-2.20528-38.97756-3.6-57.89187-9.70832-52.009-16.79607-101.09068-39.06094-144.56712-72.88561-25.70241-19.99663-53.01094-38.12409-76.03185-61.23528-14.16121-14.21686-31.05613-25.07333-44.8375-39.56505-2.97206-3.12516-6.6366-5.65436-7.39361-10.33821.33654-3.9211.81922-7.75667,5.52365-8.98913,9.75,4.20939,15.69622,13.06456,23.0758,19.92783,41.04732,38.17473,84.96472,72.72067,130.44324,105.33875,30.88707,22.15263,65.81987,35.87331,101.31451,48.77365,34.58052,12.56777,70.69385,15.03243,106.54322,20.1506,49.68172,7.09263,99.55738,7.29661,149.43256,5.55054,24.08763-.84327,43.53756-13.941,59.11607-31.82044,10.11975-11.61422,15.43261-26.18134,22.18131-39.94764,10.0473-20.4944,8.382-43.69245,17.5391-64.277,6.373-14.32592,12.59743-28.41016,21.81623-41.33429,16.41835-23.0164,31.9455-46.58911,51.52924-67.24235,7.37543-7.7784,15.53325-14.53748,23.24413-21.85239,36.22824-34.36745,70.16592-70.97374,104.8511-106.8529,14.13048-14.61714,24.78743-31.06648,30.20776-50.76653a23.44542,23.44542,0,0,0,1.09-6.874c-.62893-22.24255.35667-44.3964-2.60184-66.74264-2.82093-21.30692-4.16418-43.00583-5.24346-64.58786-1.345-26.897-4.15442-53.68052-5.6255-80.57043-2.27177-41.52742-2.88582-82.95664-1.32227-124.598,1.2442-33.13208,9.28809-64.34386,17.261-95.94593,7.24638-28.722,3.52915-56.83911-7.02754-84.22593-10.76381-27.923-21.77183-55.76612-33.62371-83.22931a402.0073,402.0073,0,0,0-30.67763-57.07616c-28.907-45.20678-42.63441-93.55764-31.02845-147.21717,8.02535-37.105-.07855-71.90259-17.88186-103.96637-9.45179-17.022-23.573-31.12888-44.00182-37.65244-17.99213-5.74544-35.89693-12.11155-53.36724-19.501-17.9148-7.57733-36.46963-12.35189-56.05276-13.32435-16.05594-.79722-31.21752-6.58968-46.85067-9.81544-29.3306-6.05221-59.08325-10.17864-87.97765-18.18206-20.5308-5.68688-40.04232-14.53436-60.35831-20.96269-3.05489-.96668-6.60513-3.82637-9.36433-1.39752-2.95022,2.59715.23054,6.17146.84008,9.26515,10.76527,54.64353,28.47649,107.3323,45.16966,160.30863,7.399,23.4811,11.62963,47.85054,20.80135,70.87029,12.10864,30.39108,18.05617,62.43046,24.63861,94.3751,8.39312,40.73271,17.6373,81.31427,27.0076,121.837,8.94581,38.68749,12.383,77.897,8.28919,116.92722-4.25126,40.53361-20.04482,77.36926-46.61793,109.421-23.26682,28.06368-49.49814,51.83623-82.11989,68.56361-28.81938,14.77769-58.84881,22.47422-91.3209,19.02929-10.4308-1.10654-20.51408,1.67-30.76057,2.59337-4.30714.38821-8.554,1.49927-12.82407-.10956-5.47778-5.7788.17919-8.29653,3.57367-10.98371,2.1826-1.72778,5.49827-1.48512,8.09207-2.78271,5.97351-2.60191,12.30467-2.61448,18.64644-2.54774a437.55744,437.55744,0,0,0,51.79979-2.29252c32.1708-3.48019,58.95432-18.73392,83.11684-38.42861,24.07251-19.62111,43.86532-43.495,59.84234-70.32786,3.0056-5.04766,5.20772-9.8851,2.02719-15.86155-2.06086-3.87254-.36691-7.47522,3.53951-9.04134,8.41423-3.37332,12.088-10.43508,14.028-18.28472,6.33311-25.6244,9.79955-51.504,7.17965-78.071-1.92644-19.53522-2.3624-39.313-7.61586-58.30165-7.54-27.25372-13.71037-54.82049-19.848-82.38812-3.536-15.8818-5.73479-32.05261-9.10536-48.01005-7.70332-36.4705-15.09693-73.00468-29.49381-107.594-3.49608-8.39987-5.62769-17.1231-7.44313-25.85645a519.52659,519.52659,0,0,0-21.54543-74.66542c-12.667-34.16517-21.3288-69.16593-29.60628-104.42783-3.44-14.65416-8.36262-28.76683-18.29782-40.53349-2.02622-4.77888-3.1177-9.614,4.68247-6.45486,5.12636,2.0762,7.30261-5.00734,11.9108-2.58184,26.96917,16.381,56.26049,27.38865,86.4996,35.44752,25.972,6.92183,52.95031,9.997,78.96389,16.47509,29.44319,7.33217,60.13375,8.29024,88.85433,17.69082,31.86059,10.42843,64.497,19.43207,93.96164,36.00519,13.82333,7.77516,25.907,17.41174,32.48661,33.57341,5.75626,14.13926,12.495,27.77137,16.50178,42.66825,6.43032,23.90761,7.98948,47.69535,2.06293,71.9265-5.06561,20.71156-5.78432,41.40781,1.6787,61.90367a77.54912,77.54912,0,0,1,4.34056,18.42276c-6.22736,10.80877-2.88972,19.63808,10.69574,28.16629,8.95972,15.992,14.80527,33.47013,24.0392,49.35254,26.06165,44.82632,42.7581,93.72161,60.79293,141.99372,6.40472,17.14291,5.13563,35.13959,4.10246,53.21654-1.59405,27.89154-13.474,53.48166-16.66865,80.82883a594.68079,594.68079,0,0,0-3.58257,68.69038c-.00415,8.60812,1.94413,9.63634,9.36225,5.57274,10.05072-5.50552,17.85406-13.91478,26.17631-21.49053,24.56128-22.3582,40.79762-49.08146,51.33845-81.46665,8.704-26.74168,8.676-53.30561,11.74259-80.09975,3.647-31.864,1.09807-63.79851,2.07635-95.67508.53037-17.27382,1.61746-34.52825,1.91412-51.83672.90339-52.67633-10.11512-102.80395-28.2712-152.09476-12.37395-33.59366-30.451-64.26858-44.49852-96.82134-9.65134-22.36588-22.04091-43.13191-32.06406-65.18395-14.31174-31.48775-30.57809-62.0902-43.89423-94.03289-19.109-45.83918-35.833-92.44579-45.26675-141.46021-4.91045-25.51149-5.5306-51.59086-11.58352-76.93341-9.54937-39.97976-22.64789-78.34029-42.52414-114.69419-15.37053-28.1126-35.86791-52.07553-55.86711-76.36268-12.98679-15.7713-30.41391-27.65195-48.00046-38.69215-39.51537-24.80646-82.61721-27.356-127.11512-21.03513-13.4619,1.91222-26.98516,3.06749-40.40424,5.9026-51.68891,10.92043-95.66438,37.40833-138.41577,66.63541a375.478,375.478,0,0,0-59.9176,51.06473c-17.68694,18.54892-29.38195,41.03485-41.36471,63.31842-18.21927,33.88106-31.37853,69.80546-42.76457,106.43126-3.44168,11.07058-2.19,13.38664,7.72638,19.453a300.6037,300.6037,0,0,0,27.3045,14.40169c18.42809,8.82369,33.37523,22.92983,50.273,34.09173,1.91156,2.08414,3.73615,4.27612,6.24,5.73391,2.27885,1.68751,4.72651,3.1312,7.01072,4.82744a21.40354,21.40354,0,0,1,5.902,7.94572c1.98974,4.60216-.05489,6.14645-4.5117,5.76812-14.31271-9.07953-27.8661-19.28244-41.57647-29.19822-18.21378-13.17271-38.87485-21.695-58.17706-32.757a19.88856,19.88856,0,0,0-9.63281-2.26384c-2.31458-.04642-5.11452.474-6.65379-1.40953-9.78419-11.97327-24.56775-13.84354-37.70994-19.05321-41.37386-16.40075-84.71979-22.638-128.80552-23.68044-43.15149-1.02026-84.24541,8.21748-123.61026,26.50207-23.177,10.76552-47.00265,20.2324-70.44952,30.4721-3.84275,1.5671-11.16757-5.99334-11.63231,4.46278-1.49841,1.87588-3.60026,2.73349-5.77969,3.46872a14.55707,14.55707,0,0,0-6.06329,3.0369c-11.56571,7.68854-24.83146,12.35787-35.23921,22.268-13.22526,12.59266-22.34014,28.08888-31.4194,43.301-9.10024,15.2474-21.2556,27.81236-31.79229,41.72629-9.09621,12.01194-14.30027,24.7064-17.87491,39.24168-4.38545,17.83253-3.80494,36.177-8.05243,53.88517-2.96717,8.06144-.0505,16.61191-2.05488,24.7543a7.78986,7.78986,0,0,1-1.60649,2.82895c-9.22307,3.3297-7.87177-3.98906-8.96411-8.87226-.23957-27.12683.022-54.3176,6.67515-80.77514,4.32836-17.21185,13.83272-32.19816,24.57128-46.24385,6.64331-8.68913,13.01911-17.58157,19.86978-26.113,2.81934-3.51106,5.23236-7.12624,1.264-11.42109-1.47719-2.14233-3.71163-4.21933-1.94279-7.06176C738.82153,405.928,740.56842,405.93462,742.15807,406.99347Z"/><path class="cls-2" d="M1671.45866,2649.86018q1.02445.03075,2.0489.06174c-1.6371,9.15224-8.41592,15.60875-12.64682,23.3697-5.902,10.82658-10.5301,22.15092-15.40981,33.374-10.31553,23.72571-22.25633,46.6384-34.22483,69.53182-2.46766,4.72-4.68344,9.54972-6.70075,14.39973-5.51133,13.25024-16.99178,21.70562-25.31208,32.67372-8.51668,11.22747-20.46309,18.79639-31.64274,26.85209a48.88245,48.88245,0,0,1-30.90317,9.19836c-4.61013-.20935-6.07585.9133-7.77138,5.95314-4.592,13.64919-6.05475,28.49495-14.64243,40.7443-3.048,4.34786-5.48254,9.20373-9.73344,12.51849-6.13428,4.78364-8.77333,12.42576-14.64023,17.37777-10.23893,3.95818-19.8005,8.7572-24.4282,19.68211a11.46373,11.46373,0,0,0-5.55341,2.32216c-5.34629.52582-11.61536-1.15364-14.20977,5.94826l-.047.012c-6.92728,1.07995-13.811,2.30313-19.92577,6.05684l-.00317-.009c-12.09048.99381-24.1779,1.41935-36.25446-.19277-9.69917-1.72362-19.76367-2.35924-28.99979-5.46172-10.28589-3.45481-21.10362-4.503-31.23179-8.78624-11.98386-5.06791-25.20985-6.33891-38.04623-7.57038-16.5546-1.58747-32.54687-6.06173-48.98631-7.9503-13.52521-1.554-27.05627-3.12248-40.62051-4.25733-23.17193-1.93883-46.11367-6.99039-69.51113-5.7777-22.21706,1.15119-44.1388,3.57047-65.225,11.90921-10.33981,4.08922-21.8782,5.00007-32.34218,9.29767-17.87955,7.34321-36.85668,11.06179-55.24818,16.71286a48.44448,48.44448,0,0,0-11.74429,5.38682c-16.38676,10.47326-35.16006,15.18151-52.81919,22.58377-16.53495,6.93086-33.63261,12.26619-50.1539,19.24194-13.36163,5.64107-26.59872,11.73256-40.87728,15.38574-11.161,2.8558-21.58886,8.35144-32.90463,11.32142-13.79479,3.621-27.32561,8.26578-40.92242,12.61877-21.49029,6.87986-42.88032,14.07838-64.425,20.78134a293.5564,293.5564,0,0,1-60.51262,11.95533c-14.56278,1.33566-29.17751,2.11183-43.77292,3.07832a35.91562,35.91562,0,0,1-7.95624.02586c-34.42384-5.50955-69.06383-9.91255-102.69418-19.57085a37.92041,37.92041,0,0,1-7.39867-2.94754c-16.08833-8.6169-33.00033-15.47968-49.391-23.43851-3.3255-1.61456-6.7942-2.57373-10.14781-3.95673-21.0505-8.682-40.02354-20.19378-55.3268-37.52617-8.836-10.00746-20.67614-16.53181-31.75-23.79182-3.125-2.04864-6.18863-3.60268-7.61385-7.361a9.847,9.847,0,0,0-3.19382-3.722c-18.95639-15.15174-31.85425-35.49535-45.785-54.75559-10.32206-14.27114-16.14224-31.23972-21.90766-47.87719-8.7898-25.36563-16.32972-50.88963-19.60142-77.892-2.54708-21.02193-2.91357-42.34935-7.53389-63.15777-1.20169-5.41195-1.55208-11.27335.32294-16.81193,1.2156-3.59072.84722-7.2444.83648-10.88758a91.82687,91.82687,0,0,1,3.05958-23.64445c2.3352-8.95192,3.78957-18.14467,5.38917-27.27471,1.94095-11.07839,3.75858-21.98231,8.37152-32.57294,4.17412-9.58339,5.0339-20.49781,7.53926-30.78417a143.59045,143.59045,0,0,1,7.50528-23.561,76.96514,76.96514,0,0,0,4.19815-13.27879c2.14082-9.2313,5.83225-17.57151,12.70135-24.26763,8.35853-8.14842,14.12816-18.46577,22.23383-26.774,18.53342-18.997,36.95091-38.153,58.3868-54.01456a59.22842,59.22842,0,0,0,11.5715-10.89587,106.02389,106.02389,0,0,1,14.72623-14.87456c1.74658-1.48841,3.77414-2.53249,5.06195-4.67775,7.30878-12.17591,17.03465-22.57353,25.29762-34.05355,7.26461.3316,4.76224,5.34876,4.48956,9.313-.90516,5.10158-5.84031,7.95542-7.70076,13.88319,22.96211-10.66676,47.667-11.928,70.47685-20.61323,18.4262-7.016,38.56075-7.33516,58.07447-8.89824,39.09557-3.13126,78.17455-7.53451,117.44419-7.12166,17.87918.18764,35.80893,2.25945,53.60175,4.43057,29.22155,3.56511,58.375,4.14339,87.50387-.25717,21.7306-3.28353,43.65064-4.67824,65.47906-6.92671,9.78272-1.00772,18.59253-4.96225,28.03187-6.94184,12.63585-2.65009,24.985-6.66708,37.6853-9.395,8.68709-1.86563,16.32722-6.782,23.19912-13.08823,8.10268-7.43593,18.94993-11.003,28.65983-15.71172a268.26356,268.26356,0,0,0,76.52172-55.18528c10.05912-10.39323,21.62374-18.731,33.7541-26.38287,14.08632-8.88531,27.19667-19.17875,41.00878-28.42395,24.77438-16.5833,53.08241-21.32351,81.33177-15.507,35.91536,7.3947,69.58639,22.28243,101.54031,40.58131a34.10067,34.10067,0,0,1,11.926,11.73158c19.20267,29.98824,41.534,57.82487,59.406,88.79205,23.66289,41.00123,45.35482,82.9714,65.82951,125.61013,9.22893,19.21876,18.99055,38.1757,29.727,56.57681a252.11667,252.11667,0,0,1,27.66764,68.31132c7.94094,33.07168,17.378,65.70294,27.05591,98.252a376.25752,376.25752,0,0,1,15.36614,113.31515c-.20957,14.96484.84642,29.93773-1.23884,44.90111-1.50524,10.80193,1.22139,11.5271,11.78113,8.25554,38.73164-11.9995,59.46578-42.60286,76.77044-75.48447,15.14352-28.7758,29.74362-57.99031,41.75066-88.35968,2.42571-6.13541,2.05513-13.25952,6.68515-18.5519,6.05889-2.03863,11.3337-5.10744,14.8443-10.7607C1667.668,2650.62683,1668.99428,2648.84123,1671.45866,2649.86018Z"/><path class="cls-3" d="M742.15807,406.99347c-7.353,1.80164-.575,4.224-.27934,6.36166-3.18064,2.616-6.35909,1.0331-9.39006-.19264-45.536-18.41551-87.83329-7.836-129.32346,13.59855-45.07939,23.28876-77.36259,59.87742-107.48582,99.38226-37.18481,48.7656-69.66183,100.77483-105.52468,150.42591-34.06308,47.15934-72.29893,90.4881-118.94931,125.75848-15.958,12.06519-34.1842,20.67374-50.52991,32.12533-34.91084,24.45795-69.869,48.86954-95.53178,83.99291a342.06734,342.06734,0,0,0-22.17854,34.39039c-18.72753,33.36534-40,65.20115-56.20018,100.121a402.7007,402.7007,0,0,0-33.799,114.42316,576.70212,576.70212,0,0,0-5.5769,77.523c-.16,31.96136,5.01325,63.60759,8.68707,95.31677,1.03241,8.9108,2.96824,17.72937,2.91478,26.77023-.68824,2.4466-.39494,5.68669-4.37148,5.51894-4.56625-19.4408-7.0355-39.21978-9.69864-58.97876a522.51169,522.51169,0,0,1-3.57949-108.49613c2.72044-36.86687,7.07252-73.58833,18.89546-108.81442,11.00338-32.78425,26.0661-63.82255,43.67363-93.59571,14.0256-23.71618,28.01019-47.45775,42.238-71.05242a187.53343,187.53343,0,0,1,12.6-17.90238c19.6694-25.35892,42.88471-46.79163,68.80278-65.88521,24.14332-17.7861,50.07224-32.66481,74.629-49.6731,18.59252-12.87735,35.34644-28.14622,51.54961-43.92767,36.36875-35.42214,66.21917-76.16517,94.66968-117.90414,19.63424-28.80484,38.429-58.22577,59.08557-86.28451,20.05678-27.244,39.85514-54.80829,63.19662-79.48042,29.04315-30.69883,63.14575-54.02315,103.18978-67.62982,17.84522-6.06361,36.56106-8.60135,55.81546-8.46691,16.74451.11688,31.93561,5.06553,47.42751,9.76811C738.90411,404.72907,741.12416,404.91384,742.15807,406.99347Z"/><path class="cls-4" d="M394.18636,2150.25154c-6.38294-14.25528-9.65208-29.57466-15.16359-44.14544-12.35609-32.66542-25.72815-64.85577-41.9598-95.82124-19.75006-37.67818-41.04-74.43745-63.46211-110.60381-25.22114-40.6811-53.16451-79.48267-80.10655-118.97439-14.5832-21.37622-30.242-42.01543-45.02242-63.26074-23.69973-34.06611-46.33256-68.81371-63.52789-106.75091-12.20513-26.92724-21.92342-54.85086-32.56211-82.40739a439.11674,439.11674,0,0,1-21.99774-79.5527c-1.1432-2.16478-1.1836-3.95245,1.62466-4.76717,5.27408,2.01252,5.8039,7.0642,6.78039,11.44585,11.06794,49.66438,30.062,96.59765,49.4741,143.35537,15.526,37.39709,36.47522,71.83286,59.85612,104.7468,36.06088,50.76385,72.15207,101.50988,107.237,152.949,29.29236,42.94665,55.37517,87.86167,79.89308,133.721a904.595,904.595,0,0,1,56.82271,128.65356c2.6224,7.51792,5.83366,14.92653,5.6652,23.15035C397.007,2144.93622,396.86218,2148.14191,394.18636,2150.25154Z"/><path class="cls-5" d="M394.18636,2150.25154c.84172-2.66205-1.042-6,2.01158-8.11353,4.40094,1.62041,5.44259,5.72842,6.41532,9.4836,6.073,23.4429,14.48111,46.38317,17.1079,70.58931,3.61343,33.29787,1.8879,66.27269-8.32645,98.48939a388.511,388.511,0,0,1-21.90113,54.44937c-1.93016,3.915-2.97535,9.22422-9.23942,8.76648.03842-2.90362,2.70876-6.53851-2.2381-8.05693,3.57263-8.92849,8.11891-17.38728,12.28515-26.02688,4.71693-9.78225,7.87324-20.369,11.15684-30.78,6.71789-21.29936,9.72776-43.2641,10.47252-65.52751a209.98079,209.98079,0,0,0-8.499-67.73035C399.92371,2174.07436,397.24136,2162.10707,394.18636,2150.25154Z"/><path class="cls-6" d="M32.64912,1444.47332c-1.73938.89707-1.64222,2.77063-2.26487,4.26148q-7.4826-34.19665-14.92668-68.402a71.60922,71.60922,0,0,1-.83816-7.82341c2.33511-1.52415,1.21932-4.27234,2.223-6.26876,4.61364,1.161,4.51011,5.35644,5.21629,8.703,4.09906,19.426,7.49979,38.997,12.31473,58.276C35.33757,1437.0802,35.78921,1441.1194,32.64912,1444.47332Z"/><path class="cls-7" d="M1445.45168,2955.59715c-.924-2.14843-4.134-2.113-4.76274-4.98616,4.43522-2.73477,8.8425-5.39414,13.18306-8.15818,1.63246-1.03945,3.98888-2.02033,4.5095-3.5429,2.44363-7.1468,6.74113-5.61008,11.49825-2.99487-4.695,7.76875-11.77234,13.04186-18.99494,18.17077C1449.23747,2955.25555,1447.59561,2956.28694,1445.45168,2955.59715Z"/><path class="cls-7" d="M1425.6885,2963.86757c-.23542-7.92491,1.05379-9.214,8.68039-8.073,1.90619.28524,3.68942,1.39447,5.52925,2.12476C1435.67359,2961.12549,1431.35853,2964.11548,1425.6885,2963.86757Z"/><path class="cls-7" d="M1369.45814,2969.73458q18.12783.0959,36.25507.19228C1393.60871,2973.44194,1381.52592,2973.0042,1369.45814,2969.73458Z"/><path class="cls-7" d="M1405.71577,2969.93637c5.56353-5.56933,12.39932-6.95208,19.9265-6.05733C1419.316,2966.93955,1412.42653,2968.14418,1405.71577,2969.93637Z"/><path class="cls-8" d="M32.64912,1444.47332c.64012-9.433-2.56092-18.36756-4.735-27.19418-3.87575-15.73552-5.78014-31.7969-9.466-47.52339a19.17994,19.17994,0,0,0-1.60584-3.51509c-2.68815-22.11541-5.24008-44.24852-8.09771-66.342a479.3827,479.3827,0,0,1-2.56553-91.62088A507.27947,507.27947,0,0,1,24.31779,1101.323c4.16871-14.71755,10.85468-28.54046,16.96512-42.54784,12.92787-29.63566,29.70526-57.14814,46.35033-84.74639,8.73872-14.4894,16.76-29.43216,25.93479-43.634,19.55269-30.26591,45.39291-54.37238,74.2573-75.74543,21.948-16.2517,45.136-30.44635,68.06016-45.15157,28.71027-18.4166,53.33175-41.76087,76.58137-66.55854,28.21814-30.09682,52.97208-62.90309,75.98159-97.102C429.01224,615.27341,449,584.25366,470.992,554.73957c19.80233-26.57552,38.801-53.88859,62.00762-77.86482,28.11006-29.04237,60.617-51.32841,98.16827-66.18656a66.17208,66.17208,0,0,1,15.42347-3.96654c14.119-1.89138,27.881-5.74672,42.37758-5.77094,16.09619-.027,30.70813,4.89247,45.33128,10.39232,2.49731.93922,4.79847,2.274,7.57878,2.01216,4.40069,2.60746,5.76236,5.19137,1.88362,9.96537-7.726,9.50928-14.38261,19.89361-22.19449,29.32548-6.2093,7.49706-11.00314,15.84428-15.74123,24.14758-4.84458,8.48972-10.12878,17.03763-9.33042,27.82145.32752,4.42368-1.76091,9.06574-2.95632,13.5536-1.88948,7.09384-3.49291,14.17342-2.84593,21.62241,1.12454,12.94268-.42632,25.84479-.84191,38.76417-2.3469,20.08472-2.2126,40.32023-2.65466,60.46113-.39253,17.88358-2.36057,35.79809-.6321,53.733.38326,3.977-.746,7.95987-1.77043,11.80209-6.51023,24.41721-11.80528,49.42776-21.74707,72.53681-8.4391,19.61587-16.36595,39.23485-21.81488,59.7811-7.74315,29.19658-17.29972,58.04375-19.01708,88.5411-7.52035,32.05859-8.58713,64.35179-4.19918,96.98561a689.584,689.584,0,0,0,41.51091,160.49547c8.68294,22.14983,19.97468,42.042,36.40693,59.43529,14.83272,15.70014,28.98832,32.09946,42.50853,49.00814,7.71613,9.64988,18.73122,14.66093,29.63519,19.70163,21.72767,10.04456,43.88544,19.13543,65.46856,29.49451,7.572,3.63427,13.72733,9.19811,19.96188,14.795a283.84241,283.84241,0,0,1,68.90721,93.2707c10.01326,21.74026,20.18327,43.42612,30.03515,65.24751,17.2089,38.11678,33.47563,76.78451,56.1412,112.25119,12.566,19.66284,21.40028,41.3554,31.85633,62.16066a471.84335,471.84335,0,0,0,31.1941,52.26567c3.35642,4.96384,6.74406,9.9278,8.00058,15.95244a374.94254,374.94254,0,0,0,36.33278,32.21877c8.90983,6.82069,16.29392,15.50994,24.59446,23.14108,13.72269,12.61609,29.20715,22.93929,43.29359,34.987,13.1739,11.26749,27.77022,20.43072,41.65747,30.63192a337.73053,337.73053,0,0,0,91.47032,47.488c15.06863,5.14672,29.78595,11.33,45.14074,15.65805,10.54718,2.97291,21.13631,5.379,32.25265,5.52126,15.64852.20008,30.97526,3.83326,46.52815,5.29507,13.8731,1.30418,27.702,3.08808,41.542,4.73167,36.423,4.3259,72.99062,1.25709,109.48233,2.105,18.23574.42383,33.99709-7.32345,48.93179-16.96028,1.66906-1.077,3.29054-2.23969,5.01816-3.213,13.263-7.47327,21.54567-19.44373,28.0637-32.5405,2.91741-5.86164,8.42606-10.3864,9.066-17.43388.13-1.43351,1.47474-2.07011,2.90875-2.2436,7.40519-.89743,8.27248-7.21755,7.51595-12.00071-1.9-12.01755,2.89533-22.40468,6.77724-32.81987,4.98755-13.38213,8.66551-27.19394,14.253-40.41222,3.15661-7.46815,7.29249-14.1134,11.39274-20.89444,7.728-12.78054,15.17829-25.76653,23.601-38.08042,14.886-21.763,33.07772-40.61425,53.13475-57.69848,10.35688-8.82174,20.53592-17.66191,28.71057-28.88462,5.98827-8.22126,13.94018-15.13906,21.603-21.98147,10.199-9.10771,19.43615-19.13726,28.89623-28.93879,12.69086-13.14849,24.86672-26.794,37.24263-40.24581a19.14337,19.14337,0,0,0,3.07927-3.88657c8.25516-15.89143,16.43811-31.60255,14.8226-50.6388-1.82532-21.50761-2.4201-43.1188-3.61234-64.68143-.485-8.76953-.54964-8.47526,8.43935-8.784,21.84917-.75018,38.9101,9.03586,53.84345,23.79513,12.0673,11.92666,23.5103,24.4538,32.99624,38.5173,9.62988,14.27688,19.82551,28.26108,26.84525,44.15581,4.04707,9.1631,9.65281,17.52819,15.60009,25.40955a147.06126,147.06126,0,0,1,17.352,28.739c5.80725,13.031,11.38811,26.15742,16.12778,39.62336.78727,2.23676,1.54086,4.93761.13077,6.77433-3.7897,4.93529-1.11076,8.17416,1.6682,12.33231,4.3269,6.47469,4.971,14.411,6.17027,21.91082,1.30666,8.1716,1.38033,16.53414,2.51792,24.74039,2.37789,17.151,3.18833,34.42576,4.63722,51.65225,2.37911,28.2767.64308,56.49312-.98146,84.70467-1.0322,17.921-2.73968,35.80266-3.82726,53.72114-.90729,14.94825-3.465,29.58979-6.4457,44.24206-4.90606,24.119-13.56595,47.0349-22.4315,69.79119-4.82482,12.384-7.58426,25.30366-12.1317,37.74748a293.87381,293.87381,0,0,1-14.00264,32.93992q-13.5801,26.59845-29.34194,52.01155a78.44529,78.44529,0,0,1-10.74552,14.26578c-5.58964,5.6535-9.63085,12.54995-13.40615,19.583-8.59817,16.01819-19.90187,30.21491-30.29681,45.046-11.786,16.81559-23.686,33.56237-35.05088,50.69346-12.97532,19.5584-27.34951,38.18863-41.13844,57.20584-7.38885,10.19023-14.431,20.66495-22.34,30.43623-9.90629,12.23837-19.05776,24.99549-28.12824,37.83312a6.94663,6.94663,0,0,1-.67089.73957c-11.64549,12.23837-20.79159,26.46389-31.13409,39.72267-18.56105,23.79427-37.27922,47.50655-53.45238,73.10692-7.96582,12.60852-17.1734,24.44234-26.00358,36.49161-10.78528,14.71766-18.95944,31.13138-29.97136,45.70143-6.78724,8.98046-13.3337,18.143-19.9631,27.24225a267.45568,267.45568,0,0,0-18.85051,29.12423c-4.73456,9.64952-7.34165,20.52782-16.08875,27.85933-2.55562,11.26846-7.13953,21.82957-11.317,32.53415-.722,1.84977-.92705,3.98381-1.95486,5.6191-11.674,18.57484-17.93139,39.821-29.0537,58.68987-3.15113,5.34582-5.23065,11.32824-8.15477,16.91758-9.9796,19.076-24.51542,34.54252-38.47634,50.44213a37.49825,37.49825,0,0,1-19.9437,12.18591c-4.66247,1.07507-8.907,3.91768-13.38079,5.87018-3.93875,1.71875-7.82773,3.67759-11.93177,4.85977-5.23943,1.50866-4.42485.23059-6.67978-5.64448-2.68369-6.99136.32252-12.97793.76031-19.23779,2.33214-33.35375.19846-66.52376-3.92754-99.52054-2.30384-18.424-8.12378-36.27322-13.27953-54.1568-6.89752-23.92481-14.33394-47.72518-20.214-71.90107-3.93326-16.17143-8.24637-32.13155-13.73977-47.82546a195.50811,195.50811,0,0,0-16.00556-35.33358c-21.92247-36.91275-39.61295-75.93514-58.49274-114.37436-4.83129-9.83618-10.05767-19.4957-15.488-29.01663-17.11815-30.01361-33.22971-60.65383-53.3659-88.83353-9.07621-12.70173-19.739-24.34083-27.00687-38.24183-7.67282-14.67545-21.95346-20.71082-35.42341-26.96921-18.62387-8.65326-38.071-15.60729-57.39443-22.6621a116.3993,116.3993,0,0,0-70.54174-3.40553c-7.716,1.98691-16.02983,3.83082-22.3222,7.59088-6.60342,3.94672-14.85333,6.63122-19.55959,13.96346-1.64686,2.56592-5.23077,3.915-7.983,5.7394-13.54326,8.97949-27.49028,17.41119-40.52341,27.07657-8.74918,6.48848-16.2427,14.67887-24.24487,22.16483-16.0241,14.99022-32.64261,29.01053-52.6434,38.76985-8.54377,4.169-17.51873,7.80291-25.213,13.73287a21.73278,21.73278,0,0,1-8.876,4.34152c-4.96657.90256-7.35934,3.99625-10.77394,7.31271-7.34238,7.13143-17.1473,11.22626-27.41026,12.873-7.24638,1.16242-14.15829,3.24473-21.192,5.137-19.81416,5.33-39.58124,10.94882-60.30477,11.89164-17.59814.80033-34.99037,3.54705-52.37919,6.28621-16.85028,2.654-33.87389,1.20219-50.81529,1.7429-14.76721.47117-28.95038-4.088-43.55085-4.40715-11.66043-.25523-23.12807-2.55762-34.70226-2.90313-13.90438-.41529-27.86482.14835-41.771.86816-32.19342,1.66579-64.21931,5.51223-96.35875,7.97371-17.35174,1.32932-34.83711,3.36991-51.45123,10.32833-9.97881,4.17877-20.88021,6.426-31.82022,8.06058a83.95278,83.95278,0,0,0-24.65442,7.65579c-3.51743,1.73192-6.89525,4.097-11.24283,3.10223,1.63387-7.89125,9.97338-11.51344,11.79-19.15361a13.594,13.594,0,0,0,5.58457-6.78128c8.25425-20.91067,18.59832-40.95634,24.63728-62.79519,6.60842-23.898,7.96844-48.20171,7.7862-72.75629-.15162-20.42485-4.62849-40.08232-10.17476-59.57827-3.4376-12.08367-6.71412-24.21322-10.12952-36.30348a21.21853,21.21853,0,0,0-1.75993-3.56388c-5.65088-23.6342-14.51112-46.21139-23.724-68.56532-14.94988-36.27445-33.10236-71.041-51.89-105.471-22.14295-40.57887-46.71088-79.65982-72.67841-117.86407-33.23343-48.89394-67.93459-96.76333-101.79116-145.22149-16.91307-24.20724-33.167-48.94579-46.23071-75.5268-9.81028-19.96089-18.88088-40.25666-26.8528-61.07119-9.02846-23.57333-18.038-47.15727-25.99736-71.09745-4.288-12.89717-6.80624-26.37946-10.21609-39.5737C35.65753,1453.25834,35.02765,1448.58571,32.64912,1444.47332Z"/><path class="cls-9" d="M1313.95477,1258.91257c5.94338-.69406,11.88445-1.4085,17.83064-2.07779,10.88323-1.22538,21.66375-2.73465,32.75483-1.11814a73.902,73.902,0,0,0,33.36755-3.07295c7.18429-2.284,14.88737-2.11915,22.29183-4.60882,26.84366-9.02658,50.15354-23.87832,71.961-41.46715a194.31071,194.31071,0,0,0,28.84316-28.86608c10.95557-13.5062,20.88784-27.85079,31.04394-41.98993,1.67248-2.32838,2.18809-5.47417,3.31385-8.21125,4.52987-11.01349,7.92495-22.42469,12.84309-33.34716,5.03438-11.18026,5.02865-23.7994,6.61147-35.87587,2.42985-18.53751-.20566-37.215,1.16272-55.82663.78311-10.6487-2.88631-20.92872-4.88911-31.28133-7.76138-40.12063-15.88163-80.16026-25.619-119.879-4.1754-17.03141-8.27931-34.20665-10.17611-51.74534-.54049-4.99678-2.07111-9.71277-3.51865-14.50484-3.06415-10.14416-6.35312-20.27217-7.51925-30.88037-.74933-6.81593-4.77725-12.33493-6.98583-18.54873-6.3375-17.83057-12.9264-35.61442-16.703-54.22732a204.84687,204.84687,0,0,0-7.23967-25.93611c-10.17171-29.54111-18.64253-59.60115-27.414-89.56407-1.48841-5.08444-3.51366-9.96129-4.97962-15.06208-4.93668-17.17549-7.47265-34.85527-11.77381-52.14983-1.31666-5.2944-5.64465-9.97642-3.19138-16.73837a41.33565,41.33565,0,0,1,11.13281,2.58727c15.29636,5.4907,30.73788,10.60985,45.862,16.53938,17.46506,6.84722,35.76825,10.10922,53.97263,13.89264,27.64142,5.74482,55.67219,9.58967,82.86276,17.566,8.2415,2.41763,17.02776,2.19748,25.59494,2.996,19.06777,1.77737,36.73836,8.66211,54.41969,15.47572,15.15292,5.8392,30.26631,11.82711,45.64,17.03141,11.56229,3.91408,21.54957,10.23957,31.056,17.54235,2.01829,1.55038,5.484,3.03635,2.14735,6.87815-1.58014,1.81915.86435,2.81919,2.24566,3.4506,7.18026,3.28225,10.75771,9.13,13.21562,16.42684,2.85532,8.4755,6.55987,16.67175,9.79382,25.03141,10.23661,26.46346,10.15513,53.11114,3.91558,80.28886-4.20638,18.3226-3.43107,36.73444-.78678,55.29495,2.45425,17.22654,6.04365,34.29651,13.32272,49.85146,5.79945,12.39283,11.91531,25.0488,20.46371,36.01666a78.876,78.876,0,0,1,10.22539,18.10367c2.30373,5.42866,5.43546,10.5167,8.34055,15.67684,6.36006,11.2986,11.29613,23.21586,16.47323,35.08481q6.96425,15.96738,12.75527,32.30748c4.20979,11.79782,9.765,23.01163,13.916,34.87582,4.03365,11.5287,8.20466,23.074,10.42227,34.92061,3.82506,20.43327,2.11148,40.86618-3.2181,61.12926-5.30762,20.17842-11.67671,40.21458-13.85943,61.04582-1.59209,15.19176-1.62673,30.54432-2.45132,45.81989-.75116,13.91478-1.27031,28.03562-.8324,41.73971.40742,12.74589.80093,25.74945,1.48646,38.58855,1.09733,20.563,3.87874,41.005,3.9529,61.64887.03586,9.92987,2.31763,19.84657,2.43034,29.7823.24957,21.9983,3.86532,43.70294,4.9468,65.62438,1.04538,21.17967,4.8902,42.16048,4.31592,63.494q-.29532,10.97823-.86948,21.93169a7.52133,7.52133,0,0,1-.29958,2.96266c-7.29225,13.69506-8.46692,30.81382-22.6679,40.64658-21.96944,27.55347-47.57121,51.6658-72.4006,76.51257a123.30411,123.30411,0,0,0-8.63525,9.65147,222.33386,222.33386,0,0,1-34.05869,33.42219c-20.50421,16.41384-34.82278,38.10238-52.89957,56.46664-2.616,2.65766-2.78286,5.832-4.41862,8.61251a189.26642,189.26642,0,0,1-15.37248,21.84812c-9.45008,11.85517-15.03143,25.51-20.92846,39.22149-6.67575,15.52238-9.2593,31.77665-11.07413,48.28419-.34008,3.09149-.41986,5.95826-3.41667,7.75631-1.91632,1.15022-2.11222,3.16738-2.62673,5.12232a115.6444,115.6444,0,0,1-23.84331,45.48183c-17.46335,20.644-39.77287,32.88844-67.27046,33.75366-29.57273.93087-59.17205.91354-88.71319-.90036-21.552-1.32322-42.99072-3.91671-64.44955-6.43017-14.772-1.72972-29.38366-5.30946-44.42691-5.19234-5.91594.04636-11.75015-1.75608-17.58972-3.21862-18.2827-4.57893-35.67677-11.77257-53.56754-17.38582-25.033-7.85391-47.82932-19.81119-70.247-32.93822-16.13218-9.44651-30.28047-21.619-45.35263-32.51658-16.93786-12.24667-33.534-24.96328-49.52278-38.44544-9.38482-7.91321-18.76183-15.80994-27.54383-24.43636a301.84267,301.84267,0,0,0-26.73729-23.90163c-6.41069-4.94761-10.67452-11.7827-16.97787-16.65113-3.05244-.92148-4.94777-3.11968-6.69624-5.666-17.36918-25.29939-32.86511-51.62358-45.2742-79.7701-9.42385-21.37524-23.08946-40.461-34.09979-60.96078-11.162-20.782-21.05044-42.28444-31.4899-63.44911-18.25281-37.00486-31.98929-76.103-52.41543-112.034-13.36151-23.50379-29.9566-44.21022-48.75527-64.02239-21.97054-23.15474-49.50253-34.9616-77.32289-46.0068-30.415-12.075-53.294-31.80886-72.915-56.8551-9.44068-12.05085-20.24267-23.041-29.50332-35.21486-10.70709-14.07558-18.34478-30.00276-25.31512-46.27191-14.39487-33.59885-19.4667-69.85463-30.33578-104.39032-7.42788-23.60175-9.47063-46.39525-4.92984-70.65215,3.63209-19.40273-1.3599-39.13621-1.395-58.76086.82288-36.26774,9.17818-71.16845,20.2445-105.39012,10.43258-32.2616,23.78335-63.54926,32.83565-96.295,1.99219-7.20652,7.02657-11.02752,13.73563-13.174,18.96213-6.06654,37.94792-11.91561,57.32661-16.70456,12.94763-3.19965,24.43039-1.55039,35.79374,3.65477,13.97629,6.402,25.929,16.25737,37.8191,25.6624,9.80651,7.757,14.387,20.53759,22.52421,30.19131a300.83738,300.83738,0,0,1,20.01518,44.47893c7.97339,22.38193,11.8087,45.71845,17.37016,68.63712,2.80092,11.54223,3.2259,23.68813,3.60453,35.68359.96474,30.57678,4.85068,61.00373,4.92875,91.62345.05867,22.95514-.66943,45.87711-3.60709,68.6944-4.13917,32.15-3.60916,64.28615-.21993,96.51395,2.1582,20.52027,5.58049,40.89608,6.93618,61.49613,1.17858,17.90822,10.43727,32.90124,17.75781,48.4573,12.89311,27.39792,24.01469,55.65827,38.84448,82.1163,17.08521,30.482,35.43341,59.86351,62.47431,83.17636,10.80406,9.3145,21.36221,18.85935,32.62346,27.693,17.88858,14.03264,38.67273,18.62,60.49591,20.55686a23.18892,23.18892,0,0,0,9.80578-1.57136c28.60627-10.1668,50.28466-28.21289,62.82317-56.235,13.87554-31.01048,24.754-63.11556,34.43232-95.66069,2.75822-9.27485,7.86677-17.64116,12.61779-26.01736,15.87834-27.99377,36.287-50.87658,68.89671-59.70881C1300.21073,1260.2974,1306.932,1258.78935,1313.95477,1258.91257Z"/><path class="cls-10" d="M1423.11374,467.92607c9.60646,6.58028,13.138,17.19159,16.24586,27.29166a480.32713,480.32713,0,0,1,12.61182,53.16811c1.65832,8.878,5.58207,17.63665,7.56853,26.6367,3.38508,15.33761,11.78552,28.78324,15.70231,43.86386,4.99853,19.245,10.79224,38.23951,17.184,57.0728,1.7836,5.25524,1.73969,11.06534,2.94949,16.607,3.8541,17.65508,12.16208,33.70011,17.54264,50.78837,3.09721,9.83594,4.52023,20.02628,7.40593,29.92608a514.11049,514.11049,0,0,1,11.93873,52.32235c2.47425,13.656,4.10464,27.6246,7.77455,40.91108,4.60038,16.65564,6.404,33.80747,11.37457,50.40089,10.792,36.0263,17.33515,72.8068,17.24305,110.70764a273.161,273.161,0,0,1-5.73552,56.16957,68.31334,68.31334,0,0,1-6.54072,17.69411c-2.36,4.50512-4.20858,8.4727-10.63037,8.62618-4.80237.1148-5.67758,4.159-1.32337,7.27563,3.53915,2.53334,2.77226,4.25855,1.40851,7.2766-6.46558,14.30787-15.34784,27.03778-25.02431,39.28506-5.74761,7.27477-12.05535,14.145-18.37418,20.81953-11.573,12.224-23.23231,24.61887-38.67127,32.47473-6.76626,3.44286-13.0263,7.88515-19.56507,11.7766-13.46825,8.01568-27.92734,12.01669-43.12344,14.48928-20.80781,3.38588-41.81348,2.39109-62.73547,3.23692-4.33543.17532-8.651.271-12.76941,1.84831-21.93187,4.73387-43.97779,8.90763-62.98663,22.22681-7.69551,5.39218-15.16658,10.74313-20.76427,18.4105-16.56362,22.68845-29.45917,46.8181-38.071,74.02863-9.3803,29.63774-18.19682,59.84241-33.96891,87.16786-10.99228,19.04442-25.76291,32.31589-46.82652,41.02027-24.13325,9.97306-45.23869,5.07156-65.49821-6.59536-36.02721-20.7473-64.05652-50.01781-87.14025-84.68978-18.43712-27.69267-31.63017-57.6398-43.75883-88.28831a190.85722,190.85722,0,0,0-14.57948-28.3971,127.61927,127.61927,0,0,1-17.9159-52.40037c-3.43473-29.72874-7.71966-59.48286-8.07158-89.33886a631.44684,631.44684,0,0,1,3.8724-74.59044c3.58171-33.432,2.94827-67.04679-.0061-100.48972-1.81507-20.54734-2.90851-41.12141-3.73578-61.68876-.42144-10.481-2.75139-20.34738-4.82519-30.42707-5.898-28.66686-12.93543-56.96136-24.62836-83.93582-3.4645-7.99214-7.064-15.79365-13.02851-22.27475a35.4162,35.4162,0,0,1-5.04621-8.57012c-6.196-13.36877-14.94323-24.35395-28.70289-30.578-10.01973-4.53214-16.87626-13.71006-27.66715-17.46018-21.966-7.6337-43.21943-4.517-64.57006,1.96488-7.9563,2.41549-15.50032,6.11382-23.62581,7.91327-7.82017,1.73173-9.89567-.29512-8.884-8.05522,3.95242-30.31916,6.77176-60.65895,6.45778-91.34113-.11893-11.627-.53464-23.89419,4.66954-35.08555l-.04416.11523c2.51158-9.27778-.93059-18.94651,1.8513-28.20654,2.355-4.67665,1.59672-9.75645,1.90168-14.69827.6915-11.20875.01878-22.6532,5.95728-32.936a7.24377,7.24377,0,0,0,.81178-3.85607c-1.00292-16.73678,7.08756-29.62755,17.47482-41.53828,4.57147-5.24194,9.25626-10.36262,12.01546-16.91185a8.12847,8.12847,0,0,1,2.9734-3.88469c8.09609-4.49474,11.67268-12.30095,15.43261-20.08837,1.66467-3.44756,2.445-7.73,7.16222-8.88964,1.27786-.31415,1.93107-1.639,2.40045-2.96748,6.30945-17.85857,18.97823-30.75752,33.85852-41.41207,8.01071-5.73574,17.32149-9.65513,26.04566-14.394,1.3524-2.29581,4.36678-.35374,5.85714-2.29776l5.81665-2.20425c2.4057-3.7295,6.4485-4.52146,10.26357-5.72219,10.87066-4.92865,21.66863-10.0262,32.62761-14.74994,21.27561-9.17054,42.33007-18.97708,64.04493-26.97568,30.77534-11.336,62.7273-17.22222,95.74135-15.96817,12.221.46424,24.45515.6401,36.66773,1.25541,14.971.75424,29.464,4.675,44.17466,7.15424,28.03016,4.72387,54.10925,15.60428,80.37948,25.81854,3.47461,1.351,7.62488,2.433,8.36055,7.46113a3.28792,3.28792,0,0,0,4.58561,2.61044c5.33238-2.23017,10.08938-.06832,14.18012,2.48064,11.58792,7.22012,24.2667,12.305,36.03978,19.113,22.10788,12.78456,42.39716,28.17683,62.50822,43.81774a42.56429,42.56429,0,0,1,12.51728,7.834c7.302,6.8981,15.93494,11.72207,25.11886,15.58991,7.36128,3.10016,14.39505,6.87785,20.34172,12.13809,10.56486,9.345,19.4692,20.6788,33.305,25.92757C1419.60057,461.85861,1421.27891,465.21655,1423.11374,467.92607Z"/><path class="cls-11" d="M1843.33374,796.91485a1.20793,1.20793,0,0,0-.04983-.2537c-7.93786-25.32763-15.31474-50.30252-7.94848-77.66531,8.83359-32.8128,3.64844-65.25-8.011-96.68183-2.86054-7.7115-7.16147-14.88921-10.824-22.301a9.96087,9.96087,0,0,0-1.3661-1.8961c-2.8476-3.11171.44012-8.2429-4.26142-11.21483-10.34713-6.54064-18.17511-16.77948-29.94038-21.27807-13.93189-5.3271-27.00358-12.70929-41.46926-16.78052-18.73817-5.27359-36.39974-13.78948-55.05228-19.1691-8.40665-2.42464-17.65961-3.11626-26.41587-3.80093a189.01375,189.01375,0,0,1-43.72821-8.80649,80.84683,80.84683,0,0,0-17.447-3.43414c-16.65132-1.48175-32.34339-7.27752-48.80687-9.29919a90.1567,90.1567,0,0,1-18.45469-3.93586c-11.89347-4.12088-24.44381-6.21855-35.82338-11.96979a69.98779,69.98779,0,0,0-13.87371-4.94541c-15.8741-4.14573-29.26284-12.94453-42.48484-22.11276a1.106,1.106,0,0,0-.53866-.19111c-7.4008-.61394-13.53544-4.25065-19.58181-8.18714-27.16167-17.68374-53.29625-36.91379-80.93339-53.87212-5.37-3.29509-9.0841-8.53354-14.60023-11.545a1.134,1.134,0,0,0-.30285-.10951c-2.62035-.56442-4.23159-2.57392-6.04063-4.3-1.56131-1.76094-4.00562-2.3702-5.523-4.18857a1.021,1.021,0,0,0-.23207-.20751c-15.85566-10.13554-30.09216-22.655-46.5506-31.8808-12.1095-6.788-24.98967-12.09465-36.96719-19.19613-6.12111-3.62934-7.31887-4.52586-6.42858-10.90361a57.06543,57.06543,0,0,1,2.08156-9.14166c10.46471-33.448,22.38543-66.35306,38.13186-97.71259a586.04283,586.04283,0,0,1,31.47-55.24624c7.75625-11.99623,18.34027-21.8652,28.88012-31.47815,11.293-10.29984,22.566-20.77817,34.87974-29.764a593.67235,593.67235,0,0,1,53.09827-35.10427c21.35844-12.32019,44.04744-21.745,66.27938-32.18389a30.07246,30.07246,0,0,1,7.45789-2.66594c15.00374-2.70076,29.61506-7.33974,44.85556-8.90167,21.79927-2.23412,43.49889-6.14238,65.5015-5.23259,22.29439.92187,44.13392,3.90843,64.52456,14.32345a273.12428,273.12428,0,0,1,52.91067,34.96006c10.81041,9.16319,19.27464,19.87707,27.99332,30.71829,9.35884,11.63727,19.239,22.80652,27.80548,35.12175,3.65625,5.25621,6.00291,11.04526,9.37957,16.332a285.84421,285.84421,0,0,1,22.47444,41.99292,467.46235,467.46235,0,0,1,30.08212,102.02094c1.33325,7.56514,1.85069,15.154,2.70456,22.74171a493.24231,493.24231,0,0,0,21.7101,99.08555c7.65428,23.30437,15.928,46.34986,25.017,69.08889,7.76284,19.42109,16.51788,38.50779,25.66911,57.26361,9.11634,18.68434,18.218,37.34415,27.04627,56.17a156.50511,156.50511,0,0,0,13.4003,23.05056c3.80823,5.43567,6.7726,11.21887,7.75625,18.04767,1.00537,6.98149,5.32275,12.60681,8.73942,18.66793,5.676,10.06938,9.36275,21.30313,15.39371,31.12077,13.53741,22.03673,20.72548,46.51639,29.28852,70.542,5.47717,15.36774,9.99411,31.0067,14.90285,46.53793a157.256,157.256,0,0,1,7.31908,43.14972c.514,18.29253,3.47084,36.44854,2.70724,54.81183q-1.07916,25.93965-1.63381,51.90041c-.44571,21.62449,1.28714,43.26178-.35643,64.88566-2.39228,31.48043-2.069,63.19242-8.08121,94.36346-.80214,4.16022-.42547,8.99425-6.30835,9.99807-1.62527.27743-2.24566,1.68409-1.16686,2.87238,3.04854,3.35819.57965,6.18055-.60112,9.13053-4.7997,11.99327-8.21125,24.55262-15.83406,35.3548-6.11294,8.66229-11.87749,17.50245-19.31831,25.18251-10.89116,11.241-22.86453,21.29289-34.41,31.80117-4.07489,3.70858-9.51522,6.02342-14.554,8.52846-3.43277,1.70654-5.72918.64233-5.63916-3.79447.21615-10.63894-.3818-21.34278.60917-31.90206.77946-8.30165.9939-16.57586.99658-24.848a153.43446,153.43446,0,0,1,8.39349-48.82831,182.373,182.373,0,0,0,8.43252-35.55915c2.22419-18.58289,5.13074-37.59876,1.29738-56.40711-2.7853-13.665-7.71283-26.77474-12.73941-39.74426q-10.58852-27.32022-22.3466-54.18255c-7.13318-16.27037-12.704-33.15129-22.52709-48.37191-12.44525-19.28348-25.01281-30.08783-36.87963-71.68995-.10315-.3616.0716-.7561-.148-1.06135C1841.12567,805.50839,1844.1321,806.18835,1843.33374,796.91485Z"/><path class="cls-12" d="M845.89817,767.05219c9.87421,9.075,12.781,21.91515,17.72049,33.557,4.37934,10.32162,7.05377,21.3728,11.52594,31.647,2.54781,5.85322,1.48,11.80588,2.88533,17.55979,2.75542,11.28177,5.30006,22.62477,8.44789,33.7971a77.99818,77.99818,0,0,1,2.42351,18.67c.53391,14.9291.78409,29.89272,2.06245,44.76386,1.44693,16.83243,3.04878,33.59946,3.53987,50.53229.52659,18.16089-.62039,36.2792-.02635,54.40362.30752,9.3827-1.9479,18.47016-2.7348,27.71536-.98585,11.58067-1.54147,23.19574-2.11344,34.76884-.58318,11.79856-1.8186,23.60663-.58989,35.53768,1.86862,18.14686,1.70955,36.56395,4.526,54.53477,2.86716,18.29655,2.22639,37.22312,9.33933,54.85684,5.49254,13.61649,13.59168,25.82644,20.22108,38.824,3.12515,6.127,6.84775,11.84223,7.77493,18.83836a13.6753,13.6753,0,0,0,1.39021,4.77632c11.70257,21.06109,18.529,44.52779,32.404,64.55626,11.73234,16.93564,21.98529,35.15338,36.46744,49.78833,12.91726,13.05346,25.60409,26.685,42.03744,36.00971,8.268,4.69129,15.11083,11.89445,24.15508,15.46894,13.40994,5.29983,27.45625,7.33834,41.812,7.50072.65845.00745,1.64662.10431,1.93047-.26449,7.21734-9.37966,19.84843-7.49414,28.71569-14.10279a98.59813,98.59813,0,0,0,25.84366-28.31866c10.11549-16.79326,18.24354-34.96428,23.00347-53.812,3.54012-14.01812,11.58059-26.0364,14.3615-40.10112a126.69182,126.69182,0,0,1,4.7509-17.25808c2.62881-7.5017,5.77347-14.82125,10.63464-21.24995,5.97424-7.90027,9.98472-16.98956,15.51337-25.22851,13.2771-19.78557,32.30241-31.14664,53.67012-39.54552a98.15721,98.15721,0,0,1,37.98024-6.68271,4.58915,4.58915,0,0,1-4.14356,2.088c-5.80994-.2462-7.04816,3.61024-7.472,8.22919-8.70039,4.25623-18.47774,4.87038-27.48162,8.39645-14.47336,5.66827-27.12678,13.58769-37.45146,25.20679-11.19989,12.604-20.13119,26.57783-27.82231,41.6554-3.83214,7.51256-5.57207,15.33365-8.48472,22.88659-10.50912,27.25127-18.22073,55.48161-30.0498,82.30149-6.56438,14.88335-16.42749,27.09585-25.95478,39.69644-3.0705,4.06091-8.028,7.06579-12.67976,9.47908-8.4779,4.39861-17.11291,8.49149-25.21681,13.57233-1.83593,1.15107-3.79359,1.1551-5.75187,1.23757a132.50651,132.50651,0,0,1-37.47842-3.80324c-17.15413-4.19365-30.14677-14.74646-43.56463-24.81188-7.569-5.67815-14.3709-12.5729-21.50555-18.62779-9.18355-7.79352-17.21621-16.72714-24.77755-25.51484-9.53827-11.08534-19.07581-22.82522-25.5137-36.37571a82.582,82.582,0,0,0-8.46179-13.36492c-4.85971-6.61658-8.06195-14.42657-11.65135-21.79456-10.15891-20.85368-19.04568-42.323-28.79717-63.38151-5.398-11.65716-11.73332-22.87646-16.41542-34.87827-3.29555-8.44806-4.57183-17.25577-5.44058-26.24405-1.33825-13.84658-3.57854-27.60691-4.87629-41.45629-2.25421-24.05621-5.10867-48.11632-4.5522-72.31819a386.35681,386.35681,0,0,1,3.16552-38.74166,450.782,450.782,0,0,0,3.8369-66.43032c-.34106-14.242-.31373-28.56363-1.4845-42.73157-.83728-10.13142-1.155-20.3874-2.9684-30.46489a54.525,54.525,0,0,1-.88778-10.89319,215.41674,215.41674,0,0,0-9.61182-70.62812,47.50465,47.50465,0,0,1-1.59941-8.81649c-1.85764-16.00929-9.06743-30.40829-13.52863-45.62884-3.49876-11.9374-10.89982-21.93809-15.41371-33.329C841.95429,770.344,842.98783,768.022,845.89817,767.05219Z"/><path class="cls-13" d="M625.99851,944.784c1.50463,25.52241,3.63326,50.96942-.9337,76.51965-2.53738,14.19574.03788,28.07173,4.83714,42.04568,5.91911,17.23454,9.66532,35.26891,13.53552,53.1342a279.89388,279.89388,0,0,0,8.558,31.66331c8.30749,24.25872,17.7311,47.97625,31.26,69.807,3.98352,6.42773,9.54767,11.8975,14.54362,17.67094,12.61194,14.5748,25.82622,28.66331,37.82716,43.72148,10.97886,13.7757,25.18753,22.3277,40.95669,28.80728,11.60316,4.76778,22.933,10.03772,34.10773,15.71965,5.55585,2.82481,11.61621,4.64359,17.24476,7.34225,12.33736,5.91483,23.71242,12.97769,32.32461,24.18064,4.39,5.71036,10.41019,10.20938,15.897,15.024a125.59911,125.59911,0,0,1,21.85429,25.73994c9.33517,14.1517,18.76659,28.21691,25.75156,43.717,9.11147,20.21916,20.32441,39.48135,27.39209,60.63589,3.061,9.162,7.519,17.68423,12.43982,26.01834,6.26065,10.60283,9.41837,22.6582,15.37151,33.489,8.47,15.41,15.537,31.61548,24.423,46.76552,8.38678,14.29872,17.33857,28.2651,24.81671,43.08489,3.29543,6.53057,6.33457,13.19009,9.56206,19.75568,11.413,23.21745,23.3583,46.117,38.97036,66.90294,2.73614,3.6427,4.74065,7.83488,7.08316,11.77331-2.67308,2.06925-2.09892,5.79905-4.17783,8.17184a245.66536,245.66536,0,0,1-22.7517-33.44366c-2.79836-4.83452-5.88227-9.55631-8.632-14.43658-13.54338-24.03742-24.15545-49.51261-37.00952-73.86991-4.18381-7.92785-10.36725-14.55529-14.355-22.68931-8.12208-16.56708-17.21-32.6143-24.73693-49.53652-5.1993-11.68925-10.56315-23.41875-16.67767-34.77774-8.4829-15.75907-13.43263-33.17563-21.63155-49.161-11.1361-21.71208-20.6945-44.16007-33.92293-64.88529-9.194-14.40462-19.21462-27.7316-31.80741-39.16989-7.141-6.48641-12.49935-14.64739-20.04715-20.78537-10.39982-8.45708-21.37588-15.75382-34.469-19.31819-10.06754-2.7405-18.81148-8.33447-27.9305-13.05894-10.2898-5.33106-21.68962-8.04606-31.62347-14.26212-8.23113-5.15062-15.968-10.72117-21.83611-18.5092-11.5795-15.36756-24.86367-29.27015-37.43268-43.78407-7.16526-8.274-13.80576-17.02726-21.81732-24.55555-1.4495-1.3619-3.30519-2.80724-2.99841-4.93883.97841-6.79519-2.6643-11.3435-6.95972-15.74772a9.96179,9.96179,0,0,1-1.801-3.49422c-7.06988-18.93047-14.54948-37.72454-20.98134-56.87035-3.683-10.96334-6.02956-22.427-8.30517-33.80015-3.76962-18.84019-8.16977-37.48993-14.56735-55.61959-1.01719-2.88275-1.9196-5.73232-1.62813-8.73683,1.55726-16.05138-2.63021-31.74115-2.8663-47.685-.33527-22.64063.96688-45.079,6.96119-67.047C624.924,931.4368,621.21767,939.52947,625.99851,944.784Z"/><path class="cls-14" d="M625.99851,944.784c-4.26993-2.22029-6.31225-5.59909-5.93112-10.53512a69.59676,69.59676,0,0,0-.25085-7.95737c.0419-18.4371,4.19979-36.21637,8.86786-53.87462,4.90356-18.54885,10.28535-36.97106,15.21812-55.51241,2.31476-8.70109,5.1424-17.35849,9.3073-25.13927,9.20734-17.20117,14.398-35.61808,19.15315-54.293,3.18882-12.52348,8.31212-24.51834,10.276-37.38166.34935-2.28818,1.05355-4.59442.96133-6.86668-1.05074-25.90879,1.989-51.73028,1.68236-77.591-.15077-12.7024.17113-25.06552,4.56963-37.07746.1282,1.85984.17748,3.72938.40095,5.57787.4817,3.98454,2.89058,4.24428,6.01548,2.98743.91814,5.31953.19,10.68964-.56038,15.85368-3.64747,25.10175-.43913,50.50472-3.636,75.59134-1.783,13.99152-1.20309,28.28108-6.51413,42.92616,18.3937-5.44745,34.75776-12.60321,52.33126-15.736a83.48141,83.48141,0,0,1,36.35448,1.26735c9.80017,2.53041,18.7433,5.49271,26.36172,12.42411,3.61062,3.28493,8.21624,5.54206,12.53924,7.96469,13.21623,7.40642,22.3849,18.36927,28.69935,31.95489,1.21931,2.62314,2.69589,5.12659,4.0539,7.68519-1.2958,2.13306-1.87314,4.78382-4.36252,6.057-6.21247-7.1973-11.93482-14.60366-16.4409-23.16182-2.88192-5.47313-6.87227-11.65648-15.00581-11.37167a4.42893,4.42893,0,0,1-3.333-1.83367c-5.665-9.72272-16.30393-13.20321-24.96052-18.60534a34.48156,34.48156,0,0,0-25.98992-4.17291c-17.53959,4.5275-35.90523,6.22337-52.39554,14.546-3.29763,1.6644-6.98522,1.88766-10.47582,2.78345-6.29407,1.61516-12.11816,3.71443-14.188,11.72383-6.7254,26.02444-16.0313,51.22537-25.6294,76.32292-9.58322,25.05843-15.98074,51.01407-21.60252,77.23456C628.0903,912.54378,627.35445,928.66287,625.99851,944.784Z"/><path class="cls-3" d="M1321.58,387.4974c12.22721,4.48743,21.9587,13.08969,32.62786,20.08588,23.77865,15.59247,46.74308,32.41556,71.00868,47.27939,3.82983,2.346,7.938,4.23744,11.91738,6.339-3.29384,1.16833-3.11916,4.82994-4.90167,7.00606-3.36751.56426-4.37373-2.78875-6.65221-3.73773-5.01316-2.08816-1.70809,2.22724-2.46608,3.45634-7.43032-5.82083-16.6495-8.80375-23.82037-15.04707-2.49475-2.172-5.53987-3.85443-7.59341-6.36587-9.04913-11.06716-20.63034-18.29289-33.74-23.5072-12.8659-5.11726-22.88636-14.25846-32.60321-23.76029,1.273-.55187,3.83165-.30293,2.31446-2.83145C1325.82238,393.33318,1323.62612,390.46037,1321.58,387.4974Z"/><path class="cls-15" d="M1653.26855,2663.77289c4.636-9.70637,8.65025-19.77215,16.08887-27.85933,3.98925,4.15339,6.79529,8.48514,2.09989,13.94613-3.29872,3.12932-4.65612,7.648-8.455,10.64114C1659.887,2662.95549,1657.03128,2664.19257,1653.26855,2663.77289Z"/><path class="cls-16" d="M846.04711,347.2286c-2.78787,3.04312-6.06427,5.2096-10.26308,5.72207-.59685-1.70087-4.91094-2.65864-1.51171-5.04284,2.1898-1.53592,3.78006-6.28455,7.70551-2.88263A10.77669,10.77669,0,0,0,846.04711,347.2286Z"/><path class="cls-14" d="M698.07587,559.02948c.37,9.46676.83178,18.93956-1.85179,28.20612q-.09331-11.43986-.18639-22.88061C696.02159,562.31569,696.26714,560.37222,698.07587,559.02948Z"/><path class="cls-3" d="M1309.7562,378.85335c2.43388.70706,4.63685,1.71557,5.62269,4.31156A5.05375,5.05375,0,0,1,1309.7562,378.85335Z"/><path class="cls-16" d="M829.96689,355.155c-1.646,1.547-3.47205,2.635-5.85714,2.29776C825.30626,354.75939,827.36041,354.25321,829.96689,355.155Z"/><path class="cls-17" d="M208.66742,2650.87206c-1.39467-10.02845,1.43766-18.5358,4.09483-26.26357,4.01212-11.66862,6.64373-23.65982,10.36481-35.3631,7.38556-23.22818,19.00781-44.38114,30.322-65.85056,13.6869-25.97174,35.66658-43.25166,57.772-60.71629,10.21722-8.0723,19.04782-17.56907,28.24193-26.64006,12.30107-12.13613,26.789-20.34458,42.19912-27.537,14.56948-6.79983,30.34407-9.06221,45.65343-13.08433,7.71265-2.02618,15.54673-3.62854,22.65832-7.45277a23.09547,23.09547,0,0,1,8.50827-2.59642c20.45932-2.33216,40.89546-4.66457,61.4931-5.74793,15.22257-.80057,30.36384-3.14347,45.54243-4.78828,15.23611-1.65141,30.55687-.65466,45.80859-1.40789,17.67883-.87328,35.22568,1.24562,52.63865,2.97755,14.05607,1.39763,28.06664,3.74322,42.23505,4.01211,15.59.296,31.18385.80057,46.73552-1.606,8.16562-1.26368,16.523-1.29321,24.79512-1.86124,17.58667-1.20781,34.716-5.808,52.42274-6.54826,11.28613-.4719,21.88832-5.389,32.81778-8.21894,9.312-2.41122,18.69853-4.38665,28.05529-6.54021,11.68294-2.68889,22.07971-8.91092,32.70153-14.37143,19.77062-10.16362,38.5183-22.06942,57.56679-33.47087a382.19975,382.19975,0,0,0,54.93164-39.27883c8.01657-6.97282,17.40078-12.14882,25.00822-19.73872,3.73078-3.72249,7.63245-7.35493,11.51912-10.95175,14.9159-13.80413,30.45587-26.71594,50.60267-32.45339a94.47353,94.47353,0,0,1,25.64971-3.18324c17.54923-.06149,35.38937-2.296,52.35846,4.3564,7.69905,3.01805,15.184,6.974,22.77707,9.78152,9.319,3.4453,18.28782,7.71776,27.62311,10.9742,7.24382,2.52663,12.78577,7.17071,18.04923,12.05683,10.071,9.34867,19.648,19.07919,27.85939,30.37743,16.78209,23.091,33.55857,46.16942,47.33567,71.17613,15.813,28.70187,33.32948,56.45945,46.617,86.58555,7.58134,17.18891,15.82406,34.21776,24.80732,50.68443,7.94691,14.56736,15.04033,29.571,23.22522,43.98781,5.616,9.89181,8.67063,20.79647,12.90494,31.21142,4.98205,12.25423,8.26138,25.189,12.70989,37.67525,6.5767,18.4604,10.961,37.52495,16.39773,56.2906,3.50279,12.08977,6.87775,24.26324,10.09828,36.41475,2.27336,8.5781,5.12331,17.06691,6.45461,25.963,1.26518,8.4544,4.1721,16.57695,5.08024,25.21875.69334,6.59779,1.79714,13.15508,1.99329,19.82314.54623,18.55679,1.544,37.10991,1.59416,55.66669.0222,8.236-1.53951,16.52181-2.913,24.69561-.63686,3.78958-1.29092,7.91833-5.15709,10.41788-1.87594,1.21293-2.67906,3.35575-.16455,4.69775,5.05621,2.69866,3.175,7.10947,2.24383,10.52914-3.3158,12.17835-6.14843,24.52481-11.16781,36.19588-3.75176,8.72378-10.27077,15.53092-16.855,21.75613-10.32322,9.76029-21.86039,18.24739-33.00124,27.12586-3.80177,3.03-9.5967,1.50158-13.19111,5.391-2.23249,2.41561-5.554,2.85067-8.31773,4.25172-11.85712,6.01146-24.738,3.54729-37.00172,5.91728-.70785-3.84912,1.88046-3.46165,3.54671-3.97747,6.32811-1.95884,12.55949-4.26392,17.82259-8.32532,15.88675-12.2596,20.3749-28.7614,16.75159-47.81692-3.9429-20.73547-12.1095-39.97692-21.67729-58.66912-8.77712-17.14768-16.76075-34.76188-26.51492-51.33372-11.588-19.68748-23.28695-39.51453-40.10661-55.50149-8.56231-8.13818-15.15316-18.15736-25.327-24.81225-18.29185-11.96582-36.90133-23.43583-56.80819-32.37433-12.29443-5.521-25.04347-10.02357-38.94719-11.39144-15.49653-1.52476-30.74313-4.861-46.45289-5.76111a173.27515,173.27515,0,0,0-67.37488,9.57607c-11.59755,4.00553-23.68912,6.19934-35.58064,9.1359a134.49633,134.49633,0,0,0-36.01306,14.28163c-21.54678,12.6583-44.78383,20.69594-68.47332,28.37027-15.33979,4.96909-31.19495,6.32037-46.42788,10.87928-7.43118,2.22383-15.18659,1.63457-22.75768,2.7111a316.72082,316.72082,0,0,1-100.30464-1.95006c-10.44629-1.84855-20.65534-5.07595-30.92623-7.84561a14.06253,14.06253,0,0,1-5.1588-2.8492c-3.166-2.66352-6.0417-5.11354-10.55705-2.3734-1.685,1.02236-3.81116-.49215-5.73821-.95917-15.97763-3.87133-30.2701-11.58738-44.60233-19.26512-21.01616-11.25846-41.5214-23.583-63.82085-32.24525-20.37564-7.91443-41.01354-15.1515-61.42937-22.96516-23.89325-9.14443-48.126-17.22111-72.42335-25.22533-16.053-5.28824-31.67549-12.06708-48.35256-15.12125-26.92057-4.9298-53.72464-6.39014-81.14667-1.06213-17.185,3.33818-34.24416,7.47473-51.54339,10.44008-17.86717,3.0627-36.06594,5.805-52.56009,14.62934-9.05779,4.84562-18.95133,8.011-28.82932,10.9437C222.35205,2642.7168,216.03328,2647.01464,208.66742,2650.87206Z"/><path class="cls-10" d="M410.20277,2609.16078c19.62564.842,37.56557,5.55737,55.57381,10.342,15.471,4.1102,29.12293,12.36842,43.98474,17.77573,16.48391,5.99731,33.12688,11.543,50.06754,16.08359,21.28025,5.7045,41.01494,15.26642,61.22657,23.68935,22.05934,9.19274,42.92491,20.87211,64.78017,30.49356,7.79774,3.43261,14.87932,8.4932,22.28525,12.81495a65.29232,65.29232,0,0,0,16.6229,6.53533c23.06665,5.98047,45.83384,13.575,69.47149,16.78338,38.70956,5.25457,77.569,5.3102,116.1082-1.78829,25.09287-4.62138,50.302-9.22129,73.89194-19.59476,13.55472-5.96046,27.82487-10.05846,40.49975-18.365,11.38249-7.4596,24.92234-11.34435,37.83118-15.08171,19.06642-5.52,38.48585-10.015,57.66083-15.32792,14.929-4.13606,30.0709-3.88206,45.49767-3.069,15.693.8274,31.06321,3.48653,46.47411,5.75672,13.76868,2.02838,26.77108,7.465,39.496,13.23853,22.54945,10.2317,42.35617,24.78564,61.56177,40.03719,13.03009,10.34809,23.47151,23.29821,33.09053,37.05012a346.79165,346.79165,0,0,1,28.01235,46.94364c6.36861,13.08628,10.2837,27.343,17.90554,39.82662,5.60244,9.17615,9.40055,19.03673,13.13121,28.99637,3.5206,9.3982,4.18869,19.41323,5.21076,29.15449,1.60356,15.28595-8.22344,30.17832-22.57263,36.05728-6.73442,2.75917-13.87492,4.57381-20.91394,6.518a18.18042,18.18042,0,0,1-7.89312.62684c-18.85307-3.55144-38.168-4.10288-56.75232-9.65611-10.45117-3.123-21.43455-4.62211-32.26533-6.284-26.26132-4.02968-52.437-8.80039-79.00975-10.44764a509.49468,509.49468,0,0,1-51.46179-5.69035c-19.50933-3.21594-39.07526-.578-58.619,1.7163-12.6883,1.48963-24.477,5.63423-36.507,9.26644-23.50481,7.097-46.90141,14.60762-70.60139,20.9863-18.47018,4.971-35.17164,13.50937-51.78954,22.47935-1.45572.78544-2.73432,2.10524-4.27018,2.5054-22.57824,5.88311-43.06927,17.43828-65.5165,23.827-11.75161,3.34476-22.6751,9.49238-34.24166,13.62014-20.90918,7.46229-41.26238,16.45642-63.08983,21.42527-13.85651,3.15444-27.42258,7.7768-40.88606,12.417-16.88822,5.81992-33.95916,10.90052-51.15537,15.72393-10.21709,2.866-20.19065,6.4858-30.69873,8.46245-17.33472,3.26084-34.83583,4.66262-52.387,5.87433-35.97433,2.48369-70.98855-3.998-105.67019-12.08245a181.99714,181.99714,0,0,1-40.26379-14.35167c-14.19384-7.10263-28.95447-13.188-43.26-20.15206-16.15951-7.8666-31.00924-17.98143-45.57311-28.38515-13.46117-9.61584-26.20784-20.23112-39.30166-30.364-2.72547-2.10915-7.07329-2.75014-6.41679-7.75461.08588-.65416-.90058-1.84977-1.6507-2.155-17.88-7.28173-25.61275-24.32839-37.04965-37.91389-10.69-12.69832-15.4855-28.45152-23.86118-42.29347-12.0221-19.86805-18.3199-41.98481-24.65307-63.97444-3.08824-10.72288-3.40905-22.2107-5.69338-33.20442-4.67076-22.47837-3.66009-45.68338-9.02821-68.05048a11.18354,11.18354,0,0,1-.411-3.95185c2.35026-17.74792,2.63075-35.78986,7.7493-53.15616.85362-2.89653,2.99731-3.14322,4.96443-4.19145,17.59979-9.37989,36.99421-14.49318,54.86089-23.35092,13.78625-6.835,29.179-9.018,44.16185-12.07611,16.58473-3.38576,33.27881-6.243,49.841-9.73A226.83681,226.83681,0,0,1,410.20277,2609.16078Z"/><path class="cls-18" d="M1058.69355,2243.21626c-9.96459,11.9097-13.14158,14.25113-23.88843,18.09244C1042.06979,2252.59444,1050.60685,2248.221,1058.69355,2243.21626Z"/></g></g></svg>