<svg xmlns="http://www.w3.org/2000/svg" viewBox="0 0 3478 1809.27019"><defs><style>.cls-1{fill:#fff1d0;}.cls-2{fill:#2da7d4;}.cls-3{fill:#f0b708;}</style></defs><g id="Layer_2" data-name="Layer 2"><g id="Layer_1-2" data-name="Layer 1"><path class="cls-1" d="M0,1133.54276Q0,567.06094,0,0H822c.028,5.26693-.51227,10.60969.17926,15.78809,3.67731,27.53667,1.9754,55.18956,1.99683,82.79562a33.9507,33.9507,0,0,1-3.051,14.42448c-5.27374,10.86087-12.4732,20.7474-22.39282,27.663-16.05621,11.19382-32.59454,21.73856-49.309,31.93559-17.3,10.55429-35.55517,19.60109-52.48157,30.696-22.05194,14.45465-41.09295,32.68907-59.28411,51.73084-22.30561,23.34859-45.24378,45.922-70.49085,66.24513-21.22211,17.08317-40.32037,36.80492-61.56341,53.85938-31.08054,24.95231-63.05146,48.81359-94.98206,72.68662-42.7713,31.97816-72.04315,73.19036-86.61276,124.60083a171.43738,171.43738,0,0,0-4.52039,24.50764c-2.72488,20.83754-4.23544,41.9179-.98282,62.66289,3.86026,24.62062,9.63569,48.94614,14.75684,73.36274,4.104,19.56706,8.167,39.08812,5.65442,59.29524-2.34094,18.82724-4.97369,37.64094-6.48926,56.53981-.95215,11.8729-5.39337,21.67577-12.491,30.87805-16.479,21.36577-37.74158,37.56907-59.14762,53.23432-19.54182,14.301-40.6801,26.446-61.3491,39.16066-3.44265,2.11786-8.57586,1.48091-12.034,3.58492-3.69676,2.24928-5.85271,6.98192-9.51125,9.3484-31.36781,20.28985-61.41367,42.14462-87.9796,68.65334-20.71953,20.67489-41.98329,40.82826-63.55781,60.61117C18.38378,1121.576,8.83192,1127.16716,0,1133.54276Z"/><path class="cls-2" d="M0,1803.27261q0-330.86647,0-661.73308c1.2668-.36642,2.81033-.389,3.75824-1.15139,11.38408-9.1567,23.289-17.78091,33.86362-27.80311,18.31935-17.36251,35.82954-35.57989,53.62621-53.49112a460.33655,460.33655,0,0,1,92.0682-71.46647,19.31543,19.31543,0,0,1,13.30486-2.47117c7.8531,1.06243,15.847,2.02335,23.73334,1.73147,26.98738-.99886,53.89917-1.15358,80.73611,2.55482,7.26968,1.00454,13.06677,4.17684,18.45547,8.99955,13.50547,12.0871,22.989,26.04711,26.65445,44.39761,3.80033,19.02553,4.17591,37.93636-.59729,56.32409-3.97607,15.31682-10.701,30.00449-17.09274,44.58345a266.27176,266.27176,0,0,1-16.29922,30.805c-11.5279,19.03517-23.66773,37.69927-35.49045,56.5569-7.23755,11.54429-15.87427,22.50886-21.20914,34.88534-10.53239,24.43424-17.133,50.143-22.1557,76.42291a559.76792,559.76792,0,0,0-9.48009,94.22237,206.65832,206.65832,0,0,0,9.87018,66.80935c7.54981,23.90442,11.99814,48.41065,17.08206,72.8167,1.69159,8.12063,3.39925,16.41574,3.5111,24.65278.293,21.58028.74,43.10407-4.29241,64.52328-5.59063,23.79473-11.713,47.14029-25.49878,67.7405-5.7451,8.585-11.24466,17.54005-20.42846,22.89714-22.96361,13.39535-45.07578,28.6885-71.36953,35.20406-11.23145,2.78306-22.69834,5.47057-34.185,6.19611-25.21306,1.59262-50.58968-.04576-75.70464,4.17166C15.3611,1802.9107,7.6267,1802.77123,0,1803.27261Z"/><path class="cls-3" d="M3478,457.81533V1535.38067c-13.12256-3.3047-25.58936-9.1517-39.31421-10.12909a6.806,6.806,0,0,1-1.94751-.43354c-24.47168-9.48324-49.27978-18.20311-73.28442-28.75025a92.82776,92.82776,0,0,1-39.7732-33.86622,607.11712,607.11712,0,0,1-31.48852-53.21315c-7.32227-13.89577-11.7229-28.84579-8.259-45.21748a510.61727,510.61727,0,0,0,10.19531-83.11979c.85181-19.08056.24316-38.085-3.94727-56.52859-5.91748-26.0448-16.48071-50.57921-29.59936-73.8612a99.13991,99.13991,0,0,1-12.29029-40.77372c-3.064-35.80977.3357-71.19479,9.07422-105.97153,2.40918-9.5886,6.60328-18.83652,10.83155-27.8404,11.49145-24.47206,28.68286-45.45041,42.81323-68.3215,11.51489-18.638,24.45-36.39694,36.67529-54.59962,10.56934-15.73742,21.69019-31.15613,31.36426-47.43039,12.0498-20.26978,23.66089-40.88689,33.94971-62.08714,7.66235-15.78843,13.675-32.50086,19.03393-49.24576,4.94556-15.45342,9.57739-31.30866,11.5564-47.33137,2.35425-19.06494,2.5686-38.51681,2.12109-57.764-.32983-14.18044-3.135-28.3114-4.98193-42.44553-1.16187-8.89137-2.84766-17.71911-3.84863-26.62585C3434.45142,498.206,3454.67651,466.781,3478,457.81533Z"/><path d="M0,1803.27261c7.62668-.50138,15.36108-.36191,22.86037-1.62129,25.115-4.21742,50.49158-2.579,75.70464-4.17166,11.48667-.72554,22.95356-3.413,34.185-6.19611,26.29375-6.51556,48.40592-21.80871,71.36953-35.20406,9.1838-5.35709,14.68336-14.3121,20.42846-22.89714,13.78577-20.60021,19.90815-43.94577,25.49878-67.7405,5.03246-21.41921,4.58544-42.943,4.29241-64.52328-.11185-8.237-1.81951-16.53215-3.5111-24.65278-5.08392-24.406-9.53225-48.91228-17.08206-72.8167a206.65832,206.65832,0,0,1-9.87018-66.80935,559.76792,559.76792,0,0,1,9.48009-94.22237c5.02275-26.27993,11.62331-51.98867,22.1557-76.42291,5.33487-12.37648,13.97159-23.341,21.20914-34.88534,11.82272-18.85763,23.96255-37.52173,35.49045-56.5569a266.27176,266.27176,0,0,0,16.29922-30.805c6.39172-14.579,13.11667-29.26663,17.09274-44.58345,4.7732-18.38773,4.39762-37.29856.59729-56.32409-3.66546-18.3505-13.149-32.31051-26.65445-44.39761-5.3887-4.82271-11.18579-7.995-18.45547-8.99955-26.83694-3.7084-53.74873-3.55368-80.73611-2.55482-7.88637.29188-15.88024-.669-23.73334-1.73147a19.31543,19.31543,0,0,0-13.30486,2.47117,460.33655,460.33655,0,0,0-92.0682,71.46647c-17.79667,17.91123-35.30686,36.12861-53.62621,53.49112-10.5746,10.0222-22.47954,18.64641-33.86362,27.80311-.94791.76239-2.49144.785-3.75824,1.15139q0-3.99833,0-7.99677c8.83192-6.3756,18.38378-11.96673,26.35707-19.278,21.57452-19.78291,42.83828-39.93628,63.55781-60.61117,26.56593-26.50872,56.61179-48.36349,87.9796-68.65334,3.65854-2.36648,5.81449-7.09912,9.51125-9.3484,3.45811-2.104,8.59132-1.46706,12.034-3.58492,20.669-12.71466,41.80728-24.85966,61.3491-39.16066,21.406-15.66525,42.66864-31.86855,59.14762-53.23432,7.09759-9.20228,11.53881-19.00515,12.491-30.87805,1.51557-18.89887,4.14832-37.71257,6.48926-56.53981,2.5126-20.20712-1.55045-39.72818-5.65442-59.29524-5.12115-24.4166-10.89658-48.74212-14.75684-73.36274-3.25262-20.745-1.74206-41.82535.98282-62.66289a171.43738,171.43738,0,0,1,4.52039-24.50764c14.56961-51.41047,43.84146-92.62267,86.61276-124.60083,31.9306-23.873,63.90152-47.73431,94.98206-72.68662,21.243-17.05446,40.3413-36.77621,61.56341-53.85938,25.24707-20.32316,48.18524-42.89654,70.49085-66.24513,18.19116-19.04177,37.23217-37.27619,59.28411-51.73084,16.9264-11.09495,35.18158-20.14175,52.48157-30.696,16.71442-10.197,33.25275-20.74177,49.309-31.93559,9.91962-6.91557,17.11908-16.8021,22.39282-27.663a33.9507,33.9507,0,0,0,3.051-14.42448c-.02143-27.60606,1.68048-55.25895-1.99683-82.79562C821.48774,10.60969,822.028,5.26693,822,0h8c-.10181,5.57333-.39636,11.151-.27069,16.7192.4505,19.95541,1.07568,39.90685,1.55011,59.86179.07892,3.32044-.666,6.68973-.34814,9.97043,2.05835,21.24636-8.19764,37.07747-22.40461,51.08875-13.123,12.94225-28.29956,23.09147-44.34814,32.07375-21.49109,12.0284-43.17883,23.7659-64.1109,36.71273-16.12738,9.97507-30.39056,22.58722-43.90643,35.99272-23.142,22.95311-46.02863,46.20179-69.97687,68.29255-19.29688,17.80019-40.02454,34.04834-60.07514,51.035-13.44641,11.39162-26.68026,23.03826-40.27322,34.251-8.95392,7.386-18.32983,14.26622-27.60049,21.262-18.0315,13.60694-36.43967,26.73766-54.09458,40.81417-16.16934,12.892-30.86111,27.53567-42.00116,45.09008-9.0592,14.2754-18.05023,28.78139-25.10147,44.09169-7.50921,16.30482-10.88641,34.079-13.35464,51.97146-4.66956,33.84939-1.13394,67.05023,6.74682,99.99062,3.32422,13.8946,6.99472,27.70653,10.30622,41.604,5.4743,22.9745,5.50424,46.12507,2.3807,69.44959-2.11843,15.81942-3.65527,31.7217-5.19027,47.61214-.77417,8.014-4.737,14.30014-9.53461,20.35092-24.96951,31.49206-57.08429,54.6128-90.0741,76.65817-8.27011,5.52645-17.13435,10.1585-25.64071,15.34079a28.77676,28.77676,0,0,0-9.57949,8.80267,50.11308,50.11308,0,0,0,7.39547,1.019c20.30175-.15124,40.60246-.60046,60.90368-.61309,12.99481-.00805,25.94,1.01668,38.46051,4.91489a21.05562,21.05562,0,0,1,6.333,2.86987c20.46457,15.2815,35.4079,34.06225,38.13348,60.56,1.74738,16.98826,2.51252,34.08244-2.1224,50.59775a265.427,265.427,0,0,1-14.42578,39.24565c-16.61673,36.04905-37.76859,69.47881-60.74292,101.79463-12.25748,17.24133-20.89948,36.38132-26.98218,56.48856-14.96,49.45247-21.2925,100.21446-20.78593,151.79449.194,19.75289,5.18145,38.80417,10.64015,57.71061,3.505,12.13951,6.91182,24.34686,9.48507,36.70626,3.52153,16.91371,7.07316,33.90185,9.03678,51.03849,2.46264,21.49207,2.6402,43.06979-1.91138,64.54794-3.6607,17.27453-7.22322,34.47-14.1241,50.849-6.50412,15.43725-14.413,30.07063-25.104,42.91457a60.82186,60.82186,0,0,1-16.05836,13.15c-26.80124,15.582-54.255,29.83794-84.733,37.07965a32.3403,32.3403,0,0,1-7.84819,1.26645c-36.37787-.62389-72.54654,2.23445-108.64813,6.29922Z"/><path d="M3478,457.81531v-3.99842c-11.2207.66895-18.42407,7.84864-25.616,15.37452-17.16894,17.96655-25.50366,38.146-19.803,63.58325a386.15664,386.15664,0,0,1,7.68824,52.13232c1.89062,22.58679,1.24438,45.36157-3.14405,67.63959-3.84668,19.52808-7.8125,39.20245-17.49682,57.05536a55.9517,55.9517,0,0,0-4.90918,11.99927c-6.38672,23.7564-18.60889,44.9671-30.89136,65.73547-17.76343,30.036-37.83642,58.71387-57.102,87.85345-16.09131,24.3379-32.76758,48.29474-48.5769,72.81177-14.85962,23.04407-27.80762,47.01581-30.34839,75.16242a9.95663,9.95663,0,0,1-1.283,4.57892,9.15965,9.15965,0,0,1-.15625.96136,7.25781,7.25781,0,0,1-.0249,4.0647,34.95584,34.95584,0,0,1-1.27906,3.33709c-.0188.22089-.05371.43934-.08911.65754a9.38144,9.38144,0,0,1-.04687,1.23413c.05053.0589.09472.11206.15088.17608-.82447,7.43891-1.93311,15.60761-2.6023,23.812-2.2417,27.47967-1.27685,54.68035,9.59229,80.53076,4.76391,11.32965,10.68676,22.17138,16.04882,33.25128,14.58887,30.14453,22.86548,62.05389,21.31055,95.43548-1.24951,26.83045-4.783,53.68634-9.28784,80.194-3.98853,23.47065-1.22363,44.92121,10.81177,65.34534,6.07519,10.30994,11.88281,20.77777,17.78442,31.18933,11.53076,20.34174,26.62988,37.30646,46.83618,49.42084,20.7,12.41052,43.74756,19.4397,66.12256,27.76532,18.25879,6.79376,37.50366,10.93976,56.31128,16.25976v-5.99755c-13.12256-3.30469-25.58936-9.15174-39.31421-10.12909a6.80736,6.80736,0,0,1-1.94751-.43354c-24.47168-9.48327-49.27978-18.20312-73.28442-28.75024a92.82788,92.82788,0,0,1-39.7732-33.86621,607.1165,607.1165,0,0,1-31.48852-53.2132c-7.32227-13.89575-11.7229-28.84576-8.259-45.21746a510.61736,510.61736,0,0,0,10.19531-83.11982c.8518-19.08056.24316-38.085-3.94727-56.52856-5.91748-26.0448-16.48071-50.57923-29.59936-73.86121a99.13987,99.13987,0,0,1-12.29029-40.77368c-3.064-35.80981.3357-71.19482,9.07422-105.97156,2.40918-9.58862,6.60327-18.83654,10.83155-27.84039,11.49145-24.472,28.68286-45.45044,42.81323-68.32153,11.51489-18.63794,24.45-36.39691,36.67529-54.59961,10.56934-15.73743,21.69019-31.15613,31.36426-47.43036,12.0498-20.26978,23.66089-40.8869,33.94971-62.08716,7.66235-15.78845,13.675-32.50085,19.03393-49.24573,4.94556-15.45343,9.57739-31.30871,11.5564-47.33142,2.35425-19.06494,2.5686-38.51684,2.12109-57.764-.32983-14.18042-3.135-28.3114-4.98193-42.44543-1.16187-8.89148-2.84766-17.71924-3.84863-26.626C3434.45142,498.20605,3454.67651,466.781,3478,457.81531Z"/></g></g></svg>