<?xml version="1.0" encoding="utf-8"?>
<!-- Generator: Adobe Illustrator 24.1.1, SVG Export Plug-In . SVG Version: 6.00 Build 0)  -->
<svg version="1.1" id="Layer_1" xmlns="http://www.w3.org/2000/svg" xmlns:xlink="http://www.w3.org/1999/xlink" x="0px" y="0px"
	 viewBox="0 0 1000 1000" style="enable-background:new 0 0 1000 1000;" xml:space="preserve">
<style type="text/css">
	.st0{fill:#fff;}
</style>
<path class="st0" d="M0,499.7c0-86.6-0.1-173.1,0-259.7C0.3,115.3,92.6,13.3,216.8,0.6c7.8-0.8,15.8-0.6,23.7-0.6
	c172.7,0,345.4-0.1,518.1,0c113.8,0.1,207.3,73.1,235,183.3c4.1,16.2,6.4,32.6,6.4,49.4c-0.2,178.5,0.1,357.1-0.5,535.6
	c-0.3,111.8-93.2,215.1-204.3,229c-13.3,1.7-26.5,2.4-39.8,2.4c-171,0-342.1,0.2-513.1,0.2c-115.5,0-209.5-74-236.6-186.1
	C1.8,797.7,0,781.2,0,764.4C0.2,676.2,0.1,587.9,0,499.7C0.1,499.7,0.1,499.7,0,499.7z M392.5,569.4c-0.1,0-0.2,0-0.3,0
	c0-53.7,0-107.4,0-161.1c0-26.4,6.7-34.9,32.8-40.1c79.1-15.9,158.3-31.7,237.4-47.4c26-5.1,32.7,0.5,32.7,26.7
	c0,68.7-0.1,137.4-0.3,206c-0.1,26.7-7.2,35.9-32.9,42.2c-26.3,6.4-52.9,11.5-78.1,21.7c-30.4,12.2-47.4,38.9-46.1,72.8
	c1.2,31.8,23,62.6,53,70c57.9,14.5,143.8-7.9,141.4-103c-0.8-30.8-1.9-61.5-2-92.3c-0.1-26.6,1.5-53.2,1.5-79.8
	c0.2-95.3,0-190.6-0.1-286c0-6.2,0-12.5-0.8-18.7c-2.9-22.9-9.1-27.5-32.1-24.4c-2.1,0.3-4.1,0.8-6.1,1.2
	c-52.2,10.5-104.4,20.9-156.6,31.4c-48.5,9.8-97,19.7-145.5,29.6c-27.8,5.7-34.4,14-34.8,42.7c-0.1,4.6,0,9.2,0,13.7
	c0,97.8-0.1,195.6-0.1,293.5c0,20,0.2,40-0.2,59.9c-0.4,18.7-6.8,27-24.6,33c-5.5,1.9-11.2,3.2-16.8,4.8c-22.1,6-44.7,9.9-66,18.6
	c-36.1,14.6-54.1,48.4-46.6,87.8c6.6,34.3,38.1,59.4,74.3,60.3c21.2,0.5,41.3-4.2,60.9-11.5c26.1-9.7,42.4-28.6,50.1-55
	c4-13.6,6.1-27.5,6-41.8C392.4,672.7,392.5,621,392.5,569.4z"/>
</svg>
