<svg width="28.57" height="28.57" xmlns="http://www.w3.org/2000/svg" focusable="false" class="external-icon">

 <g>
  <title>Layer 1</title>
  <g id="svg_1">
   <svg id="svg_2" preserveAspectRatio="xMidYMid meet" viewBox="0 0 28.57 20" xmlns="http://www.w3.org/2000/svg">
    <g id="svg_3">
     <path id="svg_4" fill="#FF0000" d="m27.9727,3.12324c-0.3292,-1.23001 -1.2959,-2.19662 -2.5259,-2.52587c-2.2271,-0.59737 -11.1618,-0.59737 -11.1618,-0.59737c0,0 -8.93458,0 -11.16177,0.59737c-1.23,0.32925 -2.19661,1.29586 -2.52586,2.52587c-0.59737,2.22718 -0.59737,6.87676 -0.59737,6.87676c0,0 0,4.6496 0.59737,6.8768c0.32925,1.23 1.29586,2.1966 2.52586,2.5258c2.22719,0.5974 11.16177,0.5974 11.16177,0.5974c0,0 8.9347,0 11.1618,-0.5974c1.23,-0.3292 2.1967,-1.2958 2.5259,-2.5258c0.5974,-2.2272 0.5974,-6.8768 0.5974,-6.8768c0,0 -0.0024,-4.64958 -0.5974,-6.87676z"/>
     <path id="svg_5" fill="white" d="m11.4253,14.2854l7.4224,-4.285l-7.4224,-4.28507l0,8.57007z"/>
    </g>
   </svg>
  </g>
 </g>
</svg> 