<svg xmlns="http://www.w3.org/2000/svg" viewBox="0 0 2884.14787 700.71729"><defs><style>.cls-1{fill:#fff;}.cls-2{fill:#ff9eb4;}</style></defs><g id="Layer_2" data-name="Layer 2"><g id="Layer_2_copy" data-name="Layer 2 copy"><path class="cls-1" d="M2676.02407,668.63q-1.39161,0-2.87793-.06054l-.36914-.01514-.36817-.02588c-16.06348-1.13427-48.31152-6.87939-73.14453-12.06982-23.21-4.85156-51.91309-12.07764-71.5625-18.0127-22.707-6.33447-34.89941-25.03711-32.6543-50.123,1.12989-13.68164,4.86426-35.57422,11.417-66.92237,15.62988-74.77783,34.01269-131.35351,44.99609-165.15674,2.04394-6.293,3.94629-12.14648,5.43652-16.93847-2.26953-.15381-4.60547-.22949-7.02148-.22949-6.42871,0-12.51172.52246-18.39551,1.02832-5.40527.46435-10.51172.90332-15.52344.9038a59.55707,59.55707,0,0,1-12.25488-1.14453,32.1825,32.1825,0,0,1-21.93164-15.82617c-2.874-5.1416-5.77637-13.77783-3.2793-25.72607,4.49805-21.51416,28.7959-94.75391,42.19531-124.88184l.85645-1.9248,1.165-1.75391c8.081-12.1582,20.042-19.23682,35.55273-21.03955a208.1997,208.1997,0,0,1,23.3545-1.106c20.43554,0,63.78808,1.89649,124.543,14.59522,62.18067,12.99707,111.47461,31.24463,135.24219,50.06347l1.10449.87549,1,.99414c19.47461,19.35791,16.90235,37.96631,12.56739,55.37012-8.90137,36.71-23.56446,83.958-34.11914,109.94092l-.40723,1.00049-.49121.9624c-8.75,17.1289-21.31738,20.72461-30.31934,20.7251a33.55094,33.55094,0,0,1-6.85937-.72217c-8.03028-1.67822-14.66406-6.0127-21.6875-10.60156-6.05371-3.95557-12.71387-8.30713-20.51465-11.25147a121.93387,121.93387,0,0,0-4.40234,15.81445c-16.8125,80.43409-18.19141,154.61084-19.01563,198.93018-.40723,21.86914-.65234,35.06934-2.45019,43.66846C2711.79164,657.16858,2696.92055,668.63,2676.02407,668.63ZM2559.99086,327.94934Z"/><path class="cls-2" d="M2581.61635,172.60529c26.21338,0,68.16968,3.35235,119.42578,14.066,59.47144,12.4309,105.38037,29.78576,124.83862,45.19256,9.88355,9.82446,9.59253,16.92578,5.9126,31.67389-8.67309,35.78632-23.16943,82.29279-33.00244,106.49725-2.57056,5.0318-4.95093,7.09736-8.05713,7.09736a8.50743,8.50743,0,0,1-1.7417-.19306c-9.1499-1.91241-24.69946-18.88965-50.43188-24.26831a18.80815,18.80815,0,0,0-3.84131-.43115c-6.30835-.00012-10.42261,4.033-14.25391,12.76324a145.0573,145.0573,0,0,0-7.66577,25.25458C2688.1769,508.05591,2695.757,611.6969,2691.3351,632.85486c-1.57373,7.52563-5.94458,10.77514-15.31128,10.77514-.5979,0-1.21484-.01318-1.854-.0393-12.93872-.91382-41.76929-5.74634-69.7898-11.6034-22.30151-4.66137-50.65429-11.78173-69.73755-17.561-9.60229-2.60388-16.07983-8.7323-14.68725-23.95874,1.15332-14.0824,5.48169-37.64728,10.97973-63.95209,21.8733-104.64587,49.395-173.49634,53.33912-192.36688,1.79321-8.57733.82031-15.34576-10.61622-17.736a115.37333,115.37333,0,0,0-23.78173-2.337c-13.55127,0-25.09668,1.93237-33.9209,1.93237a35.22349,35.22349,0,0,1-7.1377-.61547c-4.5747-.95636-7.40844-4.53266-5.85473-11.96637,4.18359-20.01422,28.17993-91.98853,40.5664-119.83753,3.48242-5.23987,8.44141-8.978,17.61743-10.04431a185.1489,185.1489,0,0,1,20.46973-.939m0-49.99994a232.68453,232.68453,0,0,0-26.24194,1.27319c-22.82666,2.65259-41.32251,13.73022-53.4878,32.03516l-2.33105,3.50744-1.71143,3.84784c-13.2229,29.73-38.61621,105.01471-43.82348,129.92682-4.07837,19.51312.97241,34.17529,5.92749,43.03967a57.6016,57.6016,0,0,0,38.63843,28.09906,84.1145,84.1145,0,0,0,17.36889,1.67334c2.06494,0,4.10767-.05829,6.12744-.15442a1472.22188,1472.22188,0,0,0-40.09033,150.432c-6.84106,32.7312-10.60962,54.94708-11.85181,69.87372-1.70459,19.16235,2.37916,35.91345,12.1399,49.78894,6.29175,8.944,18.043,20.73962,38.42505,26.49976,20.27124,6.11181,49.687,13.516,73.44433,18.48181,23.7793,4.97046,58.082,11.2362,76.49732,12.53674l.73584.052.73681.03028c1.31592.05395,2.6294.08129,3.90357.08129,15.24121,0,28.56225-3.98535,39.593-11.84521,8.88184-6.32861,20.36963-18.1792,24.65992-38.69592,2.27881-10.90332,2.54052-24.986,2.97412-48.31739.74731-40.20373,1.95971-105.47027,15.08252-176.91137a69.42051,69.42051,0,0,0,20.42944,8.02154,58.61727,58.61727,0,0,0,11.97119,1.2508c10.53418,0,36.74536-3.34723,52.58374-34.35132l.98316-1.92493.81347-2.00244c10.94336-26.93713,26.07935-75.648,35.23291-113.376,2.76-11.09173,5.02661-23.22473,3.05884-36.79706-2.29468-15.83007-9.58154-29.6593-22.27612-42.278l-2-1.98822-2.21094-1.75067c-36.56665-28.95264-106.94775-46.84577-145.64673-54.93463-62.95483-13.159-108.25561-15.12378-129.65576-15.12378Z"/><path class="cls-1" d="M2296.71059,603.87952a305.815,305.815,0,0,1-44.13672-3.4209c-67.33594-9.88672-115.71973-37.75-143.80566-82.81543-27.541-44.1919-35.42579-103.15527-24.10547-180.25879,20.58008-140.17188,45.39648-199.625,57.32226-228.19678q.95215-2.28148,1.76953-4.25537c6.93067-16.82959,22.69043-24.60351,35.2334-24.8418l.92676-.01757.92578.05127c12.8125.70752,38.38184,3.76074,68.39844,8.16748,25.15234,3.69238,47.31738,7.65039,59.293,10.58789l.12109.03027a35.44922,35.44922,0,0,1,19.41211,12.356,33.79237,33.79237,0,0,1,20.56641-6.83692c.71093,0,1.43652.02051,2.15918.06153,11.99511.56591,32.085,2.83105,55.16894,6.22021,26.84961,3.9419,51.25489,8.2168,65.28516,11.43555l.26465.0625c15.9082,3.832,26.50976,14.75928,29.86816,30.77881,6.23633,28.58007,9.40039,91.53808-10.81543,229.23-10.6123,72.28467-28.415,122.65576-56.02539,158.521C2402.28285,582.63586,2355.91176,603.87952,2296.71059,603.87952Zm7.53808-332.18994c-5.54687,26.06347-10.60351,52.22558-13.89355,74.63818-3.32812,22.667-4.169,37.22656-4.00879,46.5083,2.457-8.64209,5.38672-22.07031,8.44629-42.9043C2298.4391,325.089,2301.59535,297.986,2304.24867,271.68958Z"/><path class="cls-2" d="M2179.46205,105.0863c12.8855.71112,38.98023,3.95166,66.14551,7.94025,22.542,3.30933,44.99805,7.19666,56.96851,10.13342,5.69531,1.42688,9.14721,6.06678,7.55053,12.91779-5.2976,24.02124-33.8142,133.79156-44.50683,206.61853-9.07935,61.845-3.635,85.08179,16.01684,87.9671a23.55289,23.55289,0,0,0,3.42017.26117c16.37939,0,25.96558-19.43439,34.47-77.36127,12.1355-82.65289,18.82568-188.54242,19.9082-212.00152.50293-7.28424,2.82056-12.1322,9.19556-12.13281.27515,0,.55689.009.84741.02722l-.00195.00055c11.72925.54126,32.044,2.93347,52.85181,5.98858,24.27514,3.564,49.04419,7.7909,63.3269,11.06775,6.27319,1.51148,9.895,4.99524,11.27319,11.69257,4.9524,22.57391,9.35157,81.08435-11.09961,220.38043-18.30639,124.6814-61.592,200.29333-169.11743,200.29333a279.21666,279.21666,0,0,1-40.50537-3.15576c-120.22192-17.65112-167.42993-94.2558-146.8081-234.70752,21.30005-145.07635,47.38086-202.0636,57.47241-226.56183,2.75171-6.68151,9.04126-9.30078,12.59228-9.368m.90577-50.02612-1.85206.03516c-24.88134.47094-48.14111,16.67389-57.8789,40.31884q-.79174,1.923-1.72315,4.145a624.1727,624.1727,0,0,0-26.40161,75.25422c-12.64648,44.33569-23.60962,97.81066-32.58447,158.93957-5.79932,39.49854-6.74512,75.46985-2.81079,106.91455,4.29687,34.34174,14.53638,64.68891,30.43433,90.19818,32.15087,51.58838,86.45068,83.32471,161.39111,94.32764a330.859,330.859,0,0,0,47.76855,3.68591c67.36475,0,120.40088-24.5238,157.6355-72.89032,30.32446-39.39056,49.69214-93.45355,60.95166-170.13952,9.32007-63.48145,14.56616-117.32111,15.592-160.02344.78662-32.73694-.91845-59.00379-5.06811-78.081-5.32617-25.19153-23.41407-43.8075-48.45557-49.84089l-.26489-.0639-.26587-.06091c-14.63574-3.35785-39.77393-7.77045-67.24487-11.80365-11.26294-1.65363-39.28418-5.57367-57.426-6.4477-1.18018-.06573-2.3667-.099-3.53418-.099a60.262,60.262,0,0,0-16.771,2.34259,62.23071,62.23071,0,0,0-17.13232-7.11255l-.11865-.02979L2314.4894,74.6c-18.2937-4.4881-49.18628-9.218-61.61914-11.04322-14.74927-2.16559-51.1604-7.31878-70.65308-8.39447l-1.84936-.10211Z"/><path class="cls-1" d="M2036.01332,561.44543c-.37793,0-.75683-.00341-1.13965-.01025-18.80566-.12549-49.00781-1.99219-71.0498-3.70166-17.4209-1.35156-33.03418-3.2417-43.96191-5.32275l-.46387-.09278c-8.30762-1.7456-17.832-4.229-25.71289-11.647-9.38086-8.83008-11.61231-19.97168-12.50781-28.69141a447.76058,447.76058,0,0,0-16.7334-86.03906c1.90918,21.39844,4.251,42.00293,5.96386,57.06348,2.332,20.51416,2.81446,25.00049,2.49415,29.124-1.60059,20.63819-15.3877,33.62793-35.98145,33.90088l-.417.002c-15.42774-.05322-40.55567-1.31884-67.2168-3.38623-24.21777-1.87841-47.28906-4.32959-63.31445-6.728-20.93457-3.05616-34.2002-16.69-35.49707-36.48438-4.874-71.01514-1.02832-148.7207,3.05761-201.4043,7.92383-102.16357,23.2461-196.33837,37.26172-229.01611l.19336-.45215.21192-.44433c8.16211-17.13477,22.68652-26.96241,39.84961-26.96241l.67871.00342.40918.01612c15.25293.59423,33.1875,1.3833,50.55761,2.73,14.15235,1.09765,29.64746,2.69531,46.06446,4.75,13.36718,1.2749,24.47168,8.956,33.01269,22.84179l.08008.13135c9.1709,15.11816,20.76563,40.209,38.72754,84.73291-1.64648-8.70752-3.30273-16.78076-4.80078-24.07715-4.10645-20.00781-6.585-32.085-5.85352-41.51172,1.56348-20.16552,16.69824-34.32715,36.80469-34.437h.28809c16.19629.09815,40.24707,1.29981,65.9873,3.2959,21.06543,1.63428,40.71094,3.80713,55.334,6.12061,19.85058,3.01855,32.98242,16.687,35.13867,36.584l.0459.46436c5.53613,61.86132,4.12695,162.81005-3.67774,263.45166-3.50683,45.21386-9.86035,109.63818-20.209,159.79248l-.1211.55566C2074.49282,548.4176,2058.23012,561.44495,2036.01332,561.44543Z"/><path class="cls-2" d="M1751.05031,66.15289l.11365.00037c15.18884.59192,32.70788,1.36487,49.59839,2.67456,16.89135,1.31012,33.15417,3.15765,45.33935,4.68768,5.8241.452,10.21265,4.30786,14.37525,11.0763,14.54687,23.98022,36.73681,77.85083,81.46777,196.16693,1.47644,3.62988,3.1333,4.9303,5.4635,5.11108.13477.01044.26941.01563.40308.01563,3.33349,0,6.2904-3.2157,6.681-8.25531,6.68628-86.20252-21.08826-166.28821-19.64221-184.92639.54174-6.98938,4.97985-11.333,12.01635-11.37171,16.39929.09967,40.32508,1.36981,64.2052,3.22156,19.80347,1.53625,38.97827,3.60931,53.448,5.90192,8.10864,1.21466,13.07983,5.11584,14.10425,14.57067,5.65063,63.13507,3.615,164.93274-3.70264,259.28962-4.60791,59.41-11.31909,115.72656-19.76831,156.6737-2.582,11.2157-9.07275,15.45612-19.14062,15.45612-.26734,0-.53614-.003-.8086-.00891-16.39843-.1001-44.40088-1.68592-69.44677-3.62836-15.72571-1.22-30.824-2.977-41.2179-4.95606-13.26111-2.78613-17.15747-5.43255-18.4928-18.42712-6.901-69.67749-25.55127-123.85937-51.24084-170.38446-3.1333-4.93036-5.86414-7.48608-9.359-7.757-.14942-.0116-.29761-.01733-.44324-.01733-4.96155-.00067-7.68786,6.63531-8.25854,13.99145-3.97461,51.25513,11.774,157.94788,11.2323,164.93756-.67725,8.7367-4.93506,10.75025-11.38782,10.83557-15.81641-.05432-40.907-1.41455-65.36987-3.31176-22.71546-1.76172-45.38526-4.10626-61.60328-6.53571-8.69226-1.26-13.66259-5.16107-14.1958-13.406-4.12817-60.08722-2.11181-131.41712,3.038-197.81623,7.85949-101.34594,23.15136-192.74029,35.31177-221.09485,3.48339-7.31182,9.14038-12.71337,17.28039-12.7135m-.00012-50h-.00061c-26.79163.00034-50.12573,15.40546-62.41883,41.20847l-.42431.89075-.38892.9068c-17.5697,40.96777-32.3529,148.52008-39.20971,236.93634-4.15076,53.51818-8.05274,132.53479-3.07276,205.06933,2.10193,31.41083,24.37439,54.74146,56.79907,59.4859,16.81934,2.51453,39.903,4.97107,65.01905,6.91895,27.64233,2.1438,52.8153,3.40539,69.06421,3.46118l.41638.00146.4165-.00549c14.87378-.19678,27.77332-4.59033,38.354-13.06134q.46636.45813.947.91052c12.03528,11.32819,25.81518,15.40973,37.70752,17.90827l.463.09717.46472.08862c15.92871,3.03284,36.098,4.866,46.70325,5.68872,22.41723,1.73865,53.21728,3.63745,72.688,3.77515.48169.00793.959.01184,1.43457.01184,20.48632,0,34.6062-7.5459,42.844-13.87622,8.718-6.69959,20.13623-19.14051,25.022-40.36206l.12793-.55536.115-.55811c10.61377-51.43585,17.08789-116.9823,20.65039-162.91156,7.90479-101.92755,9.30445-204.47076,3.65308-267.61334l-.0415-.46485-.0503-.46405c-3.40039-31.38421-24.91186-53.81634-56.16455-58.59628-15.25171-2.40906-35.56616-4.65985-57.22949-6.34036-26.30908-2.0401-51.00928-3.26856-67.76855-3.37042l-.28931-.0018-.28931.00167a61.93277,61.93277,0,0,0-42.70276,16.92045,59.78,59.78,0,0,0-4.42517,4.71005c-15.22509-21.29691-33.95239-27.73416-47.91858-29.15668-16.68029-2.08359-32.46093-3.70795-46.91638-4.82916-17.79211-1.37955-36.02685-2.18265-51.51782-2.78632l-.827-.03222-.82751-.0048-.40625-.00122Z"/><path class="cls-1" d="M1484.64028,540.60852a158.85,158.85,0,0,1-91.707-28.41406c-24.8462-17.10156-46.32764-41.5542-63.84864-72.67871-31.523-55.99756-49.19287-132.63135-49.75537-215.78565-.39307-58.1626,14.39453-104.71484,43.95166-138.36426,34.7544-39.56591,88.66162-59.873,160.22461-60.35742.85059-.00586,1.68066-.0083,2.52539-.0083,129.39551,0,201.12793,69.59571,201.98145,195.9668.56445,83.42725-16.167,160.47558-47.11133,216.95117-17.208,31.4043-38.48926,56.13184-63.252,73.49658a158.908,158.908,0,0,1-91.82715,29.18994Zm-2.49317-321.75879c-.84082,1.05029-5.57519,8.11768-5.40527,33.33985.29394,43.51562,3.77051,69.91992,7.31836,85.62548.53515-2.35888,1.06836-4.95166,1.58887-7.7998,3.71-20.30225,5.56152-47.24707,5.35449-77.92188-.1709-25.22021-4.99805-32.22412-5.85352-33.26367a7.58171,7.58171,0,0,0-1.415-.10693l-.08789.00049A7.81927,7.81927,0,0,0,1482.14711,218.84973Z"/><path class="cls-2" d="M1486.03054,50c133.66076,0,176.35058,77.6344,176.98315,171.13586,1.0426,154.22278-59.356,293.67157-177.36023,294.46949-.3385.00225-.67542.00341-1.01294.00341-117.34595,0-179.27185-138.26739-180.31189-292.04779-.63574-94.05255,41.48023-172.62066,179.34558-173.553.79407-.00538,1.56861-.008,2.35633-.008m-1.37,331.82928.08862-.0003c17.52576-.11877,31.82556-45.19928,31.2533-129.90472-.283-41.88611-11.97717-58.20325-32.26709-58.20136-.08447,0-.17273.00031-.25757.00085-20.44641.13837-32.01929,16.57422-31.735,58.63489.57141,84.58148,13.10656,129.47064,32.91772,129.47064M1486.03054,0c-.9,0-1.78492.003-2.69214.00912C1404.333.54346,1344.1631,23.71057,1304.49782,68.867c-33.72485,38.394-50.60388,90.5542-50.16809,155.032.28662,42.366,4.77148,83.12689,13.33008,121.15027,9.03747,40.15106,22.37414,76.06042,39.63928,106.73065,19.406,34.473,43.44861,61.72821,71.45984,81.00842a183.40768,183.40768,0,0,0,105.88159,32.82043c.45252,0,.90381-.00158,1.35742-.00463,38.80188-.26233,74.46887-11.60755,106.00415-33.72034,27.92908-19.58435,51.75745-47.15711,70.823-81.95245,16.95142-30.93689,29.88-67.09876,38.42664-107.48121,8.09118-38.23,12.04809-79.15966,11.76086-121.65222-.43188-63.85235-17.63318-115.45959-51.12573-153.38849-19.61426-22.21231-44.51611-39.20575-74.01367-50.50808C1558.60378,5.68646,1524.33888,0,1486.03054,0Z"/><path class="cls-1" d="M960.87416,549.11536c-6.93017-.01075-28.019-.04395-39.64355-20.30616l-.1709-.30273c-9.9126-17.84961-20.17822-53.44531-28.09961-191.84522-6.31934-110.40039-4.186-194.46484,6.34082-249.85839l.0957-.50391.1167-.49951c4.25293-18.25977,16.21436-30.34619,32.8169-33.15967l.7334-.12451.73925-.08008c30.95411-3.36914,56.12891-5.58643,76.96338-6.77881,12.94434-.74121,25.33594-1.1167,36.8291-1.1167,79.31592,0,135.69336,17.812,177.42383,56.05567,49.04151,44.94433,75.78223,117.47656,81.75049,221.74218,2.08789,36.47266.86328,64.49756-3.85351,88.19629-5.74268,28.85352-16.85547,51.9668-33.97461,70.66162-34.41895,37.58741-92.26172,56.78125-187.55176,62.23536-21.023,1.20361-106.61817,5.52392-120.18311,5.68261l-.1665.00244Zm143.084-168.27Zm-15.23194-153.35645c-.48486,11.89649-.3457,31.26367,1.45752,62.77442,2.73145,47.72021,7.0044,70.65478,10.11963,81.50732,4.71387-8.79785,10.15283-28.02148,8.03662-64.99219C1105.93227,264.72375,1096.52162,240.24524,1088.72621,227.48889Z"/><path class="cls-2" d="M1047.59621,69.53955c127.64892-.00543,222.3656,47.222,234.21435,254.22656,7.17749,125.39643-23.3789,184.49012-201.84948,194.70569-21.58,1.23517-106.183,5.49262-119.04773,5.64374-9.94849-.01563-14.74768-2.08167-17.99781-7.747-9.13354-16.44641-18.05273-59.82245-24.99664-181.136-7.01068-122.47967-2.60211-198.80145,5.94232-243.7622,2.34839-10.08155,7.43079-13.29834,12.64649-14.18213,22.67969-2.46845,50.6084-5.23743,75.6875-6.67285,12.03723-.689,23.8645-1.07532,35.401-1.07581m48.86731,333.27374q.43414,0,.86682-.02508c17.49707-1.00153,40.17493-23.9502,35.96851-97.43823-4.56958-79.833-33.7649-114.001-52.47681-114.001-.28992,0-.57422.00812-.859.02441a13.68134,13.68134,0,0,0-9.6814,4.64984c-7.14807,8.01648-8.36181,37.92816-5.05676,95.66889,4.13965,72.32135,12.09082,98.78357,21.34009,107.03137a14.401,14.401,0,0,0,9.89856,4.08984M1047.6183,19.53955h-.02417c-11.97461.00046-24.84582.38989-38.25622,1.15744-21.26685,1.21735-46.8595,3.46933-78.24024,6.8848l-1.47778.16076-1.46539.24833c-26.627,4.5119-46.43616,24.0021-52.98957,52.13644l-.23291.99969-.19165,1.0083c-10.90814,57.39881-13.17578,143.51435-6.7398,255.95459,3.35077,58.53931,7.32721,102.53608,12.15643,134.50434,4.84406,32.06518,10.71826,53.05255,19.04694,68.04962l.16876.30389.17291.30146a63.49671,63.49671,0,0,0,30.08807,27.03741c9.19422,3.95776,19.10853,5.80982,31.20093,5.82886l.333.00049.333-.00391c14.79577-.17371,102.8053-4.66235,121.31775-5.72192,102.30664-5.85608,165.3955-27.54084,204.56079-70.31134,45.19189-49.35193,47.77905-117.25525,44.34973-177.16993-6.35828-111.08276-35.73511-189.17443-89.8092-238.73742-25.2201-23.11609-56.13428-39.97879-91.88331-50.11945-29.682-8.41955-63.18322-12.51245-102.41809-12.51245Z"/><path class="cls-1" d="M515.2726,603.46985c-16.74707,0-26.67969-7.4834-32.06348-13.76074-7.748-9.03565-10.0039-19.96192-11.02636-27.394-12.0835-87.82177,24.94775-180.30859,53.85351-242.23632,2.76709-5.90235,5.82471-12.4253,8.8042-18.90577-13.38672,9.04981-23.1167,15.57471-33.85449,17.05274a42.37617,42.37617,0,0,1-5.74854.40576c-9.33642.00049-22.38086-3.36523-31.50244-19.40186l-.24365-.42871-.22656-.438c-19.84229-38.32667-39.51953-113.80127-43.19092-140.48438-1.18311-8.60107-2.02979-37.13818,36.46875-44.3623,38.44092-8.27149,95.61768-17.91749,153.06885-25.82227,46.06006-6.3374,97.875-13.03418,132.95068-14.65137l.2251-.00927q1.22241-.04542,2.37939-.04444c22.00391,0,37.46534,13.03516,40.35157,34.01856,8.14062,59.16308-40.18995,179.10693-61.34668,227.92968l-.042.0962c-7.53564,17.19042-15.17236,35.06982-19.99023,49.377-1.103,3.27588-1.978,6.12744-2.67139,8.603,7.37061-4.7378,15.29248-11.47217,21.76221-16.97266,13.09521-11.13232,24.40479-20.74658,37.936-22.6084a33.53186,33.53186,0,0,1,4.5581-.31055,34.49939,34.49939,0,0,1,32.67041,23.2251c14.17383,36.958,25.35693,81.78125,34.18359,137.01123l.07959.53809c3.79932,27.61816-11.03759,47.02392-39.688,51.91162-34.31006,5.85351-84.2959,13.38086-137.14014,20.65185-52.30029,7.19629-101.21045,13.27588-134.189,16.67969l-.11328.01172C519.38051,603.36243,517.276,603.46985,515.2726,603.46985Z"/><path class="cls-2" d="M745.166,97.98834c10.63257,0,14.51795,4.66645,15.58527,12.4256,6.21136,45.14148-29.08319,144.349-59.51868,214.58258-17.055,38.90729-29.35785,69.49518-27.04877,86.27844,1.11359,8.09156,5.337,12.60346,13.72217,12.60346a28.64005,28.64005,0,0,0,3.89472-.28479c28.93683-3.98181,57.72589-43.32446,72.773-45.39478a8.44951,8.44951,0,0,1,1.1502-.07715,9.72461,9.72461,0,0,1,9.22413,6.90516c13.77771,35.845,24.45965,79.19189,32.943,132.27655,1.59247,11.57464-1.26428,20.81341-19.12518,23.86041-35.723,6.09454-86.57227,13.68091-136.34357,20.52893-49.77142,6.84851-99.04358,13.038-133.3487,16.579q-2.01635.19885-3.80041.19824c-12.20569,0-16.58252-6.907-18.32367-19.56238-10.98914-79.86633,23.50342-167.759,51.74054-228.25488,15.95624-34.03845,27.31879-58.6,26.12457-67.28131-.49334-3.58521-3.1286-5.95215-7.33868-5.95227a12.62323,12.62323,0,0,0-1.7193.12237c-23.72815,3.265-56.02667,34.245-68.18,35.91755a17.205,17.205,0,0,1-2.34015.1726c-4.36756,0-7.10614-2.07812-9.77063-6.76227-17.66925-34.13-36.96234-105.77655-40.62561-132.39843-1.27375-9.25977,3.377-14.02753,16.60858-16.43787,37.79846-8.1496,95.43335-17.84857,151.57056-25.57269,49.77191-6.84809,98.465-12.95831,130.69409-14.44446.49707-.01843.98218-.02759,1.45251-.02759m-.00006-49.99994c-1.08655,0-2.199.02088-3.30676.062l-.22443.00834-.22436.01034c-36.07447,1.66336-88.59143,8.44425-135.2063,14.858C548.32527,70.89081,490.6075,80.62885,451.59151,89.00964c-16.528,3.14893-29.35724,9.4588-39.19714,19.27387-13.82389,13.789-19.89246,32.61188-17.08768,53.00134,2.24591,16.3219,8.6141,43.39557,16.61978,70.65765,6.69656,22.804,17.18732,54.83259,29.13678,77.91425l.4538.8764.488.85791a64.07312,64.07312,0,0,0,18.851,21.24866,58.78642,58.78642,0,0,0,27.52356,10.41242,650.70264,650.70264,0,0,0-28.50745,81.10669c-14.07282,51.59381-18.26367,99.15557-12.456,141.36419,2.2774,16.55225,7.77819,29.72193,16.81689,40.26123,12.43542,14.50025,30.56177,22.48584,51.0401,22.48584,2.81909,0,5.74866-.148,8.70721-.43969l.11353-.01123.11346-.01172c33.2508-3.43213,82.46759-9.54871,135.0307-16.7815,53.09589-7.3053,103.37195-14.87732,137.93653-20.77417,27.90588-4.76074,42.64758-19.13684,50.1001-30.35864,9.33044-14.04919,12.74536-30.73865,10.14978-49.60455l-.0741-.53864-.08576-.5368c-9.087-56.86212-20.68383-103.25708-35.44915-141.81348a59.69016,59.69016,0,0,0-56.091-39.478,58.65416,58.65416,0,0,0-7.96447.54358q-2.05646.283-4.04309.69513c15.55871-37.19641,29.19037-74.53326,38.88031-106.60266,15.75842-52.15338,21.544-91.13067,17.68731-119.15948-2.80139-20.365-12.83221-32.9292-20.75366-39.88288-8.17309-7.17456-22.50445-15.727-44.365-15.727Z"/><path class="cls-1" d="M139.17739,675.71741c-25.52784,0-35.32569-21.167-38.54541-28.12256C89.57729,623.63977,68.76381,552.507,53.0475,474.88928,26.38881,343.22522,23.42543,256.2345,25.5851,228.54016c1.46924-20.0957,13.311-35.19922,31.69434-40.4165l.34521-.09522c18.24756-4.897,38.6499-9.66357,59.001-13.78467,21.583-4.36962,42.42969-7.97363,61.96142-10.71044l.40088-.05323a47.22283,47.22283,0,0,1,5.769-.3667,35.52113,35.52113,0,0,1,20.602,6.24707c4.626-7.31,12.17431-12.88818,21.978-15.66992l.34375-.09472c18.23926-4.89551,39.0376-9.74219,60.14649-14.01661,21.79687-4.41308,44.36719-8.35107,65.272-11.38916l.5293-.07129a47.36461,47.36461,0,0,1,5.78174-.36084c16.66943,0,30.92822,9.207,39.1372,25.26661C411.30971,177.69641,442.41908,258.986,469.07875,390.652c15.71485,77.61279,24.21241,151.24023,23.34912,177.58349-.25879,7.6167-1.29492,17.47608-7.064,26.4458-5.293,8.2295-13.40625,13.8584-24.11524,16.73145l-.20117.05322c-19.94677,5.17383-42.55468,11.03809-66.12549,15.811-25.15722,5.09326-47.09082,8.73-67.05419,11.11816a57.13465,57.13465,0,0,1-7.269.49463,36.89853,36.89853,0,0,1-17.61572-4.19141c-4.12109,4.86817-10.40625,9.3462-19.84668,12.6045l-.51953.17334c-21.47022,6.8872-45.44531,11.7417-68.63135,16.43652-23.33984,4.72559-47.17139,8.30029-67.67724,11.27978l-.17188.02442A50.37611,50.37611,0,0,1,139.17739,675.71741ZM276.1017,479.07532c-4.94092,1-5.562,2.32763-5.76611,2.76367-.64356,1.375-2.5127,7.00195.45947,21.68066,2.5918,12.80176,7.59717,27.002,13.07178,40.51123-.49561-19.97558-1.59229-40.96484-4.50733-55.35937a55.32863,55.32863,0,0,0-2.70654-9.70264Q276.39222,479.01648,276.1017,479.07532Zm-54.04248-231.3335a573.1977,573.1977,0,0,0,10.25928,71.6377,70.09614,70.09614,0,0,0,2.73779,10.29394q.30176-.05712.6377-.125c6.94775-1.40722,8.72217-3.23535,8.73681-3.25342,1.00489-1.5166-.04248-7.39746-.54052-9.855C238.87953,291.6925,230.24526,267.75159,222.05922,247.74182Z"/><path class="cls-2" d="M359.41048,152.7583c6.52951,0,12.55081,3.1449,16.90314,11.69727,11.7402,22.65747,41.94476,101.1817,68.26245,231.15789,15.76733,77.87092,23.61255,149.00147,22.86517,171.8028-.42822,12.60388-3.625,17.42358-12.67065,19.85059-20.95374,5.43493-42.47986,10.98584-64.81055,15.50744-21.75833,4.40528-43.632,8.23828-65.16522,10.8103a33.0752,33.0752,0,0,1-4.19657.3053c-5.50631,0-8.66851-2.02319-9.79855-7.60449-3.01465-14.887.71436-84.78473-6.93719-122.57507-4.38117-21.63813-11.96521-30.0185-24.7945-30.0185a40.14532,40.14532,0,0,0-7.92773.88044c-22.90335,4.63745-31.34058,21.84307-24.84824,53.90808,8.23157,40.65332,35.84311,88.70739,38.74133,103.022,1.27524,6.29858-1.69644,9.28467-10.05343,12.16858-20.14923,6.46411-43.05268,11.10156-65.95557,15.73913-22.33066,4.52112-45.46577,8.01355-66.31088,11.042a25.89173,25.89173,0,0,1-3.53632.26526c-7.05491,0-11.27783-3.72962-15.85789-13.62415-9.5589-20.71436-30.00135-89.29431-45.76868-167.16522-26.31721-129.97626-29.038-214.06555-27.03633-239.50525.77589-10.88611,6.26277-16.16944,13.59012-18.24878,18.09088-4.85486,38.015-9.48529,57.48266-13.427q31.77849-6.43479,60.46967-10.456a22.05561,22.05561,0,0,1,2.69952-.17736c5.8595,0,9.16663,2.84936,10.38227,8.85351,2.31875,11.45166-3.554,47.21234,12.67688,127.37378,3.13043,15.45966,7.16,23.58441,13.35653,27.6944a18.55237,18.55237,0,0,0,10.72086,3.05963,44.66912,44.66912,0,0,0,8.76117-1.04358c12.024-2.43481,20.03332-7.037,24.59976-13.92212,5.02289-7.57349,5.69012-16.05359,3.13956-28.65033-11.47745-56.68567-40.58933-109.20471-42.90766-120.65637-1.39166-6.871,1.34821-11.00195,8.67554-13.0813,18.09091-4.855,38.5878-9.60138,58.62824-13.65948,21.18511-4.28931,43.05932-8.12232,63.90487-11.15119a22.15608,22.15608,0,0,1,2.71622-.17218m0-50.00006a72.40921,72.40921,0,0,0-8.84808.54968l-.52958.06543-.5281.07666c-21.35422,3.10291-44.397,7.123-66.63745,11.626-21.60434,4.37476-42.92768,9.34509-61.6659,14.37384l-.34576.09277-.34433.09772A66.31479,66.31479,0,0,0,199.346,139.78131a63.64021,63.64021,0,0,0-14.58969-1.66772,72.31485,72.31485,0,0,0-8.83368.555l-.40319.04986-.40247.05646c-20.03244,2.80756-41.3811,6.49726-63.453,10.96656-20.849,4.22137-41.77644,9.11132-60.51912,14.14111l-.34588.09289-.34445.09766a67.78505,67.78505,0,0,0-34.44222,22.43555C7.09,197.51465,1.78219,211.39526.65573,226.6626c-2.41124,31.08172.75644,119.18292,27.88932,253.18786,14.64378,72.3219,35.87033,148.928,49.37489,178.19275l.01244.02674.01234.02673c3.42477,7.39856,9.1911,18.2832,19.68243,27.34973a62.62283,62.62283,0,0,0,41.55,15.27088,76.14915,76.14915,0,0,0,10.38234-.73621l.17144-.02356.17122-.0249c20.8319-3.02661,45.06523-6.66211,69.044-11.517,23.85956-4.83118,48.52356-9.82544,71.30768-17.13477l.52011-.16687.51645-.17822a78.12078,78.12078,0,0,0,17.20658-8.144,65.802,65.802,0,0,0,12.10131,1.09814,81.71981,81.71981,0,0,0,10.32456-.68188c20.61621-2.46912,43.17508-6.20777,68.9592-11.4281,24.22735-4.90552,47.18609-10.86072,67.44214-16.11463l.202-.05249.20148-.05395c21.0459-5.64685,32.64123-17.9917,38.66253-27.35352,9.17377-14.26306,10.68421-29.14111,11.02234-39.09131l.001-.0299.00092-.03c1.056-32.21662-9.18989-111.04572-23.83277-183.36328-27.13843-134.02948-58.499-216.42981-72.8074-244.11029a71.9164,71.9164,0,0,0-24.92172-28.15192,66.86264,66.86264,0,0,0-36.442-10.67035Z"/></g></g></svg>