<?xml version="1.0" encoding="utf-8"?>
<!-- Generator: Adobe Illustrator 25.0.0, SVG Export Plug-In . SVG Version: 6.00 Build 0)  -->
<svg version="1.1" id="Layer_1" xmlns="http://www.w3.org/2000/svg" xmlns:xlink="http://www.w3.org/1999/xlink" x="0px" y="0px"
	 viewBox="0 0 1000 1000" style="enable-background:new 0 0 1000 1000;" xml:space="preserve">
<g>
	<path d="M501.6,992.2c-78.8-6-155.5-26.2-224.7-66.2c-67.6-38.3-125.1-91.8-169.9-143c-45.6-52.7-75.7-97.2-90.8-138.8
		c-15.9-43.9-14.4-87.6,1-150.7C32.5,431.5,60.6,353.8,97.3,281c35-69.6,76.1-126.9,121-164.8c44.2-37.9,90-58.2,137.3-75.6
		c48.5-17.1,96.6-32.3,145.9-36.7c49.3-4.5,97.4,6.4,145.9,40c47.3,32,93,82.1,137.3,133.2c44.9,52.5,86,100.1,121,147.9
		c36.7,50.3,64.9,103.6,80.2,177.7c15.3,72.8,16.8,161.9,1,243.1c-15,77.6-45.2,139.6-90.8,177.2c-44.8,37.7-102.4,53-169.9,62.3
		C657.1,994,580.4,998.2,501.6,992.2z M501.6,414.4c-52.8-28.5-97.8-11.2-100.8,37.6c-5.1,100.4-12.2,82.8,100.8,142.9
		c58.4,31.4,103.3,11.7,99-39.8C593,456.2,554.9,442.9,501.6,414.4z"/>
</g>
</svg>
