<?xml version="1.0" encoding="utf-8"?>
<!-- Generator: Adobe Illustrator 25.0.0, SVG Export Plug-In . SVG Version: 6.00 Build 0)  -->
<svg version="1.1" id="Layer_1" xmlns="http://www.w3.org/2000/svg" xmlns:xlink="http://www.w3.org/1999/xlink" x="0px" y="0px"
	 viewBox="0 0 1000 1000" style="enable-background:new 0 0 1000 1000;" xml:space="preserve">
<path d="M967.4,500.4c11.5,73.2,22.7,144,27.7,208c4.8,62.2,3.5,115.2-10.6,158.2c-14.1,43.4-40.9,74.5-84.6,95.6
	c-45.4,21.9-107.4,32-184.7,32.1c-77.1-0.1-164.6-10.2-254.7-32.1c-86.3-21.1-171-52.2-244.5-95.6c-73-43-131.2-96-168.2-158.2
	c-38.2-64-51.9-134.9-40.3-208c11.5-73.2,47.6-144,101.9-208c52.6-62.2,119.8-115.2,193-158.2C376.1,90.8,452,59.6,522.8,38.6
	c74-21.9,138.8-32,192.3-32.1c53.7,0.1,93,10.2,122.3,32.1c28.2,21.1,46.2,52.2,60.7,95.6c14.3,43,24.6,96,35.4,158.2
	C944.5,356.4,955.8,427.2,967.4,500.4z M389.4,539.8c6.9,116.5-7.9,170-8.2,196.1c1.4,25.8,17.3,24.1,127.3,24.1
	c108.4-0.2,149.5-6.3,150.8-40.8c3-34.6-33.7-97.5-41.5-214.5c-1.4-58.3,6.9-87.8,13.1-99.6c6.5-11.8,10.8-5.9,8.7,7.3
	c-6.3,26.2-32,81.9-132.1,81.9c-100.5,0-126.8-46.8-127.4-64.5c-0.9-8.8,3.1-10.4,5.3,4.7C387.9,449.6,388.7,481.5,389.4,539.8z"/>
</svg>
