<?xml version="1.0" encoding="utf-8"?>
<!-- Generator: Adobe Illustrator 25.0.0, SVG Export Plug-In . SVG Version: 6.00 Build 0)  -->
<svg version="1.1" id="Layer_1" xmlns="http://www.w3.org/2000/svg" xmlns:xlink="http://www.w3.org/1999/xlink" x="0px" y="0px"
	 viewBox="0 0 1000 1000" style="enable-background:new 0 0 1000 1000;" xml:space="preserve">
<g>
	<path d="M501.2,992.4c-70.7-7.7-140.6-19.2-207.5-40.9c-66.5-21.6-130.1-53.5-179.2-99.6c-50.9-46.9-82.8-104.5-97.4-164.3
		C1.2,622.9,3.5,560.3,12.3,497.2C21.7,434,37,371.7,65.2,307.1c26.1-59.6,64.2-117.1,114-164C227.4,97,283.2,65.1,337.8,44
		c55.1-21.3,109-31.7,163.4-37.7c54.4-5,108.7-5.3,164.2,7.8C720.6,27,776.9,53.5,825,98.9c49.9,46.2,87.6,108,113.2,176.1
		c27.7,73.7,42.5,149.2,51.9,226.5c8.8,77.2,11.6,153.8-3.7,228.8c-14.1,69.2-45.5,132.1-96.6,178c-49.1,45.3-113.2,70.5-180.2,81.8
		C642.2,1001.5,571.9,999.1,501.2,992.4z M495.8,324.5c-58.9,0.6-110.4-58-147.9-29.3c-8.6,6-12.6,57.9-13.4,114.7
		c-0.9,56.5,1.4,117.9,1,135.3c-0.9,35.6-9.1,59,8.7,72.1c39.3,29.1,98.6,5,160.6,6c62.1,1.3,120.8,29.3,160,0.8
		c17.7-12.9,4.3-39.2,3.5-76.6c-0.4-37.8-43.8-203.9-61.5-215C567.9,304.9,554,323.2,495.8,324.5z"/>
</g>
</svg>
