<svg xmlns="http://www.w3.org/2000/svg" viewBox="0 0 986.67975 1466.00801">
  <g>
    <path d="M24.27166,473.41256c-.71643-3.51657-1.822-7.65106-2.33211-11.8577a39.01,39.01,0,0,1,.00217-10.13055c1.07915-7.513,2.52529-14.97635,3.94718-22.43608.67956-3.56516,1.01-7.39887,2.61206-10.54376a39.65579,39.65579,0,0,0,4.41131-20.1019c-.17539-4.59721,1.41734-9.27628,1.13146-13.85072a34.39855,34.39855,0,0,0-3.17343-12.59367C26.901,363.71,21.675,356.01766,22.90069,346.29285c.36982-2.93406,1.42179-5.78321,1.77626-8.71775.35445-2.93427-.15641-6.00247.41033-8.87411.67084-3.399,1.08871-8.08174,3.38054-9.68379,5.699-3.98375,7.872-9.62143,10.22766-15.4702,6.81059-16.91025,13.55695-33.84793,20.56552-50.67614,3.36992-8.09148,7.75507-15.78157,10.8038-23.97947,3.25272-8.7465,1.27069-13.34661-6.21117-19.26277a3.57482,3.57482,0,0,1-1.332-3.88062q1.17138-6.77454,2.34154-13.54936a25.14033,25.14033,0,0,1,9.05329-15.58131c1.38749-1.13873,3.55321-1.32915,6.68413-2.41155-3.07239,8.3447-12.26881,12.33282-8.53368,22.92992,2.38256-3.61934,4.38177-6.24282,5.93757-9.1072,3.09119-5.691,6.22161-11.20873,7.76911-17.80315,1.32947-5.66519,6.554-9.87155,12.44072-11.17337,3.39253-.75028,4.09816-2.70888,5.27378-5.00775,3.01324-5.89215,6.46259-11.39122,13.94729-13.27037a69.55556,69.55556,0,0,0-4.47931,6.70489,129.966,129.966,0,0,0-6.26873,13.44256c-1.027,2.69189.406,4.84818,3.511,3.88952a22.45175,22.45175,0,0,0,8.26172-4.14978c9.97924-8.90369,20.47016-17.60693,24.55666-31.05281,1.10149-3.62428.66626-7.83177.38267-11.7313-.34712-4.77338-1.27664-9.50442-2.12-15.4145-2.58673,6.49679-8.06206,10.564-6.7321,18.48034.773,4.60095-1.38447,9.69426-2.29891,15.00493-1.28934-.90723-2.38326-1.677-4.76213-3.35084-.93352,6.26288-1.74941,11.73655-2.55109,17.11484-3.4705-.82066-5.6625-4.51123-4.74091-8.866a13.56422,13.56422,0,0,1,1.87792-5.11454c8.18261-11.257,6.70778-26.862,16.79484-37.21052,5.45455-5.59589,8.36979-12.247,10.51192-19.80466,3.297-11.63223,12.8302-18.54351,22.33551-25.06,1.02141-.70022,2.5827-.61283,3.89356-.8908q.29912.57676.59829,1.15351-7.22,6.567-14.44228,13.13147c-5.083,4.59968-7.95332,10.27011-9.17265,18.06674,5.9666-3.7532,10.79269-7.20162,15.99536-9.9325,4.244-2.2277,7.06858-5.31174,9.84264-9.18842,3.5482-4.95855,8.001-9.5719,15.78493-11.68514-5.07141,6.12461-9.27467,11.20072-13.47788,16.27682q.24345.71086.487,1.42173c3.0884-.34627,6.25811-.36764,9.24623-1.11492a19.50783,19.50783,0,0,1,13.01478.77383c7.489,3.12437,14.8917,1.369,22.24233-2.37071-2.44652-5.72981-.119-10.34411,3.078-14.81971,6.93912-9.71437,15.41578-17.72925,27.22469-20.55122,6.02116-1.43886,9.87-5.29044,14.60763-8.37745,6.56465-4.27752,13.79113-7.56642,20.86337-11.01367,1.35443-.66017,3.30619-.09471,5.19367.65a89.24832,89.24832,0,0,0-30.75959,20.58109l.79856,1.5241c3.52977-1.91629,7.34575-3.44649,10.54042-5.81475q22.40566-16.60942,49.35435-10.025c3.13632.76524,5.239.01691,7.56207-2.09652,9.15241-8.32656,19.21728-15.19486,31.581-17.83145a8.1239,8.1239,0,0,1,5.2035,1.1919c-11.73994,5.2097-23.96721,8.96585-33.1947,20.33419l30.53039-1.57754c6.04411-8.46561,14.73666-12.491,23.12775-17.07726,7.844-4.28719,15.28943-1.05527,22.26016,1.3036,10.612,3.59106,19.65585.52058,29.02708-3.56731,3.98969-1.74038,8.31571-3.75448,12.92658-.02448-3.5515.64929-7.25877.86446-10.61177,2.06715-3.51335,1.2602-6.68678,3.4683-11.006,5.80051,4.81682,2.18808,8.74084,3.96874,12.6629,5.75366a8.62712,8.62712,0,0,1,2.67225,1.29181c6.3518,6.55759,12.598,4.15159,19.612.75456,7.40086-3.58436,15.37738-6.05007,23.24891-8.54162,1.8887-.59783,4.35714.63611,6.29437,2.08283C487.00566,15.8885,475.4868,20.462,462.89458,25.46156c6.34515,4.69361,11.5,7.4256,17.841,8.88413,6.26928,1.44206,12.15879,4.90387,17.933,8.00461,4.02766,2.16282,7.57318,4.45359,12.40654,2.1211,1.22546-.59136,4.36288.08031,4.82774,1.04032,3.63683,7.511,9.83317,4.03507,14.99577,3.47809,3.15238-.34011,6.30054-2.14893,9.1241-3.84247,8.78838-5.27121,16.6073-1.82546,24.41968,2.29561.71793.37872,1.27021,1.0703,1.98673,1.453,13.34518,7.12673,9.91185,6.41835,19.48451-2.34118,3.12729-2.86168,6.37616-5.59033,10.31007-9.02684-.95214,9.15718-10.08935,11.68134-13.20474,18.23677,7.37755,8.66364,19.19892,7.33971,26.87861.78566,5.99314-5.11467,12.74963-9.34938,19.29017-13.79355,1.08629-.73817,2.80463-.546,4.52719-.11463-10.32758,8.35615-22.05806,14.80721-29.45063,26.11426,7.648,8.75473,23.38247,10.06667,31.81561,2.36474,3.22421-2.94468,6.45813-3.896,10.44026-2.75333,3.15927.90651,5.35377-.31949,8.13131-1.96742a341.87957,341.87957,0,0,1,31.71776-17.08655c3.83295-1.75735,9.02265-.70378,13.58659-.613,1.12517.02238,2.22545,1.29977,4.02326,2.43249-19.691-.13529-34.08531,9.2957-48.71858,19.84492,4.00709,3.33308,7.29894,6.07124,10.80637,8.98872,4.01252-6.78517,7.84132-13.25967,11.67011-19.73417q.96731.47862,1.93448.95726c-1.043,2.61024-1.9042,5.31315-3.17508,7.80724-1.57966,3.10009-3.73425,5.91626-5.21381,9.05612-2.14756,4.55738.89683,8.6407,5.953,8.59582a43.83766,43.83766,0,0,1,6.26086.81285q.00678.82431.01367,1.64861c-1.278.43895-2.5559.87789-4.0998,1.40817.55545.73451,1.0761,1.48585,1.65938,2.18486,7.84657,9.40336,7.86488,9.44452,19.305,5.16263a14.49126,14.49126,0,0,0,3.84381-2.75623c8.00771-6.72421,15.9711-13.50137,24.00567-20.19338.73367-.61114,1.86483-.745,3.37247-.21194-5.46962,5.15-11.11637,10.1286-16.332,15.52416-2.49963,2.58593-4.184,5.96029-6.23455,8.97964-.27613.40659-.48024,1.13536-.80875,1.19256-6.01359,1.04709-6.40265,5.77728-6.5904,10.96551-5.55471-1.01019-2.7704-5.39609-4.21126-8.5122-1.791.82123-3.597,1.64933-5.71671,2.62122,3.73871,7.48572,8.35929,13.481,16.10123,16.24547,1.35358.48335,3.24821-.19639,4.78942-.67367,2.34447-.726,4.53806-1.97537,6.90279-2.59239,5.53066-1.44309,8.91144-3.46872,11.04435-10.124,3.40385-10.62082,12.9601-17.392,21.83454-23.92689a78.92923,78.92923,0,0,1,11.49775-6.9421c2.854-1.42671,6.09074-2.08762,9.15668-3.09022q.44113.88032.88237,1.76062a83.48044,83.48044,0,0,1-7.12363,4.53425c-12.73364,6.46644-22.87048,15.90651-31.31986,27.24566-1.24566,1.67184-1.689,3.94159-2.03354,6.20174,6.669-4.20557,10.48414-12.13655,19.47859-12.82769-7.22251,9.59465-20.67945,15.67543-15.92935,31.6214-5.25-2.74872-6.032-5.13528-5.08813-14.7067-6.78866,2.63549-12.9,5.008-20.0786,7.79488,6.34161,5.1465,12.51476,7.00937,18.80424,8.90162,8.69988,2.61742,16.186-2.0901,24.24091-3.29182,1.12139-.16731,2.60022-.83177,3.31656-.35988,5.3567,3.529,4.14522.07708,4.72313-3.51465.815-5.06513,2.06809-10.72284,5.08288-14.61884,4.78343-6.18135,11.74971-10.16776,19.53011-12.25092,2.63685-.706,5.24305-1.52631,8.06325-2.353.49612,1.89122.854,3.25587,1.11468,4.24914-7.39989,6.10452-14.61239,12.05443-22.41135,18.48815,10.93168.17087,10.89676.12316,19.23249-5.96789a127.30772,127.30772,0,0,1,10.76186-7.1443c1.14557-.67018,2.89065-.31532,4.3613-.42982-.66007,1.26866-1.00591,2.94317-2.03269,3.738-5.376,4.16121-10.913,8.11526-16.42388,12.1001a31.05534,31.05534,0,0,1-3.042,1.73242q.27834.82616.55691,1.65231c3.55425,1.56535,7.0438,3.32433,10.71182,4.54843.82987.27694,2.71668-1.03059,3.3754-2.07605a40.52034,40.52034,0,0,1,20.54163-16.54588c1.65365-.6281,3.56109-.58772,6.23065-.98737-6.7618,5.37654-13.1642,9.1384-17.80847,14.44035-9.28609,10.60094-6.54267,7.38426.37258,16.78934a23.15393,23.15393,0,0,0,3.30191,2.952c10.58877-7.9753,22.8424-11.94756,35.28062-15.45558q.33106.58074.66238,1.16148a79.4723,79.4723,0,0,1-6.77229,5.52449,28.59993,28.59993,0,0,0-13.59465,22.98123c-.06628.8842-1.08013,1.69735-1.65376,2.54349-1.178-1.2404-3.40934-2.548-3.33537-3.70856a36.08973,36.08973,0,0,1,2.2235-10.07044c.99883-2.70389,2.84181-5.09587,3.83673-8.28581-4.74022,2.91858-9.48031,5.83718-13.971,8.60211,4.47177,8.50426,8.53934,16.23984,12.62816,24.01588,3.84638-.35711,8.20694.3694,11.243-1.30542a40.08123,40.08123,0,0,0,12.515-10.524c4.03792-5.37236,8.44071-9.448,15.74172-10.49823-2.56311,2.87044-5.1261,5.74086-7.795,8.72992,1.043.79313,1.84628,1.404,2.90957,2.21253-4.524,4.11679-11.94271,5.71536-9.77818,14.72476-2.03086-1.12771-3.2432-1.80085-3.46892-1.9262l-15.97781,2.472-.02381,1.64023c9.41012,3.86271,18.67521,8.43133,30.03647,5.64736-.86039.92106-1.72078,1.84214-2.776,2.97195,2.35949.811,4.59507,1.96055,6.91684,2.17486.83646.07725,2.31651-1.94693,2.7577-3.26208a27.42018,27.42018,0,0,1,13.83928-16.32265c1.68111-.86207,3.92658-.62362,6.24.00038A32.47645,32.47645,0,0,0,878.19238,184.729a8.13152,8.13152,0,0,0-1.11321,2.7311c-.10547,2.09.09925,4.19574.17762,6.29507,2.28063-.13741,4.58054-.138,6.83541-.45742a31.88832,31.88832,0,0,0,4.49008-1.23186c2.661,3.65019-.5668,8.52684,2.51868,10.64787,4.05244-4.72534,7.40172-8.83627,11.0424-12.67047.59561-.62735,2.47558-.035,3.762-.00647-.231,1.01292-.13856,2.61445-.74333,2.94667-5.41,2.97193-6.79622,8.227-8.21792,13.76224a35.29879,35.29879,0,0,1,2.95583,2.492c5.07837,5.28047,10.51943,8.16344,17.79846,3.83313,1.28571-.76491,3.52361.07108,5.32179.16777q.12121.71911.24269,1.43822c-3.45769,1.47823-6.9155,2.95646-11.03056,4.71572,3.79681,5.75711,7.28147,11.04076,11.0944,16.82229,2.13487-.61719,4.639-1.34117,7.143-2.06514l1.10565.92275c-4.23141,2.69133-7.37365,5.01275-5.76078,11.02208,1.46052,5.4423,4.81041,6.85982,9.53269,7.88049q-.21114.62742-.42214,1.25479-2.78261,1.12323-5.56692,2.24738c2.66492,11.21457,5.37159,22.4188,7.98646,33.64445,2.62489,11.26936,5.95744,22.4554,7.45361,33.87784,1.01177,7.72471-.61771,15.7954-1.08208,23.99949h1.43183c.26478,3.7561-.2151,7.2893.84611,10.27461,5.61147,15.78382,7.81836,31.71766,4.15718,48.305-4.23324,19.17884-.86357,37.84106,4.35934,56.33874,1.07036,3.79107,1.79378,7.68011,2.76624,11.912a16.69589,16.69589,0,0,0,2.31652-.01452c6.90719-.9614,11.44427,2.21469,12.18967,8.96112.33192,3.004,1.142,4.46845,4.53317,4.35534,5.75577-.192,7.16966,1.3291,7.75379,7.13917.89348,8.8872,2.05723,17.75835,2.57361,26.66722.22523,3.88648-.64908,7.89327-1.42133,11.7662-.88823,4.45453-2.216,8.82134-3.3527,13.22625-1.44318,5.593-4.92895,6.70687-9.55282,3.05278-4.22189-3.33632-5.47317-2.90207-6.19232,2.40593-.48879,3.60709-.31874,7.333-1.09282,10.86334-.72135,3.28932-1.43928,7.30649-3.66571,9.40172-6.57868,6.19108-7.24631,14.0376-8.46744,22.14482a220.34035,220.34035,0,0,1-5.9091,26.48007c-.72464,2.588-3.563,4.633-5.56581,6.80424-4.92041,5.33431-9.18965,11.67714-15.056,15.63529-8.70769,5.87513-18.73808,9.43425-29.6949,6.51411-5.03345-1.3415-9.11457.74342-13.19228,3.02147-5.93,3.31275-12.113,6.30248-17.58458,10.26355-4.092,2.96232-7.34887,7.13557-10.76663,10.9582-4.98266,5.57292-9.974,11.16165-14.5455,17.06585-1.66438,2.14943-1.98337,5.29451-3.19314,7.85438-1.34675,2.84952-2.533,5.99594-4.62583,8.22864-5.52139,5.89051-12.45092,10.67753-17.05673,17.15716-6.25628,8.80162-8.10012,19.41415-7.76441,30.31845.17836,5.79706.55252,11.73653-.43227,17.39033-2.09666,12.03875-11.43927,19.0407-20.04087,26.36092-11.34722,9.65706-23.30348,18.669-34.01493,28.97964-7.8766,7.582-13.888,16.90122-15.49879,28.35483-.83219,5.91664-6.31293,8.13841-10.56923,10.45248-13.29763,7.22963-27.69261,11.58368-42.559,14.46958a48.65179,48.65179,0,0,0-10.7775,3.69121c-7.70044,3.52-15.29662,6.6658-24.07659,7.01007-13.08845.51317-26.12228,2.3383-39.21,2.98955-5.04821.25118-10.26685-.79677-15.2586-1.91773-17.93873-4.02816-36.2648-2.06093-54.33963-3.82886-4.45615-.43577-8.94257-.61492-13.37668-1.20244-2.39379-.31723-3.81586-.26553-3.87311,2.724-.09235,4.81778-.4667,9.63111-.76517,14.44364-.19862,3.20215.90147,4.973,4.45358,5.079,3.08974.09211,6.16289.73945,9.24336,1.14147q.16269.88878.32545,1.77763c-2.8918.56445-5.95688,2.02376-8.63871,1.50424-5.34432-1.03556-6.00438,1.20605-5.688,5.59459.3094,4.29155.06733,8.62289.06733,13.27153,1.52436.33823,3.19021.70789,5.2666,1.16863-.55666,1.1776-.83,2.6468-1.36536,2.74947-5.03368.96536-4.04243,4.79813-4.09138,8.15612a4.059,4.059,0,0,1,.05585.99289c-2.96743,10.052,3.74908,14.36923,10.75076,18.8826,3.56127,2.29563,6.46332,5.61419,9.66336,8.4703q-.67926.90114-1.35858,1.80229c-6.07451-3.97157-12.14908-7.94314-19.13379-12.50986-.33113,2.699-.56021,3.9286-.622,5.16675-.704,14.09681-1.72689,28.18959-1.95187,42.2947-.16084,10.08422,1.81008,19.95674,10.65291,26.37093,3.03738,2.20309,7.25572,3.20111,11.0836,3.8053,8.54026,1.34815,17.15634,2.3386,25.77821,2.99052,3.90491.29556,7.91951-.39592,11.84523-.92844,12.09152-1.64041,23.87016.7021,35.3831,3.57835,25.03025,6.25316,48.36986,16.3226,68.2615,33.288,13.28042,11.32665,23.266,24.71562,27.73375,41.97582,2.43676,9.41448,6.51984,18.41949,8.72075,27.87449,3.52971,15.16466,6.63692,30.46984,8.97406,45.85974,3.512,23.12636,6.49848,46.34354,9.1645,69.58441,2.79884,24.401,5.39138,48.84293,7.23753,73.3299,1.17145,15.53871.49466,31.20745,1.22577,46.79085.931,19.83869,2.42687,39.65113,3.72894,59.47163.23805,3.623,1.77779,7.55578.798,10.75848-1.09551,3.5814-4.37545,6.49439-6.70491,9.69831-1.23065-1.192-3.46074-2.3386-3.51763-3.58408-.23633-5.18177.48013-10.40346.30544-15.59231-.56009-16.62549-1.46321-33.23939-2.04307-49.86427-.71915-20.614-.4927-41.29167-2.0427-61.83868-2.10862-27.95348-5.08484-55.8613-8.4816-83.692-3.25724-26.68773-6.56025-53.43944-11.679-79.80658-3.61077-18.5981-9.58774-36.84386-15.81863-54.79211-4.99657-14.39273-14.98789-25.54908-27.41573-34.62514-18.80413-13.73251-39.82631-22.309-62.27086-27.525-12.12778-2.81826-24.5168-3.95143-36.93921-1.29639-.76633.16383-1.96591.47734-2.31163.109-5.88828-6.27465-13.56584-2.61451-20.34839-3.61033-9.73465-1.42909-19.58345-2.23142-27.3398-9.16274-2.43463-2.17575-4.24954-5.04626-6.33985-7.60547a63.2184,63.2184,0,0,1-5.59011-7.05963,10.31964,10.31964,0,0,1-1.23-5.55644c1.029-20.06735,2.34063-40.12066,3.25663-60.19253.29164-6.3916-.71659-12.83808-.50466-19.23872.33973-10.264,1.12078-20.51655,1.86868-30.76277.50753-6.95244,1.4433-13.87761,1.78841-20.83475.06806-1.37215-1.3653-3.35665-2.66254-4.157a64.10478,64.10478,0,0,0-11.83479-6.16782c-8.96241-3.19428-18.03-6.17583-27.22018-8.62241a224.391,224.391,0,0,0-22.78795-4.49762c-9.72691-1.53415-19.52907-3.81977-29.27838-3.72283-19.45777.19337-38.36059-3.05535-57.31176-6.576a96.64486,96.64486,0,0,0-12.80542-1.69273c-10.13384-.50163-20.28332-.688-31.046-1.02091-.12519,1.65122-.49453,4.551-.541,7.45591-.30592,19.09857-.76322,38.19946-.66012,57.29681.02917,5.39907,1.56745,10.83227,2.74964,16.1755,4.7791,21.60033,5.967,43.30016,2.28325,65.19007q-1.11627,6.63327-1.93759,13.31438c-.13258,1.07115-.10236,2.55323.51925,3.26118,3.10238,3.53293.13795,5.504-1.2793,8.4836-3.37485,7.09553-10.98471,5.33608-16.09214,8.77123-10.14166,6.82108-21.9228,4.78439-33.23089,4.35661-8.195-.30984-16.40338-.8951-24.54384-1.87286-12.31077-1.47878-23.44778,2.8367-33.72659,8.14141-5.69766,2.94046-9.83695,9.55621-13.72984,15.173-4.89092,7.0567-9.80339,14.417-12.76367,22.36945a71.8333,71.8333,0,0,1-5.95579,12.48386c-5.30415,8.84118-8.8341,18.9343-11.88411,28.88423a141.31874,141.31874,0,0,0-5.393,27.20451c-1.7821,17.81823-2.94878,35.71191-3.8317,53.60095-.50356,10.20325.18586,20.46009.10892,30.69105-.14145,18.81528-.55019,37.6286-.66089,56.444-.087,14.796.02332,29.59463.201,44.39035.15458,12.87282.86241,25.74685.7175,38.61356-.18506,16.43614-1.23544,32.86276-1.41437,49.29891-.10108,9.28446.79462,18.5799,1.24936,27.8701.09751,1.99274.20176,3.98609.35146,5.97542.2848,3.78479-2.44165,5.28957-5.22294,5.15894-1.34006-.063-3.455-2.90824-3.64385-4.663a152.52212,152.52212,0,0,1-.643-17.30757c.0958-14.294.37353-28.58672.566-42.88008.30693-22.79649.74344-45.59225.865-68.38972.11426-21.43723-.30687-42.87764-.13392-64.31389q.34349-42.5706,1.28067-85.13595c.601-26.94374,5.2147-53.212,15.49491-78.21244,6.76107-16.442,14.80082-32.2902,25.26574-46.78951,2.03641-2.82156,3.60356-5.98043,5.61928-8.81884,4.36954-6.15244,10.92973-9.001,17.79883-11.19333,6.94515-2.21677,13.84978-5.23952,20.97787-6.01327,7.0867-.76912,14.5378.22109,21.636,1.50637,12.71106,2.30136,24.91355,1.79131,36.86083-3.44284,9.30568-4.07693,17.40873-14.40933,17.216-23.19521-2.9709-.26309-6.06169-.34635-9.06738-.89535-1.22962-.22451-2.27526-1.45607-3.40459-2.22946,1.17639-.43473,2.34319-1.217,3.53081-1.24975,10.57027-.29288,10.58876-.251,12.35624-11.18027.30593-1.89142.39425-3.818.65384-6.44422-2.60937.41459-4.60507,1.22607-6.36187.86727-1.6556-.338-3.05954-1.90863-4.5742-2.937,1.27088-.95664,2.45514-2.58142,3.827-2.7593,7.71448-1.00022,7.89534-1.12364,6.45172-10.59525-3.264,1.59305-6.42956,2.89517-9.34169,4.62422-3.2507,1.93-5.48958,1.70439-7.23-3.02092,3.88105-1.42164,7.58947-3.14483,11.486-4.105s6.59846-2.03267,4.879-6.85772c-.51992-1.459-.254-3.198-.413-5.92091-2.22271,1.66495-3.55492,3.13281-5.20814,3.77715-1.87954.73256-4.04579.7292-6.08739,1.04564q1.15427-2.45146,2.30968-4.90239c.14-.29617.29482-.58526.44827-.88845q-3.49575-1.96609-7.01944-3.948-.10419-.80922-.20845-1.6185c1.53078-.60431,3.37687-2.06246,4.52756-1.63755,2.48865.919,4.621,2.80313,6.76058,4.851,2.23534.25424,3.90113-.51433,3.11264-3.75726-1.25135-5.1463-2.86489-10.296-3.30326-15.52992-.99767-11.91069-1.38557-23.87277-1.99112-35.8155-.08875-1.74993-.01246-3.50809-.01246-6.64633-3.77184,2.72127-6.41839,4.87589-9.32106,6.599-1.09746.65143-2.78651.30612-4.20589.41508.43569-1.29462.498-3.0117,1.38489-3.7959,1.84549-1.63168,3.97248-3.45834,6.261-3.974,5.68308-1.28021,6.58736-5.33584,6.6736-9.98374.1255-6.7617.03223-13.52742.03223-20.05453-7.436.561-15.79256,1.09745-24.13042,1.84288-12.21861,1.09227-23.09126-1.62857-31.90186-10.67-4.40066-4.51594-10.67446-2.90738-15.86013-4.77316-8.43-3.03325-17.15872-2.339-25.79762-2.55634-8.92224-.22451-14.23365-5.99667-18.98089-12.19715-2.53418-3.31-3.70873-7.67969-5.394-11.61519-1.42952-3.33808-2.70161-6.21257-6.5746-8.12931-3.47306-1.7188-6.08354-5.55431-8.5543-8.84643-4.91692-6.55135-8.431-14.61773-14.49786-19.70471-5.32593-4.46569-13.78056-8.583-20.06513-7.634-7.25331,1.0952-11.797.51824-16.98482-4.21414-6.58049-6.00278-14.743-10.473-20.53925-17.08135-6.94843-7.922-12.61764-17.18072-14.33226-28.06232-1.78787-11.34642-9.9023-17.87671-18.55857-23.50835-7.90379-5.14222-16.61841-9.0229-24.863-13.65988-10.46266-5.88447-16.17848-15.52284-19.40114-26.5825-4.28139-14.69323-3.61623-29.41577.30123-44.25325,1.16146-4.399.07178-9.60944-.82521-14.28714-1.57866-8.23235-3.74758-16.355-5.82883-24.48275a4.17829,4.17829,0,0,0-2.29363-2.539C11.48791,568.93592,5.60985,559.7567,6.71421,552.283c.0243-.16445.11582-.34195.07908-.48918-1.60509-6.43611-3.26264-12.85939-4.81847-19.30727-.7811-3.23707-2.50543-6.78257-1.81518-9.72163A68.08125,68.08125,0,0,1,6.36987,507.3715c2.09852-4.05362.06628-7.3-.8842-10.84284-.06888-.25674-.55642-.37241-.74152-.63092-6.31271-8.815-3.85376-17.12536,6.52637-20.642C14.96571,474.00386,19.11587,474.09506,24.27166,473.41256ZM377.35882,28.15943c-1.28955-.68514-1.56465-.96217-1.83139-.95435-19.09338.55907-38.13879,1.585-57.24456-1.04889-8.20412-1.131-16.83265-.93466-24.62312,3.85307-6.4513,3.96478-13.34878,7.21419-20.107,10.66592-6.72121,3.43281-13.94262,6.242-15.83279,13.99889-2.27519.40493-4.3652.17334-5.57467,1.096-5.38612,4.10923-11.11619,8.02168-15.55286,13.03913a27.94676,27.94676,0,0,1-11.64271,8.35448c-8.08926,3.08637-15.77029,2.28819-23.89311,1.12226-5.03528-.72273-10.42964.94568-15.43134.12663-7.4865-1.226-8.79217,3.81018-10.73391,8.69665-.0517.13-.24831.20245-.84318.66028-.98113-1.88376-1.91269-3.67232-2.9269-5.61953-2.42059,1.62433-4.95019,3.32179-8.22958,5.52239.26765-3.00411.41637-4.67362.56509-6.34313l-1.00521-.61049c-1.41788,1.3061-2.83579,2.61219-4.41085,4.06307,1.226.62386,1.96088.99779,1.59993.81411-3.34489,5.72995-8.401,10.897-9.23988,16.67629-1.1557,7.962.87485,16.3865,1.57554,25.04633,5.73212-3.80348,10.503-7.00871,15.31723-10.14763,2.58371-1.68461,6.106-2.659,7.71042-4.98486,5.69949-8.2626,11.801-15.92891,20.99948-20.50633,4.63682-2.30741,8.84075-6.42957,15.8721-3.82664-1.88443,1.32088-2.91451,2.4928-4.17672,2.85436-7.9532,2.278-14.37666,7.13045-19.65029,13.05327-7.37785,8.28621-15.89553,16.51707-12.17227,29.56045.04492.15742-.41268.45831-.87816.94645-5.805-2.58075-4.96331-7.97375-5.04486-13.51162-8.17559,5.41571-15.605,10.54727-19.35215,19.4597-.41475.98645-1.28784,2.411-2.08445,2.50735-7.09354.858-9.83482,6.79721-13.42621,11.51494-5.35975,7.04081-12.21994,12.10935-19.90949,16.08841a97.11245,97.11245,0,0,1-14.13675,5.851C86.302,181.0494,83.37892,195.77656,75.5846,204.91205l7.51766,6.6104c-2.7161,1.81774-4.31481,2.88764-6.1053,4.0859,3.43937,6.89492,1.54384,13.36755-1.37223,19.682-2.29143,4.96193-5.0201,9.727-7.207,14.73133-8.16283,18.679-16.19013,37.41733-24.22616,56.15146a9.51085,9.51085,0,0,0-.231,2.65073c3.52675-.241,6.76387-.46211,10.52992-.7194-.5798,1.37849-.60122,1.59952-.71054,1.65907a12.31169,12.31169,0,0,1-1.27933.58312c-6.41071,2.59067-12.94908,4.69488-14.90861,12.85371-1.10818,4.61406-4.04356,8.75938-5.51577,13.32238-2.63666,8.17208-3.68276,16.18285.80567,24.504,3.71451,6.88637,8.03924,14.47823,8.37278,21.92422.57733,12.88737.11426,26.214-6.42008,38.2362-1.07158,1.97153-1.36032,4.41006-1.80578,6.6731-1.62926,8.27691-3.23291,16.56011-4.6974,24.86724a13.33554,13.33554,0,0,0,.10468,5.38364c4.74361,19.038,8.22974,38.00565,2.782,57.65407a266.64958,266.64958,0,0,0-6.88787,33.45639,20.5292,20.5292,0,0,0,5.84833,17.67c-.32894,1.98213-1.25012,4.08627-.88054,5.93191,1.26712,6.3283,3.4431,12.49619,4.41544,18.85629,1.14605,7.49626,2.65878,15.28571,1.74163,22.66568-1.345,10.82288-3.96488,21.2477-1.82993,32.44348,2.96472,15.54683,9.08262,27.88,24.35661,34.96715,10.94629,5.07916,21.62963,11.15646,29.9508,20.27525,3.07488,3.36971,6.68745,7.12184,7.74588,11.28636A90.35174,90.35174,0,0,0,108.60861,741.621a23.66542,23.66542,0,0,0,4.30575,4.81577c3.98673,3.377,8.04442,6.68673,12.2475,9.78774,4.88359,3.60294,9.14146,8.82714,16.63251,5.20618,3.313-1.60141,7.02817-.84676,10.04329,2.18887,1.53255,1.54294,3.87064,3.11016,5.89958,3.18561,6.95748.25845,10.08538,4.35766,13.58854,9.8348a115.50686,115.50686,0,0,0,18.69889,22.99329c4.69853,4.3059,7.592,8.3509,9.22493,14.457,2.38854,8.93219,9.37129,19.02313,19.98508,17.33925,9.45669-1.50039,18.16426.7704,27.26614,2.07643,8.11928,1.16485,14.04162,4.95976,20.2144,9.59186,3.58019,2.68654,8.30509,5.42917,12.501,5.40787a266.5473,266.5473,0,0,0,33.6509-2.68392c6.88473-.91512,13.54032-3.47634,20.41223.01874,1.402.71315,3.23172.678,4.87828.80318,11.8727.90243,23.96007.65326,35.57733,2.8732A298.47939,298.47939,0,0,0,433.69665,855.05c6.20855-.07605,12.506,1.52859,18.64317,2.899,5.29645,1.18267,10.34479,4.09933,15.64149,4.52546a123.98752,123.98752,0,0,1,30.08378,6.12784c4.57224,1.5452,8.9826,2.75485,13.02149,5.62347,2.568,1.82384,5.63626,5.19855,9.50827,1.35022.33455-.33249,3.40714.95084,3.76336,1.98249,1.32941,3.84931,4.29666,4.31017,7.5343,4.40741,11.6399.3494,23.288.482,34.921.97855,7.08042.30221,14.43465.04816,21.15433,1.9002,25.0828,6.91332,49.72625,4.17728,74.21155-2.33512,12.14487-3.23011,24.0266-7.46916,35.97774-11.40264,10.37745-3.41555,21.10745-6.11344,29.86739-13.17118a10.26265,10.26265,0,0,0,2.8926-3.809c1.99472-4.67251,3.09426-9.85123,5.71987-14.106,6.63448-10.75115,14.26716-20.58088,24.56417-28.48026,12.47325-9.569,24.13579-20.2241,35.792-30.80269,2.17454-1.97352,3.39347-5.71344,3.77276-8.79583.68009-5.52732.45474-11.17392.48709-16.77131a76.89211,76.89211,0,0,1,5.93522-28.566c3.96955-9.81887,11.764-16.28452,19.80294-22.60415,1.55965-1.22619,3.125-3.7934,2.9678-5.5916-.40029-4.57661,1.82125-7.38987,4.60447-10.45291,5.66616-6.23582,10.96182-12.8067,16.5003-19.16089,2.35-2.69606,4.52646-5.84748,7.478-7.65588,7.76588-4.75827,16.26677-8.36988,23.79277-13.4491,5.594-3.77527,10.69814-4.92455,17.17184-3.12866,9.563,2.65266,23.83244-3.125,29.69185-11.17526,1.94919-2.678,4.39486-4.98992,6.4306-7.61114,2.21568-2.85282,5.4048-5.61767,6.09734-8.8631,2.31054-10.82757,3.34647-21.92555,5.61221-32.765.83341-3.98769,3.61809-7.60925,5.72891-11.2733,1.38532-2.40458,4.21431-4.42986,4.57846-6.89372,1.77487-12.01214,3.18521-24.08-2.05319-35.7992-2.77321-6.20378-5.02966-12.46122-3.69623-19.71789a56.555,56.555,0,0,0,.74711-17.78613c-2.35436-16.72432-5.2848-33.3777-8.41141-49.97942-2.07786-11.033-3.40495-21.88768-.62821-33.03472,4.38815-17.61472,2.60938-34.68007-4.50058-51.486-1.91928-4.53648-2.13438-10.36391-1.384-15.33493,1.33955-8.87454,2.20311-17.43591-1.55451-25.91282a20.314,20.314,0,0,1-1.17853-4.82923c-1.37018-8.07978-2.68762-16.16851-3.95722-23.85162-4.42892-1.57721-7.1395,5.502-12.70568.61224,2.95436-1.28955,5.21973-2.198,7.41136-3.259,1.947-.94253,4.78038-1.11616,3.79913-4.66344-2.10581-7.61367-4.04377-15.27377-6.01579-22.78227-4.008.66486-7.60473,1.26151-11.20158,1.85812q-.26918-1.07941-.53848-2.1589c3.08609-1.35675,7.2805-1.94241,8.923-4.30354,1.428-2.05244-.02894-6.11225-.22841-9.58615a19.29435,19.29435,0,0,1-3.14993.84783c-1.31207.03375-2.62818-.09077-3.94282-.15016a19.34528,19.34528,0,0,0,1.9415-3.24369c.59451-1.61945,1.69833-3.74157,1.12628-4.96932a76.81925,76.81925,0,0,0-6.20294-10.12749,3.49077,3.49077,0,0,0-2.339-1.38212c-6.17217-.36808-6.1751-.32-4.19161-5.94134-5.65286-4.21891-11.31609-8.54739-17.0964-12.71328-2.588-1.86514-5.19519-5.42865-8.5634-.80568-.31617.434-1.61934.0253-2.36009.29461-3.26334,1.1864-6.69234,2.125-9.66343,3.842-2.41467,1.39536-4.26363,3.76986-7.00094,6.29912-2.11388-6.2701,1.851-8.61206,4.97008-10.79415,3.37492-2.36119,7.31578-3.91349,11.0098-5.81864-6.2481-1.92362-11.42229-9.15-18.27467-2.74139-.47268.442-1.70394-.03717-2.4082.28851-1.91623.88623-4.21309,1.5668-5.50282,3.06567-2.9042,3.37529-5.16053,7.30294-7.99184,10.75008-.61429.74781-2.53662.42124-3.85639.58953.02417-1.20833-.31508-2.5878.15492-3.58613a27.67852,27.67852,0,0,1,3.13467-4.48233c3.17459-4.2519,6.366-8.49123,9.85789-13.14472-7.52331.59018-13.04066-2.5596-18.09364-6.362-3.40714-2.564-6.20354-2.66513-9.20869.138-3.40263,3.17391-6.62324,6.56172-10.20727,9.51107-1.09075.89767-3.1221.65216-4.72276.9302.23524-1.72068-.16835-4.11621.81473-5.04705,4.64891-4.4019,9.67673-8.40351,14.83958-12.77646-2.1417-4.49475-4.78722-8.9485-6.39777-13.74946-1.48359-4.42187-4.25118-4.77625-7.6549-3.55226-8.1597,2.93426-16.14091,6.31448-22.23788,12.841-3.28385,3.51522-6.361,7.22676-9.71934,10.66635-.708.72526-2.236.64994-3.38615.94353-.16016-1.1708-.885-2.71495-.39516-3.456,6.54121-9.89412,14.95372-17.75267,26.03909-22.2898,3.56914-1.46081,7.496-2.0479,11.494-3.09629-3.31913-9.24648-10.72635-13.75172-18.01124-18.33289-3.752-2.35942-7.79566-4.28212-11.41021-6.82486-3.55511-2.50086-6.284-1.86352-8.50139,1.71384a20.76027,20.76027,0,0,1-6.36041,6.31242,41.98316,41.98316,0,0,1-9.96117,4.44149,24.1788,24.1788,0,0,1-8.36356,1.04176c-4.652-.25082-9.29817-2.4481-13.41922,2.00173a163.45425,163.45425,0,0,1-12.96278,12.32437c-1.01054.87584-3.06276.54983-4.63535.77712.24342-1.61634-.03088-3.6309.84074-4.76415,1.69271-2.20118,4.02387-3.91315,6.10014-5.81725,2.47131-2.2664,4.95276-4.52172,6.79208-6.19986-6.95126-3.11466-13.67986-5.80846-20.077-9.13879-2.95449-1.538-4.88781-1.40508-6.96274.94464-2.19517,2.48584-4.3243,5.05161-6.73689,7.31049-.72367.67754-2.30028.444-3.48613.6278-.17115-1.32925-.87175-2.90707-.39125-3.93019.74454-1.5853,2.24571-2.83949,3.51408-4.14883,2.10557-2.17364,4.28109-4.2796,5.39992-5.39243-5.04443-5.67451-9.638-10.27-13.51762-15.40484-2.63526-3.488-4.80321-4.34438-7.94056-1.102-6.11852,6.32358-12.14011,12.74395-18.3862,18.93826-1.1455,1.13607-3.16458,1.39114-4.78044,2.05292.20808-1.58955-.16926-3.72338.71983-4.67983,5.509-5.92589,10.8854-12.09566,17.1108-17.20331,7.25321-5.951,7.68256-6.22056,1.22686-12.64881a38.0761,38.0761,0,0,1-3.08114-3.27248c-2.20872-2.794-4.63663-2.89259-7.90028-1.63723-9.977,3.8377-18.53219,9.45854-25.10087,18.02123-.80173,1.045-2.56744,1.35053-3.88635,1.99879.0227-1.59871-.63-3.95894.17628-4.6741a220.49739,220.49739,0,0,1,17.8872-14.66477c3.31651-2.37,7.50677-3.51713,12.27207-5.65031-5.37782-4.28952-9.71067-7.83713-14.14429-11.25405-3.80822-2.93493-4.80986,2.72549-7.36784,2.59291-2.69123-.13948-4.86834-4.01823-8.19766-.72234a40.641,40.641,0,0,1-8.62785,6.70309c-1.823,1.01392-4.43338.601-6.68636.85658-1.55421.17627-3.5031-.13324-4.5897.68511-6.8293,5.14329-12.38914,11.3611-14.84372,19.89738-3.68652-2.71247-4.23733-4.89459-1.37055-8.69815,4.26589-5.65989,8.97583-10.98513,13.59092-16.56654-.82853-.38538-1.72732-.7653-2.5918-1.21185-5.28822-2.73155-11.5174-3.4479-15.98392-8.08289-1.3587-1.40988-5.17951-2.66061-6.16191-1.86682-7.40105,5.98025-15.64968,11.46162-17.663,21.88369-.18659.96567-1.18993,1.77353-1.814,2.65467-.96287-.7528-2.79212-1.57757-2.73658-2.24577.2245-2.703.2209-6.01856,1.767-7.91006,5.278-6.457,11.17656-12.40675,16.90358-18.62079-4.42312-4.83191-6.8948-5.1898-10.82522-.14688-.82139-1.59775-2.07328-2.89987-2.03587-4.16388.13374-4.52631-1.802-5.2399-5.55806-3.68931-1.83676.75824-3.82056,1.16714-5.64,1.959-10.62765,4.62547-18.55161,12.10723-23.06812,22.82979-.9959,2.36424-.76286,5.2462-1.18554,8.60338-4.22561-3.31619-4.74333-7.1886-3.02939-10.68331,2.30529-4.70038,4.86913-9.73736,8.66027-13.13759,5.78378-5.18742,12.71307-9.09755,19.0896-13.50406-5.74448-5.84269-11.60182-7.2164-19.31947-3.66451-6.45117,2.96907-12.76727,6.26086-18.99572,9.67855C513.9113,66.03876,505.73354,74.1273,506.9576,88.20841c.06891.79243-.62131,1.65085-.95818,2.47856l-1.43763.28088c-.85557-2.45374-2.59759-4.97421-2.41875-7.35008.956-12.70171,8.64427-20.89859,20.40722-27.33136-5.275-1.07023-9.38436-2.17284-13.56467-2.63916-2.10374-.23467-4.88433-.01027-6.42078,1.19873-9.11121,7.16926-17.23037,15.15844-18.96471,27.50811-.15864,1.12951-1.09478,2.14984-1.74929,3.36871-3.402-3.28617-4.28445-7.08706-1.471-11.55338,3.67865-5.83966,8.25729-11.11693,12.5111-16.5877,2.08433-2.68061,4.30953-5.25174,7.33287-8.91744-6.88961-3.19129-12.63513-7.58783-18.8217-8.33576-10.89933-1.31765-19.263-7.6-27.33529-13.17934a123.80549,123.80549,0,0,0-20.55219-11.406c-5.79221-2.57381-10.47993-1.66509-15.33551,1.76529-1.3382.94538-3.23325,1.10245-4.87279,1.62123L412.69,17.83283c1.62142-1.841,3.24283-3.682,4.97534-5.64912-13.71288-5.43484-18.77678-4.6663-32.1468,5.61516-3.857,2.966-6.42035,7.14446-5.61813,12.14578-5.115,2.5434-10.07378,5.04789-15.06639,7.48282a49.85764,49.85764,0,0,0-20.12065,17.42908c-4.14443,6.29414-8.48344,12.94223-5.41658,21.29047.1883.51244-.46456,1.33393-.87566,2.39953-4.02881-4.03642-5.47444-7.92406-3.67571-13.27827,5.62265-16.73652,18.02326-26.48454,33.36823-33.36764C370.93053,30.63709,373.83869,29.57687,377.35882,28.15943ZM974.38765,545.19756c.71671-2.74733.75114-6.09891,2.34228-8.3498,4.08967-5.78491,3.44-11.72628,2.37365-18.08492a108.20562,108.20562,0,0,1-1.74337-18.19027c.01294-3.51249-1.17389-4.298-4.12239-4.60689-6.48164-.6792-7.88124-2.10854-7.94569-8.7758-.03785-3.9087-2.53015-4.97179-5.08081-3.89124-1.30085.551-1.85617,3.9784-1.921,6.13065-.23317,7.73438-.301,15.48549-.05152,23.218a51.75619,51.75619,0,0,0,1.71187,12.11413c1.75839,6.31659,4.13863,12.46,6.097,18.20878C968.72564,543.68546,971.67427,544.473,974.38765,545.19756ZM15.25438,560.68977l.823-.64575c0-3.27253-.54074-6.65524.09958-9.79733,2.07264-10.17071,3.99012-20.437,7.07728-30.31973,3.34433-10.70617,3.14785-21.59509,3.58714-32.49023.20027-4.96728-3.99381-8.12627-8.88589-6.86388a24.24687,24.24687,0,0,0-6.226,2.94c-4.69459,2.83016-4.056,3.50918-1.50465,8.0604,2.454,4.37774,4.62,9.92606,4.13121,14.67371-.53805,5.226-4.421,10.05559-6.49174,15.20079-.86311,2.1445-1.97074,5.50712-.97966,6.86309,5.53249,7.56975,3.86664,16.68879,6.1389,24.90014C13.71717,555.7178,14.508,558.19759,15.25438,560.68977Zm214.854-496.49425c21.94978-15.48,26.72241-20.147,27.56626-26.82774C244.91773,41.55785,232.59787,53.3359,230.10837,64.19552ZM103.91643,167.661c-1.077-2.16859-1.90735-3.84053-3.33756-6.72027-3.98027,4.20189-7.54553,7.96568-11.11076,11.72948q.64332.71766,1.28668,1.43533Z"/>
    <path d="M273.64878,1204.89111c-4.0207,5.05835-8.0414,10.11669-12.83283,16.14474-.89127-8.538,6.85745-19.98544,13.17068-22.20428,1.08886-.3826,1.81649-2.36,2.29265-3.74462a15.50967,15.50967,0,0,0,.262-3.82544c.25471-3.57615-.1291-6.68972-3.24705-9.33842-2.39147-2.03144-3.9834-5.00414-5.931-7.55834q.71187-.82185,1.42366-1.64395,3.60789,2.22861,7.21683,4.45782c2.5998-4.1669-1.76809-13.21012,7.56207-12.89637,9.02949.30374,9.00831.93258,9.72154,9.51421,3.06008-.66681,6.07469-1.48854,9.14417-1.91632,1.34314-.18715,2.79853.4312,4.203.6839a31.67808,31.67808,0,0,1-2.81752,3.30037,9.60116,9.60116,0,0,1-2.42748,1.25537c1.23974,2.97172,2.42651,5.8166,3.7315,8.9447-1.82888,3.45565-3.59124,7.33261-8.77654,8.18328-1.22443.20095-2.00431,3.11236-3.37437,5.429,3.98029.49211,6.825.84395,10.85336,1.342-1.79091,1.3705-2.53405,2.323-3.474,2.5951-5.31117,1.53726-6.70363,5.24293-6.38043,10.327.51608,8.11845.8574,16.25082,1.1101,24.38234.353,11.36412.2715,22.749.92027,34.09383.46346,8.10368,2.23479,16.13387,2.67408,24.23743.53567,9.88181.1272,19.81073.41542,29.711.43319,14.87569,1.2732,29.74015,1.64968,44.6167.36427,14.39566.111,28.80915.60342,43.19859.35707,10.434,1.48786,20.84159,2.27471,31.26093.11206,1.48366.79972,3.27106.20923,4.378-.85117,1.59512-2.57116,3.62681-4.02918,3.71739-1.19525.07411-3.63445-2.384-3.67168-3.7694-.65238-24.25964-.93511-48.52906-1.50764-72.79151-.14442-6.11753-1.36152-12.21088-1.486-18.32756-.286-14.055.18165-28.13282-.37587-42.17286-.57931-14.59-2.00754-29.14646-3.05831-43.7178-.16584-2.30052-.299-4.60347-.45608-7.04194-1.45215-.41019-3.08987-.87276-4.55844-1.2876-.71732,6.695-1.40846,13.47847-2.28069,20.23864-.041.31729-1.69442.42643-2.43981.59661V1262.861q-.72047-.10016-1.44087-.20058a15.10669,15.10669,0,0,0-.77549,2.86392c-1.0117,14.16579-2.16667,28.32547-2.8882,42.50676-.59066,11.61061-.965,23.25149-.84006,34.8726.08881,8.2713,1.78988,16.54357,1.63545,24.79412-.16975,9.07032-1.95218,18.09841-2.47577,27.17691a267.41473,267.41473,0,0,0,1.63851,47.09789c.1855,1.55753-1.78445,4.52583-3.23587,4.88316-2.98928.7364-3.68731-1.93829-3.74011-4.50019-.34889-16.928-.89378-33.85541-.94676-50.7844-.017-5.437,1.70955-10.86761,1.83627-16.31979.18128-7.79738-.61942-15.61344-.56894-23.41875.13783-21.26009.08112-42.53495.90062-63.77319.75412-19.54142,2.4591-39.04927,3.92554-58.55846.59488-7.91457,1.66713-15.79326,2.52215-23.68842Zm11.37237,18.749q.99734.13185,1.99454.26394c.347-1.31031,1.11755-2.67091.96849-3.922q-1.02891-8.63662-2.56646-17.207c-.19319-1.06407-1.52119-1.92206-2.36614-2.92338C278.535,1208.83766,284.16076,1215.9106,285.02115,1223.6401Zm4.88036,28.628q-.63769-.34427-1.27545-.68842c-.7678,1.643-1.53553,3.28584-2.50372,5.35745-3.57372-1.03843-3.91913.85555-2.77027,3.87976,2.09147.21414,4.00562.4102,5.97959.61237a4.11456,4.11456,0,0,0,.54422-1.33363C289.92831,1257.48721,289.90151,1254.87734,289.90151,1252.26808Zm-11.11119,1.46535c3.64984-2.41771,3.818-6.49464,0-13.19267Zm6.76-6.08823c4.52976-3.04741,4.83049-6.09921,1.78744-10.46389C286.75592,1240.58752,286.254,1243.52567,285.55029,1247.6452Z"/>
    <path d="M629.35737,1257.70146c-.38954,1.41518-1.11419,2.82925-1.11822,4.24553-.05511,19.554.18672,39.11079-.04474,58.6621-.255,21.53844-1.2384,43.07151-1.27435,64.608-.01746,10.44778,1.67507,20.887,2.09361,31.35017.3874,9.6855-.01288,19.4.189,29.09653.07,3.35921-1.47437,4.5887-4.40048,4.60994-3.48778.02539-3.05453-2.35569-3.10433-4.86875-.296-14.94894-.9243-29.89166-1.18933-44.84084-.27705-15.6315-.43239-31.26886-.35427-46.90219q.25078-50.17588.87444-100.34932c.05658-4.49348-.5322-7.71449-5.69968-8.52731-1.32025-.20766-2.46508-1.53042-3.70263-2.34886.52279-.59795,4.43436-.43449,9.61612.36454-.54781-13.6097-.082-27.1945-4.60648-40.532.48031-1.9079,1.0844-4.3073,1.96286-7.79653-2.44653.8348-3.62181,1.50308-4.82915,1.56729a10.24029,10.24029,0,0,1-3.20114-.89852c.44772-1.01829.61954-2.43664,1.39887-2.97392a47.02485,47.02485,0,0,1,5.84647-3.02153q-.157-.77058-.31416-1.54116a14.88173,14.88173,0,0,0-3.54509.04346c-3.68914.93234-7.31676,2.10518-10.99522,3.08342-3.0704.81661-5.64626.33292-7.23307-4.32426,7.24894-1.62211,14.37941-3.21772,21.61456-4.83689a9.88353,9.88353,0,0,0,.3423-1.32264c.96843-7.7859,4.64909-10.64774,12.4124-9.22842a4.58522,4.58522,0,0,1,3.06179,2.95841c1.20837,10.71209,2.08482,21.46129,3.17056,32.18814a19.0488,19.0488,0,0,0,1.4123,4.00869,10.935,10.935,0,0,1,.96373,3.16778c.101,6.70389.04517,13.40973.09058,20.11472.055,8.11638-.57876,16.32224.394,24.33045,2.078,17.10662,4.9428,34.11948,7.59491,51.1537,1.67555,10.76177,3.43321,21.514,5.39308,32.22671.74234,4.05752,2.48016,7.93411,3.20767,11.993,3.2363,18.05691,6.42932,36.1248,9.30361,54.24189,1.20794,7.61389,1.58564,15.35938,2.34874,23.04432.06574.66217-.04413,1.52175.32369,1.94733,5.52248,6.38965,1.48487,14.43326,3.73138,21.39853a18.0909,18.0909,0,0,1,.88822,6.87334c-.14533,1.74614-1.402,3.39961-2.16459,5.09436-1.48512-1.309-3.97114-2.421-4.27407-3.96242-1.05449-5.36514-.52053-11.14279-2.14579-16.2706-2.10716-6.64785-4.17666-13.17362-4.65721-20.16953-.307-4.47028-1.27569-8.90906-1.38831-13.376-.59414-23.57293-6.49659-46.18728-11.86666-68.93872-2.7782-11.77017-4.74455-23.74593-6.7209-35.68774-2.622-15.84307-4.89067-31.74449-7.3361-47.617a9.11855,9.11855,0,0,0-.68155-1.80145Q630.051,1257.81927,629.35737,1257.70146Zm-1.32312-25.35582c3.34153-1.68644,3.47319-10.39552.67545-17.43428C623.45725,1220.96675,632.19979,1226.7538,628.03425,1232.34564Zm3.43778,7.12605q-1.16607-.14906-2.3322-.298-.69849,6.14139-1.397,12.28267.78867.06611,1.57735.132Q630.39612,1245.53007,631.472,1239.47169Z"/>
    <path d="M519.87521,1277.13447c.12287-5.95137.81193-11.21762,5.63137-15.12022,1.44868-1.173,2.1956-3.29108,3.08145-5.06725,3.87433-7.76771,11.28264-8.05046,16.9037-1.52432,4.43881,5.15381,10.04247,9.3571,15.40027,13.64315,2.56928,2.05525,4.31381,3.49863,2.66383,7.24667-1.8309,4.15909-2.49658,8.81578-4.11287,13.08816-2.3811,6.29394-8.12808,8.16021-13.7882,7.45811-6.04344-.74958-11.90761-3.24921-17.74316-5.29042C520.89381,1289.11353,519.36218,1283.42951,519.87521,1277.13447Zm27.33431-10.02561c0,2.26572.47531,4.23429-.11456,5.80194a18.09562,18.09562,0,0,1-3.86481,5.995c-.44644.46465-3.64648-.533-3.72156-1.10411-.29664-2.25851-.69369-5.24122.47873-6.81083,2.996-4.01088,1.84011-7.64136.17774-12.02373-1.42078.36917-3.7384.2814-4.29592,1.22912-3.37437,5.73614-9.60044,9.84493-8.80975,18.02736.50289,5.20338,1.37714,8.11442,6.62471,9.52215a23.82461,23.82461,0,0,0,6.80141,1.2174c3.90241-.13893,8.68559.42143,11.49628-1.57193C558.82507,1282.53746,556.12755,1270.80489,547.20952,1267.10886Z"/>
    <path d="M432.70448,957.83561c.05988-5.46353-6.49738-14.08417-11.75355-16.92367a87.25361,87.25361,0,0,1-13.25509-9.37517c-.80949-.65832-.8134-3.55106-.05451-4.55793.82243-1.091,3.02969-1.70982,4.52433-1.54574,1.246.13685,2.3206,1.72227,3.4965,2.63337,2.9797,2.30863,5.9434,4.63942,8.96729,6.88915,10.26465,7.637,21.118,21.8047,10.53419,36.55831-4.78727,6.67312-8.976,13.77426-13.68736,20.50538-.70084,1.00119-3.6599,1.85491-4.10261,1.38636-5.72263-6.057-13.98474-6.41358-20.888-9.72884a9.31571,9.31571,0,0,1-4.054-3.45028,4.262,4.262,0,0,1,.61752-4.09158c.83189-.7038,2.95034-.49895,4.20876.02222,4.76732,1.97443,9.40157,4.26848,14.12549,6.35242a3.37317,3.37317,0,0,0,1.93436-.23355C423.02183,979.61761,432.59821,967.531,432.70448,957.83561Z"/>
    <path d="M357.54043,1279.14761c2.27788-8.24737,4.19319-17.01152,7.28349-25.33971,1.02635-2.76577,5.02721-4.47,7.77136-6.5215a2.84625,2.84625,0,0,1,2.40551-.31106,151.36186,151.36186,0,0,1,14.937,7.10871c3.20926,1.88238,5.89982,4.71261,8.64586,7.30588,3.614,3.413,4.40218,14.092,2.46624,18.94077-2.98348,7.47228-9.99535,9.7546-15.9415,13.30425-6.46729,3.861-24.28906-3.152-26.73974-10.16125A31.59511,31.59511,0,0,1,357.54043,1279.14761Zm16.52911-22.564q-.74309-1.04876-1.48622-2.09761c-1.90671,2.94229-4.285,5.69085-5.59518,8.87841-1.48365,3.60947-2.02921,7.608-2.94722,11.4458-1.79452,7.5012,1.74459,11.85184,9.46163,13.54829,5.92088,1.30151,10.8-.78523,15.64162-3.02568,6.08531-2.81594,8.40952-8.3255,5.34736-14.39322-2.50952-4.97253-6.71229-9.10952-10.32263-13.48665-.54068-.65545-1.93747-.7823-2.95394-.83211C378.8382,1256.50445,376.452,1256.58356,374.06954,1256.58356Z"/>
    <path d="M475.73284,1126.35149c.05335-5.05114,5.56564-10.99983,11.39538-12.299,2.85268-.63569,9.18892,3.994,10.96268,8.01,2.26757,5.13428.70567,9.572-3.77093,13.40021-4.3522,3.72191-7.47863,4.65242-11.96224-.36515C479.86158,1132.30409,475.35752,1131.33952,475.73284,1126.35149Z"/>
    <path d="M357.43794,1408.85069c-.92564,1.31946-2.30022,4.50666-4.70249,6.365-2.50189,1.93488-5.90861,2.94852-9.077,3.71227-4.28011,1.03171-5.98252-2.30039-6.93093-5.53276a64.10514,64.10514,0,0,1-1.58723-9.81612,4.20665,4.20665,0,0,1,.42684-2.38988c1.29852-2.40575,11.22648-5.12561,14.76773-4.1398C354.08732,1398.09368,357.46694,1402.79371,357.43794,1408.85069Z"/>
    <path d="M540.88427,22.12721C529.057,28.44735,517.22964,34.76749,505.06194,41.2695c-1.543-1.549-1.57673-3.02641,1.895-5.332,4.94964-3.28712,9.97075-6.71025,15.42585-8.93717,8.82384-3.60208,18.01782-6.30155,27.07917-9.31083A8.24553,8.24553,0,0,1,552.428,17.572c.4344.02433.851.36563,2.92885,1.33138-8.27707,5.27718-15.64492,9.94856-22.98169,14.66815-2.21984,1.428-4.26894,3.14094-6.56263,4.42657-1.16778.65458-2.70454.65075-4.0746.94452.46682-1.3793.51547-3.3465,1.47682-4.03046,3.20608-2.28091,6.7278-4.12188,10.15093-6.09268,2.82674-1.62741,5.68515-3.19988,8.52959-4.79672Q541.38981,23.075,540.88427,22.12721Z"/>
    <path d="M743.0652,56.66512c-5.36354,3.06427-10.578,6.43482-16.1204,9.1315A75.744,75.744,0,0,0,695.87508,93.718c-.83049,1.293-2.60181,1.98161-3.93672,2.95059.07471-1.91506-.5386-4.25014.33339-5.67853,6.79318-11.12869,15.78213-19.9158,27.858-25.35836,6.02129-2.71378,11.82613-5.90465,17.76623-8.80354a41.45854,41.45854,0,0,1,4.47715-1.604Q742.71923,55.94465,743.0652,56.66512Z"/>
    <path d="M262.37365,1055.3386c-1.27881,4.09072-6.38379,7.80116-10.76211,7.52708a17.3119,17.3119,0,0,1-4.85644-.82722c-1.05028-.38627-1.83523-1.49368-2.73865-2.27891.9506-.81526,1.78212-1.991,2.882-2.35411,1.36145-.44938,3.19089.23635,4.378-.39542,1.95-1.03782,3.54576-2.74147,5.291-4.16422a67.77653,67.77653,0,0,0-4.9417-4.65108,20.68975,20.68975,0,0,0-3.96266-1.94806c.74973-1.23229,1.23291-3.0717,2.315-3.5466,1.42836-.62689,4.30911-.8702,4.857-.08534C257.64942,1046.64538,259.91589,1051.05877,262.37365,1055.3386Z"/>
    <path d="M633.962,31.5007c-2.94039,1.05658-6.10484,1.71992-8.77917,3.2436-7.9947,4.55492-15.80458,9.4351-23.66714,14.22026-1.12.68162-2.03709,1.82986-3.226,2.22047a3.95268,3.95268,0,0,1-2.96407-.65822c-.2892-.1901-.05011-2.04218.486-2.48715,3.03408-2.51812,5.98509-5.30256,9.42409-7.13222,7.39055-3.932,15.00328-7.46867,22.66356-10.85358,1.63106-.72073,3.85254-.105,5.802-.105Q633.83165,30.72479,633.962,31.5007Z"/>
    <path d="M374.13625,895.39934c-4.56247-.82173-9.26527-1.19933-13.6497-2.58453-4.82054-1.523-9.0608-.90835-13.48484,1.07383a5.462,5.462,0,0,1-4.38583-.05378c-.91007-.54155-1.72463-2.91934-1.26159-3.696.6749-1.1317,2.45995-1.917,3.90259-2.2142,3.84595-.79225,7.7558-1.29205,11.6551-1.79235a4.61966,4.61966,0,0,1,2.3919.52648c5.02331,2.37785,10.01683,4.81864,15.01994,7.23928Q374.23007,894.64872,374.13625,895.39934Z"/>
    <path d="M550.22053,1006.64693c-4.53482,1.096-9.08539,2.132-13.59751,3.31477-2.07554.54387-4.122,2.03-6.09691,1.89019-1.92123-.136-3.73413-1.80388-5.59463-2.79909,1.20154-1.26831,2.36852-3.58653,3.61028-3.62743,6.12957-.20131,11.68483-5.29518,18.14967-2.13777,1.24469.608,2.50073,1.19274,3.75152,1.78825Q550.3318,1005.86145,550.22053,1006.64693Z"/>
    <path d="M480.00368,898.05725a25.4129,25.4129,0,0,1-4.19045.81935c-7.15354.21511-14.31032.40135-21.46642.42216-4.76164.01386-5.86533-.9429-6.38153-5.663,10.7413.82387,21.29533,1.63333,31.84942,2.44286Z"/>
    <path d="M548.6264,988.28933c-5.89524,7.33921-20.95394,10.02013-23.86515,4.55525C532.92368,991.28657,540.775,989.788,548.6264,988.28933Z"/>
    <path d="M375.40371,989.11851c-3.90192,4.00588-15.00768,2.86881-17.138-.20656a4.82511,4.82511,0,0,1-.91466-3.17059,2.74484,2.74484,0,0,1,2.28741-1.458C364.93031,985.76334,370.15724,987.47578,375.40371,989.11851Z"/>
    <path d="M706.33017,884.85189c-.17006,4.55616-3.81684,8.27331-7.09007,7.71564-1.27447-.21712-3.16616-1.46254-3.3494-2.49328-.42018-2.36467,5.53115-7.13209,8.2355-6.75889C705.07217,883.44581,705.88715,884.52477,706.33017,884.85189Z"/>
    <path d="M728.51372,1422.81077c-1.37323,2.83657-2.17881,5.24195-3.61748,7.17671-.78642,1.05772-2.64381,1.31934-4.01826,1.93988-.36074-1.18859-1.284-2.55151-.97954-3.53391,1.02556-3.3094,2.48779-6.48353,4.17635-10.68864C726.27313,1420.23349,727.4292,1421.56321,728.51372,1422.81077Z"/>
    <path d="M502.83,960.71553c-2.946,2.02436-4.68131,4.13089-6.06853,3.92225-1.49793-.22524-3.08065-2.44689-3.777-4.14578-.26717-.6518,1.96878-3.34395,2.79054-3.22443C497.70569,957.54836,499.47146,958.96341,502.83,960.71553Z"/>
    <path d="M384.91936,1234.56363l-4.20339,4.65792a76.3928,76.3928,0,0,1-4.472-6.65372c-.14228-.25625,2.14567-2.5183,2.56268-2.31614C380.68991,1231.16511,382.30559,1232.63034,384.91936,1234.56363Z"/>
    <path d="M228.33656,1391.88239c-2.42724,1.78191-4.16432,3.99929-5.50295,3.78051-1.398-.22878-3.17563-2.72706-3.33976-4.37725-.11963-1.20287,2.3894-3.89612,3.23355-3.7086C224.45527,1387.96148,225.85145,1389.837,228.33656,1391.88239Z"/>
    <path d="M197.28191,1448.9766c-.05872-3.43148-1.56349-7.33139,3.14261-8.72117.81852-.24172,3.41514,1.95929,3.30387,2.77431C203.27133,1446.37564,201.97775,1449.50363,197.28191,1448.9766Z"/>
    <path d="M311.78421,903.79675q-5.658,3.54911-11.31609,7.09828-.57159-.91012-1.14318-1.82012c3.3541-3.107,6.233-6.95276,11.41064-7.22439Q311.25983,902.82365,311.78421,903.79675Z"/>
    <path d="M720.52518,1387.03293c-2.78627,2.8179-5.28272,4.15408-7.36656.28946-.50381-.93442-.13661-3.38253.55337-3.7406C717.16259,1381.791,719.01144,1383.917,720.52518,1387.03293Z"/>
    <path d="M178.04625,1360.83792c-.61624-1.45-2.08787-3.28755-1.64778-4.25883a6.32337,6.32337,0,0,1,4.13148-3.15167c.89421-.15627,2.1928,2.001,3.3093,3.11639q-1.75587,1.61258-3.51176,3.225Z"/>
    <path d="M208.63329,1453.2817c-1.43684,1.21423-2.72755,2.79507-4.385,3.45626-.632.25222-2.72-1.43837-3.019-2.54687-.2892-1.07261.83658-3.613,1.39691-3.62974,1.86582-.05567,3.75684.733,5.63815,1.198Z"/>
    <path d="M190.61442,1425.01361l-6.18188.80208.30709-5.16895q3.052.71161,6.10393,1.42311Q190.729,1423.5418,190.61442,1425.01361Z"/>
    <path d="M702.13416,1303.55143a54.43464,54.43464,0,0,1,6.06475-1.9223,21.97454,21.97454,0,0,1,1.25665,3.32307q-3.19242.82863-6.38471,1.65726Q702.60245,1305.08039,702.13416,1303.55143Z"/>
    <path d="M44.04348,282.75241c-1.25937.28689-2.62763,1.01331-3.74719.73591-1.098-.27206-1.943-1.56518-2.89912-2.41014,1.01634-.6938,2.13718-2.06209,3.02468-1.9245,1.35782.2104,2.55468,1.45952,3.81985,2.26773Z"/>
    <path d="M636.92829,651.30916c-7.68091,1.67765-15.30457,3.71208-23.05506,4.95628-14.68619,2.3574-29.264,3.1557-43.77284-2.104-6.44928-2.338-13.56132-3.10571-20.45142-3.91157-11.68085-1.36616-23.45217-3.27985-35.13431-2.979-14.55135.37467-28.8046.26931-42.9592-3.61656a23.14557,23.14557,0,0,0-11.83156.00458c-10.666,3.00022-20.03367-.74183-29.25915-4.86332-4.00019-1.78716-7.15018-2.3231-11.22747-.32669-1.68727.82613-5.545.03644-6.71144-1.4012-4.05622-4.99944-8.92242-5.37747-14.72781-4.78879a113.75248,113.75248,0,0,1-41.93994-3.15667,41.07173,41.07173,0,0,0-6.34478-1.15807c-19.61611-2.16921-38.34613-6.89263-55.32485-17.57828-6.4466-4.05715-9.43-10.50455-13.68358-16.16329-2.23759-2.9766-3.72716-5.80872-2.52825-9.4334.47536-1.43727,1.33758-3.56467,2.38018-3.80041,1.48078-.33469,4.38607.347,4.7913,1.355,4.22182,10.50094,13.88781,6.96716,21.47722,8.60134a135.306,135.306,0,0,0,13.53764,2.1702,24.45068,24.45068,0,0,0,7.3983-.28629c9.47818-1.90368,18.38113-2.25046,27.125,3.58641,10.31415,6.885,22.02729,4.5235,33.422,3.01811,20.97757-2.77151,41.75316-1.98609,62.24492,3.66276,5.41725,1.49331,10.80557,3.28077,16.33068,4.12015,3.09231.46977,6.517-.42491,9.65274-1.24017,6.104-1.58682,11.957-1.8797,18.115.20784a17.65864,17.65864,0,0,0,9.571-.01343c6.62836-1.72141,12.69213-1.87451,18.51644,2.425,1.7706,1.30707,4.36478,1.43568,6.44483,2.39952,4.30605,1.99537,9.10847,3.49557,12.623,6.47706,4.35879,3.69768,8.7279,4.92223,13.55833,2.64179,6.24279-2.9473,12.66979-1.98468,18.93065-1.4933,10.57021.82961,21.0466,2.794,31.6057,3.848a37.77809,37.77809,0,0,1,16.56555,5.95034c6.07542,3.75072,13.25423,2.20468,19.93021,1.13506,12.59478-2.01784,25.13053-4.40808,37.679-6.708,1.76967-.32438,3.44358-1.225,5.21552-1.469,1.68452-.23189,3.95966-.63128,5.0714.2214,4.3436,3.33149,8.28238,2.90854,12.17588-.41618,2.335-1.9939,4.95458-2.19168,6.44086.2228.82,1.33222.37856,4.70126-.77555,5.77613a179.80106,179.80106,0,0,1-18.30019,15.3664c-2.77137,1.964-6.83981,2.26553-10.39222,2.93-13.98608,2.61615-28.00122,5.07635-42.00555,7.59441Q637.11733,652.19062,636.92829,651.30916Zm55.36092-19.82679-.34059-1.68925c-2.83974,0-5.74222-.38553-8.50834.06556-13.245,2.15938-26.42888,4.69674-39.68146,6.8043-11.06413,1.75944-22.164,3.00975-31.70892-5.13678a6.08513,6.08513,0,0,0-2.803-.90726q-9.25688-1.65625-18.52981-3.22223c-12.51574-2.09108-24.99265-2.7936-37.39278.87051-5.00683,1.47945-9.44137,1.36774-13.645-2.937-2.85634-2.92515-7.05509-4.63448-10.83042-6.53633-2.93959-1.48067-6.46173-1.9408-9.17866-3.69884-5.64449-3.65239-11.0947-3.24647-17.01015-.94363-2.33507.909-5.75845,1.83867-7.5628.80244-7.46685-4.28789-14.57107-2.70479-21.992-.31381a14.12038,14.12038,0,0,1-7.16989.13472c-10.93967-2.53009-21.71436-5.87624-32.73448-7.931-16.64545-3.10363-33.38459-2.51483-50.07978.46812-10.83976,1.93665-21.71173,1.73339-31.40293-4.17679-7.92806-4.83475-15.85769-4.68508-24.3642-2.54589-2.78346.69989-6.44691,1.25488-8.71386.03253-7.12082-3.83948-14.93846-1.52291-22.20626-3.39333-.94579-.24331-2.2567.9321-3.39848,1.4504.53646,1.14006.76291,2.82625,1.6581,3.3343,7.74262,4.39483,15.16729,10.14764,23.528,12.48172,15.20532,4.245,30.94032,6.70047,46.54434,9.37773,13.76323,2.36149,27.64085,3.20069,41.62583,1.29944,2.32085-.31558,4.93334,1.74254,7.45244,2.57911a31.7635,31.7635,0,0,0,5.47762,1.41731c3.45079.49028,7.5943-.32895,10.28168,1.31091a43.48314,43.48314,0,0,0,27.55216,6.24639,89.43063,89.43063,0,0,1,16.29051-.11085c8.87677.83449,17.661,2.80184,26.54363,3.38326,8.39481.54943,16.8755-.3519,25.3004-.07234,5.08807.169,10.146,1.345,15.21008,2.11691,10.1488,1.547,20.51355,2.28513,30.39018,4.87748,17.83631,4.68154,35.26377,5.35286,52.72719-1.17578a26.61181,26.61181,0,0,1,6.311-1.01541c15.15442-1.69908,30.34783-3.10559,45.45243-5.166A32.5116,32.5116,0,0,0,692.28921,631.48237Z"/>
    <path d="M568.80974,807.91716c-15.37989-1.0739-29.58729-2.08669-43.798-3.05089-9.59873-.65131-19.20136-1.24652-28.80356-1.84509q-22.60326-1.409-45.2084-2.78817c-11.39648-.6991-22.8012-1.28375-34.1884-2.1097-13.40134-.972-26.88947-1.46114-40.15384-3.41988-15.03935-2.22079-29.96914-5.43509-44.76276-8.98383a256.40089,256.40089,0,0,1-31.12075-9.69343c-10.20636-3.87617-20.35473-8.29859-27.19112-17.59837-.57858-.78712-1.55128-1.39283-1.848-2.2529a20.03535,20.03535,0,0,1-.57644-3.97175c1.52363-.03437,3.29636-.579,4.51328.015,1.886.92056,3.31345,2.73147,5.07544,3.96462,5.38813,3.77117,10.39728,8.53811,16.34953,10.9701,25.5437,10.437,51.96538,18.05843,79.50551,20.90611,22.80871,2.35845,45.67052,4.27507,68.54161,5.936,19.22,1.39588,38.4936,2.03858,57.73206,3.20288,19.8953,1.204,39.76045,3.02605,59.66887,3.861,21.75647.91238,43.35534-1.70646,64.84715-4.83133,8.48033-1.23309,16.8102-3.4794,25.2708-4.8914,1.5461-.258,3.39262,1.28424,5.10053,1.99543-1.03771,1.6055-1.76437,4.19718-3.16867,4.64016a79.47694,79.47694,0,0,1-15.93564,3.65818C615.04937,803.95053,591.40481,805.9152,568.80974,807.91716Z"/>
    <path d="M759.20916,464.07133a56.0905,56.0905,0,0,1-7.51989.32926c-1.75607-.1418-4.474-.6695-4.91809-1.76958-.60745-1.50436-.09033-4.78885,1.03326-5.44437,5.90665-3.44564,5.71621-7.54027,2.58594-12.71258-.87761-1.45015-.97393-3.519-1.00347-5.311-.11219-6.78785.07874-13.58174-.08716-20.36739-.17848-7.29611,1.96469-10.60813,8.94671-12.96334,1.41059-.47584,2.89309-.73991,4.30233-1.21945,5.48147-1.86526,9.17476-5.30507,9.5947-11.40358.27675-4.01675,1.98423-6.28936,5.98015-8.04145a49.77328,49.77328,0,0,1,21.5982-4.4154c6.21282.12421,12.48985-1.41487,18.6879-2.50333,7.40734-1.30075,8.88006-.704,12.16709,5.97387,1.67342,3.39956,3.19058,6.88711,5.05187,10.1803,2.76857,4.89863,8.37406,7.15986,14.63754,6.20588,5.39113-.82106,7.02378.507,8.679,5.51991,2.11838,6.41608,5.01476,12.57683,7.09763,19.00267,2.71094,8.3639.85026,13.65646-6.02971,18.99325-1.43781,1.11521-3.12613,1.93921-4.446,3.169-4.957,4.61885-10.34584,8.81261-7.95607,17.20306,1.4278,5.01312-.61026,6.80607-5.70023,7.70484-12.6964,2.24161-25.34923,4.72964-38.04771,6.95837-9.274,1.62778-18.555,3.34566-27.90454,4.36986-6.68012.73188-12.73364-.807-16.42876-7.61273C757.5029,472.18411,756.60588,468.94546,759.20916,464.07133Zm4.83067,8.43623c2.08433,5.07105,6.05156,5.966,10.9622,5.10089,5.85062-1.03067,11.72517-1.93249,17.60032-2.81594,5.56912-.83748,11.1657-1.49672,16.72627-2.3842,6.6728-1.0648,13.32278-2.273,19.97715-3.45046,2.60388-.4608,5.17481-1.14629,7.79261-1.48147,4.13581-.52947,4.25484-2.96134,3.88507-6.41065-.29457-2.7477-.30238-6.15378,1.06939-8.30761a28.15008,28.15008,0,0,1,8.51579-8.68577c10.29663-6.37381,12.4691-13.365,6.92977-24.20914a38.62628,38.62628,0,0,1-3.35233-8.798c-.80912-3.52829-2.37731-5.02648-6.14165-4.76016-8.02321.56759-14.09272-3.03129-18.22963-9.76506a70.373,70.373,0,0,1-4.02351-8.48491c-1.42622-3.22388-3.39946-3.96306-7.10081-3.31929-8.4545,1.47038-17.11019,1.77394-25.57531,3.1983a43.33771,43.33771,0,0,0-12.89808,4.57466c-1.42207.756-1.46028,4.04958-2.21947,6.15266a12.9466,12.9466,0,0,1-1.22442,2.12569c-3.06741,5.11942-6.83846,9.05952-13.18508,10.27146-3.28666.62756-8.04518,1.13713-7.65735,6.22209.85063,11.15317-1.79366,22.63806,3.12369,33.44.72733,1.59787.44032,3.63322,1.02531,5.32717.58011,1.68058,1.28449,3.70018,2.59864,4.68166C769.65875,465.97258,769.8476,466.80505,764.03983,472.50756Z"/>
    <path d="M274.95945,404.32944c-.86265,7.01672-2.10746,14.15492-2.49639,21.33944a12.6862,12.6862,0,0,1-6.25189,10.65556c-3.55284,2.29151-3.63323,4.93184-2.19786,8.51934,4.31582,10.78662,4.28378,10.98793-6.548,14.8641-7.12381,2.54919-14.51992,4.33372-21.66,6.8422-5.90946,2.07607-11.67463,4.59364-17.407,7.134-4.79936,2.12685-9.1761,2.61438-13.25936-1.50588a8.16722,8.16722,0,0,0-3.87549-2.03352c-17.65759-3.8921-26.56823-16.06782-31.10861-32.50244-.9246-3.34673-2.04508-6.64715-3.23483-9.91077-1.41392-3.87845-.68976-7.317,2.36882-9.90363,8.9195-7.54317,13.89435-17.65574,18.58732-27.96288.60159-1.32126,1.27692-3.16726.81132-4.325-2.88491-7.173,1.83968-11.476,5.57039-16.33417,5.96837-7.7722,22.70476-11.43249,29.42866-7.25976.70224.4358,1.70479.56155,2.19114,1.14522,6.23431,7.48244,14.67026,8.417,23.57864,8.17733a5.86853,5.86853,0,0,1,3.79291,1.02408c5.944,5.39352,12.50951,10.37514,17.27182,16.697C273.43631,392.85956,273.50479,398.87427,274.95945,404.32944Zm-71.23472,55.20325c.36732,6.342,6.74251,10.91877,11.70875,8.09465,11.72443-6.66721,25.14262-7.78871,37.48921-12.3873,8.1108-3.02092,9.08577-3.3871,5.62894-11.06337-2.601-5.77564-1.73074-8.4927,2.80366-12.63436a16.03817,16.03817,0,0,0,4.86931-7.48543c.96678-4.11294.152-8.62552.96989-12.79657,1.90909-9.7368.73887-18.69817-6.19554-26.0476-2.8553-3.02614-6.6009-6.49192-10.37965-7.1193-10.05608-1.66962-20.54877-1.329-27.747-10.43853-.43276-.54766-1.49275-.65216-2.28869-.85228-9.26033-2.328-16.34007,1.33661-22.26693,8.14235-2.16661,2.4879-4.80638,4.63954-1.86178,8.55788.74118.9863-.56418,3.66173-1.18652,5.47239a34.1784,34.1784,0,0,1-2.04606,3.9061c-4.57627,9.17816-7.23985,19.5048-16.30516,25.93211-3.783,2.68214-4.85723,6.27935-2.8813,10.92564a94.32428,94.32428,0,0,1,3.911,12.72323c2.744,10.31144,10.02947,16.18,20.67573,16.54629C200.26216,459.065,201.89419,459.33882,203.72473,459.53269Z"/>
    <path d="M616.09844,261.4994c-3.73187.79823-7.50354,2.42021-11.1884,2.24249-11.71272-.565-23.39187-1.816-35.08707-2.76314a55.39221,55.39221,0,0,0-6.47547-.22195c-10.142.37031-20.27868.90564-30.42241,1.20349-4.83556.142-9.38912-.535-13.52427-3.78708a17.47854,17.47854,0,0,0-14.064-3.594,21.98226,21.98226,0,0,1-9.85607-.27639c-14.28944-4.58928-28.63491-1.99839-42.99851-1.0594-11.26848.73661-22.5518,1.24283-33.82638,1.88928-3.12686.17934-6.24328.536-9.36923.73939-15.851,1.03147-31.45047-.84819-46.95439-3.99336-6.38715-1.29572-12.74237-2.49267-18.60092,2.24234-.89842.72614-3.579-.753-5.43538-1.21224.70621-1.6117.96342-3.84821,2.19291-4.73193,7.02194-5.04751,14.57968-5.43534,23.00861-3.31682,16.6839,4.19334,33.80441,4.94762,50.94146,3.99578,18.252-1.0138,36.472-2.63994,54.729-3.51822,10.49928-.50509,21.06015-2.012,31.46647,2.17919,3.74328,1.50762,8.67614-.24538,12.84345.5946A87.88987,87.88987,0,0,1,528.32,253.051c8.72576,3.46926,17.69494,1.20648,26.55419,1.52493,7.50774.26983,15.01256.65466,22.51224,1.09815,4.13631.2446,8.26041.70252,12.38811,1.08559q12.09441,1.12241,24.18456,2.2901a7.54634,7.54634,0,0,1,1.78079.64814Z"/>
    <path d="M571.35582,771.30031c-19.18012-1.80724-38.34888-3.749-57.5448-5.3688-10.64687-.8984-21.34294-1.19726-32.01-1.87481-20.04929-1.27362-40.07766-3.01592-60.14453-3.83191-18.7-.76039-36.532-4.59266-52.95181-13.48908-6.01824-3.26075-11.07976-8.34828-16.3565-12.86122-.95335-.8152-.82975-2.88993-1.20336-4.38317,1.5652-.11372,3.24118-.62329,4.66337-.22561a8.71253,8.71253,0,0,1,3.53074,2.63941c8.59233,9.19186,19.73959,13.74393,31.46568,16.97416,15.45539,4.25749,31.33011,5.42441,47.3086,6.39624,34.69025,2.10989,69.31349,5.32785,104.00545,7.40238,16.91524,1.01151,34.02507,1.686,50.85809.26962,14.411-1.21258,28.53945-5.69134,42.83-8.53878a11.79913,11.79913,0,0,1,5.91251.73213c.66727.235,1.2,2.2739.95415,3.28547a3.99435,3.99435,0,0,1-2.37469,2.644c-18.43569,3.10784-36.87908,6.18547-55.3705,8.93518-4.39432.65351-8.96851.09693-13.46.09693Q571.41211,770.70141,571.35582,771.30031Z"/>
    <path d="M582.67515,206.4616c-8.04043-3.68507-15.17852.32352-22.58952,1.61435a186.70394,186.70394,0,0,1-19.124,2.82c-9.75261.66937-19.5497.70578-29.32916.961-3.437.08967-6.9415-.37769-10.30079.14485-4.26656.66364-7.92305.42491-11.859-1.86614-2.68683-1.56393-6.3579-1.63517-9.63-1.96177-16.37914-1.63483-32.75083-3.4356-49.167-4.57517-11.11272-.7715-22.29587-.75914-33.44508-.69092-7.378.0451-13.93567-2.14947-20.56544-5.0716A19.878,19.878,0,0,0,366.32069,196.73c-5.45235.78-10.71981,2.79687-16.15916,3.76351-1.34271.23861-3.04683-1.55645-4.58475-2.41664.70829-1.23868,1.10925-3.06209,2.17436-3.622a55.296,55.296,0,0,1,23.90709-6.11005,11.75455,11.75455,0,0,1,6.6197,1.78947c6.52784,4.41122,13.8911,5.20134,21.37162,5.61282,21.74665,1.19606,43.50068,2.25986,65.24568,3.4837,7.093.39917,14.16742,1.12974,21.25,1.71342a4.62125,4.62125,0,0,1,1.96146.24834c8.79693,5.63085,18.81175,2.96739,28.1175,3.365,12.8457.54879,25.82-1.21063,38.69911-2.4106,7.57159-.70542,15.03679-2.51834,22.60454-3.31038C582.73222,198.29181,584.39447,200.81323,582.67515,206.4616Z"/>
    <path d="M533.062,338.18178c-9.60428-1.41734-19.32594-2.29978-28.7858-4.37541-14.78416-3.24388-29.61976-2.28968-44.24259-.48711a74.14936,74.14936,0,0,1-41.5629-6.727c-7.9811-3.7362-16.22637-3.72747-24.39991-2.34758-15.48286,2.61384-30.95619,3.64171-46.53158,1.62073-4.84985-.62933-9.54935-2.35218-14.385-3.1821-2.55866-.43919-5.37422.43095-7.86274-.16762-1.82278-.43842-4.3959-2.08439-4.6992-3.58371-.57327-2.83374,2.08994-3.048,4.41848-3.08865,8.0237-.14021,15.74307,1.153,23.68809,2.49814,12.35648,2.092,25.38335.39081,38.118.02023,7.76062-.22582,15.543-1.65424,23.24519-1.23834,4.94762.26718,9.97228,2.45464,14.60611,4.56425,14.4275,6.56832,29.54016,5.85,44.5208,3.97145,15.36768-1.92709,30.12174.668,45.03481,3.36443,4.46658.8076,9.18323.18425,13.78221.32181a96.92744,96.92744,0,0,1,11.8785.743,4.44772,4.44772,0,0,1,2.76435,3.36974c-.02033,1.14628-1.67641,2.90387-2.92647,3.24213-2.01609.54549-4.28768.14656-6.45136.14656Q533.16653,337.51426,533.062,338.18178Z"/>
    <path d="M559.451,555.57246c.17445,2.32627.40865,4.64186.51083,6.96331.31,7.04871-2.17784,11.09921-7.98982,13.12839-6.94674,2.42528-12.14957.99875-16.11466-4.8953-5.2845-7.85525-12.31694-11.818-21.89363-10.68187-1.46064.17329-3.14852.18715-4.29763.93826-6.21672,4.06332-12.279,8.36225-18.43813,12.51517a49.68025,49.68025,0,0,1-4.40085,2.38573c-.23921-1.75279-1.21929-3.88361-.55929-5.17768a22.28764,22.28764,0,0,1,5.34779-6.64212,41.8888,41.8888,0,0,1,9.20533-6.1923c4.08815-1.90674,8.63457-4.44793,12.82056-4.17978,7.89119.50548,16.32128.75538,22.17233,8.01779,2.44933,3.04009,5.77914,5.44511,8.9917,7.74293.79386.56787,3.01955.00684,4.01008-.77058,1.63741-1.2851,3.79541-3.072,3.96454-4.81876.34542-3.56778-.40376-7.2607-.89494-10.87579a3.64229,3.64229,0,0,0-1.57905-2.212c-10.17511-6.44849-19.10632-14.13331-25.375-24.62735a5.27647,5.27647,0,0,0-3.17221-1.785c-5.16932-1.19671-10.40516-2.11056-15.56227-3.35354a22.37468,22.37468,0,0,1-6.80569-2.58032c-5.92765-3.80212-11.76673-7.77021-17.36014-12.04064-1.05919-.80867-1.55171-4.51209-1.06609-4.80179,1.68575-1.00571,4.39059-2.059,5.84714-1.34321a30.245,30.245,0,0,1,9.59153,6.83726c6.82344,7.91818,16.51012,7.93362,25.405,9.6548,6.94576,1.344,7.91444,2.18087,11.25328,8.34235,2.49719,4.60823,6.99887,8.22674,10.95261,11.9166a89.81125,89.81125,0,0,0,9.51785,7.11146C557.48516,546.95658,560.96824,549.95913,559.451,555.57246Z"/>
    <path d="M448.60325,713.53716c3.86755,4.42327,6.69612,8.22985,10.09795,11.4262,6.45948,6.06937,14.30727,9.2048,23.10359,10.61881,17.35269,2.78951,33.4419-1.43178,49.18466-8.017a11.54527,11.54527,0,0,0,3.92621-2.93717c3.38493-3.7658,6.4751-2.90085,9.92577.41392-2.45941,5.2624-7.27336,7.94351-12.0549,9.53686-10.66133,3.55265-21.53753,8.24847-32.49661,8.74943-23.199,1.06047-44.40629-2.95121-57.77455-26.80066a64.62448,64.62448,0,0,1-4.01-7.36819c-1.31665-3.29793.77092-5.7367,4.17171-4.896,2.04521.5056,4.56852,1.27423,5.71109,2.79861,2.78248,3.71239,5.79422,2.84683,9.24306,1.68039a42.73356,42.73356,0,0,1,5.87778-1.11741C462.4573,711.95632,461.79767,712.21513,448.60325,713.53716Z"/>
    <path d="M566.07127,334.25612a19.05589,19.05589,0,0,1,25.89656-1.5213c1.89157,1.53122,5.26423,2.61518,7.51781,2.0754,9.37881-2.24637,18.71837-1.18173,28.1413-1.07826,14.0763.15467,28.16242-.70347,42.24665-1.03221,2.1248-.04956,4.25649.53448,6.39453.65165,4.88262.26757,9.77055.44575,14.65762.62167,1.82541.06571,3.73944-.297,5.45.15385a4.30881,4.30881,0,0,1,2.36584,2.72454c.16016.54348-1.10345,1.90548-1.98789,2.29309a32.97249,32.97249,0,0,1-17.94147,2.45217,210.361,210.361,0,0,0-22.10622-1.65518c-7.99837-.19207-16.0112.325-24.0183.35068-5.118.01648-10.24622-.56192-15.35321-.387a100.73622,100.73622,0,0,0-14.76987,1.561,17.16549,17.16549,0,0,1-14.01172-3.136c-4.998-3.63478-10.6307-3.23869-16.14817-1.50067C568.4064,338.08894,568.47873,338.31861,566.07127,334.25612Z"/>
    <path d="M822.26686,505.27431c-14.06122,4.90177-28.30909-3.59153-42.45711.56579-2.1428.62964-5.06262-.08393-7.2169-1.06651a80.37092,80.37092,0,0,1-12.68127-7.15913c-1.03374-.72254-.66018-3.45871-.933-5.27,1.97665-.234,4.78611-1.427,5.79715-.54906,7.54174,6.54976,16.05887,7.15126,25.25023,5.21351a9.01975,9.01975,0,0,1,4.46286.00751c9.64938,3.18194,19.39472,1.65867,29.1729,1.06877,4.0417-.24386,7.27671-1.07134,10.22473-4.10257,1.36078-1.39906,4.14021-1.41823,6.27642-2.063-.5718,2.21438-.51943,4.932-1.82662,6.55348C833.45965,504.52247,829.61169,505.9142,822.26686,505.27431Z"/>
    <path d="M233.19659,320.12686c10.07159-1.67008,20.11461-3.5629,30.23375-4.86283a14.67592,14.67592,0,0,1,8.46445,1.86737c3.225,1.817,5.69778,1.48562,8.77331-.07444a20.09007,20.09007,0,0,1,8.47776-2.51394c1.84012-.01682,3.70019,2.14525,5.55129,3.33085-1.56324,1.08925-2.99715,2.50628-4.72172,3.18674-2.28191.90032-5.00366.80019-7.15989,1.88122-5.00787,2.51074-9.7399,4.24082-14.61514-.19576a3.42747,3.42747,0,0,0-2.81776-.619c-13.6978,4.287-27.77013,3.57526-41.82164,3.39333-1.702-.022-3.42851,1.31219-5.12128,1.26193-1.51044-.04487-2.9897-1.136-4.48275-1.76534.67276-1.33228,1.12065-3.61988,2.05515-3.83987,5.54854-1.30607,11.2097-2.13342,16.833-3.12164Q233.02083,319.09116,233.19659,320.12686Z"/>
    <path d="M794.16688,337.50533c-3.95807,1.734-6.838,3.65043-9.95824,4.19861a37.9684,37.9684,0,0,1-12.239.25558c-11.3488-1.77849-22.57432-3.56693-33.87735.35031-3.90656,1.35389-7.83167,2.21949-11.52838-1.55376-1.08135-1.10359-4.40011.06522-6.69173.04263-1.92123-.01889-4.871.45781-5.55922-.53591-1.77243-2.559.50332-4.1148,2.75709-5.20105,3.82672-1.8443,7.16538-3.11084,11.54144-.034,2.28014,1.60327,6.9487,1.21663,9.95763.12611,11.37176-4.12152,22.48753-2.34807,33.76919.02069,2.97939.62555,6.20013.29141,9.29549.12718C785.47909,335.09769,789.41959,333.86432,794.16688,337.50533Z"/>
    <path d="M253.559,492.67569c-3.5263,5.66888-14.267,10.46566-19.62979,9.02833a40.27012,40.27012,0,0,1-10.81973-4.663c-4.6721-2.92649-8.19143.57091-12.18246,1.38709-1.57967.323-3.07034,1.44625-4.62046,1.48715-7.79652.206-15.61013-.05219-23.39535.32077-3.97272.19032-6.29211-1.758-8.12307-4.62569-.62625-.98081-.85252-3.2179-.25825-3.741.87736-.77217,3.40934-1.19231,3.92511-.60681,4.392,4.98553,9.91588,3.02428,14.93706,2.40624,8.29471-1.02091,16.8534-.27371,24.808-4.2849,2.10154-1.05967,6.40185.06739,8.54936,1.697,5.557,4.21684,11.29924,4.77884,17.71239,3.19587C247.16479,493.60956,249.95521,493.29666,253.559,492.67569Z"/>
    <path d="M691.23447,838.37063c.53335-1.55093.61466-2.57874.96111-2.67774,7.82374-2.23563,12.86292-8.39155,18.43582-13.54726,7.99952-7.40067,15.28088-15.57339,23.06128-23.22061,1.018-1.00058,3.17434-.84285,4.80333-1.22161.219,1.89313,1.353,4.68612.51418,5.53892-7.61706,7.74519-13.25332,17.142-23.02234,23.24631-5.76053,3.59964-10.84561,8.34754-17.55308,10.42659C696.32529,837.569,694.08751,837.80869,691.23447,838.37063Z"/>
    <path d="M315.97771,383.40105c1.84866,1.73347,2.88057,2.70115,4.95379,4.64516-.3857-3.04162-.88933-4.871-.74833-6.64923.095-1.19924,1.09942-2.3264,1.697-3.48581,1.02312.82717,2.77229,1.5165,2.95956,2.50244,2.40758,12.67919,5.28974,25.33311,6.53107,38.14082.59567,6.14576-1.47615,12.7689-3.34934,18.86567-1.48762,4.84153-4.39926,9.27469-6.94284,13.73862-.52529.9219-2.21782,1.17864-4.38247,2.23489,3.54277-8.34827,6.49622-14.92687,9.1421-21.62688,4.59293-11.63051,1.11913-22.88766-2.005-34.10226-.18617-.6684-1.3404-1.0634-2.03776-1.594-.85148-.64786-2.14286-1.13619-2.464-1.98771C318.14841,390.94556,317.28759,387.68686,315.97771,383.40105Z"/>
    <path d="M337.10378,41.43015c-3.38133,1.81329-6.78792,3.58123-10.13958,5.44779-13.99115,7.79177-24.87882,18.20711-28.3343,34.56525-.55331,2.61945.18763,5.4951.15735,8.25042a17.46322,17.46322,0,0,1-.73252,3.467c-1.016-.65936-2.43761-1.08347-2.97951-2.01783-2.70411-4.66242-2.1168-9.45334-.3625-14.35422a56.083,56.083,0,0,1,19.22705-26.46438c5.45-4.153,10.61623-8.45111,17.5507-9.74394,1.69406-.31582,3.4276-.41941,5.143-.62058Q336.86861,40.69489,337.10378,41.43015Z"/>
    <path d="M722.23022,459.0335a42.02859,42.02859,0,0,1-6.45588-19.08066c-1.26947-14.01019,1.5804-27.33211,6.8851-40.19241a4.24457,4.24457,0,0,1,7.634-.72059c.51235.87084-.411,2.91047-1.15875,4.15033-10.18115,16.88159-12.38377,34.54344-5.48158,53.17852a6.9517,6.9517,0,0,1,.03149,2.27268Q722.95749,458.83741,722.23022,459.0335Z"/>
    <path d="M305.89282,49.97705c-1.284.62812-2.52692,1.36524-3.85828,1.86787-17.84943,6.7387-28.66226,20.26592-35.808,37.25212-.80869,1.9223-.6608,4.22825-1.16607,6.30529a11.903,11.903,0,0,1-1.48292,2.73181c-.78129-.75985-2.25853-1.55189-2.2252-2.27408.158-3.41689-.06507-7.173,1.28332-10.1602,7.75989-17.19151,19.08636-31.02265,37.7034-37.28332,1.61318-.54248,3.567-.0719,5.3625-.0719Q305.7972,49.16085,305.89282,49.97705Z"/>
    <path d="M212.915,114.138c-4.22755-1.077-4.49081-4.93009-3.61656-8.06783,2.19-7.86043,5.57949-15.18984,12.96168-19.79695,7.37993-4.60562,14.53139-9.61955,22.15413-13.77348,3.17252-1.72885,7.3062-1.69391,11.00279-2.461q.30974.93324.61941,1.8665a20.57638,20.57638,0,0,1-3.72607,1.93953c-15.7455,4.50945-28.467,13.06992-36.14962,27.84591C214.27278,105.3218,213.99719,109.79139,212.915,114.138Z"/>
    <path d="M159.83734,428.51526c-4.15837-5.192-3.24722-11.15961-2.4959-16.56192,1.80086-12.94857,4.0991-25.86185,10.30817-37.66227,1.03059-1.95871,1.66594-4.3701,4.57758-3.02192,3.24777,1.5039,1.25659,3.50839.1554,5.2393-7.58462,11.92253-9.8625,25.39009-11.39993,39.066C160.51563,419.72862,160.23968,423.90425,159.83734,428.51526Z"/>
    <path d="M405.35588,80.69194c.11268-2.34146-.51443-5.06.456-6.96423C413.05547,59.5148,422.48652,47.144,436.893,39.39665c1.3205-.71013,3.08719-.59032,5.70072-1.03541-7.76869,7.07466-15.22052,12.6186-21.05826,19.52677-5.825,6.89324-10.03277,15.15329-14.94951,22.81414Z"/>
    <path d="M437.64783,86.52746c-.326-1.561-1.15643-3.21189-.89689-4.66854A33.35668,33.35668,0,0,1,452.83337,58.5642a132.80334,132.80334,0,0,1,15.38886-7.75732c1.97446-.88325,4.36886-.82769,7.13981-.3591-17.91523,6.45042-31.15219,17.35483-35.86653,36.84016Q438.5717,86.90771,437.64783,86.52746Z"/>
    <path d="M302.38007,807.7c-2.82954-.25472-5.656-.55327-8.48966-.7483-1.81619-.125-3.70818.16872-5.43623-.25509-.81169-.19905-1.64669-1.58768-1.82327-2.55548-.0896-.4912,1.30872-1.83984,1.94815-1.78551,5.19135.441,10.51631.55395,15.4933,1.90155,4.39822,1.191,5.33008,5.61937,2.89064,8.85131-3.1912,4.22819-7.50793,7.66126-11.59486,11.13723-2.25963,1.92182-3.96027.47039-4.9525-1.89947-1.04424-2.494.69357-2.52551,2.37389-3.59251,3.7785-2.39933,6.97439-5.7163,10.40742-8.65976Z"/>
    <path d="M394.439,68.00431c-7.98042-5.8269-5.7706-12.32384-1.45875-17.04872,3.9123-4.2871,8.2861-7.405,14.29829-8.27716,3.483-.50529,6.73873-2.42337,10.19488-3.33259,1.73562-.45662,3.69049-.07963,5.54623-.07963q.11023.795.22041,1.5901c-1.69906.68765-3.43681,1.29351-5.09027,2.07735-6.53858,3.09971-13.32175,5.80891-19.47707,9.54738-4.07746,2.47649-6.48969,6.627-3.81085,11.94038C395.26458,65.2202,394.64156,66.53618,394.439,68.00431Z"/>
    <path d="M222.73,787.85115c-15.07751.92367-41.47421-18.22019-37.45516-27.42212C196.061,772.10007,208.68407,780.90127,222.73,787.85115Z"/>
    <path d="M450.08141,838.36978a66.81567,66.81567,0,0,0,8.03194-2.665c1.45044-.68348,2.48864-2.24228,3.71221-3.40755a37.73813,37.73813,0,0,0-4.12575-2.5127c-1.68239-.76466-3.50041-1.23064-5.4991-1.9074,2.33672-3.62114,4.89489-5.02459,8.41471-3.70733,3.84143,1.43758,8.47984,7.507,7.02536,10.38722a15.55578,15.55578,0,0,1-7.34013,7.06312C457.27328,842.8287,452.46726,845.87983,450.08141,838.36978Z"/>
    <path d="M761.78094,297.229c-.7476,0-1.49629.02476-2.24267-.00512-1.5688-.06285-3.42448.31344-4.59726-.40849-.71171-.43806-.98442-3.08291-.361-3.86783,1.10186-1.38713,3.45671-3.28071,4.546-2.89093a26.4,26.4,0,0,1,8.63091,5.17786c.99248.89727,1.18267,4.65868.38942,5.22389a123.33948,123.33948,0,0,1-13.35672,7.89815,2.69139,2.69139,0,0,1-2.468-.96127c-.31276-.91763-.19434-2.56607.43178-3.10555a41.03075,41.03075,0,0,1,5.38112-3.40618c1.37458-.84988,2.72889-1.73268,4.09224-2.60081Q762.0039,297.75586,761.78094,297.229Z"/>
    <path d="M772.521,239.3308c4.62095.307,9.68015,1.47158,11.46808-4.67409-2.88405,0-5.50661.3718-7.91273-.18736-.931-.21636-2.11278-2.71984-1.8392-3.85941a5.59208,5.59208,0,0,1,3.33109-3.16315c2.71-.94311,9.86607,2.70082,11.1204,5.25362,1.7883,3.63963-1.61006,10.24066-6.9631,11.98-3.18118,1.03363-7.08164,1.11265-8.70232-3.30727C772.86752,240.94857,772.80221,240.49086,772.521,239.3308Z"/>
    <path d="M687.68084,442.92862c-1.98643-4.40694-4.33078-8.69162-5.88652-13.24568a35.72866,35.72866,0,0,1,2.677-29.66153c.67606-1.24121,2.506-1.85381,3.80145-2.75756.09412,1.529.80815,3.39571.18727,4.53517-6.85922,12.59022-5.35682,24.962.48293,37.34833a10.938,10.938,0,0,1,.47146,3.06493Q688.54758,442.57047,687.68084,442.92862Z"/>
    <path d="M707.07739,714.20928a29.137,29.137,0,0,1-5.67983,1.571,4.246,4.246,0,0,1-3.169-1.65519c-.333-.4575.48342-2.15481,1.19305-2.89719,2.84425-2.975,9.57346-3.12725,12.22776-.42545,3.43986,3.50143,3.23526,8.22216-.91081,11.73421-3.2283,2.73464-6.7629,5.33126-11.71724,2.8002,3.28239-3.31392,6.42634-6.488,9.57016-9.66206Q707.83451,714.942,707.07739,714.20928Z"/>
    <path d="M211.71375,678.87368c-1.71492-1.10954-3.097-2.00379-4.47915-2.898a33.87313,33.87313,0,0,0,3.34006-3.01775,23.44557,23.44557,0,0,0,2.06925-3.35469c-1.32941-.22023-2.75684-.85475-3.96631-.56841-2.07377.49107-4.55253,3.01658-5.67563-.53844-1.08831-3.44479,1.18939-5.786,4.52067-6.46968,4.54923-.93368,8.22775.71424,10.35913,4.92235,1.6885,3.33357,2.0659,6.79673-1.27429,9.45238C215.28979,677.44917,213.55265,677.96936,211.71375,678.87368Z"/>
    <path d="M301.55954,422.61314a81.44018,81.44018,0,0,1-2.6399,9.14049c-.55965,1.39885-2.31981,2.31736-3.535,3.45389-.9799-1.426-2.81635-2.86722-2.79127-4.27528.10792-6.05869.66227-12.11853,1.31739-18.14932.1081-.99516,1.90677-2.75747,2.27769-2.60383,1.3888.575,3.17581,1.57486,3.59447,2.82406C300.71569,415.786,300.91406,418.81505,301.55954,422.61314Z"/>
    <path d="M787.36382,146.24853c-9.94908,6.85344-19.89816,13.70687-31.26992,21.54027.48366-2.92067.14588-5.29167,1.16814-6.35549,8.12612-8.45589,18.79216-12.43242,29.26715-16.69235Z"/>
    <path d="M448.49228,125.95266a57.37308,57.37308,0,0,1-8.41355-.10763c-1.80581-.2701-3.45738-1.57165-5.178-2.41129a32.03021,32.03021,0,0,1,4.40823-1.79781c5.04632-1.257,9.4233.70808,13.35556,3.49756,3.23587,2.29545,3.11288,5.5575-.27455,7.65981a35.68732,35.68732,0,0,1-8.58378,3.74354c-.96813.28844-2.424-1.06019-3.65679-1.66006.54934-1.06959.82676-2.56265,1.702-3.12486a65.13089,65.13089,0,0,1,6.87765-3.44892Q448.61064,127.12783,448.49228,125.95266Z"/>
    <path d="M213.93585,206.86441c1.36066-1.11531,3.07058-2.00282,3.98706-3.40789.98235-1.506,1.21814-3.499,1.77975-5.2794-1.63032-.42619-3.245-.94318-4.89952-1.22851-.56717-.09782-1.39649.73231-1.82382.53307a6.26761,6.26761,0,0,1-2.8481-2.13564c-.25648-.45433.70334-2.05208,1.484-2.55765,3.67846-2.38249,10.94547-.26828,13.10823,3.66258,2.02408,3.67873-.40566,10.63182-4.62827,12.21641-1.697.63684-3.83258.10484-5.76859.10484Q214.13118,207.81833,213.93585,206.86441Z"/>
    <path d="M448.50241,586.00438c-1.6241,2.097-2.37993,3.684-3.63622,4.5052-1.03886.679-3.78527.82478-3.869.573-1.20757-3.63225-2.98659-7.43992-2.71088-11.05941.15888-2.08437,3.67278-4.03981,5.96232-5.6458.238-.167,3.12906,2.25119,3.55059,3.80584C448.55289,580.96289,448.36245,583.99852,448.50241,586.00438Z"/>
    <path d="M903.545,439.40473c.06177,6.7833-3.41288,11.99577-7.63317,16.79811-.53982.61414-2.61524.88711-2.909.50194-.63821-.83718-1.19109-2.68171-.72037-3.27564,4.31637-5.44693,6.79049-11.29118,5.391-18.41879-.12586-.6409,1.29986-2.27316,1.89926-2.22146a4.26734,4.26734,0,0,1,3.11135,1.77281C903.37706,435.97734,903.2971,437.7713,903.545,439.40473Z"/>
    <path d="M364.30357,587.0704c-1.8038-1.03415-3.58855-1.47774-4.38388-2.61395-3.41008-4.87114-6.66572-9.86753-9.62882-15.019-.54067-.93985.54465-2.81515.8795-4.25858,1.27032.85011,3.08773,1.41865,3.69946,2.60767,1.36322,2.64936,1.0211,6.5638,5.8671,5.91548.59054-.079,1.87857,1.80871,2.11314,2.9368C363.50067,579.7674,363.76564,582.97608,364.30357,587.0704Z"/>
    <path d="M159.21823,277.21315a26.91611,26.91611,0,0,1,2.4837-2.14556,14.44724,14.44724,0,0,1,2.38113-1.08479c-.25-.68262-.26957-1.11864-.48626-1.26733-1.81561-1.24628-3.66741-2.43978-5.50829-3.64925,2.13282-.72452,4.6464-2.51632,6.30917-1.92312a12.24814,12.24814,0,0,1,6.2427,5.44614c.61124,1.17183-1.17053,4.8931-2.7139,5.58854-2.42816,1.094-5.56884.60648-8.40788.78853Q159.36845,278.08974,159.21823,277.21315Z"/>
    <path d="M535.09835,590.33445c8.8468.73737,10.00133,8.49929,14.22224,14.24465-1.45082.12556-2.62434.57732-3.488.23879-3.08835-1.21087-6.06377-2.70717-9.09694-4.062C534.03238,599.54828,533.30835,594.65426,535.09835,590.33445Z"/>
    <path d="M67.25583,315.28216C59.10227,321.82252,53.204,328.53364,53.001,338.58173c-3.692-1.81192-4.05647-2.9611-2.92214-7.748C51.92273,323.05253,60.06149,314.97519,67.25583,315.28216Z"/>
    <path d="M128.39187,304.89509c-8.01158,4.29811-14.61212,9.19964-17.75723,18.80038-1.29-2.26071-2.46084-3.37456-2.48968-4.51721C107.972,312.325,120.4123,303.025,128.39187,304.89509Z"/>
    <path d="M141.706,439.94524c-5.37171-1.33954-7.65353-4.88688-8.12676-9.43791-.48784-4.69176.06992-9.40358,4.1867-12.619.76242-.59548,2.30247-.19536,3.48362-.25472-.10221.99417.15266,2.25815-.36266,2.94019-4.40023,5.8242-4.80061,11.416.45956,16.96482C141.74081,437.95461,141.57,438.90651,141.706,439.94524Z"/>
    <path d="M578.51754,606.791c-1.3852-.312-3.41075-.14979-4.11678-1.03733a86.247,86.247,0,0,1-7.14029-10.64994c-.32851-.57013.93693-2.96843,1.72378-3.11285,3.2308-.59332,6.408-.4597,7.20939,3.88056C576.80084,599.16031,577.579,602.41758,578.51754,606.791Z"/>
    <path d="M733.258,611.1429c-1.74276-3.35628-3.19547-6.58919-5.04285-9.578-1.553-2.51232-3.72967-4.63917-5.28077-7.15247a3.54516,3.54516,0,0,1,.307-3.38326c.63785-.64276,3.1243-.73481,3.30583-.35471,2.99489,6.27111,5.75967,12.65245,8.513,19.0363C735.10754,609.82044,734.37484,610.26665,733.258,611.1429Z"/>
    <path d="M923.27352,339.8236c-5.06055,2.47418-10.10046,4.99175-15.19446,7.39515a40.61045,40.61045,0,0,1-4.62876,1.56253c.491-1.65345.46926-3.8754,1.56233-4.86128,4.58665-4.13677,9.82262-7.26421,16.30205-7.06168.89714.028,1.75155,1.41942,2.62574,2.17963Z"/>
    <path d="M100.34659,301.65665c-8.89475,4.221-12.58041,11.16156-13.17187,21.0593-5.56322-5.80707-1.84051-10.26411-.39681-14.39991C88.74468,302.68168,93.34305,300.45341,100.34659,301.65665Z"/>
    <path d="M923.27352,339.82354q.33345-.39274.6669-.78562c3.54814-1.14407,7.13071-4.35867,11.11686.76115-6.52033,1.82537-10.925,5.43029-9.30562,13.8111-4.97655-3.282-5.7084-6.323-3.95417-10.14806C922.34256,342.27361,922.78436,341.03774,923.27352,339.82354Z"/>
    <path d="M880.02829,393.43359c1.04948-2.28852,3.20547-1.52578,5.22327.48168,5.11889,5.09307,8.17776,11.07265,7.4182,19.89243C888.21654,406.63053,884.31914,400.34914,880.02829,393.43359Z"/>
    <path d="M319.77623,649.54239c-4.67436,3.281-15.989-.05439-17.558-5.34982a2.678,2.678,0,0,1,.74076-2.42394,4.05186,4.05186,0,0,1,3.14737-.00836C310.63645,644.19306,315.05787,646.828,319.77623,649.54239Z"/>
    <path d="M494.98645,597.7032c-1.67843-3.6646-3.42979-7.10963-4.78862-10.70305-.37264-.98557.07141-3.11486.77762-3.47684a4.96911,4.96911,0,0,1,3.986.22164C498.70824,585.71505,499.01716,594.44153,494.98645,597.7032Z"/>
    <path d="M151.01365,304.688c-4.26165,6.57335-8.02638,12.38021-11.88515,18.33217-3.7883-2.91456-1.502-6.14164-.01135-8.33121C141.9617,310.51065,143.92963,304.76089,151.01365,304.688Z"/>
    <path d="M607.34606,610.08811c-1.10155-.38029-2.61792-.42814-3.23434-1.19726-2.98952-3.73-5.79819-7.61193-8.5023-11.55573a2.69088,2.69088,0,0,1,.36757-2.56378,2.66135,2.66135,0,0,1,2.54553-.4218,15.31215,15.31215,0,0,1,3.56426,3.88563c2.13884,3.4595,4.04322,7.064,6.04253,10.60978Q607.73772,609.46656,607.34606,610.08811Z"/>
    <path d="M653.47016,672.63163c-8.79937,6.67782-18.26571,8.43068-21.64563,4.00514C638.52883,673.68678,645.31523,672.983,653.47016,672.63163Z"/>
    <path d="M645.99037,615.0436c-6.77492-2.78377-12.387-11.311-11.33441-16.694C638.99266,599.30857,643.86685,606.33293,645.99037,615.0436Z"/>
    <path d="M252.75655,575.46035c2.062-2.83011,3.73651-5.756,6.063-8.00852.9135-.88449,3.76685-.95658,4.892-.17794,2.20384,1.5253,1.306,3.204-.88432,4.536a10.58444,10.58444,0,0,0-3.48619,3.48044C257.56079,578.283,255.68,578.13327,252.75655,575.46035Z"/>
    <path d="M331.26726,580.716c-3.45543.31094-5.23859-2.207-5.15772-4.93181.09046-3.04839,1.67513-6.05252,2.60956-9.07588,1.16626,1.02933,3.27787,2.01722,3.32523,3.09563C332.19888,573.32672,331.601,576.8826,331.26726,580.716Z"/>
    <path d="M469.85085,596.27929a54.71128,54.71128,0,0,1-4.25039-5.47086,10.1144,10.1144,0,0,1-1.13775-4.28648,39.18463,39.18463,0,0,1,.19184-5.11468c1.70669,1.31787,4.234,2.30167,4.93688,4.02821,1.19965,2.94657,1.25446,6.35913,1.79013,9.576Q470.61623,595.64536,469.85085,596.27929Z"/>
    <path d="M733.75543,434.60724a3.35891,3.35891,0,0,1,.32325-2.39739c.94609-1.30844,2.616-2.0934,3.97688-3.10185.73831,1.58312,1.91745,3.12157,2.08384,4.76266a8.48426,8.48426,0,0,1-1.35419,4.5553,22.81107,22.81107,0,0,1-3.08731,3.60963c-.64749-1.32858-1.37213-2.6272-1.90549-4.00017C733.57011,437.46326,733.75543,436.73278,733.75543,434.60724Z"/>
    <path d="M668.30351,603.44648c1.34448,1.462,2.67768,2.47247,3.41923,3.81073a84.03984,84.03984,0,0,1,3.85583,8.28149,2.93671,2.93671,0,0,1-.182,2.19962c-.16743.32876-1.17419.47349-1.70571.33389-3.37949-.88747-8.05989-8.456-7.32164-11.95921C666.54036,605.30127,667.41113,604.637,668.30351,603.44648Z"/>
    <path d="M909.97259,412.96622c-3.79059.99787-7.55615,2.12151-11.39337,2.88489a3.15429,3.15429,0,0,1-2.51941-1.76234c-.23621-.74415.51065-2.136,1.23358-2.79092C900.38839,408.49405,905.38753,408.557,909.97259,412.96622Z"/>
    <path d="M521.5388,602.15229c-1.821-4.206-3.6895-8.39307-5.38441-12.64928-.15717-.39481.8021-1.76714,1.21893-1.75639,1.1986.03113,3.20847.24782,3.44114.90676,1.438,4.07125,2.47467,8.2843,3.64471,12.45023Q522.999,601.62789,521.5388,602.15229Z"/>
    <path d="M118.89267,435.2015c-3.10278,3.43078-5.78235,6.52407-8.64818,9.43389a2.86331,2.86331,0,0,1-2.63175.13508,3.03612,3.03612,0,0,1-1.4538-2.23147c.02557-2.68309,7.78232-9.04539,10.46287-8.69322C117.19959,433.92169,117.71442,434.47692,118.89267,435.2015Z"/>
    <path d="M647.51736,602.2394c2.60217-3.29866,4.32577-3.37154,6.46735.07056a25.20258,25.20258,0,0,1,2.71143,5.7276c.36312,1.16594-.093,2.5871-.18049,3.89344-1.29224-.43687-3.09042-.48522-3.78058-1.38429A93.31589,93.31589,0,0,1,647.51736,602.2394Z"/>
    <path d="M465.30626,427.25183c.80472.616,2.68463,1.78157,2.57605,2.0127-1.68978,3.59624-3.63238,7.07414-5.6163,10.522-.01385.024-2.1143-.94107-2.06449-1.12334,1.00243-3.67287,2.15526-7.30609,3.367-10.91733C463.65182,427.49779,464.43518,427.48467,465.30626,427.25183Z"/>
    <path d="M402.07032,576.24918c9.81835,1.04142,2.74287,10.28467,9.43979,13.47632-2.38842.41569-3.86469,1.05522-4.209.67353A20.06911,20.06911,0,0,1,402.07032,576.24918Z"/>
    <path d="M295.1514,567.77486c1.27478-1.18841,2.25529-4.63289,5.62673-1.60392,2.50732,2.2526,3.75744,8.48843,1.71419,9.74892-.76.46892-3.06319-.31045-3.73669-1.21221C297.29817,572.75623,296.43869,570.35805,295.1514,567.77486Z"/>
    <path d="M392.34574,585.75735c-2.22972-.97781-4.12209-1.19768-4.57133-2.12026a46.78009,46.78009,0,0,1-2.81318-8.42225c-.05811-.21694,1.73446-1.4178,2.19261-1.19341,1.383.67767,3.168,1.5961,3.63555,2.8525C391.66791,579.23512,391.73279,581.89913,392.34574,585.75735Z"/>
    <path d="M108.86439,415.392c2.81425-1.50792,5.28388-3.32786,8.04662-4.10278,1.3887-.38953,3.31006,1.12029,4.99056,1.7712-1.05132.97064-1.94724,2.40877-3.18451,2.82018C115.58425,416.92229,112.19118,419.64792,108.86439,415.392Z"/>
    <path d="M621.61243,612.52951c-5.886-2.17428-6.036-6.63009-7.17893-10.35744-.15327-.49968,1.26062-2.123,1.63368-2.0251,1.322.34684,3.30058.96915,3.59777,1.93018C620.60506,605.11687,620.89676,608.35711,621.61243,612.52951Z"/>
    <path d="M172.89684,364.08609c-2.38879-5.68811.44972-8.46071,3.19241-10.87775.90031-.79341,3.08889-.12486,4.6884-.12486q.15133.82785.30262,1.65571C178.56923,357.60723,176.05818,360.47527,172.89684,364.08609Z"/>
    <path d="M377.2484,551.0564c-.32369-1.043-1.23395-2.41252-.86729-3.07109a41.34942,41.34942,0,0,1,5.06329-7.2167c.35579-.40336,2.29344.58874,3.501.93668q-3.01928,4.84542-6.0385,9.6908Z"/>
    <path d="M110.94493,395.216c5.13459-2.50763,10.76806-1.13314,12.8002,2.8533C120.50993,399.95054,114.58405,398.73546,110.94493,395.216Z"/>
    <path d="M537.52962,446.65688c-7.98244-2.25552-10.6581-7.83912-5.95305-12.41854C533.52564,438.30422,535.45878,442.33692,537.52962,446.65688Z"/>
    <path d="M903.83814,462.7208c3.11831,3.32075,5.87381,6.25518,8.8034,9.375-2.73085,2.43279-4.79711-.69629-6.91476-2.09957C903.32286,468.40323,901.59267,466.22742,903.83814,462.7208Z"/>
    <path d="M399.98587,583.33164c-1.99277-1.8482-3.52525-2.59406-3.80663-3.66771a50.72714,50.72714,0,0,1-.91283-7.50975c1.57314.58758,4.25136.87905,4.50351,1.82055C400.41674,576.38927,399.98587,579.09259,399.98587,583.33164Z"/>
    <path d="M699.66493,187.98544c-4.50131-.69953-8.33621-1.00434-10.56716-5.33621C695.40667,180.91085,698.561,182.38271,699.66493,187.98544Z"/>
    <path d="M910.63448,428.41875a71.75524,71.75524,0,0,1-7.91138-.883,3.02142,3.02142,0,0,1-1.56905-2.54776c.14222-.79317,1.73507-2.0912,2.29857-1.91391a83.82144,83.82144,0,0,1,7.85,3.24106Q910.96861,427.367,910.63448,428.41875Z"/>
    <path d="M920.0009,442.06782c-2.58167,3.9344-5.42043,4.67055-8.41263,2.68947-.53958-.35721-.06471-2.24658-.05811-3.42861Z"/>
    <path d="M650.35367,554.12713a73.88984,73.88984,0,0,1,5.74485,5.1662c.50631.54711.0954,1.94294.10492,2.94975-.98222-.18081-2.379-.016-2.87062-.60583a74.01442,74.01442,0,0,1-4.32955-6.27093Q649.6785,554.74673,650.35367,554.12713Z"/>
    <path d="M386.45215,1265.25724c-.38839,7.39573-2.92074,11.70547-5.67813,10.505a12.29253,12.29253,0,0,1-6.1306-6.62221c-.86607-2.5835,5.04784-7.857,7.44353-7.07185C383.98981,1262.69181,385.49721,1264.52267,386.45215,1265.25724Z"/>
    <path d="M827.52175,434.215c.7974-.19185,1.896-.8051,2.333-.49278a19.08875,19.08875,0,0,1,2.82973,3.03007,21.49131,21.49131,0,0,1-3.45939,1.5882c-1.994.53157-4.26339.38977-6.04509,1.27768-3.08767,1.53884-5.76212,3.90381-8.84393,5.458-4.7606,2.40068-7.42809-1.48409-9.1988-4.5127-1.875-3.20676-3.34868-7.41673-2.94265-10.95253.34328-2.98914,3.86469-5.30876,7.75281-4.70586,3.56353.55251,7.34374.70337,10.578,2.0854,2.8307,1.20962,5.0354,3.88459,7.5166,5.91225Q827.782,433.55886,827.52175,434.215Z"/>
    <path d="M209.88267,413.30946c.04676-8.65983,5.00189-11.66457,10.50655-9.01643,2.6322,1.26626,5.45253,2.25873,7.82984,3.895,1.50221,1.034,3.519,3.25889,3.26554,4.54893-.827,4.20957-1.67361,8.985-4.24331,12.1272-2.74024,3.35082-8.698,3.11764-11.24944.33872C212.56627,421.47183,211.13121,415.913,209.88267,413.30946Z"/>
    <path d="M216.26536,444.24888a53.31743,53.31743,0,0,1-6.30126,5.52128c-.72739.47636-2.51868-.67212-3.823-1.07689.54129-1.06132.81278-2.61945,1.67586-3.08818a66.94744,66.94744,0,0,1,7.37517-3.04064Q215.72876,443.40664,216.26536,444.24888Z"/>
  </g>
</svg>
