<?xml version="1.0" encoding="UTF-8"?><svg xmlns="http://www.w3.org/2000/svg" viewBox="0 0 688.58105 428.3916"><defs><style>.d{fill:#fff;}</style></defs><g id="a"/><g id="b"><g id="c"><g><g><path class="d" d="M1.26953,322.37598c0-46.65918,23.17139-68.40234,54.59521-68.40234,28.56738,0,41.26367,17.93359,41.26367,46.81836,0,30.63086-10.31592,42.5332-29.67822,42.5332-16.66406,0-25.23438-10.47461-25.23438-32.05859,0-20.47266,7.30078-28.4082,17.77539-28.24902,7.77637,.1582,10.6333,5.55469,10.6333,13.01367,0,5.2373-1.42822,8.57031-3.17432,11.74414-3.33252,3.33301-4.91992,6.9834-4.91992,11.42676,0,3.49121,1.5874,4.76172,4.60254,4.76172,5.71338,0,8.57031-5.0791,8.57031-21.1084,0-19.04492-6.50684-27.29785-18.56885-27.29785-13.48975,0-20.63184,9.99902-20.63184,31.42383,0,30.31348,9.68115,45.39062,28.40869,45.23145,8.41113-.1582,12.5376-.79297,17.14014-1.74512,2.53955-.63477,5.07861-.47656,6.66553,1.58691,2.06348,2.22168,1.74609,5.39551,0,9.83984-5.71338,17.13965-17.61621,24.91699-35.07373,24.91699-33.01123,0-52.21484-21.74316-52.37354-64.43555Z"/><path class="d" d="M97.99805,323.96387c0-36.34473,11.10938-50.31055,38.8833-49.99316,26.97998,.31738,37.77197,14.125,37.77197,49.99316,0,36.50195-10.95068,49.83301-38.72412,49.83301-27.13916,0-37.93115-13.48926-37.93115-49.83301Zm44.59668-2.06348c-4.12646-18.88574-5.87207-23.1709-11.10938-21.42578-4.91992,1.42871-4.44385,6.34863-1.74561,24.59961,2.69775,18.88672,6.66553,21.74316,11.10938,20.79102,6.34814-1.11133,5.55469-6.82422,1.74561-23.96484Z"/><path class="d" d="M177.20508,355.86328c-.15869-10.9502,.79395-13.33105,4.60254-16.34668,2.22217-1.74609,2.85693-3.01562,3.01562-8.09375,.31738-6.03125,.15869-11.90332,.15869-18.72754,0-3.96777-.79346-5.0791-4.12646-5.55469-4.12646-.47656-6.50684-3.01562-6.50684-7.93555,0-6.82422,2.69775-12.37891,6.66553-16.66406,3.4917-3.80859,8.41162-8.09375,13.80762-8.09375,4.44385,0,6.18945,2.22168,7.30029,4.60254,1.11133,1.9043,1.27002,3.96777,3.33301,3.96777,2.69824,0,2.06299-5.39648,2.38086-13.49023,.79346-17.61719,6.34814-25.86914,19.20312-25.86914,10.6333,0,15.23584,7.1416,15.23584,20.94922-.15869,10.15723-4.91992,15.07715-12.69629,15.07715-9.52246,0-15.23584,8.25293-15.23584,23.96484v28.4082c0,4.12598,.63477,5.55469,4.44385,7.45898,6.82422,3.49121,7.93506,6.03125,7.93506,17.14062,0,12.69629-3.01514,15.71191-25.39307,15.71191-20.79053,.1582-24.12354-1.26953-24.12354-16.50586Z"/><path class="d" d="M229.97168,355.86328c0-10.9502,.95264-13.49023,4.76123-16.50488,3.4917-2.85742,3.33301-5.87207,3.33301-9.52246v-17.14062c0-3.96777-.63477-5.0791-3.96777-5.55469-4.12646-.47656-6.50684-3.17383-6.50684-8.25293,0-6.50684,2.53906-12.2207,6.82422-16.66406,3.65039-3.96777,10.15723-8.41113,17.6167-8.41113,7.93506,0,11.26807,3.80859,12.06152,10.15723,0,1.9043,.79346,2.69727,2.38086,2.69727,2.06299,0,2.69775-2.22168,5.07861-5.07812,3.01514-4.12695,7.30029-7.93555,17.61621-7.93555,15.55322,0,24.12354,7.93555,24.12354,23.48828,0,11.74512-1.90479,19.2041-1.90479,33.01172,0,4.28516,.31787,7.1416,2.85693,9.36328,3.4917,3.01562,4.44385,5.39648,4.28516,16.34668,0,15.87109-3.33301,16.66406-23.33008,16.50586-18.25098-.15918-19.99707-3.17383-19.99707-15.23633,0-9.20508,0-12.06152,2.38086-15.55273,1.9043-2.53906,2.22168-4.76172,2.06299-9.36426,0-7.93457-.31738-17.29883-.79346-22.53613-.31738-4.12598-1.42822-6.03027-4.28516-6.03027-4.12646,0-5.396,3.01465-5.71338,8.41113-.15869,7.61816-.63477,14.2832-.63477,21.42578,0,3.49121,0,5.55469,1.26953,7.93457,1.90479,3.65039,2.22217,6.50684,2.22217,15.71191,0,11.90332-2.85693,15.23633-18.09277,15.23633-20.15576,.1582-23.48877-.95215-23.64746-16.50586Z"/><path class="d" d="M321.14502,366.65527c0-8.41113,1.74561-25.55176,2.38037-76.17871,.15869-6.9834-.31738-8.09473-4.44385-9.20508-4.12598-1.26953-5.396-3.49121-5.396-8.09375,0-6.8252,3.65039-13.01465,8.8877-17.45801,4.76123-3.96777,10.6333-6.66602,16.98145-6.66602,9.83984,0,16.66455,4.12695,16.66455,14.91895,0,4.60254-1.5874,8.8877-3.17432,13.80762-1.74561,4.76074-1.58691,6.66504,.47607,6.66504,2.06348,0,3.17432-2.22168,5.396-4.60254,3.01562-3.17383,7.77686-5.71289,14.44238-5.71289,18.25098,0,27.29785,10.9502,27.29785,46.3418,0,39.83594-8.41211,52.05566-32.69385,52.05566-6.98291,0-12.69629-2.53906-16.18799-6.03027-2.53955-2.38086-3.65039-5.0791-6.18945-5.0791-3.17432,.15918-3.17432,2.85742-3.80908,5.87207-.95215,4.60254-3.4917,6.18945-10.6333,6.18945-5.71338,0-9.99854-1.11035-9.99854-6.82422Zm46.0249-45.23145c-4.12646-14.75977-5.07861-21.58398-11.10938-19.67969-5.71338,1.74609-3.33301,8.57031-1.27002,22.69531,2.69824,18.09277,4.76123,20.94922,10.63379,20.15625,6.34814-.79395,6.34814-7.45996,1.74561-23.17188Z"/><path class="d" d="M403.63672,355.86328c-.1582-10.9502,.79395-13.33105,4.60254-16.34668,2.22168-1.74609,2.85645-3.01562,3.01562-8.09375,.31738-6.03125,.15918-11.90332,.15918-18.72754,0-3.96777-.79395-5.0791-4.12695-5.55469-4.12598-.47656-6.50684-3.01562-6.50684-7.93555,0-6.82422,2.69824-12.37891,6.66602-16.66406,3.49121-3.80859,8.41113-8.09375,13.80664-8.09375,4.44434,0,6.19043,2.22168,7.30078,4.60254,1.11133,1.9043,1.26953,3.96777,3.33301,3.96777,2.69824,0,2.06348-5.39648,2.38086-13.49023,.79297-17.61719,6.34766-25.86914,19.20312-25.86914,10.63379,0,15.23633,7.1416,15.23633,20.94922-.15918,10.15723-4.91992,15.07715-12.69727,15.07715-9.52246,0-15.23535,8.25293-15.23535,23.96484v28.4082c0,4.12598,.63477,5.55469,4.44336,7.45898,6.8252,3.49121,7.93555,6.03125,7.93555,17.14062,0,12.69629-3.01562,15.71191-25.39258,15.71191-20.79102,.1582-24.12402-1.26953-24.12402-16.50586Z"/><path class="d" d="M452.26074,326.50293c0-38.56543,11.26855-52.37305,38.56543-52.37305,25.23438,0,33.64648,13.80762,33.64648,44.75488,0,11.26855-2.38086,14.125-13.64941,14.125h-25.39258c-2.06348,0-3.17383,.31738-3.17383,2.85645,0,4.91992,7.93457,7.1416,19.52051,7.1416,4.28516,0,7.45898-.47559,9.99902-1.11035,2.22168-.47656,3.49121-.79395,5.07812-.79395,4.91992,0,6.82422,4.60254,4.12598,12.53809-3.17383,13.17285-13.17188,19.83789-29.51855,19.83789-27.13965,0-39.20117-14.12402-39.20117-46.97656Zm40.4707-14.44238c-.95215-7.93555-2.69824-16.50586-7.14258-15.71191-4.28418,.63477-3.9668,3.96777-3.9668,9.52246,0,12.37891,.79297,12.53809,4.91992,12.53809,6.50684,0,7.45898-2.38086,6.18945-6.34863Z"/><path class="d" d="M525.37598,344.91309c0-21.1084,7.93457-28.88477,25.0752-28.88477,6.34863,0,8.8877,.79297,11.74414,.79297,3.80957,0,3.65039-2.85645,3.49219-11.26758,0-6.50684-1.11133-8.72949-4.76172-8.72949-3.80859,0-3.96777,1.74609-5.07812,7.45996-1.42871,6.34766-3.65039,8.09375-12.85547,8.41113-12.2207,.31738-17.77539-3.33301-17.77539-13.64844,0-8.25293,3.17383-13.80762,8.57031-17.77539,6.66602-4.91992,15.87109-7.1416,31.42383-7.1416,23.0127,0,31.58301,8.25195,31.58301,25.55176,0,17.13965-1.90527,27.93164-1.90527,36.02637,0,1.42773,.63574,2.37988,2.06348,2.37988,.31738,0,.79395-.1582,1.58691-.1582,3.49219,0,4.44434,2.69824,4.44434,8.41113,0,15.07715-5.2373,26.82129-18.09277,26.82129-5.87207,0-10.95117-1.74512-14.2832-6.82422-1.74609-2.53906-2.06348-4.12598-4.44434-4.12598-1.74609,0-2.53906,1.26953-3.96777,3.96777-2.37988,4.91992-5.87207,6.98242-16.0293,6.98242-15.23535,0-20.79004-8.09375-20.79004-28.24902Zm41.26367-4.60254c0-8.41211,1.11035-10.63379-3.33301-10.63379-3.33301,0-4.76172,2.22168-6.03125,10.15723-1.26953,6.18945-1.58691,9.83984,2.85742,9.83984,3.9668,0,6.50684-1.74609,6.50684-9.36328Z"/><path class="d" d="M658.58887,368.55957c-3.80859-3.33203-3.80859-6.50684-6.50684-6.50684-3.49121,0-3.49121,3.01562-5.55469,5.39648-3.01562,3.96777-6.18945,5.2373-13.96582,5.2373-20.79102,0-29.51953-15.87109-29.51953-51.58008,0-34.75684,10.47461-46.65918,30.78906-46.65918,7.2998,0,11.58496,2.37988,14.60059,6.98242,1.9043,2.54004,3.01562,4.91992,5.2373,4.91992,1.9043,0,2.22168-1.9043,2.22168-5.07812,0-4.91992-1.11035-6.9834-5.2373-7.61816-3.33203-.63477-6.03027-1.74609-6.03027-6.50684s2.38086-9.83984,6.82422-13.64844c4.44336-3.80957,10.63281-6.18945,17.61621-6.18945,9.52246,0,17.45801,5.07812,17.45801,16.82227,0,18.56934-7.30078,39.35938-7.30078,69.51367,0,3.17383,.79395,4.44336,2.69824,4.44336h1.9043c3.65039,0,4.60254,2.54004,4.60254,7.30078-.1582,18.56934-5.71289,27.77344-16.0293,27.77344-5.71387,0-10.15723-1.42773-13.80762-4.60254Zm-9.68066-48.24609c-3.80957-14.91895-4.76172-21.1084-10.79199-19.3623-5.55469,1.58691-3.01562,8.72852-1.42871,21.90137,2.06348,18.09277,5.2373,20.94922,10.79199,20.15527,6.18945-.79297,5.39648-7.61719,1.42871-22.69434Z"/></g><g><path class="d" d="M224.04346,196.94141c0-19.08984,6.646-37.61328,18.09961-48.92578,5.37354-5.23242,9.47412-5.51562,12.44385-4.10156,3.25195,1.55664,3.95898,4.66699,2.26221,9.19141-3.53516,8.9082-4.5249,16.82812-4.5249,25.73633,0,37.75391,22.4834,49.91504,41.00684,49.91504,15.6958,0,26.15967-9.75684,26.15967-29.97754,0-21.91797-12.30176-36.90625-28.42188-36.90625-9.47412,0-13.99902,6.50391-13.99902,14.28125,0,6.22266,2.40381,8.9082,5.65625,8.9082,3.11084,0,4.24219-2.26172,5.65625-5.93848,1.27246-3.11035,2.82764-4.80762,6.22168-4.80762,7.91846,0,14.98877,10.18164,14.98877,22.76562,0,11.87891-6.646,17.81641-19.08936,17.81641-18.80664,0-30.40186-13.99805-30.40186-40.29883,0-25.73633,14.14014-42.5625,39.31006-42.5625,31.67432,0,51.75342,24.46289,51.89502,62.6416,.14111,39.02637-24.46289,62.9248-65.32861,63.06543-38.74414,.1416-61.93457-23.47266-61.93457-60.80273Z"/><path class="d" d="M357.22607,213.76758c0-11.59473,2.12109-20.50293,2.12109-25.59375,0-3.81836-.42432-5.65625-3.95947-5.93945-4.66602-.42383-7.63574-1.69629-7.63574-6.3623,0-5.93848,3.67676-11.7373,9.19141-15.83691,4.80762-3.53516,11.1709-6.22266,17.95801-6.22266,9.19141,0,14.28174,4.38379,14.28174,12.86816,0,10.60547-2.40381,20.64551-2.40381,38.03809,0,4.52441,2.40381,6.3623,6.646,6.3623,7.49414,0,10.18066-7.06934,10.60547-14.42285,.1416-2.2627,.42383-8.34277,.42383-10.88867,0-2.68555-.84863-4.52441-3.39355-4.94922-3.81738-.42383-6.50488-1.83789-6.50488-5.93848,0-5.79785,3.67676-11.73633,9.19141-15.55371,4.66602-3.11133,10.46387-5.51562,17.25098-5.51562,8.62598,0,13.5752,3.67676,13.5752,11.87891,0,9.75586-3.11133,26.01758-3.11133,39.02734,0,2.40332,.99023,4.09961,2.96973,4.09961,1.27246,0,2.12109-.14062,3.81836-.14062,2.54492,0,4.52441,2.26172,4.52441,6.78711,0,12.44336-8.34277,21.06836-19.7959,21.06836-10.18164,0-12.58496-4.09961-13.7168-10.32227-.42383-2.54492-1.13086-3.53516-2.12109-3.53516-2.12109,0-2.54492,1.55664-4.94922,5.09082-2.54492,4.10059-8.625,8.90918-20.0791,8.90918-15.69531,0-24.88672-8.34375-24.88672-22.9082Z"/><path class="d" d="M440.18506,224.23242c0-4.80859,.70605-8.76758,4.80762-11.4541,2.96875-1.97949,4.52441-3.67676,4.94824-8.05957,.4248-5.79883,.2832-13.15137,.2832-17.81738,0-4.66699-1.83789-5.23145-5.93848-5.37402-4.80762-.14062-8.20215-1.55469-8.20215-6.92773,0-5.93945,3.11133-11.17188,7.49512-14.98926,4.24219-3.39355,8.625-5.65527,13.00879-5.65527s7.49414,3.25195,8.05957,7.49414c.2832,1.97852,.4248,3.81738,2.2627,3.81738,2.82812,0,2.82812-5.09082,4.94922-16.12012,3.39355-17.95801,12.30176-25.73535,25.16992-25.73535,11.59473,0,16.54346,7.63574,16.40186,16.54395-.1416,7.35352-4.38232,13.15039-13.99854,13.15039-14.42285,0-22.76562,12.01953-22.62402,30.40234,0,17.25098-.1416,14.42285,.28223,20.0791,.2832,3.25293,.70703,5.23145,5.93945,7.63574,6.36328,2.96973,8.62598,5.08984,8.62598,12.72656,0,8.9082-3.81836,11.73633-24.74609,11.73633-21.35156,0-26.72461,0-26.72461-11.45312Z"/></g><g><path class="d" d="M71.14746,218.15625c-6.05859-13.40039-2.92725-28.7832,6.34961-32.97754,4.896-2.21387,7.78223,.0498,10.83984,4.41016,3.04492,4.6748,6.35449,5.81641,9.83301,4.24316,2.70605-1.22363,5.16992-4.35449,6.00195-11.09473,3.90918-23.95898,3.28027-43.53809,3.06445-52.59668-.13672-7.85254,.03223-10.56738-2.23389-12.49121-3.37744-2.66309-5.56738-1.67285-23.16064,6.43848-17.59326,8.11035-21.2207,19.99316-17.02637,29.26953,1.86426,4.12305,3.43115,4.5,5.30566,3.49707,1.74609-.94336,2.04053-2.00781,1.18213-5.96582-1.70752-6.52148,2.31787-12.37695,8.50244-15.17383,8.63281-3.90332,16.07129-1.52441,18.46777,11.66992,2.55859,13.89551-4.95215,24.74121-19.76953,31.44141-14.94531,6.75781-28.94824,3.93359-36.17773-15.14453-10.45557-27.24121,8.34863-50.17578,29.35059-59.67188,32.08203-14.50684,49.03125-22.32617,64.36328-29.25977,15.71924-7.10742,21.35938-.8125,24.18896,6.13379,2.95947,6.88672,3.78613,14.89355,8.85449,26.10254,1.80615,3.99414,4.20703,8.95996,7.92627,15.81445,3.2998,6.26758,5.96191,9.40918,8.84766,11.67285,3.37695,2.66309,6.04297,4.0957,8.06934,8.92188,5.28906,12.04004-6.35938,20.25586-20.91895,26.83984-11.5957,5.24316-19.91797,6.05762-23.41357-1.67285-2.09766-4.63867-.86084-8.76758,1.19531-12.80078,1.31689-2.92285,1.57764-4.74902,.47119-7.19629-.1748-.38672-.47852-.71484-.77051-1.35938-1.22266-2.70508-3.8457-1.98535-10.6748,1.10254-10.69336,4.83594-11.06738,4.69531-11.34766,10.25293-.08984,3.91992,.16602,10.32227,.35449,21.7207,.18945,22.72754-6.18457,38.48926-24.99609,46.99512-14.81641,6.7002-26.86523,4.0791-32.67871-9.12109Zm70.42773-95.47168c-.6875-1.8623-4.0874-10.41211-4.78711-11.95898-2.03906-4.50977-3.31152-5.95117-5.95898-4.59863-3.47852,1.57227-3.85645,3.14062-3.78369,7.76367-.07373,1.89453-.45898,13.39844-.35791,15.68066-.13037,6.57617,2.17676,5.84375,8.87695,2.81445,6.05566-2.73828,7.76709-4.44434,6.01074-9.70117Z"/><path class="d" d="M193.3457,138.69141c-4.48584-9.9209-3.86719-20.90723-2.58496-42.43848,.44971-8.27246,1.28906-18.42871,1.3291-21.08496,.19336-3.34668-1.31201-5.30469-3.75977-4.19727-1.28857,.58203-1.6875,1.07324-2.97607,1.65625-2.83447,1.28125-5.99023-.5498-6.99561-7.23535-1.54395-12.33789,6.12109-23.87207,17.20117-28.88281,15.0752-6.81641,26.1958,3.36426,25.64648,20.68164-.3623,6.06152-2.31543,17.1875-2.7627,30.26953-.38037,14.60352-.45801,24.72656,1.29004,28.5918,.75684,1.67578,2.57031,2.25195,4.11621,1.55371,2.19043-.99121,2.896-2.86133,4.44238-3.56055,2.31934-1.04883,4.42285,.17285,5.7627,3.13574,4.01953,8.89062-.77441,24.71387-15.07617,31.18066-9.66357,4.37012-20.14453,2.12598-25.63281-9.66992Z"/><path class="d" d="M236.05469,119.37988c-4.48535-9.9209-3.86719-20.9082-2.58398-42.43848,.44922-8.27246,1.28809-18.42871,1.32861-21.08594,.19336-3.34668-1.31201-5.30371-3.76025-4.19727-1.28809,.58301-1.6875,1.07422-2.97559,1.65625-2.83496,1.28223-5.99023-.54883-6.99561-7.23438-1.54443-12.33789,6.12061-23.87305,17.20166-28.88281,15.07422-6.81641,26.19531,3.36328,25.64551,20.68164-.3623,6.06152-2.31543,17.18652-2.7627,30.26855-.37988,14.60449-.45801,24.72754,1.29004,28.59277,.75732,1.67578,2.57031,2.25195,4.11621,1.55273,2.19043-.99023,2.89648-2.86133,4.44238-3.55957,2.31934-1.04883,4.42334,.17188,5.76318,3.13477,4.02002,8.89062-.7749,24.71484-15.07666,31.18164-9.66309,4.36914-20.14404,2.125-25.63281-9.66992Z"/></g><g><path class="d" d="M132.07764,219.00293c0-13.23242,8.24951-23.52441,22.62549-23.44238,14.70215,.08203,22.05371,10.20996,22.05371,23.44238,0,13.39551-8.33154,23.19727-22.38037,23.19727-15.0293,0-22.29883-9.88379-22.29883-23.19727Zm31.93701,.32617c-1.14355-8.16797-4.65576-13.80371-11.35352-13.23145-5.63623,.48926-8.6582,5.39062-7.59668,12.98633,.98047,7.51465,5.06445,12.90625,11.59863,12.33398,5.55469-.57129,8.33154-4.90039,7.35156-12.08887Z"/><path class="d" d="M170.87549,250.61328c0-4.65625,2.53223-7.18848,6.61621-7.18848,2.61377,0,4.00244,1.63379,5.06396,5.22754,.65332,3.18555,1.2251,4.16602,3.59424,4.16602,2.36865,0,3.59375-1.63379,3.51221-4.81934,0-3.43066-.98047-5.22754-2.85889-9.39258-2.77734-6.37109-3.9209-15.51953-4.41064-27.52637-.16357-4.00293-.32666-4.16602-3.59424-4.08398-3.83887,.24512-4.3291-1.0625-4.7373-4.08398-.4082-3.02246,.24512-4.16602,3.75732-5.71777,2.77734-.81738,2.77734-1.30664,2.77734-4.08398,.24463-8.25,6.61572-15.19238,16.82568-15.19238,8.08643,0,13.72266,3.59375,13.72266,9.55664,0,3.34863-2.12402,5.47168-5.71777,5.47168-2.85889,0-4.41064-1.14258-5.96289-3.6748-1.2251-1.96094-2.61377-3.02246-4.7373-3.02246-2.61377,0-3.26709,1.71484-3.34863,4.16602v2.28711c.08154,4.57324,.48975,4.65527,5.88086,4.65527,8.33154,0,9.22998,0,8.90332,5.14551-.32715,5.14648-.57178,5.06445-7.27002,5.06445-4.16553,0-4.32861,.16309-4.16553,4.3291,.40869,10.12891,5.88086,25.07617,5.88086,33.08105,.08203,9.39258-5.39062,14.86523-16.17236,14.86523-8.49512,0-13.55908-3.67578-13.55908-9.22949Z"/></g></g></g></g></svg>