<svg xmlns="http://www.w3.org/2000/svg" viewBox="0 0 173.0972 227.60162"><defs><style>.cls-1{stroke:#000;stroke-miterlimit:10;stroke-width:3px;}</style></defs><g id="Layer_2" data-name="Layer 2"><g id="Layer_1-2" data-name="Layer 1"><path d="M4.831,56.125v-.31094C4.831,19.12292,19.523,0,47.89647,0,71.528,0,83.96572,12.2822,86.531,34.74775l-18.4233,3.65357c-1.01056-15.93577-7.54034-23.32064-20.21122-23.32064-15.70256,0-23.39837,12.049-23.39837,37.54622v5.9079c0,26.27458,7.07392,38.63452,21.61045,38.63452,13.3705,0,20.91084-10.72749,23.32064-33.03757H43.77649V48.97334H87.697V110.773H70.12881c-.31094-6.37431.77736-13.215,4.35319-27.44062l-1.63245-.38868C66.553,102.14439,56.83605,112.25,40.90028,112.25,17.34644,112.25,4.831,93.04934,4.831,56.125Z"/><path d="M93.65156,75.48113l18.11236-3.57583c1.01056,18.19009,7.46261,26.50779,23.78705,26.50779,11.42711,0,18.57878-5.83016,18.57878-14.76974,0-8.24-5.44149-12.59314-18.88972-17.72368l-13.215-5.05281c-14.14785-5.44148-25.49723-12.59314-25.41949-30.55C96.68324,11.03843,109.7428,0,131.8974,0c24.40894,0,37.85717,12.51541,37.7017,34.51454L152.575,37.85717c-.54415-15.39162-7.07393-23.63158-20.91084-23.63158-10.41655,0-16.8686,5.286-16.8686,13.215,0,8.08448,4.43093,12.20446,19.04519,17.49047l13.215,4.74187c13.526,4.89733,26.04138,12.049,26.04138,30.4723,0,20.21121-14.53653,32.57115-38.40132,32.57115C108.73224,112.71641,94.118,100.12327,93.65156,75.48113Z"/><path class="cls-1" d="M26.915,117.272H63.76159l25.575,108.82964H59.48614l-2.1766-13.05956H31.19043l-2.17659,13.05956H1.88416Zm26.27459,75.6366L48.4477,168.88832c-1.39924-9.48372-2.643-17.49047-3.42036-26.27458H43.47263c-.62188,8.78411-1.78791,16.79086-3.18715,26.19685l-4.89733,24.098Z"/><path class="cls-1" d="M171.34746,117.272V226.10162h-28.218V181.24826h-20.289v44.85336h-28.218V117.272h28.218V158.3163h20.289V117.272Z"/></g></g></svg>