<svg xmlns="http://www.w3.org/2000/svg" viewBox="0 0 552.52295 315.61914"><g id="Layer_2" data-name="Layer 2"><g id="Layer_1-2" data-name="Layer 1"><path d="M4.34814,120.59961V17.68457C4.34814,5.79785,9.27686,0,19.52,0,29.85986,0,34.78809,5.79785,34.78809,17.68457V46.19141l-8.21387,2.416V18.55371c0-7.92383-2.31934-11.78906-7.0542-11.78906-4.73535,0-6.958,3.86523-6.958,11.78906V118.85938c0,8.11718,1.25635,11.5,4.44531,11.5,5.89454,0,11.01612-25.89844,11.49952-59.13965h-9.5669v-7.248H35.75439v72.28223H28.98975c-.38623-4.73536.29-11.69239,2.99609-28.12012l-1.83643-.38672C26.28418,131.3252,23.48193,137.2207,14.978,137.2207,7.44043,137.2207,4.34814,132.292,4.34814,120.59961Z"/><path d="M40.99805,34.78809h8.11718c.19336,1.54589-.19335,4.15527-2.51269,11.5l1.54639.5791c3.189-9.66309,6.08789-12.85157,12.27246-13.625l2.126,7.44043-3.67236.96679c-7.73047,2.0293-10.14648,8.40723-10.14648,25.22168v69.38282H40.99805Z"/><path d="M61.17969,120.21289V108.51953c0-16.23437,4.63867-23.48144,11.01611-29.85937l6.37793-6.37793v-25.125c0-4.542-1.35254-6.668-4.05859-6.668-2.70557,0-4.252,2.126-4.252,6.668V72.959l-7.73047-2.416V46.57812c0-8.60058,4.15528-12.75585,11.98243-12.75585,7.92431,0,11.78955,4.15527,11.78955,12.75585v75.85743c0,5.89453,1.15967,6.667,4.5415,6.667h.77344l-1.54639,7.9248a9.72818,9.72818,0,0,1-1.83594.19336c-5.70166,0-7.34423-3.76953-5.5083-12.65918l-1.64257-.38672c-1.93262,8.89063-5.12159,13.0459-10.62989,13.0459C64.272,137.2207,61.17969,131.71191,61.17969,120.21289Zm17.394-4.92871V81.65527l-3.38184,3.57618c-3.38232,3.57519-6.28125,8.69726-6.28125,22.32226v10.33984c0,8.31055,1.15967,12.5625,4.34815,12.5625C76.35107,130.45605,78.57373,126.39746,78.57373,115.28418Z"/><path d="M92.75879,124.46484V47.544c0-8.794,2.9956-13.72168,8.50391-13.72168,5.0249,0,8.11718,3.57519,10.436,12.0791l1.64307-.58008c-2.31934-7.24707-3.189-11.5957-3.189-16.42774V.9668h7.73047V136.25391h-6.86084c-.29-1.64258.19336-3.67188,2.31934-10.53321l-1.64307-.58008c-2.89893,8.50391-4.83154,12.08008-10.436,12.08008C96.14111,137.2207,92.75879,132.67871,92.75879,124.46484Zm17.394-13.72265V60.2998c0-12.0791-2.416-19.5205-5.99121-19.5205-2.51269,0-3.67236,2.80273-3.67236,8.79394v71.89551c0,5.99121,1.15967,8.79395,3.67236,8.79395C107.73682,130.2627,110.15283,122.82227,110.15283,110.74219Z"/><path d="M148.97461,136.25391h-8.11719c-.19336-1.64258.09668-3.67188,2.70606-11.499l-1.54639-.58008c-3.189,10.14649-6.95752,13.0459-11.20947,13.0459-4.73487,0-6.95752-3.38281-6.95752-9.4707V34.78809h7.73047v91.70605c0,2.70508.77343,3.96191,2.51269,3.96191,4.15528,0,7.15088-11.40332,7.15088-26.28417V34.78809h7.73047Z"/><path d="M154.22363,120.21289V108.51953c0-16.23437,4.63867-23.48144,11.01612-29.85937l6.37793-6.37793v-25.125c0-4.542-1.35254-6.668-4.0586-6.668-2.70556,0-4.25195,2.126-4.25195,6.668V72.959l-7.73047-2.416V46.57812c0-8.60058,4.15527-12.75585,11.98242-12.75585,7.92432,0,11.78955,4.15527,11.78955,12.75585v75.85743c0,5.89453,1.15967,6.667,4.54151,6.667h.77343l-1.54638,7.9248a9.72818,9.72818,0,0,1-1.83594.19336c-5.70166,0-7.34424-3.76953-5.5083-12.65918l-1.64258-.38672c-1.93262,8.89063-5.12158,13.0459-10.62988,13.0459C157.31592,137.2207,154.22363,131.71191,154.22363,120.21289Zm17.394-4.92871V81.65527l-3.38184,3.57618c-3.38232,3.57519-6.28125,8.69726-6.28125,22.32226v10.33984c0,8.31055,1.15967,12.5625,4.34814,12.5625C169.395,130.45605,171.61768,126.39746,171.61768,115.28418Z"/><path d="M189.87744,125.52734V42.03613h-6.95752v-7.248h6.95752V9.66309l7.731-3.96192V34.78809h9.37353v7.248H197.6084v82.91114c0,3.47949.86963,4.73535,3.38183,4.73535a16.14628,16.14628,0,0,0,5.9917-1.5459l-.58007,7.34375a13.51737,13.51737,0,0,1-6.95752,1.74023C192.39014,137.2207,189.87744,134.12793,189.87744,125.52734Z"/><path d="M217.832,85.81055v35.75488c0,5.89453,1.54639,8.79395,4.832,8.79395,3.189,0,4.73487-2.89942,4.73487-8.79395V99.0498l7.63427,2.416v20.96973c0,10.0498-4.05859,14.88086-12.36914,14.78515-8.5039-.09668-12.5625-4.92871-12.5625-14.78515V48.60742c0-9.9541,4.15528-14.78515,12.65869-14.78515,8.40723,0,12.46582,4.831,12.46582,14.78515V85.81055Zm0-36.334V78.27344h9.66358V49.47656c0-5.99121-1.54639-8.89062-4.73536-8.89062C219.4751,40.58594,217.832,43.48535,217.832,49.47656Z"/><path d="M252.07031,115.28418V90.73926l8.02051-2.416v27.541c0,9.75976,2.22266,14.49512,6.958,14.49512,4.73486,0,7.0542-4.73536,7.0542-14.49512,0-9.85645-3.09229-22.51563-8.79395-40.58594l-5.70117-18.168C253.90625,39.04,252.36035,27.541,252.36035,17.78027,252.36035,5.79785,256.99854,0,266.56543,0s14.20508,5.79785,14.20508,17.78027V42.51855l-8.02051,2.416v-27.54c0-7.15137-2.0293-10.62988-6.18457-10.62988-4.25195,0-6.28125,3.47851-6.28125,10.62988,0,9.56641,1.64307,19.51953,7.24756,37.30078L273.2334,72.669c5.60449,17.78027,8.89014,31.88867,8.89014,42.61523,0,14.78516-5.02491,21.93652-15.36475,21.93652C256.90186,137.2207,252.07031,130.06934,252.07031,115.28418Z"/><path d="M290.80225,125.52734V42.03613h-6.95752v-7.248h6.95752V9.66309l7.731-3.96192V34.78809h9.37354v7.248H298.5332v82.91114c0,3.47949.86963,4.73535,3.38184,4.73535a16.14637,16.14637,0,0,0,5.9917-1.5459l-.58008,7.34375a13.51735,13.51735,0,0,1-6.95752,1.74023C293.31494,137.2207,290.80225,134.12793,290.80225,125.52734Z"/><path d="M337.25,136.25391h-8.11719c-.19336-1.64258.09668-3.67188,2.70606-11.499l-1.54639-.58008c-3.189,10.14649-6.95752,13.0459-11.20947,13.0459-4.73487,0-6.95752-3.38281-6.95752-9.4707V34.78809H319.856v91.70605c0,2.70508.77343,3.96191,2.51269,3.96191,4.15528,0,7.15088-11.40332,7.15088-26.28417V34.78809H337.25Z"/><path d="M343.21631,124.46484V47.544c0-8.794,2.9956-13.72168,8.5039-13.72168,5.02491,0,8.11719,3.57519,10.436,12.0791l1.64307-.58008c-2.31934-7.24707-3.189-11.5957-3.189-16.42774V.9668h7.73047V136.25391H361.48c-.29-1.64258.19336-3.67188,2.31934-10.53321l-1.64307-.58008c-2.89893,8.50391-4.83154,12.08008-10.436,12.08008C346.59814,137.2207,343.21631,132.67871,343.21631,124.46484Zm17.394-13.72265V60.2998c0-12.0791-2.416-19.5205-5.99121-19.5205-2.51269,0-3.67236,2.80273-3.67236,8.79394v71.89551c0,5.99121,1.15967,8.79395,3.67236,8.79395C358.19434,130.2627,360.61035,122.82227,360.61035,110.74219Z"/><path d="M381.99854,85.81055v35.75488c0,5.89453,1.54638,8.79395,4.832,8.79395,3.18847,0,4.73486-2.89942,4.73486-8.79395V99.0498l7.63428,2.416v20.96973c0,10.0498-4.0586,14.88086-12.36914,14.78515-8.50391-.09668-12.5625-4.92871-12.5625-14.78515V48.60742c0-9.9541,4.15527-14.78515,12.65918-14.78515,8.40673,0,12.46533,4.831,12.46533,14.78515V85.81055Zm0-36.334V78.27344h9.66357V49.47656c0-5.99121-1.54639-8.89062-4.73486-8.89062C383.6416,40.58594,381.99854,43.48535,381.99854,49.47656Z"/><path d="M405.31934,34.78809h8.11718c.19336,1.64257-.09668,3.67187-2.70556,11.5l1.5459.5791c3.189-10.14649,6.95752-13.04492,11.20947-13.04492,4.73535,0,6.95752,3.38183,6.95752,9.46972v92.96192h-7.73047V44.54785c0-2.70508-.77295-3.96191-2.5127-3.96191-4.15527,0-7.15088,11.40332-7.15088,26.28515v69.38282h-7.73046Z"/><path d="M440.27588,125.52734V42.03613h-6.95752v-7.248h6.95752V9.66309l7.731-3.96192V34.78809h9.37353v7.248h-9.37353v82.91114c0,3.47949.86962,4.73535,3.38183,4.73535a16.14628,16.14628,0,0,0,5.9917-1.5459l-.58008,7.34375a13.51732,13.51732,0,0,1-6.95752,1.74023C442.78857,137.2207,440.27588,134.12793,440.27588,125.52734Z"/><path d="M460.55615,117.2168V101.5625l7.34375-2.416v18.74707c0,8.40723,1.16016,12.46583,4.44531,12.46583,3.28614,0,4.832-4.0586,4.832-12.46583,0-7.34472-2.126-16.71777-6.668-28.60351l-4.542-11.88574c-4.542-11.88672-5.41114-19.42383-5.41114-27.73438,0-10.72656,3.47852-15.84765,10.82324-15.84765,7.44043,0,11.30567,4.831,11.30567,14.88085v16.042l-7.24707,2.416V48.31738c0-5.21875-1.35352-7.73144-4.0586-7.73144-2.70605,0-4.05859,2.80273-4.05859,8.69726,0,5.70118,1.35254,13.43262,5.89453,25.31836l4.541,11.88574c4.542,11.88575,6.57129,22.03223,6.57129,30.7295,0,13.52929-3.86524,20.0039-11.98243,20.0039C464.42139,137.2207,460.55615,130.74609,460.55615,117.2168Z"/><path d="M501.689,122.43555V48.60742c0-9.9541,4.0586-14.78515,12.5625-14.78515s12.5625,4.831,12.5625,14.78515v73.82813c0,9.95312-4.05859,14.78515-12.5625,14.78515S501.689,132.38867,501.689,122.43555Zm17.39356-.87012V49.47656c0-6.08789-1.5459-8.89062-4.83106-8.89062-3.28613,0-4.832,2.80273-4.832,8.89062v72.08887c0,5.89453,1.5459,8.79395,4.832,8.79395C517.53662,130.35938,519.08252,127.46,519.08252,121.56543Z"/><path d="M534.646,42.03613h-6.958v-7.248h6.958v-6.957c0-13.916,6.76367-23.19238,16.13769-27.831L552.523,10.5332l-4.63867.38672c-4.63867.38672-5.50782,1.73926-5.50782,8.69727v15.1709H552.523v7.248H542.37646v94.21778H534.646Z"/><path d="M17.104,144.38379H50.15283L68.03027,279.6709H41.939l-1.353-17.29785H25.51123l-1.353,17.29785H0ZM38.55664,245.26953,36.2373,222.07715c-1.063-17.10449-1.73925-27.34766-2.22216-44.64453h-2.0293c-.38672,17.29687-1.063,27.54-2.126,44.64453l-2.416,23.19238Z"/><path d="M70.70654,178.20508H94.67139c.19336,4.542-.67627,8.9873-3.09229,15.46191l1.54639.77246c6.08789-13.52832,9.95312-17.20019,19.81006-18.36035l2.5122,24.15918-5.41162.67578c-11.5957,1.64258-14.78467,7.05469-14.78467,27.541V279.6709H70.70654Z"/><path d="M117.82324,178.20508V157.52539l24.64209-7.92383v28.60352h13.625v18.55371h-13.625v59.52637c0,3.67285,1.64258,5.31543,5.21778,5.31543a30.09,30.09,0,0,0,8.60058-1.64258l-2.0293,17.78027a29.75231,29.75231,0,0,1-14.49511,3.38184c-14.30176,0-21.936-7.44043-21.936-22.999v-79.916"/><path d="M242.38525,144.38379V279.6709h-25.125V218.69531h-12.0791V279.6709h-25.125V144.38379h25.125v54.59766h12.0791V144.38379Z"/><path d="M247.061,149.4082H271.606v20.87305H247.061Zm0,28.79688H271.606V279.6709H247.061Z"/><path d="M274.85791,255.416v-6.668l23.19238-2.9961v9.85742c0,6.18458,1.44922,8.98633,4.63819,8.98633,2.31933,0,3.57568-1.44922,3.57568-4.63769,0-7.73145-2.60937-13.33594-10.62988-21.83985l-7.5376-8.11718c-8.02051-8.50391-12.85205-17.1045-12.85205-27.44434,0-17.49023,9.08349-26.38086,26.86426-26.38086,18.55371,0,27.6372,8.50391,27.54052,26.38086l-.09668,4.15527-23.28857,2.89942v-8.11719c0-6.08789-1.15967-8.40723-4.15527-8.40723-2.22266,0-3.479,1.44922-3.479,4.63868,0,7.34375,2.31934,11.5957,9.85645,19.03711l7.5376,7.63378c7.53759,7.44043,14.59179,15.6543,14.59179,31.88868,0,16.91113-9.56689,25.415-28.1206,25.415C284.03809,281.7002,274.85791,273.38965,274.85791,255.416Z"/><path d="M332.73145,178.20508V157.52539l24.64209-7.92383v28.60352h13.625v18.55371h-13.625v59.52637c0,3.67285,1.64257,5.31543,5.21777,5.31543a30.09,30.09,0,0,0,8.60058-1.64258l-2.02929,17.78027a29.75238,29.75238,0,0,1-14.49512,3.38184c-14.30176,0-21.936-7.44043-21.936-22.999v-79.916"/><path d="M373.68994,252.61328V205.45605c0-19.32714,9.95313-29.37695,29.377-29.37695,19.52,0,29.47315,10.04981,29.47315,29.37695v47.15723c0,19.23047-10.04981,29.18359-29.47315,29.18359C383.64307,281.79687,373.68994,271.84375,373.68994,252.61328Zm34.01514,3.09277V202.36328c0-5.50781-1.5459-8.02051-4.63819-8.02051-2.99609,0-4.542,2.5127-4.542,8.02051v53.34277c0,5.31446,1.5459,7.82715,4.542,7.82715C406.15918,263.5332,407.70508,261.02051,407.70508,255.70605Z"/><path d="M436.7002,178.20508h23.96533c.19336,4.542-.67676,8.9873-3.09278,15.46191l1.5459.77246c6.08789-13.52832,9.9541-17.20019,19.81055-18.36035l2.51269,24.15918-5.4121.67578c-11.59571,1.64258-14.78516,7.05469-14.78516,27.541V279.6709H436.7002Z"/><path d="M482.37256,292.91016l6.47363-.58008c6.37793-.58008,8.11719-3.47852,7.92481-8.60059l-.19336-5.21777L481.59912,178.20508h25.415l3.18848,54.792c.67675,8.98633,1.15918,17.00684,1.64257,29.56934h1.93262c.4834-12.5625.87012-20.583,1.54688-29.56934l3.09179-54.792h23.86817l-12.56153,98.5664c-3.67285,24.54493-17.87793,37.59082-44.25878,38.84766Z"/></g></g></svg>