<svg xmlns="http://www.w3.org/2000/svg" viewBox="0 0 388.89113 271.46492"><g id="Layer_2" data-name="Layer 2"><g id="Layer_1-2" data-name="Layer 1"><path d="M0,238.58327V34.98554C0,11.46994,9.75051,0,30.01465,0c20.45541,0,30.205,11.46994,30.205,34.98554V91.38086L43.97,96.16049V36.705c0-15.67578-4.58836-23.32241-13.95539-23.32241-9.368,0-13.76508,7.64663-13.76508,23.32241V235.14055c0,16.0583,2.48544,22.75055,8.7942,22.75055,11.6612,0,21.79327-51.23511,22.74958-116.99649H28.86708V126.55574H62.13126V269.5523H48.7487c-.76409-9.368.57378-23.13114,5.9272-55.63028l-3.633-.765c-7.64663,46.64481-13.19034,58.30794-30.01369,58.30794C6.11749,271.46492,0,261.71441,0,238.58327Z"/><path d="M69.6261,228.06771V179.51027l15.867-4.77962v54.48463c0,19.30783,4.3971,28.67582,13.76509,28.67582,9.367,0,13.95538-9.368,13.95538-28.67582,0-19.49909-6.1175-44.54286-17.39714-80.29152L84.53779,112.98191c-11.27964-35.74866-14.33791-58.49728-14.33791-77.807C70.19988,11.46994,79.37564,0,98.30191,0s28.102,11.46994,28.102,35.17487v48.94l-15.867,4.77963V34.41175c0-14.14761-4.01457-21.02919-12.235-21.02919-8.41167,0-12.42625,6.88158-12.42625,21.02919,0,18.92531,3.25049,38.61566,14.33791,73.79247l11.27964,35.55739c11.08742,35.17487,17.58744,63.08564,17.58744,84.3061,0,29.2496-9.94081,43.39721-30.39621,43.39721C79.18438,271.46492,69.6261,257.31731,69.6261,228.06771Z"/><path d="M162.56134,2.91262h65.38078l35.3671,267.63968H211.69256l-2.67671-34.22049H179.19343l-2.67671,34.22049H128.72434Zm42.43994,199.58315-4.58837-45.88169c-2.10291-33.838-3.44078-54.10211-4.39613-88.32067H192.0022c-.765,34.21856-2.10291,54.4827-4.20583,88.32067l-4.77963,45.88169Z"/><path d="M388.89113,2.91262V270.5523h-49.705V149.92376H315.28993V270.5523h-49.705V2.91262h49.705v108.011h23.89619V2.91262Z"/></g></g></svg>