<?xml version="1.0" encoding="utf-8"?>
<!-- Generator: Adobe Illustrator 25.0.0, SVG Export Plug-In . SVG Version: 6.00 Build 0)  -->
<svg version="1.1" id="Layer_1" xmlns="http://www.w3.org/2000/svg" xmlns:xlink="http://www.w3.org/1999/xlink" x="0px" y="0px"
	 viewBox="0 0 1000 1000" style="enable-background:new 0 0 1000 1000;" xml:space="preserve">
<g>
	<path d="M500.1,996.7c-68-6.6-133.9-25.5-196-51.9c-59.6-25.5-112.9-56.6-158.7-94.9c-45.4-38-80.9-81.7-105.8-136
		C14.1,658.1,1.1,592.8,1.1,517.7c0-74.7,13-154.9,38.6-231.6c24.8-74.3,60.4-141.4,105.8-191.5c45.7-50.7,99.1-81.1,158.7-89.8
		c62.1-9.3,128.1,5.2,196,34c68,28.8,133.9,69.1,196,110.8C755.7,189.7,809.1,229,854.8,267c45.4,37.9,80.9,73.1,105.8,112.6
		c25.6,40.6,38.6,84.9,38.6,138.1c0,53-13,112.1-38.6,173.6c-24.8,59.5-60.4,118.2-105.8,168.1c-45.7,50.4-99.1,89.1-158.7,112.4
		C634,996.3,568.1,1003.3,500.1,996.7z M500.1,298.8c-60.8-20.8-116-13-156,19.5c-40,32-64.7,88.7-64.7,153.4
		c0,130.2,99,241.6,220.7,264.9c121.7,23.4,220.7-61.7,220.7-172.9c0-56-24.7-108.8-64.7-156.1C616.1,360.8,560.9,319.5,500.1,298.8
		z"/>
</g>
</svg>
