<?xml version="1.0" encoding="UTF-8"?><svg xmlns="http://www.w3.org/2000/svg" viewBox="0 0 205.25391 110.15994"><defs><style>.d{fill:#f0b708;}</style></defs><g id="a"/><g id="b"><g id="c"><g><g><path class="d" d="M0,91.06716c0-13.82617,6.86621-20.26953,16.17773-20.26953,8.46484,0,12.22705,5.31445,12.22705,13.87305,0,9.07617-3.05664,12.60352-8.79395,12.60352-4.93799,0-7.47754-3.10352-7.47754-9.49902,0-6.06738,2.16357-8.41797,5.26709-8.37109,2.3042,.04688,3.15088,1.64551,3.15088,3.85645,0,1.55176-.42334,2.53906-.94043,3.47949-.98779,.9873-1.45801,2.06934-1.45801,3.38574,0,1.03516,.47021,1.41113,1.36377,1.41113,1.69287,0,2.53955-1.50488,2.53955-6.25488,0-5.64258-1.92822-8.08887-5.50244-8.08887-3.99707,0-6.11328,2.96289-6.11328,9.31152,0,8.98242,2.86865,13.4502,8.41797,13.40332,2.49219-.04688,3.71484-.23535,5.0791-.51758,.75244-.1875,1.50488-.14062,1.9751,.4707,.61133,.6582,.51709,1.59863,0,2.91504-1.69336,5.0791-5.22021,7.38379-10.39307,7.38379C5.73779,110.15994,.04736,103.71755,0,91.06716Z"/><path class="d" d="M28.875,91.53689c0-10.76953,3.29199-14.90723,11.52197-14.81348,7.99463,.09375,11.19238,4.18555,11.19238,14.81348,0,10.81641-3.24463,14.7666-11.47461,14.7666-8.04199,0-11.23975-3.99707-11.23975-14.7666Zm13.21484-.61133c-1.22266-5.59668-1.74023-6.86621-3.29199-6.34863-1.45801,.42285-1.31689,1.88086-.51709,7.28906,.79932,5.59668,1.9751,6.44336,3.2915,6.16113,1.88135-.3291,1.646-2.02246,.51758-7.10156Z"/><path class="d" d="M52.55322,100.99002c-.04688-3.24512,.23535-3.95117,1.36377-4.84473,.6582-.5166,.84668-.89355,.89355-2.39844,.09424-1.78613,.04688-3.52637,.04688-5.54883,0-1.17578-.23486-1.50488-1.22266-1.64551-1.22266-.1416-1.92822-.89355-1.92822-2.35156,0-2.02246,.7998-3.66797,1.9751-4.93848,1.03467-1.12793,2.49268-2.39844,4.0918-2.39844,1.31641,0,1.83398,.65918,2.16309,1.36426,.3291,.56445,.37646,1.17578,.98779,1.17578,.79932,0,.61133-1.59863,.70508-3.99707,.23535-5.2207,1.88135-7.66602,5.69043-7.66602,3.15088,0,4.51465,2.11621,4.51465,6.20801-.04688,3.00977-1.45801,4.46777-3.76221,4.46777-2.82178,0-4.51465,2.44531-4.51465,7.10059v8.41797c0,1.22266,.18799,1.64648,1.31689,2.20996,2.02197,1.03516,2.35107,1.78711,2.35107,5.0791,0,3.7627-.89307,4.65625-7.52441,4.65625-6.16016,.04688-7.14795-.37598-7.14795-4.89062Z"/><path class="d" d="M68.35938,100.99002c0-3.24512,.28223-3.99805,1.41064-4.8916,1.03467-.84668,.98779-1.74023,.98779-2.82129v-5.0791c0-1.17578-.18799-1.50488-1.17578-1.64551-1.22266-.1416-1.92822-.94141-1.92822-2.44629,0-1.92773,.75244-3.62109,2.02246-4.9375,1.08154-1.17578,3.00977-2.49219,5.22021-2.49219,2.35107,0,3.33887,1.12891,3.57373,3.00977,0,.56445,.23535,.79883,.70557,.79883,.61133,0,.79932-.6582,1.50488-1.50488,.89355-1.22266,2.16309-2.35059,5.22021-2.35059,4.6084,0,7.14795,2.35059,7.14795,6.95996,0,3.47949-.56445,5.69043-.56445,9.78125,0,1.26953,.09424,2.11621,.84668,2.77441,1.03467,.89355,1.31689,1.59961,1.26953,4.84473,0,4.70215-.9873,4.9375-6.91309,4.89062-5.40771-.04688-5.92529-.94043-5.92529-4.51465,0-2.72754,0-3.57422,.70557-4.60938,.56445-.75195,.6582-1.41016,.61133-2.77441,0-2.35156-.09424-5.12598-.23535-6.67773-.09375-1.22266-.42285-1.78711-1.26953-1.78711-1.22266,0-1.59912,.89355-1.69287,2.49219-.04736,2.25781-.18848,4.23242-.18848,6.34863,0,1.03516,0,1.64648,.37646,2.35156,.56445,1.08203,.6582,1.92871,.6582,4.65625,0,3.52734-.84619,4.51465-5.36084,4.51465-5.97266,.04688-6.96045-.28223-7.00732-4.89062Z"/><path class="d" d="M95.58789,104.18728c0-2.49219,.51758-7.57129,.70557-22.57324,.04688-2.06934-.09424-2.39844-1.31689-2.72754-1.22266-.37598-1.59912-1.03418-1.59912-2.39844,0-2.02246,1.08203-3.85645,2.63379-5.17285,1.41064-1.17578,3.15088-1.97559,5.03174-1.97559,2.91602,0,4.93848,1.22266,4.93848,4.4209,0,1.36426-.4707,2.63379-.94141,4.0918-.5166,1.41016-.46973,1.97461,.1416,1.97461s.94043-.6582,1.59863-1.36328c.89355-.94043,2.30469-1.69336,4.2793-1.69336,5.4082,0,8.08887,3.24512,8.08887,13.73242,0,11.80371-2.49219,15.4248-9.6875,15.4248-2.06934,0-3.76172-.75293-4.79688-1.78711-.75244-.70508-1.08154-1.50488-1.83398-1.50488-.94043,.04688-.94043,.84668-1.12842,1.74023-.28223,1.36328-1.03467,1.83398-3.15088,1.83398-1.69287,0-2.96289-.3291-2.96289-2.02246Zm13.6377-13.40234c-1.22266-4.37402-1.50488-6.39648-3.29199-5.83203-1.69238,.51758-.9873,2.54004-.37598,6.72559,.7998,5.36035,1.41113,6.20703,3.15137,5.97168,1.88086-.23438,1.88086-2.20996,.5166-6.86523Z"/><path class="d" d="M120.2334,100.99002c-.04688-3.24512,.23535-3.95117,1.36426-4.84473,.6582-.5166,.84668-.89355,.89355-2.39844,.09375-1.78613,.04688-3.52637,.04688-5.54883,0-1.17578-.23535-1.50488-1.22266-1.64551-1.22266-.1416-1.92773-.89355-1.92773-2.35156,0-2.02246,.79883-3.66797,1.97461-4.93848,1.03516-1.12793,2.49316-2.39844,4.0918-2.39844,1.31641,0,1.83398,.65918,2.16309,1.36426,.3291,.56445,.37598,1.17578,.9873,1.17578,.7998,0,.61133-1.59863,.70605-3.99707,.23438-5.2207,1.88086-7.66602,5.69043-7.66602,3.15039,0,4.51465,2.11621,4.51465,6.20801-.04785,3.00977-1.45801,4.46777-3.7627,4.46777-2.82129,0-4.51465,2.44531-4.51465,7.10059v8.41797c0,1.22266,.18848,1.64648,1.31641,2.20996,2.02246,1.03516,2.35156,1.78711,2.35156,5.0791,0,3.7627-.89355,4.65625-7.52441,4.65625-6.16016,.04688-7.14844-.37598-7.14844-4.89062Z"/><path class="d" d="M134.85547,92.28982c0-11.42773,3.33887-15.51953,11.42773-15.51953,7.47656,0,9.96973,4.0918,9.96973,13.26172,0,3.33887-.70605,4.18555-4.04492,4.18555h-7.52441c-.61133,0-.94043,.09375-.94043,.84668,0,1.45801,2.35156,2.11621,5.78418,2.11621,1.27051,0,2.21094-.1416,2.96289-.3291,.6582-.1416,1.03516-.23535,1.50488-.23535,1.45801,0,2.02246,1.36426,1.22266,3.71484-.94043,3.90332-3.90332,5.87891-8.74707,5.87891-8.04199,0-11.61523-4.18555-11.61523-13.91992Zm11.99121-4.28027c-.28223-2.35059-.79883-4.89062-2.11621-4.65527-1.26953,.18848-1.17578,1.17578-1.17578,2.82129,0,3.66895,.23535,3.71582,1.45801,3.71582,1.92871,0,2.21094-.70605,1.83398-1.88184Z"/><path class="d" d="M156.73145,97.7449c0-6.25488,2.35156-8.55957,7.43066-8.55957,1.88086,0,2.63379,.23535,3.48047,.23535,1.12793,0,1.08105-.84668,1.03418-3.33887,0-1.92773-.3291-2.58691-1.41113-2.58691-1.12793,0-1.1748,.51758-1.50488,2.21094-.42285,1.88086-1.08105,2.39844-3.80859,2.49219-3.62109,.09375-5.26758-.9873-5.26758-4.04395,0-2.44629,.94043-4.0918,2.54004-5.26758,1.97461-1.45801,4.70215-2.11621,9.31152-2.11621,6.81836,0,9.3584,2.44531,9.3584,7.57129,0,5.0791-.56445,8.27734-.56445,10.67578,0,.42285,.1875,.70508,.61133,.70508,.09375,0,.23535-.04688,.46973-.04688,1.03516,0,1.31738,.7998,1.31738,2.49219,0,4.46777-1.55176,7.94824-5.36133,7.94824-1.74023,0-3.24512-.51758-4.23242-2.02246-.51758-.75293-.61133-1.22266-1.31641-1.22266-.51758,0-.75293,.37598-1.17578,1.17578-.70605,1.45801-1.74023,2.06934-4.75,2.06934-4.51465,0-6.16113-2.39844-6.16113-8.37109Zm12.22754-1.36426c0-2.49219,.3291-3.15039-.9873-3.15039-.98828,0-1.41113,.6582-1.78711,3.00977-.37598,1.83398-.4707,2.91504,.84668,2.91504,1.17578,0,1.92773-.5166,1.92773-2.77441Z"/><path class="d" d="M196.41211,104.75173c-1.12793-.9873-1.12793-1.92773-1.92773-1.92773-1.03418,0-1.03418,.89355-1.64551,1.59863-.89355,1.17578-1.83496,1.55176-4.13867,1.55176-6.16113,0-8.74707-4.70312-8.74707-15.28418,0-10.29883,3.10352-13.82617,9.12305-13.82617,2.16309,0,3.43262,.70605,4.32617,2.06934,.56445,.75293,.89355,1.45801,1.55273,1.45801,.56348,0,.6582-.56445,.6582-1.50488,0-1.45801-.3291-2.06934-1.55176-2.25684-.98828-.18848-1.78711-.51758-1.78711-1.92871s.70508-2.91504,2.02148-4.04395c1.31738-1.12891,3.15137-1.83398,5.2207-1.83398,2.82129,0,5.17285,1.50488,5.17285,4.98438,0,5.50195-2.16309,11.66309-2.16309,20.59863,0,.94043,.23438,1.31641,.79883,1.31641h.56445c1.08203,0,1.36426,.75293,1.36426,2.16309-.04688,5.50195-1.69336,8.23047-4.75,8.23047-1.69336,0-3.00977-.42383-4.0918-1.36426Zm-2.86816-14.2959c-1.12891-4.4209-1.41113-6.25488-3.19824-5.73828-1.64551,.4707-.89355,2.58691-.42285,6.49023,.61133,5.36133,1.55176,6.20801,3.19727,5.97266,1.83496-.23535,1.59961-2.25781,.42383-6.72461Z"/></g><g><path class="d" d="M66.56689,53.89822c0-5.65674,1.96924-11.14551,5.36328-14.49756,1.59229-1.55029,2.80762-1.63428,3.6875-1.21533,.96338,.46094,1.17285,1.38281,.67041,2.72363-1.04785,2.63965-1.34082,4.98633-1.34082,7.62598,0,11.1875,6.66211,14.79102,12.15088,14.79102,4.65088,0,7.75195-2.8916,7.75195-8.8833,0-6.49463-3.64551-10.93604-8.42236-10.93604-2.80713,0-4.14795,1.92773-4.14795,4.23193,0,1.84375,.7124,2.64014,1.67578,2.64014,.92188,0,1.25732-.67041,1.67627-1.75977,.37695-.92188,.83789-1.4248,1.84375-1.4248,2.34619,0,4.44141,3.0166,4.44141,6.74609,0,3.51953-1.96973,5.2793-5.65674,5.2793-5.57275,0-9.00879-4.14795-9.00879-11.94141,0-7.62598,4.19043-12.6123,11.64844-12.6123,9.38574,0,15.33594,7.24902,15.37744,18.56201,.04199,11.56494-7.24854,18.646-19.35791,18.68799-11.48096,.04199-18.35254-6.95605-18.35254-18.01758Z"/><path class="d" d="M106.29199,58.88455c0-3.43604,.62891-6.07568,.62891-7.58398,0-1.13135-.12598-1.67627-1.17285-1.76025-1.38281-.12549-2.2627-.50244-2.2627-1.88525,0-1.75977,1.08887-3.47803,2.72363-4.69287,1.4248-1.04736,3.30957-1.84375,5.32129-1.84375,2.72363,0,4.23145,1.29883,4.23145,3.81299,0,3.14258-.71191,6.11768-.71191,11.27148,0,1.34082,.71191,1.88574,1.96875,1.88574,2.22168,0,3.01758-2.0957,3.14258-4.27441,.04199-.67041,.12598-2.47217,.12598-3.22607,0-.79639-.25098-1.34082-1.00586-1.4668-1.13086-.12549-1.92676-.54443-1.92676-1.75977,0-1.71777,1.08887-3.47754,2.72363-4.60889,1.38281-.92188,3.10059-1.63428,5.11133-1.63428,2.55566,0,4.02246,1.08936,4.02246,3.51953,0,2.89111-.92188,7.70996-.92188,11.56494,0,.71191,.29395,1.21484,.87988,1.21484,.37695,0,.62891-.04199,1.13184-.04199,.75391,0,1.34082,.6709,1.34082,2.01172,0,3.68652-2.47266,6.24316-5.86621,6.24316-3.0166,0-3.72949-1.21582-4.06445-3.05859-.12598-.75488-.33496-1.04785-.62891-1.04785-.62793,0-.75391,.46094-1.46582,1.50781-.75488,1.21582-2.55664,2.64062-5.9502,2.64062-4.65137,0-7.375-2.47266-7.375-6.78809Z"/><path class="d" d="M131.13965,61.98513c0-1.4248,.20996-2.59766,1.4248-3.39453,.87988-.58594,1.34082-1.08887,1.4668-2.3877,.125-1.71826,.08301-3.89697,.08301-5.27979s-.54395-1.55029-1.75977-1.59229c-1.4248-.04199-2.42969-.46094-2.42969-2.05273,0-1.76025,.92188-3.31055,2.2207-4.44189,1.25684-1.00537,2.55566-1.67578,3.85449-1.67578s2.2207,.96387,2.38867,2.2207c.08398,.58643,.12598,1.13135,.66992,1.13135,.83789,0,.83789-1.5083,1.4668-4.77686,1.00586-5.32129,3.64551-7.62598,7.45801-7.62598,3.43652,0,4.90234,2.2627,4.86035,4.90234-.04102,2.1792-1.29883,3.89697-4.14746,3.89697-4.27441,0-6.74609,3.56152-6.7041,9.00879,0,5.11182-.04199,4.27393,.08398,5.94971,.08301,.96338,.20898,1.55029,1.75977,2.26221,1.88477,.88086,2.55566,1.50879,2.55566,3.77148,0,2.63965-1.13184,3.47754-7.33301,3.47754-6.32715,0-7.91895,0-7.91895-3.39355Z"/></g><g><path class="d" d="M21.50879,60.19802c-1.79492-3.9707-.86719-8.5293,1.88135-9.77246,1.45068-.65625,2.30615,.01465,3.2124,1.30713,.90234,1.38525,1.88281,1.72314,2.91309,1.25732,.80176-.36279,1.53223-1.29053,1.7793-3.2876,1.1582-7.09912,.97168-12.90137,.9082-15.58594-.04102-2.32617,.00928-3.13086-.6626-3.70117-1-.78857-1.64893-.49512-6.86279,1.9082-5.21289,2.40283-6.28809,5.92383-5.04541,8.67285,.55273,1.22168,1.01709,1.33301,1.57275,1.03564,.5166-.2793,.604-.59424,.35059-1.76611-.50635-1.93311,.68604-3.66846,2.51855-4.49756,2.55811-1.15625,4.7627-.45117,5.47266,3.45752,.7583,4.11865-1.46777,7.33252-5.8584,9.31787-4.42822,2.00244-8.57764,1.16504-10.71973-4.48828-3.09863-8.07227,2.47412-14.86768,8.69727-17.68164,9.50684-4.29834,14.52832-6.61523,19.07178-8.66992,4.65771-2.10596,6.32959-.24072,7.16748,1.81689,.87695,2.04102,1.12256,4.41406,2.62402,7.73438,.53564,1.18457,1.24707,2.65576,2.34912,4.68701,.97705,1.85645,1.76611,2.78711,2.62109,3.4585,1.00098,.78955,1.79053,1.21338,2.39209,2.64404,1.56641,3.56787-1.88525,6.00195-6.19922,7.95215-3.43652,1.5542-5.90234,1.79639-6.93848-.49463-.62109-1.37402-.25488-2.59814,.35449-3.79346,.38965-.86621,.46729-1.40674,.13965-2.13232-.05176-.11523-.1416-.21143-.22803-.40283-.36279-.80176-1.14014-.58887-3.16357,.32617-3.16895,1.43262-3.2793,1.39209-3.36279,3.03906-.02637,1.16113,.04932,3.05811,.10498,6.43555,.05664,6.73438-1.83203,11.40625-7.40576,13.92676-4.39062,1.98535-7.96143,1.20801-9.68408-2.70312Zm20.86914-28.2915c-.20312-.55127-1.21094-3.08447-1.41846-3.54248-.604-1.33691-.98096-1.76416-1.76611-1.36328-1.03027,.46582-1.14209,.93164-1.12012,2.30078-.02246,.5625-.13672,3.96973-.10645,4.646-.03906,1.94873,.64453,1.73242,2.62988,.83447,1.79395-.81152,2.30176-1.31689,1.78125-2.87549Z"/><path class="d" d="M57.71973,36.65066c-1.3291-2.94043-1.146-6.19678-.76562-12.57568,.1333-2.45166,.38135-5.46094,.39355-6.24854,.05713-.9917-.38867-1.57129-1.11426-1.24316-.38135,.17236-.5,.31787-.88184,.49072-.83984,.37988-1.7749-.16309-2.07324-2.14453-.45703-3.65479,1.81396-7.07324,5.09766-8.55762,4.4668-2.02002,7.76221,.99609,7.59961,6.12793-.10742,1.7959-.68652,5.09277-.81836,8.96924-.11279,4.32764-.13623,7.32715,.38135,8.47266,.22461,.49609,.76221,.66699,1.22021,.45996,.64893-.29346,.8584-.84814,1.31641-1.05518,.6875-.31055,1.31055,.05176,1.70703,.92871,1.19141,2.63477-.22852,7.32422-4.4668,9.24072-2.86328,1.29492-5.96875,.62891-7.5957-2.86523Z"/><path class="d" d="M70.41016,30.91238c-1.3291-2.94043-1.146-6.19678-.76562-12.57568,.1333-2.45166,.38184-5.46094,.39355-6.24854,.05713-.9917-.38867-1.57129-1.11426-1.24316-.38135,.17285-.5,.31787-.88184,.49072-.83984,.37988-1.7749-.16309-2.07324-2.14453-.45703-3.65479,1.81445-7.07324,5.09766-8.55762,4.4668-2.02002,7.76221,.99609,7.59961,6.12793-.10742,1.79639-.68652,5.09277-.81836,8.96924-.11279,4.32764-.13623,7.32715,.38135,8.47266,.22461,.49609,.76221,.66699,1.22021,.45996,.64893-.29346,.8584-.84814,1.31641-1.05518,.6875-.31055,1.31055,.05176,1.70703,.92871,1.19141,2.63477-.22852,7.32422-4.4668,9.24072-2.86328,1.29492-5.96924,.62939-7.5957-2.86523Z"/></g><g><path class="d" d="M39.43164,60.43533c0-3.91992,2.44385-6.96973,6.70312-6.94531,4.35645,.02441,6.53418,3.02539,6.53418,6.94531,0,3.96875-2.46826,6.87305-6.63086,6.87305-4.45264,0-6.60645-2.92773-6.60645-6.87305Zm9.46191,.09668c-.33838-2.41992-1.37939-4.08984-3.36377-3.91992-1.66992,.14453-2.56494,1.59668-2.25049,3.84766,.29053,2.22656,1.50049,3.82324,3.43652,3.6543,1.64551-.16992,2.46826-1.45215,2.17773-3.58203Z"/><path class="d" d="M51.22119,69.80154c0-1.37988,.75049-2.12988,1.96045-2.12988,.77441,0,1.18555,.4834,1.5,1.54883,.19385,.94336,.36328,1.23438,1.06494,1.23438,.70215,0,1.06494-.48438,1.04053-1.42773,0-1.0166-.29004-1.54883-.84668-2.7832-.82275-1.8877-1.16162-4.59863-1.30713-8.15625-.04834-1.18555-.09668-1.2334-1.06445-1.20996-1.1377,.07324-1.28271-.31445-1.40381-1.20947-.12109-.89551,.07275-1.23438,1.11328-1.69434,.82275-.2417,.82275-.38721,.82275-1.20996,.07275-2.44434,1.96045-4.50146,4.98535-4.50146,2.396,0,4.06543,1.06494,4.06543,2.83154,0,.99219-.62891,1.62158-1.69385,1.62158-.84717,0-1.30664-.33887-1.7666-1.08887-.36328-.58105-.77441-.89551-1.40381-.89551-.77441,0-.96777,.5083-.99219,1.23438v.67725c.02441,1.35547,.14551,1.37939,1.74268,1.37939,2.46826,0,2.73438,0,2.6377,1.5249s-.16943,1.50049-2.15381,1.50049c-1.23438,0-1.28271,.04785-1.23438,1.28223,.12109,3.00098,1.74268,7.42969,1.74268,9.80176,.02393,2.78223-1.59717,4.4043-4.79199,4.4043-2.5166,0-4.01709-1.08887-4.01709-2.73438Z"/></g></g></g></g></svg>