<svg width="635" height="324" viewBox="0 0 635 324" fill="none" xmlns="http://www.w3.org/2000/svg">
<g clip-path="url(#clip0_3_286)">
<g filter="url(#filter0_d_3_286)">
<path d="M116.977 172.646C112.614 172.646 108.91 171.082 107.429 168.284C106.276 166.061 106.276 164.58 105.042 164.58C103.56 164.58 102.572 166.473 100.021 168.778C98.0452 170.506 94.9997 172.317 89.238 172.317C80.5955 172.317 75.8215 168.119 75.8215 160.958C75.8215 155.773 78.2908 150.916 80.5955 147.295C81.9125 145.402 82.6532 144.332 82.6532 142.932C82.6532 141.451 81.9125 141.121 80.5132 141.121H79.2785C77.3854 141.121 77.0562 140.134 77.1385 138.405C77.3031 132.479 83.0648 125.565 90.7196 125.565C97.9629 125.565 101.996 129.927 101.996 136.347C101.996 140.381 100.021 143.344 97.9629 146.554C96.5636 148.776 95.2467 151.081 95.2467 153.715C95.2467 155.773 96.1521 156.843 97.8806 156.843C98.7037 156.843 99.5268 156.596 100.185 155.937C102.078 154.291 103.56 150.587 104.712 147.048C106.688 141.533 106.441 139.64 105.947 137.664C105.288 135.854 104.959 134.454 105.288 132.232C106.112 127.458 109.322 125.812 115.166 125.812C123.561 125.812 125.948 127.54 125.866 133.467C125.784 135.36 124.714 137.335 123.644 138.817C122.409 140.463 121.668 141.533 120.187 145.895C119.61 147.624 118.376 150.34 118.376 153.386C118.376 155.69 119.528 156.843 121.833 156.843C126.031 156.843 131.216 148.612 131.71 144.661C132.039 142.027 131.216 140.628 130.064 139.228C129.158 138.076 128.171 136.759 128.171 133.384C128.171 128.528 131.216 125.73 136.072 125.73C142.986 125.73 145.373 129.763 144.633 136.512C143.892 151.986 131.628 172.646 116.977 172.646ZM163.788 172.399C151.36 172.235 144.034 165.485 144.199 153.797C144.446 139.064 154.076 124.824 171.608 125.071C181.979 125.153 188.975 130.257 188.728 139.887C188.481 147.212 184.777 152.48 174.653 153.386C166.998 154.209 163.377 150.176 161.978 149.929C161.072 149.764 160.496 150.423 160.331 151.41C159.508 155.773 163.953 158.736 170.126 158.736C173.748 158.818 176.711 157.913 178.851 157.09C180.909 156.349 182.39 155.608 183.707 156.596C184.531 157.254 184.86 158.571 184.366 160.217C182.473 166.72 176.382 172.482 163.788 172.399ZM168.974 144.661C171.772 144.661 173.83 144.002 173.748 141.533C173.666 138.488 171.772 137.335 168.398 137.335C165.517 137.418 163.377 139.722 163.295 141.451C163.212 143.673 166.175 144.661 168.974 144.661ZM210.104 186.968C203.107 186.886 198.087 185.651 199.157 180.054C199.897 176.021 200.803 174.786 204.178 172.482C207.552 170.259 208.952 167.543 212.738 155.196C214.713 148.612 216.524 143.344 213.561 143.344H210.845C209.198 143.344 207.305 141.862 208.705 137.994C211.009 131.08 216.936 125.894 223.109 125.894C225.496 125.894 227.883 127.129 228.788 129.104C229.611 130.75 229.858 131.985 230.846 131.985C232.081 131.985 232.739 130.586 234.879 128.857C237.76 126.47 240.312 125.483 244.262 125.483C258.584 125.483 261.795 137.006 258.338 150.505C254.634 165.156 246.979 171.247 234.879 171.247C230.764 171.247 228.212 170.012 226.73 169.189C225.578 168.613 225.167 168.037 224.097 168.037C223.027 168.037 222.533 168.695 222.286 169.848C221.874 171.165 222.368 171.905 223.767 172.811C225.825 174.128 226.401 175.115 226.401 177.832C226.401 184.417 221.71 187.133 210.104 186.968ZM236.772 158.242C239.818 158.242 241.629 154.95 241.629 150.011C241.546 144.578 240.723 138.488 236.114 138.57C232.904 138.652 230.599 141.615 230.517 146.06C230.434 152.233 231.834 158.324 236.772 158.242ZM270.318 172.07C264.145 172.07 259.124 168.366 259.042 160.794C259.042 154.456 262.005 148.776 267.849 137.664C270.071 133.384 272.952 128.199 273.611 126.8C274.516 125.071 274.187 123.672 272.623 123.672C271.8 123.672 271.47 123.836 270.647 123.836C268.837 123.836 267.602 122.108 268.672 118.322C270.812 111.408 277.644 107.127 284.722 107.127C294.353 107.127 297.81 115.194 293.365 124.248C291.719 127.376 288.015 132.808 284.64 139.64C280.936 147.295 278.467 152.645 278.467 155.114C278.467 156.184 279.29 156.925 280.278 156.925C281.677 156.925 282.5 156.102 283.488 156.102C284.969 156.102 285.792 157.254 285.792 159.147C285.792 164.827 279.455 172.07 270.318 172.07ZM299.858 171.905C286.689 171.905 284.96 158.653 289.57 145.237C293.438 134.207 301.834 125.071 312.452 125.071C317.802 125.071 319.942 126.059 321.177 128.034C322.329 129.927 322.823 130.833 323.646 130.833C325.045 130.833 325.539 130.01 326.115 129.022C327.021 127.54 328.338 126.141 333.276 126.141C339.367 126.141 341.672 126.059 340.273 131.244C339.532 134.207 337.063 137.911 332.7 147.789C330.56 152.48 330.231 153.55 330.231 155.114C330.231 156.596 330.725 157.172 332.206 157.172C333.523 157.172 334.264 156.678 335.252 156.678C336.569 156.678 337.392 157.83 337.392 160.3C337.309 165.732 333.194 172.235 324.469 172.235C320.436 172.235 317.308 169.601 315.909 166.308C315.415 165.238 315.086 164.498 314.098 164.498C313.357 164.498 312.946 165.074 312.37 165.897C309.571 170.012 305.785 171.905 299.858 171.905ZM312.452 157.09C315.497 157.09 317.39 153.715 317.308 148.859C317.226 143.344 316.32 137.335 311.876 137.335C308.501 137.418 306.279 140.545 306.196 144.908C306.114 150.999 307.513 157.09 312.452 157.09ZM346.84 188.779C339.679 188.779 333.835 185.404 333.835 178.161C333.835 172.811 336.798 168.366 342.56 168.119C347.499 167.872 350.05 170.918 350.05 176.515C350.05 178.243 350.132 179.313 352.108 179.313C354.906 179.313 356.223 175.527 356.223 172.399C356.306 170.835 355.73 170.012 351.696 168.119C347.992 166.391 346.922 163.674 346.346 157.83C346.182 156.102 345.605 147.706 345.276 144.332C345.029 141.121 344.865 139.969 343.959 138.405C342.889 136.347 342.395 135.607 343.054 132.973C344.7 126.306 348.733 126.553 359.598 126.553C367.006 126.553 369.228 127.54 368.405 132.067C367.994 134.454 367.418 135.607 365.689 137.335C364.454 138.652 364.125 139.228 363.961 143.015C363.961 144.825 364.207 152.974 364.207 154.373C364.207 157.748 364.701 158.407 365.936 158.407C367.664 158.407 368.158 156.76 371.615 150.176C373.344 146.719 374.661 144.908 374.661 142.768C374.661 141.286 374.085 140.216 372.85 138.899C371.533 137.582 370.71 136.183 371.122 133.22C371.862 128.446 375.155 125.483 380.916 125.483C387.172 125.483 389.312 129.351 389.312 133.384C389.312 139.064 385.69 144.908 380.093 153.715C374.908 161.864 370.216 168.366 366.841 174.539C361.08 185.075 355.894 188.779 346.84 188.779ZM423.759 172.399C406.145 172.399 399.396 161.287 405.157 144.167C409.437 131.244 417.668 125.153 429.356 125.153C446.395 125.153 453.473 134.29 448.946 150.999C445.078 165.074 436.929 172.399 423.759 172.399ZM426.805 157.995C430.344 157.995 432.484 154.867 432.484 150.258C432.402 145.072 430.756 138.405 426.229 138.405C422.689 138.405 420.796 141.945 420.714 146.719C420.632 151.41 422.278 157.995 426.805 157.995ZM463.788 172.07C455.639 172.07 451.03 167.625 451.03 161.617C451.03 156.102 454.404 151.904 456.791 148.365C458.602 145.731 458.931 144.908 458.931 143.591C458.931 142.85 458.438 142.027 456.956 142.027H455.063C452.841 142.027 452.264 140.792 452.429 138.981C453.005 132.808 458.108 125.565 466.998 125.565C474.57 125.565 478.11 129.927 478.11 135.524C478.11 140.216 475.97 143.508 473.747 148.118C472.924 149.929 472.101 151.493 472.101 153.221C472.183 154.456 473.171 155.114 474.241 155.114C475.97 155.114 477.369 154.538 478.768 152.974C480.085 151.41 481.567 148.529 482.472 144.661C483.213 141.78 483.131 140.051 482.884 138.652C482.637 137.006 482.225 135.689 482.719 133.22C483.789 128.446 486.917 125.73 494.489 125.73C503.05 125.73 507.001 127.952 505.437 134.619C504.778 137.253 503.379 138.405 501.733 139.969C500.416 141.286 499.181 142.685 498.111 145.402C496.876 148.529 495.559 151.822 495.559 154.867C495.559 156.349 496.053 156.843 497.288 156.843C498.358 156.843 498.934 156.349 499.757 156.349C501.486 156.349 502.391 157.666 502.227 160.053C501.98 167.378 496.053 171.988 488.481 171.988C483.624 171.988 480.167 169.93 479.344 166.061C479.015 164.58 478.604 163.345 477.863 163.345C476.793 163.345 476.381 164.498 475.311 165.897C471.854 170.506 468.479 172.07 463.788 172.07ZM514.814 171.412C506.089 171.412 502.961 170.095 504.113 163.757C504.772 159.97 506.253 158.571 508.558 156.678C510.863 154.703 511.85 153.303 513.414 149.106C514.649 145.813 515.554 143.179 513.085 143.179C511.933 143.179 511.686 143.262 510.863 143.262C509.299 143.262 507.076 142.356 508.146 138.158C509.957 131.244 515.554 124.989 522.633 125.73C525.925 126.141 527.489 127.787 528.477 130.586C528.971 131.82 529.135 132.808 530.041 132.808C530.782 132.808 531.276 132.067 532.346 130.833C535.638 127.046 538.354 125.153 542.881 125.153C549.137 125.153 552.676 129.598 552.676 136.347C552.676 143.92 549.219 151.328 540.741 151.328C535.062 151.328 533.992 148.612 534.568 144.743C535.226 140.875 534.568 140.134 533.169 140.134C530.535 140.134 529.629 144.332 528.477 148.694C526.913 154.373 527.654 156.349 528.889 157.913C530.535 159.724 532.675 160.464 531.769 165.156C530.535 171.658 526.172 171.412 514.814 171.412Z" fill="white"/>
</g>
<g filter="url(#filter1_d_3_286)">
<path d="M78.7981 302.864C62.0557 302.864 48.9929 294.584 47.889 278.21C46.9691 265.699 54.5124 252.452 62.4236 238.102C65.3674 232.398 66.2873 229.087 60.2159 228.903C52.4886 228.719 51.9366 225.959 55.9843 215.288C61.6877 199.281 63.5275 200.385 83.9496 193.578C95.9085 189.346 105.476 184.011 112.283 184.011C117.434 184.011 119.826 188.058 117.434 194.13C114.859 199.833 117.25 200.201 122.77 200.017C134.913 199.649 135.281 201.857 130.681 215.288C126.082 228.903 123.69 228.535 110.811 228.535C104.004 228.535 102.9 229.823 100.14 234.054C95.9085 241.413 90.573 254.844 90.573 261.468C90.573 266.987 93.7007 266.987 97.1964 266.987C101.428 266.987 104.188 265.883 106.395 265.883C109.707 265.883 111.179 268.091 111.179 271.035C111.179 284.649 98.4842 302.864 78.7981 302.864ZM155.444 301.392C137.23 301.392 126.927 291.457 126.927 278.026C126.927 265.699 134.47 256.316 139.806 248.405C143.853 242.517 144.589 240.678 144.589 237.734C144.589 236.078 143.485 234.238 140.174 234.238H135.942C130.974 234.238 129.687 231.478 130.055 227.431C131.342 213.632 142.749 197.442 162.619 197.442C179.546 197.442 187.457 207.193 187.457 219.703C187.457 230.19 182.674 237.55 177.706 247.853C175.866 251.9 174.026 255.396 174.026 259.26C174.21 262.019 176.418 263.491 178.81 263.491C182.674 263.491 185.801 262.203 188.929 258.708C191.873 255.212 195.184 248.773 197.208 240.126C198.864 233.686 198.68 229.823 198.128 226.695C197.576 223.015 196.656 220.071 197.76 214.552C200.152 203.881 207.143 197.81 224.07 197.81C243.204 197.81 252.035 202.777 248.539 217.68C247.067 223.567 243.94 226.143 240.26 229.639C237.316 232.582 234.557 235.71 232.165 241.781C229.405 248.773 226.461 256.132 226.461 262.939C226.461 266.251 227.565 267.355 230.325 267.355C232.717 267.355 234.005 266.251 235.845 266.251C239.708 266.251 241.732 269.195 241.364 274.53C240.812 290.905 227.565 301.208 210.639 301.208C199.784 301.208 192.057 296.608 190.217 287.961C189.481 284.649 188.561 281.89 186.905 281.89C184.513 281.89 183.593 284.465 181.202 287.593C173.474 297.896 165.931 301.392 155.444 301.392ZM331.501 302.68C314.943 302.68 307.031 293.113 307.031 280.97C307.031 269.931 311.815 262.019 316.047 255.028C318.806 250.061 321.566 245.461 321.566 238.102C321.566 234.606 318.99 232.766 316.415 232.766C312.183 232.766 309.975 233.686 306.847 237.366C303.72 240.861 300.776 246.013 298.936 251.532C297.28 255.948 296.36 260.364 296.36 264.963C296.176 271.587 298.752 275.634 298.384 281.89C298.2 294.768 290.289 300.472 269.131 300.472C252.757 300.472 243.741 296.976 244.109 284.281C244.477 276.922 247.973 271.771 254.228 267.723C263.244 262.387 267.107 252.268 268.395 243.989C269.315 239.574 268.211 237.366 264.899 237.366C263.428 237.366 262.14 237.55 260.852 237.55C256.62 237.55 251.653 235.342 254.044 226.327C258.276 211.608 271.523 198.361 285.137 198.361C292.313 198.361 297.096 200.569 300.04 206.089C302.248 209.952 302.248 214.368 304.64 214.368C307.951 214.368 310.711 210.872 315.495 206.457C321.198 201.673 327.821 197.258 339.228 197.258C357.075 197.258 367.378 207.745 367.378 221.727C367.378 233.686 359.834 243.069 354.315 251.348C350.083 257.604 348.428 261.284 348.428 264.595C348.428 267.723 349.899 269.747 353.211 269.747C355.971 269.747 358.179 268.275 360.386 268.275C363.33 268.275 364.618 270.851 364.618 274.53C364.618 287.225 353.027 302.68 331.501 302.68ZM412.333 302.128C384.551 301.76 368.177 286.673 368.545 260.548C369.097 227.615 390.623 195.786 429.811 196.338C452.993 196.522 468.631 207.929 468.079 229.455C467.528 245.829 459.248 257.604 436.618 259.628C419.508 261.468 411.413 252.452 408.285 251.9C406.261 251.532 404.973 253.004 404.605 255.212C402.766 264.963 412.701 271.587 426.499 271.587C434.595 271.771 441.218 269.747 446.002 267.907C450.601 266.251 453.913 264.595 456.857 266.803C458.696 268.275 459.432 271.219 458.328 274.898C454.097 289.433 440.482 302.312 412.333 302.128ZM423.924 240.126C430.179 240.126 434.779 238.654 434.595 233.134C434.411 226.327 430.179 223.751 422.636 223.751C416.196 223.935 411.413 229.087 411.229 232.95C411.045 237.918 417.668 240.126 423.924 240.126ZM517.758 302.68C506.535 302.496 501.015 300.288 497.152 297.528C493.104 294.952 492.184 292.745 488.872 292.745C484.273 292.745 488.32 300.656 477.833 300.656C469.922 300.656 466.794 296.792 465.875 281.89C465.691 279.13 465.507 276.554 465.507 274.714C465.507 266.435 471.026 263.491 481.329 263.123C489.056 262.755 491.264 265.147 497.336 270.483C502.303 274.714 507.087 278.762 517.39 279.314C520.885 279.498 522.909 278.026 522.909 274.898C522.909 271.587 520.701 269.563 506.351 264.595C486.481 257.972 477.098 249.141 477.465 231.846C477.833 208.113 496.048 196.338 517.758 196.706C527.141 196.89 532.476 198.913 536.892 202.593C539.284 204.433 540.204 206.641 542.595 206.641C546.827 206.825 544.067 198.361 555.106 198.545C561.913 198.545 563.753 202.961 566.697 214.92C567.617 218.6 567.801 221.543 567.801 223.567C567.801 230.558 563.385 233.686 555.658 235.158C547.011 236.814 543.147 234.974 536.34 228.903C529.349 222.831 524.381 220.439 517.574 220.439C514.262 220.439 511.686 222.279 511.686 225.591C511.686 228.535 513.894 230.007 523.461 233.318C548.299 241.781 556.578 250.613 556.394 269.379C556.026 291.273 537.076 303.048 517.758 302.68Z" fill="white"/>
</g>
<g filter="url(#filter2_d_3_286)">
<path d="M64.1514 116.752C60.0443 118.222 56.03 117.999 53.6917 115.863C51.8576 114.16 51.3581 112.765 50.1957 113.181C48.8009 113.68 48.5092 115.796 46.8839 118.826C45.6068 121.119 43.3501 123.85 37.9256 125.793C29.789 128.706 23.8793 126.364 21.4651 119.622C19.717 114.74 20.4046 109.336 21.3534 105.149C21.9551 102.923 22.2918 101.665 21.8201 100.348C21.3206 98.9533 20.5122 98.893 19.1948 99.3648L18.0324 99.781C16.2501 100.419 15.6072 99.6003 15.1019 97.9452C13.259 92.3103 16.3526 83.8586 23.5593 81.278C30.3786 78.8361 35.6464 81.5835 37.8108 87.6279C39.1705 91.425 38.3096 94.8807 37.4545 98.5966C36.8863 101.161 36.4234 103.774 37.3114 106.254C38.0051 108.191 39.2182 108.894 40.8456 108.311C41.6205 108.033 42.3122 107.523 42.7101 106.681C43.9375 104.493 44.0836 100.507 43.9753 96.7861C43.976 90.9282 43.1053 89.2291 41.9744 87.5358C40.744 86.053 39.9623 84.8466 39.523 82.6433C38.6885 77.8713 41.1558 75.2393 46.6577 73.2692C54.5619 70.4388 57.3919 71.2614 59.3123 76.8686C59.873 78.6787 59.5315 80.8992 59.0236 82.6548C58.4162 84.6209 58.0795 85.878 58.1553 90.4845C58.1956 92.3061 57.9489 95.2796 58.9756 98.1468C59.7526 100.317 61.2259 101.013 63.3957 100.236C67.3478 98.8208 69.455 89.3235 68.588 85.4374C68.01 82.8466 66.7633 81.8067 65.2067 80.8779C63.9658 80.0982 62.592 79.1913 61.4543 76.0142C59.8171 71.4421 61.7409 67.7807 66.3129 66.1435C72.8222 63.8127 76.4292 66.8051 78.0071 73.4092C82.5264 88.2274 77.945 111.812 64.1514 116.752Z" fill="white"/>
<path d="M104.912 105.43C92.7232 107.866 84.149 102.797 81.8679 91.3321C79.0309 76.8721 85.4733 60.9346 102.67 57.5128C112.829 55.4264 120.738 58.9551 122.508 68.4245C123.798 75.64 121.276 81.5655 111.564 84.5663C104.251 86.9706 99.8661 83.7832 98.4462 83.8341C97.5263 83.8623 97.1005 84.6266 97.1459 85.6269C97.2524 90.0651 102.218 92.0341 108.255 90.7443C111.814 90.068 114.523 88.5635 116.444 87.3114C118.301 86.157 119.595 85.123 121.089 85.8137C122.032 86.2857 122.629 87.5048 122.49 89.2178C121.997 95.9724 117.245 102.88 104.912 105.43ZM104.187 77.2206C106.924 76.6359 108.799 75.562 108.203 73.1644C107.486 70.2033 105.394 69.472 102.093 70.1771C99.2933 70.8595 97.682 73.5605 97.9626 75.2681C98.3465 77.4586 101.451 77.8054 104.187 77.2206Z" fill="white"/>
<path d="M158.89 95.7206C152.765 96.4959 147.319 93.4518 146.286 85.9495C145.49 79.6618 147.717 73.6553 152.119 61.8974C153.786 57.3721 155.993 51.8658 156.471 50.3949C157.152 48.5663 156.649 47.2195 155.098 47.4159C154.281 47.5193 153.975 47.7239 153.159 47.8273C151.362 48.0547 149.92 46.4949 150.506 42.6043C151.761 35.4762 158.001 30.372 165.024 29.483C174.578 28.2735 179.021 35.8419 175.748 45.3825C174.508 48.6923 171.515 54.5469 169.025 61.7484C166.312 69.8078 164.534 75.4258 164.844 77.8755C164.979 78.9371 165.888 79.5686 166.868 79.4446C168.257 79.2689 168.97 78.3489 169.95 78.2249C171.42 78.0388 172.381 79.0786 172.619 80.9568C173.332 86.5912 167.954 94.5731 158.89 95.7206Z" fill="white"/>
<path d="M194.011 43.1319C188.103 43.6021 184.485 42.0394 184.16 37.6882C183.805 33.0093 188.426 27.6166 197.538 26.9292C203.118 26.4896 206.521 28.4032 206.838 32.6724C207.27 38.1708 203.943 42.3677 194.011 43.1319ZM185.752 92.6801C178.778 93.2501 174.095 89.1416 173.853 82.1373C173.721 77.1895 175.645 72.1319 179.797 67.0311C180.747 65.7021 181.236 64.7469 181.257 64.0836C181.27 63.3384 180.584 63.072 179.6 63.164C179.026 63.2177 178.527 63.1818 178.035 63.2278C175.249 63.4885 174.379 61.2552 175.168 58.2053C176.68 52.2769 185.496 46.6569 192.387 46.0946C199.197 45.54 202.759 48.2654 202.735 53.3105C203.054 58.4889 198.762 61.2054 195.375 68.3013C193.699 71.5995 193.241 72.8825 193.41 74.6854C193.486 75.5049 193.868 76.0479 194.449 76.0762C195.865 76.1917 196.705 75.4517 197.607 75.3673C199.328 75.2062 199.891 76.8069 200.067 78.6918C200.635 84.7563 195.11 91.9697 185.752 92.6801Z" fill="white"/>
<path d="M241.073 88.5256C233.757 88.9156 229.463 84.1166 229.042 76.226C228.652 68.9108 229.84 66.4571 227.703 66.571C226.963 66.6105 226.487 66.9655 226.098 67.3984C225.48 68.1732 225.204 69.1771 225.019 70.3409C224.613 72.0111 224.705 73.7371 225.031 75.2035C225.438 76.6654 225.815 77.552 225.838 79.5291C226.033 86.2777 222.224 89.0361 212.698 89.7088C205.223 90.1898 202.963 88.0024 202.878 83.3086C202.841 79.5189 203.977 77.6449 206.722 75.0257C208.763 73.1035 209.964 70.8963 212.002 64.276C213.133 60.7537 214.911 55.466 215.759 48.1672C216.391 43.023 216.001 41.8898 214.11 41.9906C213.535 42.0213 213.12 41.961 212.38 42.0004C210.49 42.1012 208.667 40.385 209.547 36.7937C211.536 29.2692 216.989 24.8571 224.386 24.4627C230.468 24.1384 234.991 27.0295 235.216 32.7874C235.387 35.993 234.294 38.6889 231.577 44.9334C227.396 54.6354 226.61 56.9029 228.752 56.8711C230.153 56.8788 230.723 55.1999 233.252 51.6031C237.53 45.2754 240.949 41.3838 247.689 41.0244C254.1 40.6826 256.63 44.834 256.806 49.6878C257.048 55.7745 253.906 60.2282 248.974 60.4912C246.426 60.627 245.305 59.6977 244.266 58.7639C243.059 57.7568 241.631 57.2559 240.316 57.3261C239.658 57.3611 239.092 57.5562 238.694 57.8247C238.296 58.0932 238.071 58.5173 238.102 59.0926C238.207 61.0653 243.177 59.976 244.982 67.5455C245.407 69.3362 245.863 71.7023 248 71.5884C249.233 71.5226 249.76 70.5878 250.829 70.5308C252.144 70.4607 252.885 71.9873 252.847 74.3797C252.982 81.5437 249.621 88.0698 241.073 88.5256Z" fill="white"/>
<path d="M274.139 87.9045C261.709 87.9189 254.287 81.2756 254.284 69.5864C254.318 54.8508 263.743 40.474 281.276 40.4685C291.648 40.4014 298.717 45.4034 298.609 55.0363C298.467 62.3647 294.839 67.6853 284.729 68.7364C277.087 69.6696 273.408 65.689 272.005 65.4622C271.097 65.3107 270.531 65.9774 270.38 66.9674C269.62 71.3412 274.107 74.2401 280.28 74.1512C283.902 74.1813 286.852 73.2334 288.98 72.3795C291.027 71.6092 292.498 70.8471 293.829 71.8158C294.661 72.4624 295.009 73.7745 294.539 75.4276C292.74 81.9567 286.733 87.8055 274.139 87.9045ZM278.925 60.0942C281.723 60.0539 283.771 59.3659 283.653 56.898C283.527 53.854 281.618 52.729 278.243 52.7776C275.364 52.9014 273.257 55.2367 273.2 56.9662C273.15 59.1895 276.127 60.1345 278.925 60.0942Z" fill="white"/>
<path d="M341.368 38.6423C335.446 38.396 332.043 36.4079 332.246 32.0494C332.458 27.3618 337.696 22.5663 346.824 22.9838C352.417 23.221 355.564 25.5314 355.364 29.8076C355.129 35.318 351.319 39.0826 341.368 38.6423ZM327.188 86.8313C320.197 86.5554 316.043 81.9116 316.648 74.9293C317.114 70.0016 319.635 65.2133 324.372 60.651C325.476 59.4464 326.077 58.5573 326.178 57.9014C326.28 57.1631 325.631 56.8158 324.644 56.7884C324.068 56.7725 323.577 56.6765 323.083 56.6629C320.285 56.5854 319.691 54.2634 320.843 51.331C323.059 45.6284 332.489 41.1137 339.398 41.3874C346.225 41.6588 349.432 44.7943 348.799 49.7996C348.491 54.9786 343.902 57.1571 339.683 63.7923C337.622 66.8642 337.012 68.0824 336.962 69.8925C336.939 70.7153 337.252 71.3004 337.826 71.3986C339.218 71.6842 340.141 71.051 341.046 71.0761C342.774 71.124 343.14 72.7809 343.087 74.6733C342.919 80.762 336.563 87.2556 327.188 86.8313Z" fill="white"/>
<path d="M361.982 88.6522C354.501 88.2811 348.848 84.2922 348.717 76.9511C348.584 71.3405 352.248 65.5886 356.101 59.3517C357.543 56.8684 358.027 55.409 355.318 55.1923C351.869 54.9388 351.684 53.6934 353.729 49.015C356.632 41.9892 357.43 42.5232 366.706 39.9341C372.143 38.3084 376.537 36.1364 379.578 36.2872C381.88 36.4014 382.859 38.263 381.656 40.9229C380.379 43.4143 381.439 43.6317 383.91 43.6719C389.343 43.7766 389.459 44.7712 387.106 50.6706C384.749 56.6521 383.689 56.4347 377.934 56.1492C374.892 55.9984 374.37 56.5494 373.043 58.379C370.989 61.5736 368.308 67.4566 368.161 70.4161C368.039 72.8824 369.436 72.9517 370.998 73.0292C372.889 73.123 374.147 72.6909 375.133 72.7398C376.613 72.8132 377.222 73.8324 377.156 75.1477C376.855 81.2312 370.778 89.0885 361.982 88.6522Z" fill="white"/>
<path d="M443.241 94.3392C438.898 93.9274 435.358 92.0209 434.147 89.095C433.21 86.7737 433.349 85.2988 432.12 85.1822C430.645 85.0424 429.483 86.8338 426.725 88.8874C424.596 90.4217 421.393 91.937 415.657 91.3932C407.053 90.5774 402.696 85.9477 403.372 78.8187C403.862 73.6563 406.779 69.0547 409.415 65.6668C410.905 63.9064 411.743 62.9111 411.875 61.518C412.015 60.0431 411.309 59.6454 409.916 59.5133L408.686 59.3968C406.802 59.2181 406.567 58.2037 406.812 56.4906C407.536 50.6063 413.924 44.267 421.545 44.9895C428.756 45.6732 432.359 50.3969 431.753 56.7884C431.373 60.8036 429.126 63.5671 426.775 66.5686C425.172 68.649 423.643 70.8191 423.395 73.4412C423.2 75.4898 424.001 76.6405 425.722 76.8037C426.541 76.8814 427.384 76.7132 428.101 76.1199C430.141 74.6597 431.966 71.1121 433.447 67.6974C435.934 62.3937 435.867 60.4857 435.562 58.4724C435.078 56.6075 434.882 55.1834 435.419 53.002C436.689 48.327 440.041 46.9912 445.859 47.5428C454.217 48.3353 456.43 50.2814 455.789 56.1735C455.528 58.0504 454.276 59.916 453.071 61.29C451.687 62.8123 450.848 63.8077 448.961 68.0108C448.225 69.6772 446.739 72.2648 446.452 75.2967C446.234 77.591 447.272 78.847 449.567 79.0646C453.746 79.4608 459.685 71.756 460.55 67.8693C461.126 65.2783 460.439 63.8075 459.424 62.3057C458.631 61.0731 457.772 59.6688 458.091 56.3091C458.549 51.4745 461.845 48.9759 466.68 49.4343C473.563 50.0869 475.559 54.3274 474.184 60.9768C471.986 76.3121 457.826 95.7221 443.241 94.3392Z" fill="white"/>
<path d="M503.251 101.76C495.744 100.761 492.882 96.0626 493.598 90.6776C494.26 85.7005 496.838 82.5559 499.045 79.6942C500.551 77.7357 501.954 75.9295 502.356 72.9106C502.551 71.4419 501.517 70.4741 500.457 70.3329C498.662 70.0941 497.536 70.4426 495.861 71.7974C494.257 73.2447 492.74 75.2848 491.598 77.624C490.343 80.1972 489.636 83.0094 489.849 85.7779C490.051 87.3824 490.285 88.7422 489.965 90.5263C489.113 96.3085 484.941 98.3276 476.048 97.1444C467.807 96.0481 465.321 94.1396 466.244 88.4499C466.83 85.2896 468.135 82.9721 471.219 81.6386C475.113 79.8317 477.244 75.05 480.217 68.3045C482.348 63.5228 483.989 59.9216 484.881 58.2134C485.941 55.8634 485.706 54.5036 484.483 54.3408C483.504 54.2106 482.693 54.684 481.551 54.532C479.685 54.2008 478.058 52.0745 479.917 48.087C483.211 40.803 489.628 36.2594 497.543 37.3123C503.417 38.0939 506.736 41.8568 505.775 47.2093C505.422 49.2382 504.324 52.4966 500.061 55.8321C496.39 59.0804 496.908 60.8099 498.05 60.9619C499.252 61.2879 500.611 59.808 502.982 58.2136C505.805 56.3472 508.889 55.0137 513.539 55.6324C521.046 56.6311 524.844 61.7863 524.008 68.0689C523.313 73.2907 519.311 77.1592 516.489 80.2712C514.243 82.7956 513.21 84.3189 513.015 85.7876C512.841 87.093 513.375 88.0774 514.925 88.2836C516.149 88.4464 517.041 87.9839 518.183 88.1358C519.651 88.3312 519.804 89.6801 519.609 91.1487C518.849 96.8601 512.797 103.03 503.251 101.76Z" fill="white"/>
<path d="M539.059 106.873C526.821 104.701 520.682 96.856 522.734 85.3482C525.36 70.8484 537.166 58.3529 554.427 61.4308C564.648 63.1887 570.728 69.3558 568.927 78.8195C567.499 86.0089 562.992 90.6086 552.855 89.8655C545.168 89.4402 542.246 84.8746 540.905 84.4047C540.038 84.0959 539.363 84.6526 539.041 85.6007C537.523 89.7727 541.431 93.4154 547.523 94.4134C551.083 95.0801 554.154 94.6656 556.399 94.1993C558.549 93.8009 560.131 93.3094 561.271 94.497C561.977 95.2799 562.089 96.6328 561.336 98.1775C558.416 104.288 551.474 108.99 539.059 106.873ZM548.661 80.3372C551.423 80.7896 553.56 80.4725 553.878 78.0223C554.289 75.0036 552.607 73.5604 549.277 73.0148C546.42 72.6303 543.936 74.5587 543.575 76.2512C543.135 78.431 545.899 79.8848 548.661 80.3372Z" fill="white"/>
<path d="M598.03 117.775C590.761 116.35 588.111 111.469 589.156 106.138C590.106 101.291 592.887 98.2296 595.346 95.5244C596.985 93.581 598.593 91.7992 599.226 88.5683C599.527 87.0336 598.555 86.0042 597.424 85.7825C595.566 85.4184 594.518 85.6322 592.828 86.9785C591.154 88.244 589.418 90.2523 588.135 92.5172C587.028 94.3132 586.244 96.1726 585.849 98.1919C585.198 101.084 585.98 103.083 585.28 105.797C584.091 111.436 580.127 113.259 570.838 111.438C563.65 110.029 559.992 107.718 561.247 102.176C562.041 98.9771 564.019 97.0163 567.114 95.7777C571.531 94.2111 574.098 90.1011 575.376 86.5771C576.16 84.7177 575.865 83.6535 574.411 83.3685C573.765 83.2418 573.184 83.2117 572.619 83.1009C570.761 82.7367 568.77 81.3399 570.596 77.5879C573.72 71.4902 580.676 66.8146 586.653 67.9863C589.803 68.6038 591.713 69.9847 592.531 72.6613C593.168 74.5475 592.788 76.486 593.838 76.6919C595.292 76.9769 596.804 75.6797 599.284 74.1528C602.2 72.5436 605.488 71.175 610.495 72.1567C618.33 73.6925 621.951 79.1833 620.748 85.322C619.719 90.5723 615.599 94.0425 612.464 97.2023C610.068 99.5844 609.024 101.057 608.739 102.511C608.47 103.884 608.942 104.9 610.396 105.185C611.607 105.422 612.703 104.966 613.673 105.156C614.965 105.409 615.309 106.651 614.992 108.266C613.9 113.84 607.481 119.627 598.03 117.775Z" fill="white"/>
</g>
</g>
<defs>
<filter id="filter0_d_3_286" x="75.8215" y="107.127" width="480.855" height="86.6515" filterUnits="userSpaceOnUse" color-interpolation-filters="sRGB">
<feFlood flood-opacity="0" result="BackgroundImageFix"/>
<feColorMatrix in="SourceAlpha" type="matrix" values="0 0 0 0 0 0 0 0 0 0 0 0 0 0 0 0 0 0 127 0" result="hardAlpha"/>
<feOffset dx="4" dy="5"/>
<feComposite in2="hardAlpha" operator="out"/>
<feColorMatrix type="matrix" values="0 0 0 0 0 0 0 0 0 0 0 0 0 0 0 0 0 0 1 0"/>
<feBlend mode="normal" in2="BackgroundImageFix" result="effect1_dropShadow_3_286"/>
<feBlend mode="normal" in="SourceGraphic" in2="effect1_dropShadow_3_286" result="shape"/>
</filter>
<filter id="filter1_d_3_286" x="46.9691" y="184.011" width="524.832" height="124.037" filterUnits="userSpaceOnUse" color-interpolation-filters="sRGB">
<feFlood flood-opacity="0" result="BackgroundImageFix"/>
<feColorMatrix in="SourceAlpha" type="matrix" values="0 0 0 0 0 0 0 0 0 0 0 0 0 0 0 0 0 0 127 0" result="hardAlpha"/>
<feOffset dx="4" dy="5"/>
<feComposite in2="hardAlpha" operator="out"/>
<feColorMatrix type="matrix" values="0 0 0 0 0 0 0 0 0 0 0 0 0 0 0 0 0 0 1 0"/>
<feBlend mode="normal" in2="BackgroundImageFix" result="effect1_dropShadow_3_286"/>
<feBlend mode="normal" in="SourceGraphic" in2="effect1_dropShadow_3_286" result="shape"/>
</filter>
<filter id="filter2_d_3_286" x="9.53329" y="22.0126" width="617.32" height="113.613" filterUnits="userSpaceOnUse" color-interpolation-filters="sRGB">
<feFlood flood-opacity="0" result="BackgroundImageFix"/>
<feColorMatrix in="SourceAlpha" type="matrix" values="0 0 0 0 0 0 0 0 0 0 0 0 0 0 0 0 0 0 127 0" result="hardAlpha"/>
<feOffset dx="4" dy="5"/>
<feComposite in2="hardAlpha" operator="out"/>
<feColorMatrix type="matrix" values="0 0 0 0 0 0 0 0 0 0 0 0 0 0 0 0 0 0 1 0"/>
<feBlend mode="normal" in2="BackgroundImageFix" result="effect1_dropShadow_3_286"/>
<feBlend mode="normal" in="SourceGraphic" in2="effect1_dropShadow_3_286" result="shape"/>
</filter>
<clipPath id="clip0_3_286">
<rect width="635" height="324" fill="white"/>
</clipPath>
</defs>
</svg>
