<?xml version="1.0" encoding="UTF-8"?><svg id="Layer_2" xmlns="http://www.w3.org/2000/svg" viewBox="0 0 381.17903 108.26172"><defs><style>.cls-1{fill:#000;}.cls-1,.cls-2{stroke-width:0px;}.cls-2{fill:#17d48c;}</style></defs><g id="Layer_1-2"><path class="cls-2" d="M95.69221,2.5h-39.99749c.14312.94974.27131,1.91392.41049,2.90116.64487,4.1822,1.79337,8.95337,5.83736,10.77924,8.07085,3.39954,19.84512-6.30505,27.21776.78602,4.23693,4.21633,2.53261,11.65602-2.5743,14.26544-4.28387,2.56863-9.84452.48238-14.05757-1.12683-1.59198-.51529-2.75385-.84133-4.11876-.63321-2.32096.32055-2.16159,2.60745-.8744,4.52991,1.41406,2.21403,3.51369,3.94815,5.73593,5.29894,3.17961,1.78828,6.18212,3.37853,9.02526,5.48957,2.41854,1.63531,4.82189,3.16722,6.79531,5.43328,2.05064,2.41616,3.86165,5.34973,4.25712,8.58662.2924,3.09828-1.19987,6.1049-3.60126,7.17453-3.74134,1.43942-8.66196-.61434-11.70091-3.33118-2.2169-1.97169-3.89497-4.62231-5.38609-7.26505-1.54167-2.58628-9.23756-18.5027-11.20368-10.07077l-.01764.07238c-.81491,4.29216-1.73937,9.34942-5.16468,12.43465-3.14448,3.17107-9.89064,5.47201-12.22333,1.28703-2.17956-4.54648,4.89633-12.12182,3.54365-14.89389-1.39051-1.55431-5.84902-.21476-7.91615-.21124-3.06349.43158-8.15677-.24283-9.23067-2.55181-.86505-1.64819.09741-3.19988,2.13599-4.54205,2.36757-1.78869,8.15488-2.73441,9.71846-4.93522,1.72386-3.56441-5.9095-5.79362-8.4563-5.90893-7.00778-.92955-14.50392,3.15425-20.79166-.75057-4.06886-2.56215-3.81159-8.21372-.34508-11.28796,2.04974-1.93993,4.86202-2.94777,7.63163-3.1133,10.08718-.95122,17.80162,9.62573,25.44491,7.14392,3.24091-1.20028,4.69207-4.73663,5.0035-8.13674.18268-2.08437-.11604-4.3062-.51734-6.44768-.04596-.28091-.10989-.61483-.18095-.97625H7.56943C3.38895,2.5,0,5.88895,0,10.06943v88.12294c0,4.18044,3.38891,7.56935,7.56935,7.56935h88.12294c4.18044,0,7.56935-3.38891,7.56935-7.56935V10.06943c0-4.18048-3.38895-7.56943-7.56943-7.56943Z"/><path class="cls-1" d="M166.90413,89.24512c1.46191,0,2.71436-.21191,3.75391-.63574,1.03955-.42188,1.88574-1.11523,2.54102-2.0791.65332-.96191,1.15527-2.1748,1.50146-3.63867.34668-1.46191.52002-3.27148.52002-5.42871,0-2.1543-.19336-4.1377-.57764-5.94824-.38623-1.80859-.98193-3.58105-1.79053-5.31348s-1.86768-3.36719-3.17627-4.90918c-1.31006-1.53906-2.8877-3.15625-4.73584-4.85107-1.69434-1.6167-3.21582-3.23389-4.5625-4.85107-1.34814-1.61719-2.46533-3.3877-3.34961-5.31348-.88623-1.92383-1.52148-3.96484-1.90576-6.12158-.38623-2.15479-.57764-4.54248-.57764-7.16113,0-2.38623.23096-4.42725.69336-6.12207.46191-1.69287,1.19287-3.13672,2.19434-4.33154,1-1.19287,2.25244-2.0791,3.75391-2.65625,1.50146-.57764,3.17627-.8667,5.02441-.8667,1.69287,0,3.17676.19336,4.44727.57764,1.27051.38623,2.36768.98193,3.29199,1.79053.92383.80859,1.6748,1.84814,2.25195,3.11865.57764,1.27051,1.02002,2.79199,1.32861,4.5625.30664,1.77197.46191,3.81152.46191,6.12158,0,1.0791-.02002,2.02148-.05762,2.83008-.04004.80859-.05811,1.59912-.05811,2.36768,0,.77051-.03955,1.73242-.11523,2.8877h-3.81152v-7.85449c0-2.54102-.11572-4.62012-.34668-6.2373s-.65527-2.92529-1.27051-3.92725c-.61719-.99951-1.42578-1.7124-2.42578-2.13672-1.00146-.42236-2.19434-.63525-3.58057-.63525s-2.58105.19336-3.58057.57764c-1.00195.38623-1.81055,1.00146-2.42578,1.84814-.61719.84814-1.0791,1.92578-1.38623,3.23389-.30859,1.31055-.46191,2.8877-.46191,4.73584,0,2.23438.15332,4.27393.46191,6.12158.30713,1.84814.78906,3.54297,1.44385,5.08252.65332,1.54102,1.59717,3.06104,2.83008,4.5625,1.23096,1.50146,2.69434,3.06104,4.38916,4.67773,1.84814,1.46387,3.4834,3.10059,4.90918,4.90918,1.42383,1.81055,2.6167,3.67773,3.58057,5.60156.96191,1.92578,1.6748,4.00488,2.13672,6.2373.46191,2.23438.69287,4.66016.69287,7.27734,0,2.46484-.23096,4.67773-.69287,6.6416s-1.1748,3.60059-2.13672,4.90918c-.96387,1.30957-2.19482,2.29199-3.69629,2.94531s-3.33154.98145-5.48633.98145c-1.92578,0-3.58105-.23047-4.9668-.69238-1.38623-.46289-2.58105-1.13574-3.58057-2.02148-1.00195-.88477-1.83008-2.00195-2.4834-3.34961-.65527-1.34668-1.15527-2.92578-1.50195-4.73633-.34619-1.80859-.51953-3.8291-.51953-6.06348,0-1.23145.01807-2.25293.05762-3.06152.03809-.80859.07568-1.57715.11572-2.30957.0376-.73145.05762-1.55957.05762-2.4834h3.69629c-.07764,1.23242-.11572,2.56055-.11572,3.98438v3.52344c0,2.61816.19141,4.81348.57764,6.58398.38428,1.77148.98193,3.1582,1.79053,4.1582.80859,1.00098,1.79004,1.73242,2.94531,2.19434,1.15479.46191,2.46338.69336,3.92725.69336Z"/><path class="cls-1" d="M166.90413,95.3252c-2.18652,0-4.12354-.27637-5.75732-.82031-1.70605-.57031-3.20215-1.41895-4.44824-2.52246-1.24316-1.09766-2.27881-2.48828-3.07471-4.12988-.74561-1.5332-1.3208-3.33594-1.70801-5.35742-.37402-1.95508-.56396-4.15332-.56396-6.5332,0-1.30859.02002-2.34961.06055-3.18359.03809-.81055.07617-1.58594.1167-2.32422.03516-.68555.05371-1.4707.05371-2.34668,0-1.38086,1.11914-2.5,2.5-2.5h3.69629c.69043,0,1.3501.28516,1.82227.78906.47266.50293.71631,1.17871.67285,1.86816-.07373,1.16699-.11084,2.4541-.11084,3.82715v3.52344c0,2.43262.1748,4.46875.52002,6.05078.2998,1.38086.73389,2.42969,1.29199,3.11914.54102.66992,1.17188,1.14258,1.92969,1.44531.854.3418,1.86279.51465,2.99902.51465,1.13086,0,2.07666-.15137,2.81006-.45117.5874-.23828,1.03662-.60938,1.41748-1.16895.47998-.70703.8623-1.65234,1.13574-2.80859.30078-1.26758.45312-2.90039.45312-4.85352,0-1.9668-.17578-3.79395-.52295-5.42871-.34619-1.62012-.88818-3.22754-1.61084-4.77539-.7085-1.51855-1.65625-2.98145-2.81689-4.34961-1.23926-1.45508-2.76025-3.0127-4.51904-4.62549-1.79395-1.71143-3.39502-3.41357-4.79395-5.09424-1.48438-1.78027-2.72998-3.75586-3.70068-5.86963-.96973-2.10547-1.67529-4.36963-2.09521-6.72656-.40869-2.28076-.61621-4.83887-.61621-7.59961,0-2.59814.26318-4.87939.78174-6.78027.55518-2.03613,1.46045-3.8125,2.68994-5.2793,1.27148-1.5166,2.87744-2.65527,4.77295-3.38379,1.78174-.68555,3.77441-1.0332,5.92139-1.0332,1.9292,0,3.66895.23047,5.1709.68457,1.61133.48975,3.02783,1.26416,4.21436,2.30176,1.19043,1.04199,2.15967,2.37598,2.88232,3.96631.66113,1.45508,1.1709,3.19336,1.51514,5.16748.33154,1.91455.49902,4.11768.49902,6.55078,0,1.09424-.02051,2.08545-.06055,2.94629-.03809.77393-.05518,1.52295-.05518,2.25146,0,.81445-.03955,1.8125-.12061,3.05127-.08594,1.31445-1.17725,2.33643-2.49463,2.33643h-3.81152c-1.38086,0-2.5-1.11914-2.5-2.5v-7.85449c0-2.41016-.1084-4.38965-.32178-5.88379-.18066-1.26611-.49219-2.2666-.92578-2.97266-.34375-.55664-.74902-.92139-1.27197-1.14355-.68506-.28906-1.56299-.43652-2.604-.43652-1.0708,0-1.97363.13818-2.68359.41113-.55371.21338-.96777.52637-1.30029.98438-.41797.57422-.74561,1.35986-.9751,2.33545-.2627,1.11572-.39551,2.5166-.39551,4.16455,0,2.08936.14404,4.01025.42773,5.70996.27344,1.64453.70361,3.16357,1.27881,4.51562.55664,1.31348,1.38428,2.64307,2.46143,3.95459,1.14258,1.39355,2.52197,2.86572,4.10205,4.37793,1.95117,1.55713,3.70947,3.32227,5.22754,5.24756,1.521,1.93457,2.81641,3.96191,3.85254,6.0293,1.05615,2.11523,1.84619,4.41895,2.34961,6.85059.49414,2.39062.74463,5.00977.74463,7.78418,0,2.64453-.25537,5.07227-.75928,7.21387-.53711,2.28418-1.39697,4.24121-2.55615,5.81738-1.22607,1.66602-2.81152,2.92969-4.71289,3.75684-1.81348.78906-3.99463,1.18945-6.48389,1.18945Z"/><path class="cls-1" d="M189.4388,91.90137h-4.1582c0-3.30957.01807-6.89062.05762-10.74219.03809-3.84961.05762-7.89258.05762-12.12793V21.55859c0-3.3877-.01953-6.65967-.05762-9.81836-.03955-3.15625-.05762-6.2373-.05762-9.24023h4.1582v9.125c0,3.1582-.02002,6.46826-.05762,9.93359-.04004,3.46484-.05811,7.14307-.05811,11.03076v36.49951c0,4.12012.01807,8.08594.05811,11.89746.0376,3.81152.05762,7.4502.05762,10.91504Z"/><path class="cls-1" d="M189.4388,94.40137h-4.1582c-1.38086,0-2.5-1.11914-2.5-2.5,0-3.31738.01807-6.90723.05762-10.76758.03809-3.84082.05762-7.87598.05762-12.10254V21.55859c0-3.37744-.01953-6.63916-.05762-9.78809-.03955-3.16602-.05762-6.25732-.05762-9.27051,0-1.38086,1.11914-2.5,2.5-2.5h4.1582c1.38086,0,2.5,1.11914,2.5,2.5v9.125c0,3.16699-.02002,6.48584-.05762,9.96094-.04004,3.45752-.05811,7.12598-.05811,11.00342v36.49951c0,4.11133.01807,8.06836.05811,11.87109.0376,3.82227.05762,7.46875.05762,10.94141,0,1.38086-1.11914,2.5-2.5,2.5Z"/><path class="cls-1" d="M203.77229,9.5459c0,.38623-.07764.79053-.23096,1.21289-.15527.42383-.36621.80859-.63525,1.15479-.27051.34668-.63525.61719-1.09717.80859-.46191.19336-1.03955.28857-1.73291.28857-.38623,0-.77051-.05762-1.15479-.17285-.38623-.11572-.75098-.26904-1.09717-.4624-.34668-.19092-.57764-.46191-.69336-.80811-.11523-.34668-.25049-.69336-.4043-1.04004-.15527-.34619-.23096-.67285-.23096-.98145,0-.61572.0957-1.13525.28906-1.55957.19092-.42236.4043-.78857.63525-1.09717.23096-.30664.59521-.52002,1.09717-.63525.5-.11572,1.01953-.17334,1.55908-.17334.53809,0,1,.03955,1.38623.11572.38428.07764.71094.23096.98193.46191.26904.23096.5.46191.69287.69287.19141.23096.34668.52002.46191.86621.11572.34668.17334.79053.17334,1.32861ZM202.38655,91.90137h-4.27393c0-2.61719.01807-5.33105.05762-8.14355.03809-2.80957.07617-5.73535.11572-8.77832.0376-3.04102.05762-6.27539.05762-9.70215v-21.08008c0-3.15625-.02002-6.13965-.05762-8.95166-.03955-2.81006-.07764-5.48633-.11572-8.02734-.03955-2.54102-.05762-5.00488-.05762-7.39258h4.27393c0,2.3877-.02002,4.85156-.05811,7.39258-.03955,2.54102-.05762,5.21729-.05762,8.02734v39.96533c0,3.04297.01807,5.93066.05762,8.66309.03809,2.73438.05811,5.41016.05811,8.02734Z"/><path class="cls-1" d="M202.38655,94.40137h-4.27393c-1.38086,0-2.5-1.11914-2.5-2.5,0-2.62891.01807-5.35449.05811-8.17871l.11523-8.77539c.0376-3.03027.05762-6.25391.05762-9.66992v-21.08008c0-3.14453-.02002-6.1167-.05762-8.91846l-.11523-8.02295c-.04004-2.55322-.05811-5.02979-.05811-7.43018,0-1.38086,1.11914-2.5,2.5-2.5h4.27393c1.38086,0,2.5,1.11914,2.5,2.5,0,2.3999-.02002,4.87598-.05859,7.43018-.03906,2.52979-.05713,5.19336-.05713,7.98975v39.96533c0,3.03027.01807,5.90625.05713,8.62695.03857,2.74707.05859,5.43457.05859,8.06348,0,1.38086-1.11914,2.5-2.5,2.5ZM200.076,15.51074c-.62695,0-1.25732-.09375-1.87305-.27832-.55908-.16748-1.09668-.39453-1.59814-.67432-.88574-.48779-1.52832-1.25049-1.84521-2.19824-.0918-.27539-.19775-.54688-.31836-.81885-.29443-.65625-.4458-1.33057-.4458-1.99512,0-.97412.17285-1.84766.51416-2.59619.25977-.57471.56641-1.10156.90869-1.55859.41406-.5498,1.18652-1.26318,2.53906-1.57373,1.32129-.30664,2.86426-.29639,3.98877-.07373.81445.16455,1.52393.50439,2.11963,1.01172.37891.32568.70996.65771.99023.99316.39697.479.70264,1.0415.91504,1.6792.20264.60693.30127,1.30029.30127,2.11816,0,.67432-.12842,1.36963-.38086,2.06592-.24707.67334-.58643,1.28857-1.01123,1.83594-.54297.69531-1.25342,1.22705-2.11426,1.58398-.76709.32129-1.6499.479-2.68994.479ZM199.34749,10.33984c.09424.03906.19043.07324.2915.10303.15186.0459.29443.06787.43701.06787.51514,0,.72998-.0791.76758-.09473.07812-.03223.10303-.05273.10303-.05273.09473-.12402.18018-.28125.24707-.46436.06787-.18701.07861-.30176.07861-.35303,0-.38623-.04492-.5376-.04541-.53906-.09082-.14307-.19629-.2583-.31934-.37061-.16309-.02734-.43115-.05566-.83154-.05566-.28711,0-.56592.0249-.82959.07422-.0625.1084-.12451.22949-.18408.36133-.00537.0127-.06689.15186-.06689.52979.13232.25391.24854.52148.35205.79395ZM199.03011,10.18555c.00146.00098.00342.00195.00488.00293-.00146-.00098-.00342-.00195-.00488-.00293Z"/><path class="cls-1" d="M217.5511,63.71777l1.84814,1.04004c-.84814,1.1543-1.63672,2.40723-2.36768,3.75391-.73291,1.34766-1.32861,2.67578-1.79053,3.98438-.46191,1.31055-.69287,2.54102-.69287,3.69629,0,1.38672.34619,2.3877,1.03955,3.00293.69287.61719,1.69287.9248,3.00293.9248,1.30859,0,2.52148-.03809,3.63867-.11621,1.11523-.0752,2.2124-.11523,3.2915-.11523h2.65674c2.23242,0,4.19629.4043,5.89111,1.21289,1.69287.80859,2.96338,2.09863,3.81152,3.86914.84619,1.77246,1.27051,4.08301,1.27051,6.93066,0,1.46191-.13525,2.79004-.4043,3.98535-.27051,1.19238-.65527,2.30957-1.15479,3.34961-.50195,1.03906-1.13721,1.94336-1.90625,2.71387-.77051.76855-1.75244,1.46191-2.94531,2.0791-1.19482.61523-2.58057,1.05762-4.1582,1.32812-1.5791.26953-3.40723.4043-5.48633.4043-2.46533,0-4.58252-.19238-6.35303-.57715-1.77197-.38672-3.21582-.90625-4.33154-1.55957-1.11719-.65527-1.9834-1.44336-2.59863-2.36719-.61719-.9248-1.03955-1.94629-1.27051-3.06152-.23096-1.11719-.34668-2.25195-.34668-3.40723,0-1.61719.24902-3.0791.75098-4.38965.5-1.30762,1.13525-2.54102,1.90576-3.69629.76855-1.1543,1.65479-2.1543,2.65674-3.00293.99951-.8457,2.0791-1.53906,3.23389-2.0791l1.50146.69336c-1.92529,1.46387-3.46484,3.13867-4.62012,5.02441-1.15479,1.8877-1.73242,4.0625-1.73242,6.52637,0,.8457.11523,1.71289.34668,2.59863.23096.88477.59521,1.69238,1.09717,2.42578.5.73047,1.19287,1.3457,2.0791,1.84766.88428.5,1.98145.88477,3.29199,1.15527,1.30811.26855,2.84766.4043,4.62012.4043,2.0791,0,3.86963-.21289,5.37109-.63574,1.50146-.42383,2.77197-1.09668,3.81152-2.02051,1.03955-.9248,1.79053-1.9834,2.25244-3.17676.46191-1.19434.69287-2.59863.69287-4.21582,0-2.23242-.30859-4.00293-.92383-5.31348-.61719-1.30859-1.52148-2.25195-2.71436-2.83008-1.19482-.57715-2.63867-.86621-4.33154-.86621-.84814,0-1.6748.01953-2.4834.05762-.80859.04004-1.6748.07812-2.59912.11621-.92383.03906-1.81006.07715-2.65625.11523-.84863.04004-1.65674.05762-2.42578.05762-1.15527,0-2.15674-.17285-3.00293-.51953-.84863-.34668-1.46387-.80859-1.84814-1.38672-.38623-.57715-.71289-1.25-.98193-2.02051-.27051-.76953-.4043-1.61719-.4043-2.54199,0-1.69238.34668-3.3291,1.03955-4.9082.69287-1.57812,1.51953-3.09961,2.4834-4.5625.96191-1.46191,1.94385-2.77246,2.94531-3.92773ZM210.5052,43.73535c0-4.23389.26904-7.83447.80859-10.7998.53809-2.96338,1.32861-5.42871,2.36816-7.39209,1.03955-1.96387,2.34766-3.40771,3.92676-4.33154,1.57764-.92432,3.40771-1.38623,5.48682-1.38623h4.33154c1.11523,0,2.34766.02002,3.6958.05811,1.34668.03955,2.69482.05762,4.04297.05762h3.98486v3.92725c-.61719,0-1.29053-.01807-2.02148-.05811-.73242-.0376-1.52148-.09521-2.36768-.17285-.84814-.07617-1.71436-.17334-2.59912-.28906-.88574-.11523-1.75244-.23096-2.59863-.34619-.84814-.11572-1.65674-.21143-2.42578-.28906-.77051-.07568-1.42578-.11523-1.96338-.11523l-.11572-.23145c1.61719.23145,3.04102.67529,4.27393,1.32861,1.23096.65527,2.25244,1.4834,3.06104,2.4834.80811,1.00146,1.48145,2.33008,2.021,3.98486.53809,1.65674.94238,3.67822,1.21289,6.06396.26904,2.3877.4043,5.27539.4043,8.66309,0,2.61865-.13525,4.98633-.4043,7.10352-.27051,2.11865-.61719,4.00488-1.03955,5.65967-.42432,1.65674-.98193,3.06104-1.6748,4.21631s-1.5415,2.11816-2.54102,2.8877c-1.00195.77051-2.0791,1.32812-3.23438,1.6748-1.15479.34668-2.50293.51953-4.04248.51953-2.15674,0-4.0249-.42188-5.60205-1.27051-1.5791-.84668-2.8877-2.19434-3.92725-4.04297-1.03955-1.84766-1.81006-4.25391-2.31006-7.21875-.50195-2.96338-.75098-6.52637-.75098-10.68457ZM231.98958,43.96631c0-4.85107-.25098-8.77832-.75098-11.78125-.50195-3.00342-1.40576-5.21582-2.71436-6.6416-1.31055-1.42432-3.04297-2.13721-5.19775-2.13721-2.15674,0-3.90918.69336-5.25537,2.0791-1.34814,1.38623-2.31006,3.60059-2.8877,6.6416-.57764,3.04297-.86621,6.98828-.86621,11.83936,0,4.9292.30664,8.81836.92383,11.6665.61523,2.84961,1.59717,4.85059,2.94531,6.00586,1.34668,1.15527,3.06104,1.73242,5.14014,1.73242,2.15479,0,3.84961-.59473,5.08203-1.79004,1.23096-1.19336,2.13721-3.21436,2.71436-6.06396.57764-2.84814.8667-6.69922.8667-11.55078ZM214.54817,83.7002v-1.61719h1.03955v1.61719h-1.03955ZM216.51155,65.68164v-1.84863h1.38623v1.84863h-1.38623ZM226.79182,23.98389v-1.96338h2.0791v1.96338h-2.0791Z"/><path class="cls-1" d="M223.09554,108.26172c-2.63135,0-4.94775-.21289-6.88379-.63379-2.05273-.44824-3.7085-1.05176-5.06396-1.8457-1.44434-.84668-2.59326-1.90234-3.41602-3.13867-.79053-1.18359-1.3418-2.51074-1.63818-3.94043-.26416-1.2793-.39844-2.59668-.39844-3.91406,0-1.91895.30811-3.69629.9165-5.28418.56445-1.47656,1.2915-2.88672,2.16016-4.18848.51221-.76953,1.07617-1.4873,1.68701-2.14844-.02441-.03516-.04834-.07031-.07178-.10547-.49707-.74219-.92236-1.6123-1.26025-2.58008-.36035-1.02539-.54395-2.15918-.54395-3.36621,0-2.03223.42041-4.02246,1.25-5.91309.74951-1.70703,1.65283-3.36621,2.68555-4.93262.20557-.3125.4126-.61914.62061-.91992-.646-.73145-1.23145-1.56055-1.75195-2.48633-1.17676-2.0918-2.05029-4.79346-2.59619-8.02881-.521-3.07764-.78564-6.8125-.78564-11.1001,0-4.36719.28564-8.15137.84912-11.24756.58105-3.19971,1.46191-5.93018,2.61816-8.11426,1.25586-2.37256,2.89551-4.16211,4.87402-5.31934,1.95703-1.14697,4.22803-1.72852,6.74902-1.72852h4.33154c1.13672,0,2.39258.02051,3.7666.05908,1.32471.03906,2.64844.05664,3.97217.05664h3.98486c1.38086,0,2.5,1.11914,2.5,2.5v3.92725c0,1.38086-1.11914,2.5-2.5,2.5-.65918,0-1.37793-.01904-2.1582-.06201-.49756-.02539-1.02393-.06006-1.57764-.104.52832.93115.98877,1.99658,1.37695,3.18604.58789,1.81055,1.03174,4.01611,1.31982,6.55713.2793,2.4751.42041,5.48389.42041,8.94482,0,2.70752-.14258,5.20361-.42432,7.41846-.28223,2.20996-.65137,4.21533-1.09717,5.96289-.48291,1.88525-1.13965,3.52783-1.95312,4.88428-.8501,1.41699-1.91357,2.62305-3.16016,3.58203-1.23926.9541-2.59863,1.65625-4.04053,2.08887-1.38135.41504-2.9834.625-4.76123.625-1.24268,0-2.41895-.12402-3.521-.36914-.1167.20508-.23193.41211-.3457.62109-.66406,1.22168-1.2124,2.44043-1.63037,3.62402-.36523,1.03613-.55029,2-.55029,2.86426,0,.88867.19727,1.13184.19922,1.13379.20801.18457.70898.29395,1.34326.29395,1.25391,0,2.41943-.03711,3.46436-.11035,1.1958-.08008,2.35986-.12109,3.46582-.12109h2.65674c2.59766,0,4.94189.49023,6.96777,1.45605,2.21387,1.05762,3.89209,2.75488,4.98975,5.0459,1.00586,2.10742,1.51562,4.80176,1.51562,8.01074,0,1.63672-.15674,3.16211-.46533,4.53418-.31201,1.375-.7627,2.68066-1.34033,3.88281-.62354,1.29102-1.42676,2.43262-2.39014,3.39746-.95312.95117-2.15137,1.80176-3.56592,2.53418-1.41992.73047-3.06201,1.25879-4.88477,1.57129-1.71191.29199-3.69922.44043-5.90869.44043ZM217.74886,86.08301c-.77295.80176-1.43945,1.6582-1.99316,2.56152-.91797,1.5-1.36426,3.20801-1.36426,5.2207,0,.63086.08936,1.29199.26562,1.9668.15967.6123.40186,1.15039.74121,1.64551.28418.41504.69238.76953,1.24805,1.08398.65137.36914,1.51514.66602,2.56543.88281,1.13916.2334,2.52441.35254,4.11475.35254,1.83691,0,3.41602-.18262,4.69336-.54199,1.14355-.32324,2.06934-.80762,2.82861-1.4834.74463-.66211,1.2627-1.38574,1.58154-2.20996.34814-.89941.52441-2.01465.52441-3.31348,0-2.30469-.37354-3.58398-.68701-4.25098-.37305-.79102-.86328-1.31445-1.5415-1.64258-.84521-.4082-1.93652-.61621-3.24121-.61621-.80811,0-1.5957.01855-2.36572.05469-.80908.04004-1.68213.0791-2.61377.11719l-2.64697.11426c-.729.03516-1.43311.05371-2.10938.05859ZM223.32649,25.90625c-1.48633,0-2.58643.41992-3.4624,1.32129-.97998,1.00781-1.74902,2.86328-2.22461,5.36572-.54541,2.87451-.82227,6.70117-.82227,11.37305,0,4.73486.2915,8.48193.86719,11.13721.61572,2.85254,1.49756,4.0957,2.12891,4.63672.88721.76172,2.03613,1.13086,3.51318,1.13086,1.49609,0,2.58887-.35449,3.34131-1.08447.59033-.57227,1.41699-1.86328,2.00488-4.76562.54199-2.67334.81689-6.39209.81689-11.05469,0-4.6875-.24121-8.51318-.7168-11.37061-.41846-2.50195-1.12158-4.30615-2.09033-5.36182-.83301-.90479-1.8999-1.32764-3.35596-1.32764Z"/><path class="cls-1" d="M246.30647,91.77661c.06299-5.17188.0957-10.56641.0957-16.18457v-40.12744c0-5.68164-.03271-10.85352-.0957-15.51465h6.99072c.25391,1.53223.63867,3.86377,1.15039,6.99121.50977,3.12891,1.13281,6.76807,1.86719,10.91748.73242,4.15088,1.51562,8.49219,2.3457,13.02441.83008,4.53418,1.62891,8.90674,2.39453,13.12012.19141,1.40527.41406,3.11328.66992,5.12402.25391,2.01074.50977,4.07031.76562,6.17676.25586,2.10742.44727,4.08691.57617,5.93848l-.95898-3.54395h1.62891l-.86133,3.44824c.25391-1.91602.47852-3.89453.66992-5.93848.19141-2.04199.42969-4.02148.71875-5.9375.28711-1.91504.55664-3.57422.8125-4.97949.76758-4.40576,1.54883-8.87402,2.34766-13.4082.79688-4.53223,1.54688-8.8584,2.25-12.97656.70117-4.11816,1.32422-7.74072,1.86719-10.86963.54102-3.12744.94141-5.49023,1.19727-7.08691h6.32031c-.06445,4.66113-.0957,9.83301-.0957,15.51465v20.30273c0,7.59912.01562,14.20654.04883,19.82471.03125,5.61816.04688,11.0127.04688,16.18457h-4.98047c.06445-4.08496.09766-7.93262.09766-11.54004,0-3.60645.01367-7.13477.04688-10.58301.03125-3.44727.04883-7.00586.04883-10.67773v-11.82764c0-2.55273.04688-5.28223.14258-8.18799.0957-2.90479.19141-5.85693.28711-8.85889.0957-3,.14453-5.77734.14453-8.33154l.76562,3.54346-2.77734-.19189,1.91602-3.25586c-.12891,1.85254-.32031,3.92627-.57422,6.22461-.25586,2.29883-.54492,4.69287-.86328,7.18311-.32031,2.48975-.63867,4.88379-.95703,7.18262-.32031,2.29834-.60742,4.37354-.86133,6.22461l-7.66211,43.09619h-2.49023l-7.66211-43.3833c-.32031-1.97803-.63867-4.14941-.95703-6.51221-.32031-2.36133-.63867-4.75537-.95703-7.18262-.32031-2.42578-.60742-4.77197-.86279-7.03906-.25586-2.26562-.51172-4.26172-.76611-5.98584l1.82031,3.35205-2.58643.19141.86182-3.73486c0,2.29834.01514,4.56543.04834,6.7998.03125,2.23535.0957,4.43799.19141,6.60791.0957,2.17139.1748,4.29443.23926,6.36865.06299,2.07568.0957,4.10303.0957,6.08154v12.01855c0,3.6084.01514,7.10352.04785,10.4873.03174,3.38477.06299,6.84668.0957,10.39062.03174,3.54297.04834,7.39062.04834,11.54004h-4.69287Z"/><path class="cls-1" d="M279.05891,94.27661h-4.98047c-.66992,0-1.31152-.26855-1.78125-.74609-.4707-.47754-.72949-1.12402-.71875-1.79297.06445-4.09473.09766-7.96387.09766-11.50098,0-3.61426.01367-7.15137.04688-10.60742.02441-2.67188.04004-5.41211.0459-8.21973l-5.47559,30.80469c-.21191,1.19336-1.24902,2.0625-2.46094,2.0625h-2.49023c-1.21289,0-2.25098-.87109-2.46191-2.06543l-5.57227-31.5498c.00342,3.14062.01855,6.19336.04736,9.16016l.0957,10.3916c.03174,3.55078.04834,7.40625.04834,11.56348,0,1.38086-1.11914,2.5-2.5,2.5h-4.69287c-.66846,0-1.30859-.26758-1.77832-.74316s-.72949-1.11914-.72168-1.78711c.06348-5.2041.0957-10.63965.0957-16.1543v-40.12744c0-5.58447-.03223-10.79297-.0957-15.48096-.00879-.66895.25049-1.31348.72021-1.78955s1.11084-.74414,1.77979-.74414h6.99072c1.22314,0,2.2666.88477,2.46631,2.09131.25391,1.5332.63916,3.8667,1.15137,6.99609.49805,3.05859,1.12451,6.7207,1.86182,10.88574.73145,4.14697,1.51367,8.48291,2.34277,13.00977.6748,3.6875,1.33008,7.26855,1.96289,10.74414.61523-3.52881,1.24219-7.10742,1.87988-10.72754.7959-4.52734,1.54492-8.84961,2.24805-12.96387.70117-4.11963,1.32422-7.74512,1.86816-10.87598.53809-3.11279.93652-5.46533,1.19141-7.05518.19434-1.2124,1.24121-2.10449,2.46875-2.10449h6.32031c.66895,0,1.31055.26807,1.78027.74463.46973.47607.72852,1.12109.71973,1.79004-.06348,4.58105-.0957,9.78906-.0957,15.47998v20.30273c0,7.59326.01562,14.1958.04883,19.81006.03125,5.62402.04688,11.02246.04688,16.19922,0,1.38086-1.11914,2.5-2.5,2.5ZM262.44856,83.66528l.14258.80957.13477-.75488c-.09375-.01367-.18652-.03125-.27734-.05469Z"/><path class="cls-1" d="M314.19016,91.77686h-5.8418c0-1.14941-.12891-2.85645-.38379-5.12402-.25586-2.26562-.57422-4.88379-.95703-7.85254-.38379-2.96875-.7998-6.16113-1.24512-9.57715-.44727-3.41504-.91016-6.92676-1.38867-10.53467-.47949-3.60596-.95801-7.10156-1.43652-10.48633-.47949-3.3833-.87891-6.5752-1.19727-9.57715-.38281-3.12744-.71875-5.74609-1.00586-7.85303s-.52637-3.89355-.71777-5.36279c-.19141-1.46826-.35156-2.68164-.47949-3.63916l1.24512,1.81934h-2.39355l1.24414-1.81934c0,.95752-.12793,2.1875-.38281,3.68701-.25586,1.50098-.52637,3.30371-.81348,5.41064-.28809,2.10693-.62305,4.72559-1.00586,7.85303-.51172,3.63965-1.02246,7.51807-1.53223,11.63623-.51172,4.11816-1.07031,8.28369-1.67578,12.49805-.60742,4.21387-1.13477,8.23535-1.58008,12.06641-.44824,3.83105-.84766,7.19922-1.19727,10.10352-.35156,2.90625-.5918,5.15723-.71875,6.75195h-5.45898c.38379-2.36133.8291-5.28223,1.34082-8.7627.51074-3.47949,1.08496-7.30957,1.72363-11.49219.6377-4.18066,1.26074-8.49121,1.86816-12.9292.60547-4.43652,1.22852-8.7627,1.86719-12.97656.6377-4.21387,1.22852-8.10742,1.77148-11.68359.54199-3.5752.97266-6.5918,1.29297-9.05029.31934-2.45703.54199-4.10156.6709-4.93213h7.66113c.12695.83057.36719,2.4751.71875,4.93213.34961,2.4585.79688,5.45898,1.34082,9.00244.54102,3.54346,1.11621,7.40674,1.72363,11.58789.60547,4.18213,1.22852,8.49219,1.86719,12.92871.6377,4.43799,1.27637,8.73193,1.91504,12.88135.6377,4.15039,1.22852,8.0127,1.77246,11.58789.54102,3.57617,1.00488,6.54492,1.38867,8.90625ZM290.9177,67.64307h2.01172c.76562,0,1.54688.0166,2.3457.04785.79785.0332,1.5957.04785,2.39453.04785h6.41699c.79688,0,1.58008-.01465,2.3457-.04785.7666-.03125,1.46777-.04785,2.10742-.04785l.0957,4.40527h-2.25098c-.73438,0-1.50098-.01465-2.29785-.04785-.7998-.03125-1.56543-.04785-2.29883-.04785h-4.16602c-.7666,0-1.54883.0166-2.34668.04785-.79883.0332-1.6123.04785-2.44141.04785h-2.10742l.19141-4.40527Z"/><path class="cls-1" d="M314.18977,94.27661h-5.8418c-1.38086,0-2.5-1.11914-2.5-2.5,0-1.04102-.12402-2.67188-.36816-4.84473-.25488-2.25293-.57129-4.8584-.95215-7.8125-.19238-1.48438-.3916-3.02637-.59961-4.62305-.74023-.02832-1.45508-.04395-2.14062-.04395h-4.16602c-.73438,0-1.48438.01562-2.24902.0459-.05469.00195-.10938.00488-.16504.00684-.02734.23535-.05469.4707-.08203.70508-.44922,3.83594-.84863,7.20703-1.19824,10.11328-.34863,2.875-.58691,5.11328-.70898,6.65137-.10352,1.2998-1.18848,2.30176-2.49219,2.30176h-5.45898c-.7334,0-1.42969-.32227-1.9043-.87988-.47461-.55859-.68066-1.29785-.56348-2.02148.36816-2.26465.80469-5.11816,1.33496-8.72461.51172-3.4834,1.08691-7.31836,1.72559-11.50586.63477-4.16113,1.26172-8.49805,1.86328-12.89062.59863-4.39062,1.22852-8.76904,1.87207-13.01221l1.77148-11.68457c.53516-3.52734.96777-6.55518,1.28516-8.99805.32324-2.4873.5498-4.15186.67969-4.99268.18945-1.21777,1.23828-2.11621,2.4707-2.11621h7.66113c1.23438,0,2.28418.90137,2.47168,2.12207.12695.83398.36816,2.48633.72168,4.95557.34863,2.45361.79492,5.44434,1.33691,8.97754.54297,3.55029,1.11816,7.41992,1.72656,11.60791.60645,4.18359,1.22949,8.49463,1.86816,12.93164.63672,4.42969,1.27344,8.71582,1.91113,12.85742.63867,4.15234,1.22949,8.01562,1.77344,11.5918.54004,3.56738,1.00195,6.52734,1.38477,8.88086.11719.72363-.08887,1.46289-.56348,2.02148-.47461.55762-1.1709.87988-1.9043.87988ZM310.73177,89.27661h.52637c-.27832-1.77051-.58887-3.78125-.92871-6.03223-.41699-2.73828-.86133-5.64551-1.33301-8.72266-.00781.00098-.01465.00195-.02246.00293.17676,1.36035.34766,2.67773.5127,3.95508.38477,2.98438.70508,5.61523.96191,7.89258.12305,1.0957.2168,2.06055.2832,2.9043ZM288.19368,89.27661h.25293c.13086-1.27441.30176-2.7832.5166-4.55176.11035-.9209.22656-1.88867.34668-2.90332-.07715.52637-.15332,1.04492-.22852,1.55566-.3291,2.24023-.62305,4.19336-.8877,5.89941ZM296.41048,65.22485c.41992.00977.83887.01367,1.25879.01367h5.04785c-.26855-2.04102-.54297-4.11426-.82227-6.22119-.47852-3.59863-.95605-7.08691-1.43359-10.46484-.34082-2.40869-.64453-4.73926-.90527-6.95947-.39453,2.89844-.78809,5.93164-1.17676,9.0708-.51172,4.11572-1.07812,8.33643-1.68262,12.54639-.09766.67578-.19336,1.34766-.28613,2.01465Z"/><path class="cls-1" d="M311.90755,19.94995h22.60059v4.59668h-22.60059v-4.59668ZM320.8138,22.53589h4.88379v12.83301c0,4.66113.01562,9.40186.04785,14.22168.03223,4.82129.04785,9.52881.04785,14.12549v12.68945c0,3.86426.01562,7.12012.04785,9.76855.03223,2.65039.04785,4.51758.04785,5.60254h-5.2666c.0625-1.08496.0957-2.93555.0957-5.55469,0-2.61719.01465-5.85645.04785-9.7207.03125-3.8623.04785-8.0918.04785-12.68945V22.53589Z"/><path class="cls-1" d="M325.88899,94.27661h-5.2666c-.68848,0-1.3457-.2832-1.81836-.78418-.47168-.5-.7168-1.17285-.67773-1.85938.06055-1.05469.0918-2.875.0918-5.41113,0-2.62305.01465-5.86914.04785-9.74219.03125-3.85449.04785-8.07812.04785-12.66797V27.04663h-6.40625c-1.38086,0-2.5-1.11914-2.5-2.5v-4.59668c0-1.38086,1.11914-2.5,2.5-2.5h22.60059c1.38086,0,2.5,1.11914,2.5,2.5v4.59668c0,1.38086-1.11914,2.5-2.5,2.5h-6.31055v8.32227c0,4.65576.01562,9.39062.04785,14.20508.03223,4.82666.04785,9.54004.04785,14.14209v12.68945c0,3.85254.01562,7.09766.04785,9.73828.03223,2.66504.04785,4.54199.04785,5.63281,0,1.38086-1.11914,2.5-2.5,2.5ZM323.19856,89.27661h.17578c-.00781-.86816-.01855-1.8916-.0332-3.07227-.03223-2.65625-.04785-5.92285-.04785-9.79883v-4.08789c-.00684,1.44629-.0166,2.84766-.02734,4.2041-.0332,3.85645-.04785,7.08887-.04785,9.7002,0,1.1582-.00684,2.17773-.01953,3.05469Z"/><path class="cls-1" d="M346.46126,91.77661h-5.36328c.0625-1.97852.0957-4.24512.0957-6.7998V26.65356c0-2.55273-.0332-4.78809-.0957-6.70361h5.36328c-.06445,1.91553-.1123,4.15088-.14355,6.70361-.0332,2.55469-.06445,5.34814-.0957,8.37988-.0332,3.0332-.04785,6.28955-.04785,9.76855v21.93066c0,3.41699.01465,6.65625.04785,9.7207.03125,3.06445.0625,5.88965.0957,8.47559.03125,2.58594.0791,4.86914.14355,6.84766Z"/><path class="cls-1" d="M346.46126,94.27661h-5.36328c-.67676,0-1.32422-.27441-1.7959-.76074-.4707-.48535-.72461-1.1416-.70312-1.81836.0625-1.98438.09473-4.24512.09473-6.7207V26.65356c0-2.47461-.03223-4.70264-.09473-6.62207-.02148-.67676.23145-1.3335.70312-1.82031.4707-.48633,1.11914-.76123,1.7959-.76123h5.36328c.67773,0,1.32617.2749,1.79688.76221.47168.4873.72461,1.14453.70215,1.82178-.06445,1.88867-.1123,4.12598-.14258,6.65039-.0332,2.5542-.06445,5.3457-.0957,8.375-.0332,3.02637-.04785,6.27344-.04785,9.74268v21.93066c0,3.40723.01465,6.6377.04785,9.69336.03125,3.06348.0625,5.88672.0957,8.4707.03027,2.55957.0791,4.84668.14258,6.79883.02148.67676-.23145,1.33301-.70312,1.81934-.4707.4873-1.11914.76172-1.7959.76172ZM343.65852,89.27661h.2334c-.03027-1.33496-.05566-2.77832-.07422-4.31738-.0332-2.58594-.06445-5.41309-.0957-8.48047-.01172-1.08301-.02148-2.18848-.02832-3.31641v11.81445c0,1.51465-.01172,2.95215-.03516,4.2998ZM343.6595,22.44995c.02246,1.30713.03418,2.7124.03418,4.20361v11.65576c.00684-1.12891.0166-2.22998.02832-3.30322.03125-3.03271.0625-5.82812.0957-8.38525.01855-1.49121.04297-2.88574.07227-4.1709h-.23047Z"/><path class="cls-1" d="M373.31567,50.21313c.0625-1.2124.11035-2.45752.14355-3.73535.03125-1.27637.04785-2.50488.04785-3.68701v-2.72949c0-4.34082-.25586-7.67627-.7666-10.00781-.51172-2.32959-1.27734-3.94141-2.29785-4.83643-1.02246-.89307-2.33203-1.34033-3.92676-1.34033-.89453,0-1.75684.23926-2.58594.71826-.83008.47852-1.58008,1.32568-2.25,2.5376-.6709,1.21338-1.21387,3.00195-1.62891,5.36328-.41602,2.36279-.75098,5.41064-1.00488,9.146-.25586,3.73486-.38379,8.31689-.38379,13.74268,0,5.4917.11133,10.13623.33594,13.93408.22266,3.7998.55762,6.91211,1.00488,9.33789.44629,2.42676,1.00586,4.30957,1.67676,5.65039.66992,1.34082,1.41992,2.2666,2.25,2.77734.8291.51172,1.78711.76562,2.87305.76562,1.66016,0,3-.60547,4.02246-1.81934,1.02051-1.21191,1.77148-3.0957,2.25098-5.65039.47852-2.55273.71777-5.8418.71777-9.86426,0-1.72363-.0166-3.25586-.04785-4.59668-.0332-1.34082-.08105-2.80859-.14355-4.40527h4.97949c0,1.02148.01562,1.94824.04785,2.77734.03223.83008.04883,1.67578.04883,2.53711v2.92188c0,3.06445-.14453,5.79395-.43164,8.1875-.28711,2.39453-.71777,4.51758-1.29297,6.36914-.57422,1.85254-1.3252,3.38477-2.25,4.59668-.92676,1.21387-2.04395,2.12305-3.35254,2.72949-1.30859.60547-2.8252.91016-4.54883.91016-1.78809,0-3.38477-.35254-4.78809-1.05371-1.40527-.70215-2.63379-1.85156-3.6875-3.44824-1.05371-1.59473-1.93164-3.79785-2.63379-6.60742-.70312-2.80859-1.22949-6.33594-1.58008-10.58301-.35156-4.24512-.52637-9.33691-.52637-15.2749,0-6.00049.1582-11.09277.47852-15.2749.31934-4.18115.8291-7.64502,1.53223-10.39111.70215-2.74414,1.5957-4.89941,2.68164-6.46436,1.08496-1.56396,2.33008-2.66504,3.73535-3.3042,1.40332-.63721,3-.95752,4.78809-.95752,1.66016,0,3.16016.27246,4.50098.81396,1.34082.54346,2.44238,1.37354,3.30469,2.49023.86133,1.11768,1.59473,2.50635,2.20215,4.16553.60645,1.66113,1.00586,3.59131,1.19727,5.79443.19141,2.20264.28711,4.77344.28711,7.70898v6.7041c0,1.08643-.03223,2.20264-.0957,3.35205-.32031-.06299-.70312-.09619-1.14941-.09619h-2.87305c-.25586,0-.54297.0332-.86133.09619Z"/><path class="cls-1" d="M366.80306,95.04321c-2.16895,0-4.15625-.44336-5.90527-1.31738-1.7959-.89746-3.3623-2.34668-4.65723-4.30762-1.2207-1.84863-2.19336-4.26172-2.97266-7.37793-.73145-2.9248-1.28516-6.62012-1.64551-10.9834-.35547-4.28516-.53516-9.49414-.53516-15.48096,0-6.05322.16309-11.25684.48535-15.46582.33008-4.31152.86914-7.95215,1.60352-10.82031.78418-3.06445,1.78125-5.44238,3.0498-7.26953,1.33984-1.93115,2.93945-3.3291,4.75391-4.15479,1.72754-.78418,3.68652-1.18164,5.82324-1.18164,1.97168,0,3.80078.33496,5.4375.99609,1.75293.71045,3.21484,1.81348,4.34668,3.28027,1.01367,1.31494,1.87793,2.94043,2.57129,4.83398.68066,1.86328,1.13086,4.02832,1.33984,6.4375.19727,2.26367.29688,4.93018.29688,7.92529v6.7041c0,1.12012-.0332,2.29443-.09961,3.48975-.04004.72266-.39062,1.39209-.96191,1.83594-.57129.44531-1.30859.61865-2.0166.47949-.09375-.01855-.30469-.04932-.66699-.04932h-2.87305c-.03906,0-.1543.00488-.37598.04883-.75684.14941-1.53906-.05811-2.12109-.5625-.58301-.50439-.90039-1.24902-.86133-2.01904.06152-1.19141.1084-2.41553.1416-3.67139.03027-1.25146.04688-2.45947.04688-3.62207v-2.72949c0-4.13916-.23828-7.32617-.70898-9.47266-.5332-2.42871-1.22949-3.25146-1.50391-3.49219-.55371-.4834-1.2998-.71973-2.27832-.71973-.45215,0-.88965.12549-1.33496.38281-.24121.13916-.73047.52832-1.31348,1.58252-.36621.66357-.89941,1.99756-1.35449,4.58643-.39844,2.26611-.72559,5.25439-.97266,8.88281-.25098,3.66211-.37793,8.22852-.37793,13.57324,0,5.42822.11133,10.06592.33203,13.78662.21484,3.67969.54102,6.71875.96777,9.03223.40039,2.18164.88965,3.8584,1.45312,4.98438.59766,1.19629,1.08691,1.62109,1.3252,1.76758.43066.26562.94141.39453,1.5625.39453.93066,0,1.56152-.27832,2.11035-.92969.50586-.60059,1.21191-1.86914,1.70605-4.50098.44727-2.38867.6748-5.55273.6748-9.40332,0-1.70215-.0166-3.21484-.04688-4.53809-.0332-1.32617-.08105-2.78223-.14258-4.36621-.02637-.67969.22461-1.34082.69629-1.83057.4707-.49023,1.12207-.76709,1.80176-.76709h4.97949c1.38086,0,2.5,1.11914,2.5,2.5,0,.98535.01465,1.87988.0459,2.68066.0332.86133.05078,1.73926.05078,2.63379v2.92188c0,3.14453-.15137,5.99902-.44922,8.48535-.30371,2.53516-.77148,4.82715-1.3877,6.8125-.6582,2.12207-1.5498,3.92969-2.65039,5.37207-1.1709,1.53418-2.61426,2.70508-4.28906,3.48145-1.6377.75781-3.52148,1.1416-5.59961,1.1416ZM357.16536,34.91187c-.24902,1.67969-.45117,3.54395-.60645,5.57959-.31348,4.08301-.47168,9.15771-.47168,15.08447,0,4.91943.12305,9.28662.36719,13.01904-.19434-3.6582-.29199-8.09668-.29199-13.21045,0-5.4585.13086-10.13965.38965-13.91357.16699-2.46143.37207-4.65576.61328-6.55908Z"/></g></svg>