<svg xmlns="http://www.w3.org/2000/svg" viewBox="0 0 1375.55609 814.21203"><defs><style>.cls-1{fill:#fff;}</style></defs><g id="Layer_2" data-name="Layer 2"><g id="Layer_1-2" data-name="Layer 1"><polygon points="330.514 138.098 316.8 0 1037.774 0 1051.487 141.497 1264.457 149.069 1249.371 436.526 1375.556 460.786 1375.556 814.212 0 814.212 9.6 446.669 108.343 436.526 126.171 147.698 330.514 138.098"/><path class="cls-1" d="M1145.92405,608.89643c-32.72949-7.51855-47.76758-36.26758-47.76758-59.709,0-32.72949,26.53711-66.34375,71.209-66.34375h119.86133c18.57617,0,49.97851,4.42285,49.97851,35.38281,0,19.90332-33.61426,40.69141-47.32519,50.42188-14.15332-5.30762-31.40235-8.40332-52.63282-10.61524l-1.32617,9.28809c36.71,4.42285,85.80469,12.38379,85.80469,57.05566,0,35.38281-35.38379,53.0752-66.34375,54.84375a41.205,41.205,0,0,0-17.69238-5.30762c-10.61426,0-20.78711,3.98145-26.09473,12.38477h-41.5752v9.28809h37.15235c-3.53809,10.61523-3.53809,18.13379-3.53809,18.57617h9.28809c.88379-15.03809,7.07617-30.96094,23.4414-30.96094,9.28809,0,19.01856,4.42383,22.11426,12.38477l.88477,2.21093,66.78613,19.46094c5.30664,1.32715,6.19141,3.09668,6.19141,4.86524,0,1.32714-1.32617,3.09668-6.19141,3.09668l-17.69238.4414v7.07715l17.69238.44238c3.98047,0,6.63379,1.32715,6.63379,4.42285,0,2.65332-1.76855,4.42286-6.63379,4.42286l-17.69238.44238v7.07617l17.69238.88477c3.0957,0,6.63379,1.32714,6.63379,3.98046,0,2.21192-1.32715,4.42286-6.63379,4.42286l-17.69238.44238v7.07715l18.13476.44238c4.86426,0,6.19141,2.21094,6.19141,4.86523q0,3.98-6.63379,3.98047h-174.706c-28.30664,0-42.01758-19.01855-40.24805-42.01757l8.8457-124.72657a72.11668,72.11668,0,0,0,21.67188,8.84571Z"/><path class="cls-1" d="M1000.85374,652.68354c19.90332,0,42.01758-3.98047,57.05566-12.38379V777.4101c-89.78515-1.32714-194.166-25.21093-194.166-130.03417,0-68.99708,63.69043-105.708,106.59277-113.22657l-1.32715-9.28808c-36.71,7.07715-71.209,26.53711-92.43847,55.28613,13.71093-69.88184,66.78515-96.419,133.57128-96.419,41.13379,0,84.91993,26.53711,84.91993,76.07422,0,77.40039-72.09278,83.15039-94.208,83.15039h-30.0752v9.73047Z"/><path class="cls-1" d="M657.551,615.08882c7.07666,29.63378,18.57666,76.5166,28.30665,103.93847-6.63428,10.17285-39.80616,46.44043-53.95948,54.84375a31.45377,31.45377,0,0,1-17.6914,4.86524c-6.19239,0-5.75-1.32618-16.80713-4.42285-10.61524-6.19239-16.36475-18.13379-16.36475-34.499,0-25.21,1.32666-46.44043,1.32666-68.1123.44238-53.0752.88477-127.82227,7.519-156.12891,4.86524-20.3457,23.88379-39.80664,42.01758-39.80664,16.80713,0,37.59473,11.05762,46.88281,31.40332C700.89573,553.6103,797.758,705.31635,801.7385,711.50776l7.51856-5.30664c-.88379-1.32715-68.99756-108.36133-104.82275-170.72461,91.55419,17.249,156.5708,95.53516,156.5708,157.45508,0,51.748-28.30664,90.66992-80.49707,90.66992-21.67237,0-64.57422-5.30762-85.8042-67.66992C680.10813,673.913,661.08958,586.78218,660.6472,585.89741l-8.84571,2.21191c0,.44239,1.32666,7.51856,3.98047,18.13379l-22.999-6.19238-2.65381,8.8457ZM813.23753,579.705c-23.44141-20.34473-52.18994-35.8252-81.38135-45.55567l11.94189-30.96c8.40333-21.67285,15.92237-24.76855,33.61426-24.76855h90.66992c5.30762,0,7.96094,3.0957,7.96094,5.75,0,3.53808-3.0957,7.07617-7.96094,7.07617h-43.7871v9.28808h43.7871c5.30762,0,7.96094,3.09668,7.96094,6.19239a7.0926,7.0926,0,0,1-7.51855,7.07617H824.73753v9.28809h42.01758c4.42285,0,7.96093,2.21191,7.96093,6.19238s-3.98047,6.19238-8.8457,6.19238H830.92991c7.51856,5.75,11.499,12.82617,11.499,20.34473,0,13.71191-8.40332,24.76855-21.67187,24.76855C811.91136,580.58979,809.25706,580.14741,813.23753,579.705Z"/><path class="cls-1" d="M295.93577,766.35249v-7.07715H276.47483c-5.74951,0-7.07666-2.21094-7.07666-3.98047,0-3.53809,3.53858-5.30762,7.07666-5.30762h19.46094v-7.07617H276.91722c-4.42286,0-7.07666-1.32715-7.07666-4.42285,0-3.53906,4.86523-4.42285,7.07666-4.42285h19.01855v-7.07715H276.47483c-4.42285,0-6.63427-2.21094-6.63427-4.42285,0-2.21094,1.769-3.53809,7.07666-3.53809h26.98l12.38378-48.21c15.48047-59.2666,39.36426-61.03613,111.89991-61.03613h47.32519l-18.57617-34.499a29.41232,29.41232,0,0,0,15.48-26.09473,35.48648,35.48648,0,0,0-2.65381-13.26856l-8.40332,3.53809a21.75551,21.75551,0,0,1,1.769,9.28809c0,9.28808-5.30762,17.249-19.46094,21.22949L460.0261,600.9355H446.31468l-15.92237-30.51856-6.19189,3.53906,14.15332,26.9795H425.52708l-15.48-29.63379-6.19238,3.53808,13.269,26.09571H405.62425l-22.55713-42.46C387.49,548.30268,408.72,502.30464,419.33518,485.9394c5.74952-8.8457,12.82618-13.26855,20.34522-13.26855,8.8457.44238,17.69189,7.96093,25.65283,22.55664l55.729,104.38086a50.21177,50.21177,0,0,1,6.1919,24.76855c0,16.36426-7.07666,32.28711-19.46094,44.6709l6.63428,6.63477a75.28974,75.28974,0,0,0,18.13428-30.07618,72.46225,72.46225,0,0,1,9.73047-.88379c17.6914,0,32.72949,12.82618,32.72949,30.0752V778.73628c0,5.30761-2.21143,7.07715-4.86524,7.07715-3.09619,0-6.19238-2.21192-6.19238-7.07715v-26.9795h-7.07666v26.9795c0,4.42285-1.32666,7.07715-4.86523,7.07715-2.65332,0-5.74952-1.76954-5.74952-7.07715v-26.9795H539.196v26.9795c0,5.30761-2.6538,7.07715-5.30761,7.07715-3.09571,0-5.30762-1.76954-5.30762-7.07715v-26.9795h-7.07666v26.9795c0,6.63476-3.98047,7.07715-5.30713,7.07715-3.53857,0-4.42285-3.09668-4.42285-7.07715V750.872l22.999-32.28711-7.519-5.30762L496.29368,756.622c-6.63428,9.28808-15.92236,11.499-23.44141,11.499-19.46093,0-27.42187-15.47949-32.28711-25.65234L391.47093,639.415l-8.40381,4.42285,10.61523,19.90332v111.457H276.03294c-5.30762,0-6.63477-2.21191-6.63477-3.53809,0-1.76953,1.32715-4.86523,6.63477-4.86523Z"/><path class="cls-1" d="M203.94456,677.4521,164.5803,661.08686c-26.97949-11.05761-57.05517-23.4414-57.05517-67.6709,0-7.96093.88427-16.36425,3.0957-23.4414,18.13379-5.749,28.749-20.34473,31.40283-36.71,9.28809-3.98047,19.90283-5.75,32.28711-5.75,3.981,0,8.40381,0,12.82666.44238l.88428-8.8457c-4.86524-.44239-9.73-.88477-14.15332-.88477-11.9419,0-22.11426,1.76953-31.84473,5.75-1.32715-10.17285-5.30762-19.90332-9.73047-24.32617l-6.63428,6.63476c3.09571,3.09571,7.51905,13.26856,7.51905,22.999,0,18.57617-17.6919,32.28711-34.05664,32.28711H94.69847v64.13281c0,4.86523-2.21143,6.63379-4.86524,6.63379-3.09619,0-5.75-2.21094-5.75-6.63379L83.199,558.47553H76.12229v67.22852c0,4.42285-2.21142,7.07617-5.75,7.07617-3.0957,0-5.74951-2.65332-5.74951-7.07617V558.47553H57.54612l-.44238,67.22852c0,4.86523-2.21143,7.07617-5.30762,7.07617-3.53808,0-4.42285-3.98047-4.42285-7.07617V512.0351c0-16.80761,9.73047-26.53808,26.5376-26.53808h81.38135c101.28466,0,147.72558,74.30566,147.72558,144.1875,0,99.07324-76.07422,153.03223-157.45605,153.03223-55.72852,0-98.18848-28.749-98.18848-79.61231,0-36.71,24.32617-63.24707,61.03613-63.24707h4.86524c12.82666,15.47949,31.84521,22.11426,47.76758,29.19043L200.406,685.85542Z"/><path class="cls-1" d="M1111.91526,433.89546c0-21.28907,1.49414-22.41016,8.2168-27.26563,7.0957-5.22851,7.46973-8.21582,7.46973-19.4209,0-22.40918-7.46973-33.24023-15.68653-60.50586-10.83105-31.74609-14.93945-53.4082-20.16894-77.31152a51.30071,51.30071,0,0,0-7.46973-19.42187c-3.73437-6.34961-3.73437-6.72266-3.73437-26.89063,0-25.02441,8.21679-24.65039,40.71-24.65039,34.73437,0,38.46972,1.49316,38.46972,23.15625,0,20.542-.373,20.168-4.1084,24.27637-4.48242,4.1084-4.10839,7.46972-3.36132,15.68652,1.86718,19.79492,4.10839,37.34863,6.34961,48.92773,1.86718,11.20411,2.61425,14.93946,5.97558,14.93946,2.98828,0,4.1084-3.36133,6.34961-14.93946,1.86719-8.96386,5.22852-24.27734,8.58984-47.43359,1.49415-10.084.374-11.57812-4.85546-15.31348-5.60254-4.10839-5.97559-8.21679-5.97559-24.27636,0-23.15625,3.73438-25.39746,32.12012-25.02344,26.51758.37305,28.38476,2.61426,28.38476,23.5293,0,19.42187-1.86718,22.40918-5.97558,26.51757-3.73438,4.1084-3.73438,9.71094-5.22852,19.42188-4.1084,30.999-10.458,59.75781-24.27734,97.48047-4.1084,11.57812-7.46973,19.42187-7.46973,38.84277,0,14.56641,0,17.92774,6.72266,22.7832,6.72363,5.22852,7.84375,8.2168,7.84375,29.50586,0,22.40918-6.72266,23.15625-40.71,23.15625C1121.99925,459.666,1111.91526,460.039,1111.91526,433.89546Z"/><path class="cls-1" d="M918.86253,435.01557c0-22.40918,3.36133-25.7705,8.21679-31,5.97559-6.72265,7.46973-10.83105,7.46973-23.90332V253.873c0-13.07227-2.24121-14.93946-7.46973-20.915-5.22851-4.48243-6.72265-8.59082-6.72265-28.75879,0-19.79492,4.1084-24.27735,27.63769-24.27735h50.04786c57.14355,0,83.28808,22.78321,83.28808,121.75782,0,129.22754-20.542,157.23925-76.93848,157.23925h-52.6621C922.97093,458.91889,919.23557,458.91889,918.86253,435.01557Zm104.95019-86.27636c0-73.57715-8.21679-116.15528-24.65039-116.15528-5.60156,0-7.0957,3.73535-7.0957,14.19336,0,79.55274.373,117.64844.74707,137.07031,0,18.30079.74707,22.40918,10.83105,22.40918C1023.06565,406.25678,1023.81272,398.04,1023.81272,348.73921Z"/><path class="cls-1" d="M763.71556,431.65425c0-17.55372,2.24072-20.542,4.85546-25.02442,4.1084-5.22851,7.84327-9.33691,9.33692-26.89062,4.48193-36.22852,7.84326-83.28809,12.32568-119.14356,2.98731-19.79492,5.60254-26.51758-2.24121-29.13183-9.3374-2.61426-7.84326-11.95215-7.84326-26.89161,0-27.26464,8.59033-25.02343,48.92725-25.02343,73.2041,0,62.373-1.49414,65.36035,45.19238,2.61425,35.10742,9.33789,104.95019,11.57812,154.624,1.1211,23.15625,3.36133,23.15625,6.72266,28.01172,2.98828,4.85547,4.1084,11.20508,4.1084,28.01172,0,23.15625-3.73438,25.39746-36.97461,25.39746-38.09668,0-42.20508-1.49414-42.20508-28.38476,0-11.20508-1.12012-19.42188,4.85547-25.02442,5.22949-4.48144,7.46972-5.97558,7.46972-16.43359,0-4.85449-.373-9.33692-.373-13.07129-.374-11.20508-2.24121-10.085-17.92774-10.085-14.93945,0-16.05957-1.12012-16.43359,10.085-.37305,3.73437-.37305,8.58984-.37305,13.81836,0,11.95215,1.86719,12.69922,5.60254,16.80762,4.1084,5.60253,4.48145,11.57812,4.48145,25.02343,0,24.27735-3.73535,26.8916-31.373,26.8916C769.69114,460.413,763.71556,458.17182,763.71556,431.65425ZM845.136,311.76362c-1.86719-23.5293-3.36133-47.05957-4.8545-65.36035-.74707-14.56641-1.49414-16.80664-5.97656-16.80664-4.48144,0-5.22851,2.61426-6.34863,17.55371-1.86817,19.42187-3.73535,44.07129-5.60254,64.61328C821.23265,326.33,821.23265,326.33,833.18479,326.33,847.00413,326.33,846.25706,327.45014,845.136,311.76362Z"/><path class="cls-1" d="M704.97,458.17182c-14.93945,0-47.43311.373-70.21582.373-18.30127,0-27.26465-.74609-26.8916-23.5293-.37305-20.16894.37353-23.90332,7.84326-30.626,5.97607-5.2295,5.229-10.084,5.97607-23.53028,1.49414-36.22851,1.12061-87.02246.74707-126.98632-.37353-10.458,1.86719-12.69825-5.229-19.04786-5.229-4.85546-8.96387-6.72265-9.3374-29.13183.37353-21.66309,5.60254-26.51758,32.12012-26.51758,17.92773,0,39.21679,3.36133,68.72216,1.86719,10.458-.374,14.56592-4.1084,25.02393-4.1084,14.19238,0,19.79492,9.33691,24.27685,43.32422,3.36133,25.02441,5.97559,37.34961,5.97559,47.80664,0,13.81933-6.72266,18.6748-20.542,18.6748-14.56592,0-18.67432-8.21679-28.38477-38.46972-5.229-16.80664-5.97607-17.55371-20.16845-17.55371-17.5542,0-15.68653.74707-15.68653,29.8789,0,30.626-3.36181,41.084,4.10791,41.084,8.96387,0,6.72315-9.71094,5.97608-29.13184-.37354-9.71094.74707-13.44629,8.96386-13.44629,11.20459,0,15.68653,10.832,19.42139,33.98828,5.229,37.34864,8.96387,72.83008-13.07227,72.83008-7.84326,0-11.57812-2.24121-13.07226-11.95117-.74658-9.33789,0-14.19336-5.97559-14.19336-5.97607,0-5.229,1.12109-5.60254,31-.37353,35.1084-3.73486,38.0957,13.07227,38.0957,18.67432,0,17.92773-.373,22.78271-19.79492,8.2168-32.86719,12.3252-45.19238,27.63819-44.81836,13.81933,0,18.30127,6.72266,18.30127,22.40918,0,8.58984-1.12061,28.01172-2.9878,53.03516-2.98828,35.48144-8.59033,41.83105-22.40966,41.83105C723.64427,461.53315,717.29515,458.17182,704.97,458.17182Z"/><path class="cls-1" d="M530.21507,378.24507c-3.73487-33.61426-2.24121-45.93946-13.4458-45.93946-8.96387,0-5.229,8.2168-5.229,32.12012,0,31.74707,1.49414,35.85547,5.229,40.33691,5.97607,6.34961,5.97607,10.458,5.97607,31.37305.373,17.55469-7.47021,23.90332-41.45752,23.53027-33.24072-.374-41.084-3.36132-41.45752-26.14453-.37353-16.80664.74707-21.28906,7.09668-29.13183,2.61426-3.36133,4.48145-5.60254,4.48145-19.04785,1.86767-61.626,1.1206-75.44532.37353-131.46875,0-11.57813.37354-14.93946-3.73486-19.79493-3.73487-5.22851-8.59033-7.84277-8.59033-26.51757,0-22.03614,5.229-28.75879,21.66259-28.38477,7.46973.37305,49.67432.37305,69.46924.37305,39.58985,0,64.61328,11.57812,64.61328,63.86621,0,34.36133-7.09619,46.68652-23.52978,55.65039-7.46973,4.1084-10.83106,4.1084-10.83106,8.96387,0,4.48144,1.86768,5.22851,9.33741,10.458,12.32519,8.21582,14.19238,19.4209,16.06005,42.95118,2.61426,33.24023,1.86719,43.69824,11.20459,43.69824,6.72266.373,7.84327,4.48144,7.46973,15.3125-.74707,28.01172-4.85547,41.458-29.87939,41.458C541.79319,461.90718,536.93772,445.84663,530.21507,378.24507Zm4.855-118.76954c-1.12012-30.626-7.09619-39.96386-17.55371-39.21679-10.458.374-7.46973,1.86816-7.46973,26.8916,0,40.33691-.74707,41.457,13.44531,41.457C533.94993,288.60737,536.19065,284.12593,535.07005,259.47553Z"/><path class="cls-1" d="M297.79661,436.88276c0-15.3125,1.49365-21.66211,8.21631-28.01172,5.97607-5.60254,8.59033-9.71094,8.59033-22.40918V248.27046c0-6.72266-.74707-13.44532-7.09619-18.67383-7.09619-5.22949-9.3374-8.2168-9.3374-26.51758,0-22.41016,7.09668-23.90332,46.313-23.90332,43.3247,0,51.5415,1.49316,51.5415,23.90332,0,13.07129-1.86768,18.30078-11.20459,23.90332C373.615,233.705,372.8679,239.30659,372.8679,249.39155v143.0459c0,14.5664,1.12012,17.18066,5.602,17.18066,8.59033,0,9.3374-4.1084,15.313-31,5.97607-31.74609,12.32519-40.33593,28.01172-38.84277,12.69873,1.49414,18.30127,7.46973,18.30127,21.66309,0,10.084-1.49416,24.27636-3.73487,44.81835-4.48193,49.67383-5.229,57.14356-25.771,57.14356-16.80713,0-21.28858-5.22852-30.25244-5.22852-20.16846,0-33.9878.373-54.5293.373C306.01292,458.54487,298.16966,457.79878,297.79661,436.88276Z"/><path class="cls-1" d="M142.65013,431.65425c0-17.55372,2.24072-20.542,4.85546-25.02442,4.1084-5.22851,7.84327-9.33691,9.33692-26.89062,4.48193-36.22852,7.84326-83.28809,12.32519-119.14356,2.9878-19.79492,5.60254-26.51758-2.24072-29.13183-9.3374-2.61426-7.84326-11.95215-7.84326-26.89161,0-27.26464,8.59033-25.02343,48.92676-25.02343,73.2041,0,62.373-1.49414,65.36084,45.19238,2.61425,35.10742,9.3374,104.95019,11.57812,154.624,1.12061,23.15625,3.36133,23.15625,6.72266,28.01172,2.98828,4.85547,4.1084,11.20508,4.1084,28.01172,0,23.15625-3.73487,25.39746-36.9751,25.39746-38.09619,0-42.20459-1.49414-42.20459-28.38476,0-11.20508-1.12012-19.42188,4.85547-25.02442,5.229-4.48144,7.46972-5.97558,7.46972-16.43359,0-4.85449-.37353-9.33692-.37353-13.07129-.37354-11.20508-2.24072-10.085-17.92725-10.085-14.93994,0-16.06006-1.12012-16.43359,10.085-.37354,3.73437-.37354,8.58984-.37354,13.81836,0,11.95215,1.86719,12.69922,5.60254,16.80762,4.1084,5.60253,4.48145,11.57812,4.48145,25.02343,0,24.27735-3.73486,26.8916-31.37305,26.8916C148.62571,460.413,142.65013,458.17182,142.65013,431.65425Zm81.42041-119.89063c-1.86719-23.5293-3.36133-47.05957-4.855-65.36035-.74708-14.56641-1.49415-16.80664-5.97608-16.80664s-5.229,2.61426-6.34912,17.55371c-1.86768,19.42187-3.73486,44.07129-5.60254,64.61328C200.16722,326.33,200.16722,326.33,212.11888,326.33,225.93821,326.33,225.19114,327.45014,224.07054,311.76362Z"/><path class="cls-1" d="M917.22581,122.0644c0-28.82812,1.33691-71.59375,2.67285-81.9043.95508-7.2539,2.67285-11.26367,8.01856-11.26367,5.5371,0,16.0371,1.14551,20.42871,6.30078,7.63672,9.3545,25.3916,46.77442,35.31933,74.26661-3.24511-36.65625-5.3457-64.91211-5.3457-72.73926,0-4.582,1.71875-7.82813,7.82812-7.82813,8.59082,0,20.61914,3.2461,21.38282,9.16407.57226,4.77343.57226,12.21875.57226,21.1914,0,31.69336-2.291,81.71289-3.24511,90.87695-.38184,4.20118-2.67286,7.63672-7.44629,7.63672-4.582,0-15.27344-.38086-20.0459-6.2998-11.26465-13.74609-27.874-47.34766-36.65625-75.79395,1.90918,28.25586,4.20019,68.15723,4.20019,73.69336,0,5.53711-2.86425,8.21-8.01855,8.21-4.96387,0-16.99219-1.90918-18.90137-8.59082C917.41722,146.69331,917.22581,136.0019,917.22581,122.0644Z"/><path class="cls-1" d="M900.04319,150.7021c0,4.77246-1.90918,7.82715-8.78222,7.82715-7.63672,0-14.50977-1.90821-17.75489-6.29981-1.90918-2.67285-4.00976-9.7373-6.30078-19.28223-6.873.95411-18.13672,2.48145-28.82812,3.627-1.33692,6.68164-2.48243,11.64648-3.43653,14.70117-1.52734,5.1543-2.86425,7.25391-7.63672,7.25391-6.10937,0-15.84668-3.43555-15.84668-8.209a88.30429,88.30429,0,0,1,1.33692-14.31836c-3.05469-3.24609-5.15527-9.54687-5.3457-14.1289-.19141-3.05469.76367-5.53614,2.67285-5.918s4.20019-.57227,6.49121-.95508c6.10937-27.49219,16.03711-61.47461,23.48242-79.80274,2.10059-5.15527,4.2002-6.49218,9.16406-6.49218,8.40039,0,18.32813,2.10058,21.19239,7.44629C881.90647,57.53413,900.04319,141.3476,900.04319,150.7021ZM852.88694,58.67964c-2.86426,18.32812-6.49121,38.18359-9.7373,54.98437h20.04687C859.76,96.67182,856.32347,76.4355,852.88694,58.67964Z"/><path class="cls-1" d="M770.02854,99.15425c-4.00927,0-8.59131-1.71875-8.59131-5.72754,0-2.86426.76368-10.88184.76368-15.27344,0-14.8916-3.43653-21.57324-8.20948-21.57324-8.78222,0-12.60058,18.51855-12.60058,46.20117,0,20.42871,5.15478,26.72851,14.8916,26.72851,12.02783,0,24.81931-12.21875,28.25586-12.21875,4.3916,0,11.26465,11.26465,11.26465,18.51954,0,10.11914-21.19239,22.52832-40.4751,22.52832-31.69238,0-45.24756-22.14649-45.24756-51.166,0-52.69336,18.519-78.6582,43.91113-78.6582,25.583,0,35.89258,23.67383,35.89258,44.4834,0,9.7373-1.14551,18.13769-4.96386,21.76562C781.86546,97.6269,776.32884,99.15425,770.02854,99.15425Z"/><path class="cls-1" d="M564.22,101.06343c0-27.49219,1.33643-52.50293,2.1001-65.48536.38183-5.15429,4.00927-6.873,10.6914-6.873,7.63672,0,18.32813,2.291,19.28272,8.40039.57275,3.24609.76367,9.7373.76367,17.374,0,17.18262-.95459,40.85645-.95459,51.73926,0,22.71875,4.39111,25.96484,10.88232,25.96484,6.68213,0,11.26416-3.4375,11.26416-24.05664,0-9.16406,0-53.83789.95459-73.12109.38184-4.582,3.81836-5.918,8.97315-5.918,7.63672,0,18.71,3.81836,19.47363,9.54492,1.52735,11.26465,2.291,32.64746,2.291,49.83008,0,54.60254-13.7461,69.876-42.57471,69.876C578.92063,158.33882,564.22,144.21089,564.22,101.06343Z"/><path class="cls-1" d="M452.91429,104.88178c0-46.39355,18.1372-76.36718,47.15673-76.36718,25.77393,0,45.05664,13.74609,45.05664,56.32129,0,42.38281-10.11865,73.50293-41.62011,73.50293C467.04222,158.33882,452.91429,134.47456,452.91429,104.88178Zm60.521-21.95605c0-20.80957-6.87305-26.15527-13.937-26.15527-8.20947,0-15.46436,13.93652-15.46436,42.95605,0,20.04688,6.3003,29.40234,13.17334,29.40234C507.32591,129.12885,513.43528,111.5644,513.43528,82.92573Z"/><path class="cls-1" d="M363.56272,28.5146c4.00928,0,15.46436,1.33691,18.71,6.68261,4.582,7.63672,15.8462,35.89258,21.76465,62.42969,5.53662-25.39258,13.937-52.88476,16.9917-61.666,1.52735-4.582,3.24561-7.06446,7.064-7.06446,7.064,0,16.41894,3.2461,16.41894,8.5918,0,9.73633-18.519,59.375-28.25586,82.667-.38183,10.88184-1.33642,24.05567-1.71826,27.874-.57275,6.30078-2.1001,9.73632-9.92773,9.73632-8.20948,0-18.13721-1.71777-18.519-7.06347-.38183-3.81836-.76367-16.61035-.76367-28.06543-8.78222-17.75489-29.59228-74.83985-29.59228-86.86719C355.73509,30.80561,357.83518,28.5146,363.56272,28.5146Z"/></g></g></svg>