<?xml version="1.0" encoding="utf-8"?>
<!-- Generator: Adobe Illustrator 24.1.1, SVG Export Plug-In . SVG Version: 6.00 Build 0)  -->
<svg version="1.1" id="Layer_1" xmlns="http://www.w3.org/2000/svg" xmlns:xlink="http://www.w3.org/1999/xlink" x="0px" y="0px"
	 viewBox="-10 -10 522 522" style="enable-background:new 0 0 170.1 170.1;" xml:space="preserve">
<style type="text/css">
	.st0{fill:#fff;}
</style>
<g>
	<g>
		<g>
		    <path class="st0" d="M0,512V0H512V512ZM32.71,325.984c1.775.106,2.765.218,3.755.218q77.781.014,155.561.1c3.554.009,4.848-1.686,6.292-4.358q35.133-65.041,70.415-130c.805-1.485,1.672-2.936,2.51-4.4l1.051.4V326.323h20.8V314.244c3.635,3.337,6.638,7.052,10.466,9.449,20.552,12.87,49.058,5.065,59.583-16.7,9.758-20.182,9.713-41.021.426-61.363-12.89-28.235-52.328-31.975-68.395-9.506-.1.135-.545.017-1.248.017V185.583c-1.857-.122-3.318-.3-4.78-.3q-88.033-.021-176.068-.119c-3.746-.009-5.234,1.665-6.759,4.487q-35.491,65.7-71.091,131.342C34.452,322.422,33.759,323.9,32.71,325.984ZM450.7,288.351c-.569,2.135-.953,3.751-1.431,5.339-3.307,10.983-10.255,16.863-20.937,17.748-9.946.823-18.612-4.108-23.048-14.19-6.424-14.6-6.216-29.558.18-44.092,4.246-9.647,13.458-14.4,24.015-13.7,10.7.719,17.7,5.955,20.638,16.463a4.1,4.1,0,0,0,2.785,2.546c6.29.232,12.592.118,18.855.118.423-8.564-3.914-18.333-10.459-25.008-15.675-15.984-54.811-17.834-71.419,5.657-8.692,12.3-11.149,26.1-10.768,40.747.84,32.339,22.66,51.847,54.847,48.956,20.666-1.856,37.483-19.8,37.832-40.588Z"/>
    		<path class="st0" d="M348,276.517c-.514,7.028-1.841,15.012-5.258,21.99-7.809,15.946-30.332,17.649-41.488,3.715-10.26-12.816-10.818-39.775-1.008-52.9,5.949-7.961,14.148-10.739,23.772-9.664,10.68,1.193,17.08,7.989,20.631,17.364A53.266,53.266,0,0,1,348,276.517Z"/>
		</g>
	</g>
</g>
</svg>
