<?xml version="1.0" encoding="utf-8"?>
<!-- Generator: Adobe Illustrator 24.1.2, SVG Export Plug-In . SVG Version: 6.00 Build 0)  -->
<svg version="1.1" id="Layer_1" xmlns="http://www.w3.org/2000/svg" xmlns:xlink="http://www.w3.org/1999/xlink" x="0px" y="0px"
	 viewBox="0 0 100 100" style="enable-background:new 0 0 100 100;" xml:space="preserve">
<style type="text/css">
	.st0{fill:#fff;}
</style>
<g>
	<path class="st0" d="M50.1,9.8c13,0,14.6,0,19.7,0.3c4.8,0.2,7.4,1,9.1,1.7c2.3,0.9,3.9,1.9,5.6,3.7c1.7,1.7,2.8,3.3,3.7,5.6
		c0.7,1.7,1.5,4.3,1.7,9.1c0.2,5.2,0.3,6.7,0.3,19.7s0,14.6-0.3,19.7c-0.2,4.8-1,7.4-1.7,9.1c-0.9,2.3-1.9,3.9-3.7,5.6
		C82.9,86,81.2,87.1,79,88c-1.7,0.7-4.3,1.5-9.1,1.7c-5.2,0.2-6.7,0.3-19.7,0.3s-14.6,0-19.7-0.3c-4.8-0.2-7.4-1-9.1-1.7
		c-2.3-0.9-3.9-1.9-5.6-3.7C14,82.6,12.9,81,12,78.7c-0.7-1.7-1.5-4.3-1.7-9.1c-0.2-5.2-0.3-6.7-0.3-19.7s0-14.6,0.3-19.7
		c0.2-4.8,1-7.4,1.7-9.1c0.9-2.3,1.9-3.9,3.7-5.6c1.7-1.7,3.3-2.8,5.6-3.7c1.7-0.7,4.3-1.5,9.1-1.7C35.5,9.9,37.1,9.8,50.1,9.8
		 M50.1,1C36.9,1,35.2,1.1,30,1.3c-5.2,0.2-8.8,1.1-11.9,2.3c-3.2,1.2-5.9,2.9-8.7,5.6c-2.7,2.7-4.4,5.4-5.6,8.7
		c-1.2,3.1-2,6.7-2.3,11.9c-0.2,5.2-0.3,6.9-0.3,20.1c0,13.3,0.1,14.9,0.3,20.1c0.2,5.2,1.1,8.8,2.3,11.9c1.2,3.2,2.9,5.9,5.6,8.7
		c2.7,2.7,5.4,4.4,8.7,5.6c3.1,1.2,6.7,2,11.9,2.3c5.2,0.2,6.9,0.3,20.1,0.3s14.9-0.1,20.1-0.3c5.2-0.2,8.8-1.1,11.9-2.3
		c3.2-1.2,5.9-2.9,8.7-5.6c2.7-2.7,4.4-5.4,5.6-8.7c1.2-3.1,2-6.7,2.3-11.9c0.2-5.2,0.3-6.9,0.3-20.1s-0.1-14.9-0.3-20.1
		c-0.2-5.2-1.1-8.8-2.3-11.9c-1.2-3.2-2.9-5.9-5.6-8.7c-2.7-2.7-5.4-4.4-8.7-5.6c-3.1-1.2-6.7-2-11.9-2.3C65.1,1.1,63.4,1,50.1,1
		L50.1,1z"/>
	<path class="st0" d="M50.1,24.8C36.3,24.8,25,36,25,49.9S36.3,75,50.1,75s25.1-11.2,25.1-25.1S64,24.8,50.1,24.8z M50.1,66.2
		c-9,0-16.3-7.3-16.3-16.3c0-9,7.3-16.3,16.3-16.3c9,0,16.3,7.3,16.3,16.3C66.4,58.9,59.1,66.2,50.1,66.2z"/>
	<circle class="st0" cx="76.2" cy="23.8" r="5.9"/>
</g>
</svg>

