<?xml version="1.0" encoding="utf-8"?>
<!-- Generator: Adobe Illustrator 24.1.2, SVG Export Plug-In . SVG Version: 6.00 Build 0)  -->
<svg version="1.1" id="Layer_1" xmlns="http://www.w3.org/2000/svg" xmlns:xlink="http://www.w3.org/1999/xlink" x="0px" y="0px"
	 viewBox="0 0 1000 1000" style="enable-background:new 0 0 1000 1000;" xml:space="preserve">
<style type="text/css">
	.st0{fill:#fff;}
</style>
<path class="st0" d="M318.9,888.5c368.3,0,569.7-305.1,569.7-569.7c0-8.7-0.2-17.3-0.6-25.9c39.1-28.3,73.1-63.5,99.9-103.7
	c-35.9,15.9-74.5,26.7-115,31.5c41.3-24.8,73.1-64,88.1-110.8c-38.7,22.9-81.5,39.6-127.1,48.6c-36.5-38.9-88.6-63.3-146.2-63.3
	c-110.6,0-200.3,89.7-200.3,200.2c0,15.7,1.8,31,5.2,45.7c-166.4-8.4-314-88.1-412.7-209.2c-17.2,29.6-27.1,64-27.1,100.6
	c0,69.5,35.4,130.8,89.1,166.7c-32.8-1-63.7-10-90.7-25c0,0.8,0,1.7,0,2.6c0,97,69,178,160.6,196.3c-16.8,4.6-34.5,7-52.8,7
	c-12.9,0-25.4-1.3-37.6-3.6c25.5,79.6,99.4,137.4,187.1,139.1c-68.5,53.7-154.9,85.7-248.7,85.7c-16.2,0-32.1-0.9-47.8-2.8
	C100.6,855.4,205.8,888.5,318.9,888.5"/>
</svg>
