<?xml version="1.0" encoding="utf-8"?>
<!-- Generator: Adobe Illustrator 24.1.1, SVG Export Plug-In . SVG Version: 6.00 Build 0)  -->
<svg version="1.1" id="Layer_1" xmlns="http://www.w3.org/2000/svg" xmlns:xlink="http://www.w3.org/1999/xlink" x="0px" y="0px"
	 viewBox="0 0 192 192" style="enable-background:new 0 0 192 192;" xml:space="preserve">
<style type="text/css">
	.st0{fill:#fff;}
</style>
<g id="XMLID_1_">
	<g>
		<path class="st0" d="M187.5,48.7c4,15,4,46.3,4,46.3s0,31.3-4,46.3c-2.2,8.3-8.7,14.8-16.9,17c-14.9,4-74.6,4-74.6,4
			s-59.7,0-74.6-4c-8.2-2.2-14.7-8.7-16.9-17c-4-15-4-46.3-4-46.3s0-31.3,4-46.3c2.2-8.3,8.7-14.8,16.9-17c14.9-4,74.6-4,74.6-4
			s59.7,0,74.6,4C178.8,33.9,185.3,40.5,187.5,48.7z M76.5,123.4L126.4,95L76.5,66.6V123.4z"/>
	</g>
	<g>
	</g>
</g>
</svg>
