<svg xmlns="http://www.w3.org/2000/svg" viewBox="0 0 566.75592 91.362"><defs><style>.cls-1{fill:#733;}</style></defs><g id="Layer_2" data-name="Layer 2"><g id="Layer_1-2" data-name="Layer 1"><path class="cls-1" d="M17.0986,54.31461c-1.234.31424-1.851.47152-3.08467.78637,1.51845,7.3418,2.27585,11.01291,3.787,18.35562,7.42127-.96316,11.13306-1.439,18.559-2.37918.80916,4.89624,1.21311,7.34446,2.01978,12.241-4.30074,2.85672-6.44859,4.287-10.73921,7.1514-5.95969.25479-8.93941.38589-14.89859.65555-4.7686-4.6568-7.15746-6.98282-11.94425-11.6301C.478,69.649.31848,64.72583,0,54.87952,3.50417,48.544,5.26117,45.37744,8.785,39.047c5.63364-.25644,8.45058-.38135,14.08466-.62461.66518,3.94959.99734,5.92444,1.66089,9.87421,1.38563-.20343,2.0785-.305,3.46434-.50757.04309-3.77865.06479-5.668.10852-9.44665,3.32529.20532,4.98773.30914,8.31221.51907.02824,10.63586.04326,15.9538.07509,26.5896-5.94667,1.167-8.91873,1.75427-14.86034,2.93607C19.82133,62.75745,18.915,59.943,17.0986,54.31461Z"/><path class="cls-1" d="M62.79529,36.03848c5.54146,3.57309,8.308,5.36283,13.83291,8.94861.58931,10.41251.88347,15.61874,1.47077,26.03137-3.19759,7.11231-4.79135,10.6695-7.96878,17.786-7.68889.274-11.53319.41718-19.22139.71589-4.17362-4.9972-6.26467-7.494-10.45522-12.48392-.60092-9.83414-.90182-14.75119-1.50441-24.58524,2.98815-5.74276,4.486-8.61322,7.48928-14.35226C52.97935,37.2659,56.25075,36.85379,62.79529,36.03848ZM57.34753,76.73541c1.58818-.03094,2.38227-.04614,3.97045-.076a191.9802,191.9802,0,0,0-1.54381-27.97183c-1.56116.17285-2.34169.25955-3.90268.43344C56.64565,58.09915,57.0863,67.88251,57.34753,76.73541Z"/><path class="cls-1" d="M103.26334,34.69574c5.517,3.61017,8.27142,5.41846,13.77185,9.0412.51944,10.41623.77862,15.62433,1.296,26.04065-3.24506,7.0907-4.86258,10.63711-8.0875,17.73218-7.69015.22238-11.53509.33975-19.22467.58688-4.13977-5.02509-6.21388-7.53589-10.37062-12.5538-.53491-9.838-.80279-14.7569-1.33938-24.59479,3.02641-5.72257,4.54339-8.58295,7.58491-14.3017C93.43994,35.85724,96.71382,35.4671,103.26334,34.69574ZM97.543,75.35519c1.58825-.02029,2.38238-.03015,3.97064-.0494a191.992,191.992,0,0,0-1.35608-27.98154c-1.56218.16238-2.34325.24383-3.90528.40723C96.96622,56.71463,97.34122,66.50073,97.543,75.35519Z"/><path class="cls-1" d="M136.33356,56.05682c1.27517.02631,1.91275.03959,3.18786.06656.77231-7.07712,1.13578-13.20752,1.30686-21.35052,5.92447-.25507,8.88687-.379,14.81216-.61948-.48871,9.89185-.73166,14.83777-1.21466,24.72971-3.172.58645-4.7576.8807-7.9281,1.47137.08539,1.20813.12805,1.8122.21341,3.02033,3.738.26083,5.60675.3927,9.34378.65936,1.09525,5.27762,1.64175,7.91653,2.7327,13.19467-1.88645,3.66885-2.82822,5.50366-4.70871,9.174-4.83917.10443-7.2587.15912-12.09772.27335-.85959-5.88565-1.5033-11.704-1.93481-17.672-1.38819-.02469-2.08228-.03686-3.47052-.06076-.14295,5.98184-.06989,11.88614.14816,17.85919-6.36557.15589-9.54828.238-15.91351.41086-.69657-5.48428-1.04548-8.22641-1.74454-13.71051,1.47427-1.02,2.21176-1.52978,3.68728-2.54895.35929-9.25864.54007-13.88794.904-23.14654-1.64191-1.74268-2.46347-2.61371-4.1077-4.35526.22778-3.37738.34192-5.066.57062-8.44339,6.15936-.16647,9.23913-.24579,15.3988-.39655C136.1416,42.23215,136.30426,48.92648,136.33356,56.05682Z"/><path class="cls-1" d="M159.77139,71.23062c1.27521-1.20734,1.91315-1.81088,3.18964-3.01755.32892-6.66143.494-9.99218.82544-16.65359-1.76294-1.20392-2.64487-1.80557-4.40958-3.00821.67258-5.372,1.00974-8.058,1.68579-13.42978,11.00193-.65485,16.50409-.96939,27.51062-1.57437,3.88733,3.22308,5.8284,4.83615,9.70536,8.06546-.442,5.70953-.6623,8.56433-1.10175,14.274-2.456.38086-3.68378.57193-6.139.95529-.0722.9516-.10827,1.42743-.18039,2.37906,2.845.561,4.26709.8424,7.11069,1.40683.42713,5.63983.64023,8.45974,1.06571,14.09967-2.42093,4.38366-3.62909,6.57611-6.041,10.96219q-15.77229.23335-31.54361.55871C160.77954,80.24115,160.44394,77.23761,159.77139,71.23062Zm11.69449-19.74637c5.49039-.89407,10.11868-1.47818,15.83692-1.92965-.10773-1.29456-.16163-1.94184-.26941-3.23636a143.70371,143.70371,0,0,0-15.98853,2.00436C171.21335,49.58725,171.29755,50.2196,171.46588,51.48425Zm15.76331,16.1471c-5.55075.80954-10.30866,1.396-15.78867,1.92981.11072,1.29422.16605,1.94137.27667,3.23565,5.47757-.53357,10.30478-1.12106,15.924-2.00268C187.47644,69.529,187.394,68.89645,187.22919,67.63135Z"/><path class="cls-1" d="M224.829,32.29562c5.44266,3.72062,8.15979,5.584,13.58563,9.31687.30948,10.42459.46366,15.63687.77112,26.06149-3.38718,7.0239-5.07568,10.537-8.44275,17.56564-7.69217.06742-11.53818.1073-19.23013.19944-4.03726-5.10749-6.06015-7.65955-10.11444-12.76023-.33658-9.84674-.50531-14.77008-.84357-24.61679,3.14072-5.66043,4.71478-8.48965,7.87058-14.146C214.98523,33.259,218.266,32.93488,224.829,32.29562Zm-6.53757,40.536c1.58817.01172,2.3823.01786,3.97043.03061a192.0139,192.0139,0,0,0-.792-28.00323c-1.565.13089-2.34744.19659-3.91226.32849C218.0903,54.18323,218.26807,63.97488,218.29147,72.83163Z"/><path class="cls-1" d="M265.31372,32.04c5.41751,3.757,8.12207,5.63861,13.52271,9.40777.23968,10.42646.359,15.63965.59671,26.06611-3.43433,7.001-5.14649,10.50271-8.56076,17.50863-7.69257.01581-11.53885.02991-19.23136.07044-4.00284-5.13446-6.00854-7.70005-10.0285-12.82776-.27051-9.84882-.40619-14.77316-.67835-24.622,3.17856-5.63925,4.77158-8.45782,7.96518-14.09286C255.4635,32.93735,258.74637,32.63525,265.31372,32.04Zm-6.80978,40.49127c1.58822.02237,2.38235.03381,3.97055.05725a192.0898,192.0898,0,0,0-.60413-28.00793c-1.566.12036-2.349.18081-3.91482.30221C258.42786,53.882,258.53992,63.67459,258.50394,72.53131Z"/><path class="cls-1" d="M297.79541,54.28146c1.27429.06055,1.91144.09095,3.18567.15216.96152-7.05386,1.489-13.1723,1.87912-21.3078,5.9288-.09588,8.89331-.14019,14.8226-.22152-.75415,9.87518-1.12982,14.8128-1.87827,24.68823-3.18658.50107-4.77954.75262-7.96478,1.25793.0531,1.21.07968,1.815.13272,3.025,3.72962.36111,5.59412.54312,9.32263.91.95313,5.30515,1.42856,7.9578,2.37735,13.26331-1.98416,3.61691-2.97479,5.42578-4.953,9.04431-4.84036-.02551-7.26056-.03583-12.101-.05158-.70078-5.90661-1.188-11.74017-1.45908-17.71759-1.38671-.062-2.0801-.09277-3.46692-.15393-.30346,5.97586-.38946,11.88-.33129,17.85675-6.36741-.0151-9.55109-.0184-15.91852-.01657-.549-5.501-.82416-8.25155-1.3757-13.75244,1.5014-.9801,2.25241-1.46988,3.755-2.449.60748-9.24567.91245-13.86847,1.52463-23.114-1.59418-1.78613-2.39188-2.67889-3.98843-4.464.3182-3.37.47753-5.055.79663-8.425,6.16085-.001,9.24127.00238,15.40213.01706C297.97528,40.4566,297.95807,47.15292,297.79541,54.28146Z"/><path class="cls-1" d="M352.51541,48.83011c-1.24954.245-1.87421.36764-3.12347.61331,1.10672,7.415,1.65829,11.12259,2.75775,18.53809,7.46188-.54822,11.19375-.81656,18.65933-1.34159.53479,4.93375.80158,7.40064,1.33392,12.33451-4.45217,2.6127-6.67581,3.92108-11.11822,6.542-5.96338-.07761-8.94513-.11267-14.90863-.17542-4.5007-4.91525-6.75568-7.37072-11.2749-12.27746.22894-9.84882.34378-14.77323.574-24.622,3.85111-6.13049,5.78153-9.19422,9.652-15.31851,5.6376.05783,8.45639.09,14.09387.161.44415,3.98053.66583,5.97082,1.10834,9.95141,1.39432-.12588,2.09155-.18869,3.486-.31378.25354-3.77038.38046-5.65558.63462-9.42593,3.30822.39026,4.96206.58652,8.26925.98132-.5647,10.62091-.84625,15.93143-1.40735,26.55249-6.00131.834-9.00091,1.25473-14.99777,2.10367C354.76236,57.41153,354.01462,54.5509,352.51541,48.83011Z"/><path class="cls-1" d="M399.15039,33.12805c5.33313,3.87625,7.99542,5.81732,13.31146,9.70532.00849,10.42917.01215,15.64374.01862,26.07288-3.58893,6.92313-5.37842,10.386-8.94727,17.31445-7.69128-.15475-11.537-.22595-19.22857-.356-3.88825-5.222-5.83667-7.83136-9.742-13.047-.05188-9.85239-.07824-14.77853-.13171-24.63089,3.30273-5.56738,4.95782-8.34995,8.27551-13.91278C389.28259,33.8067,392.57135,33.57748,399.15039,33.12805Zm-7.70532,40.33026c1.587.05756,2.38055.08664,3.96753.14524a192.09516,192.09516,0,0,0,.017-28.01438c-1.56836.08563-2.35248.12869-3.92072.21533C391.78253,54.81189,391.67639,64.60458,391.44507,73.45831Z"/><path class="cls-1" d="M430.51276,74.79642c2.51635-5.41245,5.18036-10.74756,7.991-15.86121,4.283.11072,6.42456.168,10.7074.28635Q447.95493,73.2331,446.708,87.24545q-16.34629-.43149-32.69312-.80462c-.22229-5.65158-.33386-8.4773-.5578-14.12885,1.24793-.26086,1.87207-.39108,3.1203-.65127.71521-7.47464,1.07373-11.21189,1.79242-18.68631-1.36053-1.35593-2.04114-2.0337-3.40326-3.38886.47052-5.60742.70612-8.41116,1.17822-14.01852,9.88868-.30048,14.83393-.44059,24.72614-.70053.15344,5.24762.2298,7.87143.382,13.119-1.92987.5835-2.89459.87568-4.82349,1.46073Q431.56155,61.206,427.36938,73.4227C428.627,73.97183,429.25568,74.24661,430.51276,74.79642Z"/><path class="cls-1" d="M466.83722,75.79974c2.54925-5.39709,5.24567-10.716,8.08734-15.81247,4.28247.13669,6.42365.20694,10.70593.35129q-1.34115,14.00364-2.67321,28.00818-16.34391-.53055-32.68885-1.00287c-.18805-5.6528-.28247-8.47915-.47217-14.132,1.24958-.25326,1.87446-.3797,3.12433-.63235.7605-7.47015,1.14173-11.20514,1.9057-18.67508-1.35235-1.36417-2.02887-2.046-3.38275-3.40942.50446-5.60447.75708-8.40674,1.26319-14.01111,9.89068-.24054,14.83685-.35065,24.73089-.5506.12165,5.24844.18207,7.87265.30243,13.12109-1.93341.57178-2.9.8581-4.83246,1.43146Q467.96851,62.216,463.70215,74.407C464.95648,74.96375,465.58344,75.24231,466.83722,75.79974Z"/><path class="cls-1" d="M507.6825,71.71472c-1.41291-.11075-2.11945-.16595-3.53248-.27588-.6065,7.0391-.9093,10.55869-1.51379,17.5979-6.39264-.23468-9.589-.34774-15.98224-.56533-.17334-5.91361-.2605-8.87043-.43567-14.78406,1.39539-.24118,2.09314-.36157,3.48883-.60193-.67578-7.228-1.015-10.84192-1.69635-18.0697,3.00586-7.39063,4.513-11.085,7.53589-18.47187,7.69794.27109,11.54682.41278,19.24408.70844,4.35736,4.6926,6.53174,7.04086,10.87189,11.74127-1.84131,8.94837-2.75916,13.42291-4.58942,22.37262,1.62744,1.99579,2.44043,2.994,4.06507,4.99085-.59351,5.39529-.88984,8.093-1.48157,13.4884-6.30573-.25369-9.45874-.37637-15.76489-.61344C507.80908,82.2251,507.76721,78.72165,507.6825,71.71472Zm.08789-10.08484c.35241-5.53564.50347-9.565.57055-15.255-1.36285-.051-2.04431-.07626-3.40722-.12647a107.2154,107.2154,0,0,0-.56189,15.25531C505.73126,61.5538,506.411,61.579,507.77039,61.62988Z"/><path class="cls-1" d="M526.50189,74.89929c1.34686-1.12713,2.02057-1.69055,3.36865-2.81692.73572-6.62888,1.10425-9.9433,1.84253-16.572-1.68634-1.30948-2.53-1.96387-4.21814-3.27216.99945-5.32086,1.5-7.9812,2.50287-13.30164,11.02344.019,16.53589.041,27.56165.11039,3.6839,3.45468,5.52319,5.18341,9.19647,8.6437-.79065,5.67182-1.18536,8.50779-1.97351,14.17981-2.4751.23-3.71246.34571-6.18689.57828-.13025.94541-.19537,1.41812-.32556,2.36353,2.806.73391,4.20868,1.10171,7.01318,1.83893.08185,5.65539.12232,8.48306.20252,14.13845-2.68537,4.22742-4.02576,6.34189-6.70221,10.5723q-15.75988-.73119-31.52442-1.37054C526.95758,83.95456,526.80609,80.93613,526.50189,74.89929Zm12.88117-18.99457c5.53576-.55676,10.192-.85684,15.9284-.95791-.02813-1.29871-.04229-1.94809-.07062-3.24677a143.74244,143.74244,0,0,0-16.08435,1.02323C539.24719,53.99585,539.29254,54.63214,539.38306,55.90472ZM554.134,72.98526c-5.59161.46869-10.37689.76321-15.8808.961.03144,1.29858.04718,1.94794.07843,3.24652,5.501-.19772,10.356-.489,16.01935-1.02551C554.26422,74.89447,554.22083,74.25809,554.134,72.98526Z"/><path class="cls-1" d="M21.7037,5.25046c1.87714,2.15274,2.8149,3.22949,4.6888,5.3837-.27518,4.88281-.41231,7.32424-.68556,12.20709-1.42293,3.56262-2.13324,5.34408-3.55161,8.90753-4.65081.20114-6.97615.30395-11.62666.514-1.48389-2.22476-2.2265-3.33689-3.713-5.56073.09159-4.68839.1377-7.0326.23047-11.721,1.61719-3.28806,2.427-4.93179,4.04886-8.21878C15.33765,6.15387,17.45938,5.85147,21.7037,5.25046Zm-.135,19.67749c.4323-5.841.64928-8.76145,1.08487-14.60233-2.94147-.78137-4.41271-1.17114-7.35622-1.94894-1.49629,1.53634-2.244,2.30475-3.73834,3.842-.26883,6.38254-.40251,9.57376-.66843,15.95627,3.03287.36767,4.549.55249,7.58078.924C19.7094,27.43021,20.32886,26.596,21.56868,24.928Z"/><path class="cls-1" d="M38.13469,31.079c-2.6888.10913-4.03316.16446-6.72185.27661a220.91685,220.91685,0,0,1,2.5947-24.53363c-1.74986-.60519-2.625-.90747-4.37581-1.51138.24071-.88938.3611-1.334.602-2.22336,1.61475-.21121,2.42215-.31659,4.03712-.52673,1.29729.95541,1.94568,1.43331,3.24195,2.38943-1.19939,9.01141-1.79621,13.51724-2.984,22.52921,1.57635.42535,2.36438.6383,3.94012,1.06469C38.33514,29.55783,38.26831,30.06488,38.13469,31.079Z"/><path class="cls-1" d="M49.245,30.63815c-2.44206.09464-3.66309.14258-6.10507.23969.123-6.05753.58871-11.767,1.29252-17.991-1.61473-.58487-2.4223-.87707-4.03785-1.46085.12754-.8265.19134-1.23971.319-2.06619,2.96122-.11853,4.44186-.17688,7.40319-.29178-.75056,5.50473-1.12477,8.25714-1.871,13.76209C47.44684,25.953,48.04668,27.51465,49.245,30.63815Zm-4.76946-24.994c-.57759-1.30289-.86654-1.95429-1.44471-3.257.93377-.80085,1.40081-1.20121,2.3352-2.00168,1.30472.43908,1.95693.65881,3.26114,1.09857-.14885,1.44668-.22319,2.17-.37179,3.6167C46.74327,5.31763,45.98732,5.4263,44.47549,5.64417Z"/><path class="cls-1" d="M65.31221,30.037c-3.08174.1112-4.6226.16778-7.70422.28293-1.68079-1.73844-2.52179-2.6074-4.205-4.34467.235-3.3942.668-7.33737,1.528-13.56558-1.53944-.56156-2.30936-.84207-3.84955-1.40265.129-.82626.19353-1.23935.32263-2.06561,2.97583-.11383,4.46378-.16987,7.4397-.28-.94665,5.00622-1.72052,9.68191-2.31192,14.31475.83232,1.59687,1.2482,2.39539,2.0795,3.99256,1.72909.28128,2.59355.42224,4.32219.70474,1.13156-7.70611,1.69957-11.55908,2.8401-19.26468,1.02117-.03665,1.53176-.05484,2.55292-.09106.4595,1.42447.68913,2.13669,1.14813,3.56125C67.804,19.14157,66.97148,22.77316,65.31221,30.037Z"/><path class="cls-1" d="M76.65051,23.04672c.76816,1.58759,1.152,2.38144,1.91921,3.96927a45.193,45.193,0,0,0,12.12855-4.32446c.57936,1.26385.86891,1.89578,1.44771,3.15976-2.37343,1.38586-3.55949,2.07937-5.93024,3.46756-3.98349.12994-5.97519.19656-9.95849.33307-1.22919-2.32059-1.84436-3.48072-3.07578-5.80069.0255-4.2941.03841-6.44117.06452-10.73526,4.25128-2.40934,6.379-3.61209,10.63853-6.01395,2.18836.36032,3.28235.54092,5.47.90323.605,3.3945.90721,5.09177,1.51087,8.48642A60.57184,60.57184,0,0,1,76.65051,23.04672Zm.682-2.43579a118.8835,118.8835,0,0,1,11.04866-5.40768c-.91472-2.13144-1.37245-3.19709-2.28868-5.32819a111.75712,111.75712,0,0,0-10.576,5.6113C76.24344,17.53607,76.60666,18.561,77.33249,20.61093Z"/><path class="cls-1" d="M98.63559,10.92007c-1.53548-.57263-2.30338-.8587-3.8396-1.43035.135-.82532.20245-1.23795.33752-2.06324,2.61161-.081,3.91744-.12088,6.52912-.19909-.37082,2.24374-.556,3.36566-.926,5.60943.7199.1655,1.07981.24832,1.79961.414,1.13779-2.45379,1.70729-3.68051,2.8475-6.13378,1.2549-.03681,1.88234-.05506,3.13724-.09122-.63466,2.8128-.9516,4.21924-1.58461,7.03222-2.48364.86448-3.72507,1.29731-6.207,2.16431.51654,5.04059.77445,7.561,1.28948,12.60169-2.13732.06411-3.206.09665-5.34323.16265C96.93539,24.4404,97.40593,19.67252,98.63559,10.92007Z"/><path class="cls-1" d="M115.607,11.97522c-1.35363-.40918-2.03057-.61362-3.38469-1.02206,1.236-2.224,1.8547-3.33588,3.0931-5.5593-1.2681.09256-1.90213.139-3.17015.23221-.45738-1.197-.68619-1.79538-1.144-2.99225C112.0965,1.58,112.64439,1.05328,113.74063,0c1.64084.64545,2.46106.96848,4.101,1.61505C116.946,5.759,116.49911,7.831,115.607,11.97522Z"/><path class="cls-1" d="M121.91229,10.25562c1.53006-1.72571,2.29566-2.58832,3.82791-4.31305,2.67972.27581,4.01944.41446,6.69843.69326,1.85913,1.36515,2.78815,2.048,4.64517,3.41462-.35843.873-.53754,1.30941-.89569,2.18246A79.78717,79.78717,0,0,1,126.0397,9.03055c-.72863,1.73315-1.09265,2.59976-1.82019,4.33313a72.19358,72.19358,0,0,0,11.92609,4.63074c-.15149,2.75488-.22711,4.13232-.37808,6.8872-1.36713,1.24311-2.05033,1.86484-3.416,3.10871-2.44287.061-3.66428.09213-6.10712.15561-2.01266-1.3017-3.01959-1.95209-5.03445-3.25211.48059-1.07886.721-1.61832,1.20209-2.69708,3.23684,1.21026,6.39337,2.24545,9.50848,3.1033.60773-1.8873.91184-2.83087,1.52057-4.718a93.24563,93.24563,0,0,1-11.30093-4.49936C122.049,13.75183,122.00345,12.58643,121.91229,10.25562Z"/></g></g></svg>