<svg xmlns="http://www.w3.org/2000/svg" viewBox="0 0 348.6576 56.12424"><defs><style>.cls-1{fill:#000;}</style></defs><g id="Layer_2" data-name="Layer 2"><g id="Layer_1-2" data-name="Layer 1"><path class="cls-1" d="M16.62616,28.42627c-3.49785-.26019-5.24719-.38825-8.74667-.64023C6.46208,36.05191,5.75832,40.18518,4.36067,48.4523,7.11,50.066,8.48309,50.87411,11.22626,52.49292c3.00994-2.49408,4.51745-3.73962,7.53756-6.22754,1.05927,1.37546,1.58842,2.06332,2.64579,3.43952-2.59133,2.3973-3.88488,3.59713-6.46772,5.999-3.78168.16327-5.67245.24734-9.4538.42035C3.29675,53.40134,2.19913,52.04071,0,49.32108.862,41.98273,1.296,38.31369,2.17,30.9758c1.73328-2.63687,2.60152-3.9548,4.34125-6.58963,4.0825-.37958,6.12412-.56656,10.20808-.93491,1.9161,1.35685,2.87329,2.03592,4.78589,3.39521-.67564,4.25265-1.01225,6.379-1.683,10.632-1.19855-.10995-1.79787-.16473-2.99665-.27374C16.74561,33.69333,16.70573,31.93765,16.62616,28.42627Z"/><path class="cls-1" d="M40.75491,22.02423c2.21456,2.67151,3.31992,4.00809,5.52674,6.68289-.36521,6.01084-.54666,9.01624-.90725,15.02713-1.71227,4.3722-2.56568,6.55878-4.267,10.933-5.50172.19839-8.25243.30273-13.75356.52169-1.74547-2.753-2.61975-4.129-4.37142-6.87985.126-5.77423.18976-8.66134.31861-14.43558,1.9316-4.03677,2.90021-6.05453,4.84306-10.08874C33.18639,23.07193,35.70858,22.71988,40.75491,22.02423Zm-.296,24.23639c.551-7.19037.8284-10.78552,1.38722-17.97571-3.4855-.99374-5.22949-1.48855-8.72-2.47412-1.78553,1.878-2.67715,2.81748-4.45809,4.69757-.35071,7.85932-.52432,11.789-.86807,19.64829,3.588.479,5.38123.72067,8.96643,1.2084C38.24128,49.32254,38.97977,48.30164,40.45887,46.26062Z"/><path class="cls-1" d="M66.51122,21.19049c2.19586,2.6868,3.29187,4.031,5.48,6.721-.40685,6.00818-.60909,9.01224-1.01132,15.02048-1.74247,4.36023-2.611,6.54086-4.3425,10.9031-5.50264.16025-8.25386.24552-13.756.42633-1.72623-2.765-2.5909-4.147-4.32333-6.91.166-5.77322.24977-8.65979.41863-14.433,1.9594-4.02329,2.94192-6.03427,4.91255-10.05494C58.936,22.1857,61.46046,21.85114,66.51122,21.19049Zm-.464,24.23377c.60076-7.18638.90311-10.77952,1.51171-17.96564-3.47834-1.01792-5.21875-1.52481-8.70211-2.53455-1.79839,1.86554-2.69645,2.79883-4.49027,4.66654-.40514,7.85669-.606,11.785-1.00417,19.64181,3.58431.50385,5.37577.758,8.95729,1.27054C63.80857,48.4707,64.55408,47.455,66.0472,45.42426Z"/><path class="cls-1" d="M80.36852,35.89627c2.73-.069,4.09506-.10223,6.82518-.16617,1.18524-2.54712,1.77893-3.82046,2.96843-6.36661-.23062-3.31231-.34608-4.96844-.57741-8.28073,2.35924-.05352,3.53887-.07937,5.89817-.12915-.554,4.18082-.83,6.27127-1.38036,10.4523-1.92145,2.40082-2.8806,3.60187-4.79573,6.00516,2.14313,2.275,3.21306,3.41324,5.34967,5.69129-.2418,4.01455-.36226,6.02182-.60228,10.03643-2.1154.04584-3.17308.06952-5.28842.11841.54756-3.11728.822-4.67584,1.37216-7.79294-.47363-1.86975-.71071-2.80459-1.18544-4.67419-3.221-.423-4.832-.63266-8.055-1.04861-.65615,5.4989-.98273,8.24841-1.633,13.74758-2.27.05832-3.40492.08835-5.6748.15018-.23119-1.5376-.34688-2.30636-.57846-3.8439.96516-.61176,1.44793-.91751,2.41389-1.52863.7778-8.30664,1.16948-12.45984,1.9585-20.76608-.89459-1.07666-1.3422-1.61484-2.23807-2.691.24144-1.35489.36231-2.03232.60425-3.38718,2.28992-.06048,3.4349-.08987,5.72488-.14682C81.0299,27.12381,80.80866,30.048,80.36852,35.89627Z"/><path class="cls-1" d="M118.09959,49.902c-1.94541,1.14709-2.91738,1.72128-4.85981,2.87094-6.58738.10846-9.881.17-16.468.30795-.41477-1.72992-.62238-2.59485-1.038-4.32464.84522-.763,1.26805-1.14435,2.11415-1.90683,1.37461-7.72736,2.06589-11.5907,3.4565-19.31678-1.26552-.93319-1.89868-1.3995-3.16577-2.33163.4901-1.46494.73541-2.19739,1.22653-3.66214,6.75948-.40167,10.13994-.59479,16.90225-.9657,1.185,2.55371,1.77657,3.83081,2.95765,6.38547-1.52334,3.60553-2.2831,5.40866-3.7988,9.01575,1.5643,1.66058,2.34556,2.4913,3.90637,4.15353C118.838,44.03748,118.59138,45.99231,118.09959,49.902Zm-4.40706-11.59394c-4.19582.0683-6.29367.10541-10.48934.18561-.48983,4.19593-.73393,6.29389-1.22055,10.49,4.44875.2504,6.67266.379,11.11956.64279.87023-2.56887,1.30615-3.85321,2.17955-6.4216C114.64687,41.246,114.329,40.26666,113.69253,38.30807Zm-8.32842-13.73583c-.48225,3.92935-.72264,5.894-1.202,9.82354,3.16964.27747,4.75413.41791,7.92244.70215,1.113-2.715,1.67054-4.0722,2.78776-6.78635-.6959-1.284-1.04413-1.92587-1.74121-3.2095C110.02483,24.8869,108.47144,24.78091,105.36411,24.57224Z"/><path class="cls-1" d="M139.93826,19.79425c2.14215,2.72965,3.21128,4.09528,5.34562,6.828-.52542,5.999-.787,8.99845-1.30777,14.99759-1.82809,4.32495-2.73941,6.488-4.55662,10.81519-5.50421.05148-8.25629.08237-13.76033.15442-1.67107-2.79859-2.50818-4.19739-4.18549-6.99408.28005-5.76883.42075-8.6532.70361-14.42194,2.03826-3.98376,3.0602-5.975,5.10965-9.9559C132.34563,20.63959,134.87591,20.355,139.93826,19.79425Zm-.94262,24.21988c.74253-7.1731,1.11577-10.75958,1.86618-17.93228-3.45723-1.08643-5.18713-1.62763-8.64949-2.706-1.83471,1.82966-2.75091,2.745-4.5811,4.57691-.56022,7.84714-.83859,11.77078-1.39186,19.61816,3.57324.57459,5.35915.864,8.92948,1.44727C136.69747,47.01578,137.46284,46.015,138.99564,44.01413Z"/><path class="cls-1" d="M165.7044,19.64819c2.12315,2.74445,3.18278,4.11747,5.29811,6.86493-.567,5.99515-.84933,8.99277-1.41171,14.98816-1.858,4.31217-2.78429,6.46884-4.63143,10.78333-5.50439.01336-8.25659.02517-13.76091.059-1.65161-2.81009-2.479-4.21469-4.13685-7.02292.32-5.76675.48071-8.65009.80356-14.41675,2.06579-3.96954,3.1015-5.95358,5.17849-9.92023C158.10618,20.44089,160.63831,20.1738,165.7044,19.64819ZM164.59389,43.861c.79223-7.16781,1.19033-10.75158,1.99044-17.91894-3.44959-1.11035-5.17566-1.66355-8.63042-2.76587-1.84733,1.81686-2.76985,2.72586-4.61265,4.545-.61463,7.84308-.92019,11.76468-1.52784,19.608,3.56913.59934,5.353.90119,8.91913,1.50916C162.275,46.84662,163.04726,45.85114,164.59389,43.861Z"/><path class="cls-1" d="M179.163,34.7186c2.73067.00387,4.096.00708,6.82668.016,1.25273-2.51459,1.88016-3.77164,3.1371-6.28513-.14212-3.31732-.21333-4.976-.35614-8.29321,2.35966.00943,3.53949.01511,5.89917.02829-.66532,4.16455-.99707,6.24692-1.65879,10.41177-1.98471,2.34867-2.97552,3.52372-4.954,5.875,2.08153,2.33133,3.12062,3.49778,5.19557,5.832-.34881,4.00668-.52279,6.01-.86978,10.01681-2.11575-.01062-3.17363-.01517-5.2894-.02277.6305-3.10156.9464-4.65225,1.5795-7.75357-.42354-1.88171-.63557-2.82257-1.06021-4.70416-3.20837-.50876-4.8131-.76138-8.02364-1.26321-.80259,5.47946-1.20239,8.21927-1.99905,13.69916-2.27052-.00229-3.40578-.00257-5.6763-.00135-.19006-1.54321-.2852-2.31479-.47565-3.858.98105-.58578,1.47177-.87854,2.4536-1.46365.99909-8.28293,1.50144-12.42423,2.51178-20.70645-.86546-1.10016-1.29851-1.65012-2.16525-2.74976.27749-1.348.41638-2.02194.69438-3.36987,2.29051.00064,3.43579.00186,5.7263.006C180.05825,25.96689,179.75906,28.88409,179.163,34.7186Z"/><path class="cls-1" d="M222.88651,25.4165c-3.47748-.45413-5.2167-.67916-8.69616-1.12515-1.87427,8.17438-2.80646,12.26218-4.661,20.43891,2.6549,1.76391,3.9808,2.64709,6.62939,4.41577,3.14331-2.323,4.71747-3.48288,7.87067-5.7992.98083,1.43216,1.47076,2.14838,2.44967,3.58118-2.72,2.24966-4.07791,3.37579-6.78961,5.63043-3.78409-.047-5.67615-.06811-9.46036-.10544-2.03619-2.84045-3.05624-4.26-5.10034-7.09756,1.26782-7.27915,1.90479-10.9184,3.1846-18.19644,1.87683-2.5365,2.81684-3.80417,4.7-6.33829,4.09632-.15219,6.14472-.22546,10.242-.36636,1.83737,1.46118,2.75516,2.19238,4.58893,3.65585-.91071,4.20853-1.36487,6.31293-2.27079,10.522-1.19033-.17639-1.78558-.26434-2.97619-.43979C222.71287,30.68207,222.77067,28.92688,222.88651,25.4165Z"/><path class="cls-1" d="M247.3299,20.36478c2.0625,2.79037,3.09177,4.18634,5.14636,6.97958-.69854,5.98126-1.04666,8.97192-1.74057,14.95352-1.95233,4.2703-2.92578,6.40613-4.86727,10.679-5.50364-.10755-8.25553-.15616-13.75946-.24314-1.5896-2.84567-2.386-4.26809-3.98179-7.11206.44654-5.75833.67054-8.63742,1.12-14.3956,2.15253-3.92321,3.23157-5.88406,5.39526-9.80413C239.71577,20.99042,242.25327,20.779,247.3299,20.36478Zm-1.642,24.18249c.94944-7.14865,1.42618-10.72284,2.38352-17.87085-3.42453-1.18585-5.13815-1.77679-8.568-2.95474-1.88687,1.77588-2.82917,2.6644-4.71155,4.44266-.78674,7.82769-1.17841,11.74164-1.95807,19.56973,3.55521.67758,5.33206,1.01849,8.88419,1.70462C243.30393,47.48126,244.09791,46.503,245.68793,44.54727Z"/><path class="cls-1" d="M273.114,53.61008c-8.15112-.21961-12.227-.31812-20.37894-.49262-.11605-1.81222-.17413-2.71829-.29055-4.53052.93383-.175,1.40081-.26245,2.3349-.43692,1.35662-8.43252,2.03836-12.64849,3.40847-21.07977-.66668-1.16815-1.00033-1.7521-1.66809-2.91995.40937-1.25055.61423-1.87579,1.02427-3.12619,4.21572.09491,6.32357.14535,10.53909.25223-.32868,1.32214-.49286,1.98321-.821,3.30539-1.53958.529-2.30908.79394-3.84753,1.32452-1.895,8.84286-2.83743,13.26492-4.71222,22.11017,3.52426,1.10977,5.28513,1.66678,8.80429,2.785,2.33325-5.76,3.50418-8.63907,5.85465-14.39535.99871.15109,1.498.22683,2.49652.37863C274.75614,43.51443,274.20734,46.87952,273.114,53.61008Z"/><path class="cls-1" d="M296.50019,54.31445c-8.15-.27139-12.22525-.39578-20.37625-.62207-.10452-1.81289-.15686-2.71933-.26178-4.53225.93518-.16913,1.40277-.25354,2.3382-.42209,1.41-8.42374,2.1184-12.63529,3.54193-21.05768-.65931-1.17236-.98926-1.75845-1.64963-2.93051.41733-1.2479.62616-1.87183,1.04413-3.1196,4.21521.12167,6.32278.18552,10.53772.31915-.33707,1.32-.50543,1.98-.842,3.30011-1.543.51923-2.31418.77927-3.856,1.30008-1.95117,8.83063-2.92169,13.24661-4.85272,22.07974,3.51727,1.13214,5.27466,1.70035,8.7868,2.84085,2.36987-5.745,3.55914-8.61663,5.9462-14.35784.998.15744,1.49689.23635,2.49466.39447C298.20673,44.22943,297.63651,47.591,296.50019,54.31445Z"/><path class="cls-1" d="M316.94874,42.00574c-4.2013-.37574-6.30234-.56061-10.50519-.92438-1.00555,5.395-1.50687,8.09262-2.50644,13.48825-2.1322-.07532-3.1983-.11221-5.3306-.18442.12418-1.62869.18628-2.44308.31058-4.07174,1.033-.994,1.54987-1.49088,2.5842-2.4842.69257-6.56021,1.03989-9.84024,1.73663-16.40014,2.39978-3.73169,3.6026-5.59656,6.014-9.32434,4.37518.99353,6.56146,1.49356,10.93133,2.5.97754,2.50558,1.4654,3.75851,2.43937,6.26474-1.13172,7.4631-1.69547,11.19482-2.81876,18.65872,1.26276.77786,1.8938,1.167,3.15524,1.946-.47476,1.50739-.71191,2.26111-1.18582,3.76865-2.54419-.10221-3.81631-.15222-6.36062-.25C316.02558,49.79785,316.33283,47.20044,316.94874,42.00574Zm-10.97656-4.66809c4.92376.63742,7.38476.9602,12.305,1.614.06058-4.20419.09073-6.30627.15072-10.5105-3.46679-.49045-5.20062-.73367-8.66931-1.216-1.31814,2.36575-1.97625,3.54892-3.29043,5.91583C306.2696,34.81958,306.17039,35.659,305.97218,37.33765Z"/><path class="cls-1" d="M346.11552,53.50436c-2.01291,1.02463-3.01862,1.53763-5.02866,2.565-6.58313-.299-9.87494-.4412-16.459-.71082-.3071-1.75223-.46088-2.62836-.76886-4.38052.89108-.70929,1.33682-1.06375,2.22879-1.77246,1.84988-7.6276,2.7788-11.44083,4.64465-19.06613-1.206-1.00968-1.80942-1.51423-3.01706-2.52292.5802-1.43183.87054-2.14771,1.45175-3.57929,6.77231.017,10.15885.03324,16.93253.08115,1.02517,2.6221,1.53674,3.93332,2.558,6.55612-1.74371,3.50443-2.61368,5.25714-4.34982,8.76361,1.459,1.75412,2.18759,2.63156,3.643,4.38712C347.21525,47.69672,346.84818,49.63254,346.11552,53.50436Zm-3.6829-11.8442c-4.19274-.19126-6.28924-.28391-10.48239-.46323-.74856,4.15759-1.12207,6.23645-1.8674,10.39441,4.42551.525,6.63767.7908,11.06073,1.329,1.02741-2.51016,1.54187-3.76511,2.57239-6.27457C343.20344,44.65146,342.94675,43.65433,342.43262,41.66016Zm-7.465-14.22446c-.72434,3.892-1.08579,5.8381-1.80722,9.73044,3.14721.4729,4.72043.711,7.866,1.19061,1.27878-2.641,1.91919-3.96115,3.20215-6.601-.61535-1.32453-.92334-1.98673-1.53985-3.311C339.6009,28.0379,338.05668,27.83609,334.9676,27.4357Z"/><path class="cls-1" d="M11.09145,3.22775c1.12327,1.32688,1.68443,1.99054,2.80577,3.31824-.15889,3.00711-.238,4.51068-.39576,7.51779-.846,2.19345-1.26828,3.29028-2.11152,5.48419-2.77731.12143-4.16592.18341-6.943.31-.88875-1.37106-1.33352-2.05646-2.22382-3.427.04964-2.88766.07465-4.33151.125-7.21918.96218-2.02365,1.444-3.03528,2.409-5.05832C7.2903,3.78107,8.55719,3.59592,11.09145,3.22775Zm-.05916,12.11911c.25171-3.59713.37807-5.39566.63176-8.99276C9.90648,5.87143,9.0274,5.63062,7.2686,5.15c-.892.94541-1.33774,1.41822-2.2286,2.36414-.15351,3.93033-.22983,5.89551-.38161,9.82584,1.81177.22842,2.7175.3432,4.52858.57382C9.92457,16.88687,10.29363,16.37344,11.03229,15.34686Z"/><path class="cls-1" d="M21.0421,19.13858c-1.60593.066-2.40887.09949-4.01474.16724A140.10511,140.10511,0,0,1,18.55087,4.19714C17.50519,3.82352,16.98222,3.6369,15.936,3.264c.14262-.54752.214-.82126.35669-1.36878.96438-.12945,1.4466-.194,2.4111-.32281.77578.589,1.16351.88357,1.93866,1.473-.70663,5.54983-1.05822,8.3248-1.758,13.875.94195.26257,1.41285.394,2.35443.65713C21.16015,18.2019,21.12078,18.51416,21.0421,19.13858Z"/><path class="cls-1" d="M27.77728,18.86777c-1.45823.05731-2.18734.08633-3.64554.14508.06706-3.7302.33915-7.2468.753-11.07968-.965-.361-1.44764-.54129-2.41315-.90161.07538-.50895.1131-.7634.18854-1.27234,1.76824-.07166,2.65238-.107,4.42069-.17655-.44249,3.3898-.66309,5.08472-1.103,8.47467C26.69844,15.98135,27.05833,16.94342,27.77728,18.86777ZM24.90255,3.47205c-.34618-.80243-.51937-1.20365-.8659-2.006.55658-.493.83495-.73944,1.3919-1.23223.77972.27081,1.1695.40631,1.94892.67752-.08741.8912-.13107,1.33679-.21834,2.228C26.25644,3.27213,25.80511,3.33868,24.90255,3.47205Z"/><path class="cls-1" d="M37.47183,18.49942c-1.84051.06754-2.76076.10187-4.60122.17169-1.00555-1.0712-1.50868-1.60666-2.51564-2.67718.13681-2.09073.39137-4.51926.8985-8.35477-.92-.34634-1.3801-.51935-2.30053-.86511.07607-.50879.11414-.76319.19028-1.272,1.77715-.06894,2.66575-.10288,4.443-.16971-.55992,3.08267-1.0173,5.96231-1.3654,8.8154.49863.98367.74779,1.47552,1.24581,2.45935,1.03293.174,1.54931.26126,2.582.436.66759-4.74573,1.00272-7.11859,1.67567-11.864.60994-.02225.91492-.03333,1.52487-.05533.27585.87729.41369,1.316.68924,2.19333C38.94832,11.7897,38.455,14.02615,37.47183,18.49942Z"/><path class="cls-1" d="M44.32962,14.19424c.46042.97788.69049,1.46689,1.15035,2.44492a26.37314,26.37314,0,0,0,7.2388-2.661c.34724.77856.52078,1.16782.86769,1.94644-1.41581.85321-2.12333,1.28015-3.53753,2.13471-2.37892.07922-3.56835.11978-5.94718.20282-.73654-1.42981-1.10515-2.14466-1.843-3.57407.01091-2.64453.01645-3.9668.02773-6.6113,2.53639-1.48251,3.80581-2.22272,6.34715-3.70093,1.30716.22229,1.96063.33371,3.26735.55716.36491,2.09067.54716,3.136.91124,5.22678A35.59354,35.59354,0,0,1,44.32962,14.19424Zm.405-1.50027a69.85623,69.85623,0,0,1,6.59273-3.32788c-.54851-1.31311-.823-1.96961-1.37242-3.2825a66.045,66.045,0,0,0-6.30977,3.45413C44.08129,10.80014,44.29918,11.4314,44.73463,12.694Z"/><path class="cls-1" d="M57.5456,6.72626c-.91747-.35279-1.37632-.52906-2.29423-.88129.07965-.50824.11949-.76236.19921-1.2706,1.5597-.0495,2.33955-.07382,3.89929-.1217-.2192,1.38192-.32868,2.0729-.5474,3.45486.43013.102.64518.153,1.07525.25519.67681-1.51117,1.01558-2.26669,1.69384-3.77756.74936-.02255,1.12405-.03375,1.87342-.05591-.3761,1.73212-.5639,2.59821-.939,4.33042-1.48225.53238-2.22313.79895-3.70436,1.33279.31356,3.10456.47012,4.65686.78278,7.76151-1.27635.03921-1.91451.05911-3.19083.09942C56.54387,15.05344,56.82013,12.11652,57.5456,6.72626Z"/><path class="cls-1" d="M67.77044,7.37485c-.80872-.25171-1.21314-.37747-2.02216-.6287.73592-1.3699,1.10421-2.05474,1.84153-3.42431-.7574.05716-1.13607.08578-1.89342.14331-.27419-.73728-.41132-1.10587-.68576-1.84308.653-.649.97967-.97339,1.63328-1.62207.9805.3974,1.47061.59628,2.45058.99432C68.56385,3.54642,68.299,4.82254,67.77044,7.37485Z"/><path class="cls-1" d="M71.63627,6.31339c.91214-1.06287,1.36854-1.59412,2.282-2.65644,1.60046.17011,2.40059.25559,4.00062.4274,1.11162.84082,1.6671,1.26141,2.77745,2.10306-.213.5375-.3195.80624-.53238,1.34378a46.59227,46.59227,0,0,1-6.06373-1.97226c-.43354,1.06741-.65013,1.60113-1.083,2.66867a42.35368,42.35368,0,0,0,7.12715,2.85193c-.08784,1.69684-.13168,2.54523-.21921,4.24206-.8152.76575-1.22261,1.14869-2.037,1.91486-1.45891.03766-2.18837.05682-3.64725.09592-1.20316-.80161-1.80507-1.20218-3.00954-2.00284.28594-.66437.429-.99652.71517-1.66083,1.93411.74515,3.82045,1.38269,5.68107,1.91089.36125-1.16241.542-1.74359.90387-2.90594A54.78471,54.78471,0,0,1,71.77827,9.9025C71.72149,8.46686,71.69309,7.749,71.63627,6.31339Z"/></g></g></svg>