<svg id="Layer_1" data-name="Layer 1" xmlns="http://www.w3.org/2000/svg" viewBox="0 0 543.45801 94.55226"><defs><style>.cls-1{fill:#231f20;}</style></defs><path class="cls-1" d="M51.6167,67.48158l-.13135-.92578,14.376-2.03955.13135.92578-7.14161,1.3462Zm11.50342,40.75293-6.02588-42.4746,3.104-.44043,6.02588,42.4746Zm8.63623-2.16943.13135.92578-14.376,2.03955-.13135-.92578,7.08692-1.33887Z" transform="translate(-51.48535 -55.9352)"/><path class="cls-1" d="M101.98584,60.27846l1.62939,14.59473-.98388.10986-2.86768-13.294-26.12793,2.917L73.771,78.20522l-.9292.104L71.21191,63.71449ZM82.80518,105.58705l-.10987-.98388,8.55078-1.23145,8.55762-.6792.10986.98389Zm6.99609-.78125L85.041,62.17055l3.061-.3418L92.8623,104.464Z" transform="translate(-51.48535 -55.9352)"/><path class="cls-1" d="M110.40869,70.3517l1.3208-6.46191a4.085,4.085,0,0,1-1.66015-.0503,1.7227,1.7227,0,0,1-1.02979-.73974,2.51486,2.51486,0,0,1-.40283-1.15234,2.26719,2.26719,0,0,1,.51855-1.67286,2.32319,2.32319,0,0,1,3.28809-.28271,2.2657,2.2657,0,0,1,.79639,1.56006,10.96762,10.96762,0,0,1-.49756,3.52051q-.60645,2.26024-1.51172,5.20849Z" transform="translate(-51.48535 -55.9352)"/><path class="cls-1" d="M130.0376,101.69789a34.06273,34.06273,0,0,1-4.13233.03418,25.625,25.625,0,0,1-4.00537-.52588,26.76045,26.76045,0,0,1-3.8247-1.11718l-.4502-11.436.93311-.06348,1.6958,10.30323a22.40851,22.40851,0,0,0,4.44921,1.37793,19.56652,19.56652,0,0,0,5.20069.27881,14.737,14.737,0,0,0,5.50586-1.313,8.124,8.124,0,0,0,3.35986-2.87549,6.70188,6.70188,0,0,0,.04541-7.0044,7.22123,7.22123,0,0,0-2.49512-2.228,21.5654,21.5654,0,0,0-4.25586-1.77637l-5.34423-1.56494a23.041,23.041,0,0,1-5.47168-2.63086,10.29119,10.29119,0,0,1-3.46338-3.898,15.01489,15.01489,0,0,1-1.44531-5.82764,12.76868,12.76868,0,0,1,1.26562-6.89453,12.20157,12.20157,0,0,1,4.47022-4.771,14.3732,14.3732,0,0,1,6.72119-2.085,23.80911,23.80911,0,0,1,5.38965.21093,16.60042,16.60042,0,0,1,4.47265,1.3208l.72315,13.01612-.9878.06738L136.418,60.30239a14.64757,14.64757,0,0,0-3.27637-1.15479,14.08793,14.08793,0,0,0-4.2666-.31494,11.46049,11.46049,0,0,0-5.4248,1.69336,9.18961,9.18961,0,0,0-3.5254,4.07226,13.82335,13.82335,0,0,0,.26954,10.814,8.746,8.746,0,0,0,3.00878,3.29541,18.424,18.424,0,0,0,4.75245,2.18408l5.45752,1.61182a21.60343,21.60343,0,0,1,5.17334,2.293,8.16993,8.16993,0,0,1,2.78662,2.86914,9.21448,9.21448,0,0,1,1.03222,3.8164,8.01393,8.01393,0,0,1-1.21045,4.87842,10.06689,10.06689,0,0,1-4.18847,3.64893A18.3023,18.3023,0,0,1,130.0376,101.69789Z" transform="translate(-51.48535 -55.9352)"/><path class="cls-1" d="M158.95312,99.43862l-.019-.93506,4.99707-.43115,7.65039.17529.01905.93457Zm3.68409-.07471,12.60351-43.16406,2.08985-.04248,14.231,42.6206-3.35449.06836-13.1831-39.78125.65332-.34326L171.31152,74.048l-6.63964,25.2749Zm4.4292-12.1919-.02246-1.10009,18.916-.38282.02246,1.09961Zm14.377,11.811-.019-.93457,8.29687-.498,5.45069.21924.01855.93506Z" transform="translate(-51.48535 -55.9352)"/><path class="cls-1" d="M209.48145,98.82533l.01953-.93457,7.15527-.17822,9.6709.53467-.01953.93506ZM217.127,57.3434l-6.75683-.47363.02-.93457,6.76318.14355Zm-1.98193,41.602.90869-42.89013,3.13428.0664-.90869,42.89014Zm2.49756-16.61572.021-.98975,12.82373-.27832-.03271,1.53955Zm.25635-25.08008.02441-1.15478,18.916.40087-.02491,1.15479Zm11.935,31.27979-.355-6.60889.65577-7.57813.98974.021-.30078,14.187Zm6.42139-17.46778-1.17578-14.60351,2.47461.05273-.30908,14.57178Z" transform="translate(-51.48535 -55.9352)"/><path class="cls-1" d="M231.9375,99.215l.0376-.93408,5.01416-.12842,7.62549.6377-.0376.93408Zm3.68213.14844L250.811,57.04067l2.08837.08447,11.62647,43.40332-3.352-.13525L250.42139,59.88735l.67236-.30323-5.28467,15.03467-8.15625,24.82666Zm5.1582-11.90185.04444-1.09913,18.90478.76172-.04443,1.09912Zm13.63623,12.65917.03809-.93408,8.31152.0044,5.42725.54931-.0376.93409Z" transform="translate(-51.48535 -55.9352)"/><path class="cls-1" d="M267.30273,100.60707l.061-.98828,6.38818.06445,7.55518.79786-.061.98779ZM278.48682,59.6393l-7.49659-.84912.05762-.9336,7.52051.46534Zm-5.96534,41.23535,5.16846-42.60742,1.09815.06787L276.916,75.24721l-2.3086,25.75635Zm17.606-1.33642L278.27832,60.34242l.01563-2.03759,2.68994.166,11.02734,36.44483,14.938-34.83936,1.31738.08154L291.28027,99.60951Zm10.11231,3.105.06152-.9878,7.76025.14893,7.11621.77051-.06152.98828Zm6.42285.397.31885-40.813.29687-2.13086,2.96484.18359-.44824,42.89893Zm2.40381-41.56543.02343-1.26611,7.52051.46484-.05762.9331Z" transform="translate(-51.48535 -55.9352)"/><path class="cls-1" d="M333.61328,104.01381l-.06445.93262-14.48438-1.02149.06543-.93261,7.21.17773ZM322.01562,62.0641l.06543-.93261,14.4834,1.021L336.5,63.0851l-7.26562-.18115Zm2.69922,42.25928,3.01758-42.79346,3.127.22022-3.01758,42.79394Z" transform="translate(-51.48535 -55.9352)"/><path class="cls-1" d="M337.63086,105.24574l.06934-.9873,6.43847.17773-.08887,1.26221ZM347.792,64.33364l-7.27051-.898.07032-.9878,16.18457,1.14063-.06934.98779Zm-4.50976,41.31054,3.01465-42.79394,3.12792.22021-3.01562,42.794Zm1.59082.11182.08105-1.15186,19.25684,1.35694-.08106,1.15185Zm17.44629,1.22949,2.5957-14.92432.9873.06934-1.05859,15.03272Z" transform="translate(-51.48535 -55.9352)"/><path class="cls-1" d="M399.95508,67.4352l-4.24024-.05127-14.01269,25.1709-.92383,14.43554,6.35254.62745-.06348.98779L371.20508,107.59l.06347-.98828,6.38086.18848.92481-14.43555L368,65.55434l-4.27051-.439.0625-.98779,14.32617.917-.06347.98828-6.60059-.20263,9.74317,25.14941,3.1748-5.69385,9.19824-17.98388-6.51367-.69287.06348-.9878,12.89843.82569Z" transform="translate(-51.48535 -55.9352)"/><path class="cls-1" d="M425.13477,109.58412l-.03516.93457-14.50977-.5415.03516-.93408,7.21191-.06153Zm-6.23243-40.96093-6.748-.58155.03418-.93457,6.76074.25244ZM416.251,110.18862l1.59863-42.87012,3.18848.11865-1.59961,42.87012Zm2.01074-14.06983.04492-1.20947,4.06738.15185a16.77352,16.77352,0,0,0,7.64551-1.33837,12.23061,12.23061,0,0,0,5.25684-4.45459,13.80135,13.80135,0,0,0,2.11425-7.24122,12.49659,12.49659,0,0,0-1.60839-7.0498,11.80314,11.80314,0,0,0-5.00489-4.53467,18.59566,18.59566,0,0,0-7.63867-1.771l-3.62793-.13526.043-1.15429,3.73731.13916a25.39729,25.39729,0,0,1,9.42089,1.97509,14.26813,14.26813,0,0,1,6.14551,4.93506,12.40372,12.40372,0,0,1,1.99805,7.66992,14.44507,14.44507,0,0,1-1.34473,5.7837,12.85669,12.85669,0,0,1-3.26953,4.28125,15.193,15.193,0,0,1-4.751,2.7124,20.41046,20.41046,0,0,1-5.959,1.126l-1.10937.23389q-1.04737.01611-2.36622-.00586Q420.73437,96.21206,418.26172,96.11879Zm23.30664,15.56445L422.457,95.77992l2.10352-.30712,2.11133-.52637,15.63964,15.99365Z" transform="translate(-51.48535 -55.9352)"/><path class="cls-1" d="M443.749,111.2018l.00684-.93506,6.76758-.28027-.00977,1.26513Zm7.07032-41.584-6.76172-.37989.00683-.93506,6.76465.04981Zm-1.40528,41.62548.31543-42.89843,3.13477.02295-.31543,42.89892Zm1.87012.01416.00781-1.15527,20.12989.148-.00879,1.15478Zm.30664-41.74414.00781-1.15478,19.79981.14551-.00879,1.15478Zm.08984,25.19141.00782-1.04492,13.47851-.45117-.01172,1.59521Zm12.77246,5.814-.44726-6.54834.5498-7.47607.99024.00684-.10254,14.0249Zm6.61719-17.332-1.377-14.69531,2.47461.01807-.16211,14.68408Zm-1.30664,28.20655,1.5752-12.36377.99023.00732-.09082,12.37451Z" transform="translate(-51.48535 -55.9352)"/><path class="cls-1" d="M493.17871,111.45864a13.602,13.602,0,0,1-8.37988-2.39356,17.03773,17.03773,0,0,1-5.77344-7.313A30.123,30.123,0,0,1,476.709,90.37563a30.80627,30.80627,0,0,1,.99707-9.1084,21.84431,21.84431,0,0,1,3.39063-7.22559,16.473,16.473,0,0,1,5.36133-4.78027,15.017,15.017,0,0,1,6.90625-1.82715,20.90561,20.90561,0,0,1,5.15918.48047,19.62749,19.62749,0,0,1,4.58594,1.59766l.10546,12.87256-.87988.02587-1.56152-11.894a12.72458,12.72458,0,0,0-3.45606-1.521,12.97053,12.97053,0,0,0-3.86621-.46386,10.869,10.869,0,0,0-7.17773,2.88086,17.44983,17.44983,0,0,0-4.67383,7.56592A31.85111,31.85111,0,0,0,480.168,90.10854a32.58678,32.58678,0,0,0,1.91406,10.7832,15.83006,15.83006,0,0,0,4.71387,6.84863,10.36052,10.36052,0,0,0,7,2.26954,10.74519,10.74519,0,0,0,5.72656-1.73731,16.056,16.056,0,0,0,4.584-5.00488l.84277.58008a18.08766,18.08766,0,0,1-3.20508,4.22168,11.91434,11.91434,0,0,1-3.86035,2.48A13.91734,13.91734,0,0,1,493.17871,111.45864Z" transform="translate(-51.48535 -55.9352)"/><path class="cls-1" d="M507.03027,68.34291l-.06054-.9331L521.46,66.46938l.06055.9331-7.22363.79932Zm17.14649,40.00342.06054.93311-14.49023.94043-.06055-.93311,7.16895-.7959Zm-8.77637,1.50635-2.77734-42.80957L515.752,66.84,518.5293,109.65Z" transform="translate(-51.48535 -55.9352)"/><path class="cls-1" d="M531.90625,66.86879l-6.98145.40283-.09765-.92968,6.94629-.731Zm-2.58984,42.1377-.09766-.93018,7.07617-1.07617,9.66113-.68506.09864.92969Zm5.63379-.59326-4.48926-42.66407,3.11816-.32812,4.48926,42.66455Zm-.10547-14.14649-.127-1.20312,3.665-.38575a19.29712,19.29712,0,0,0,7.92774-2.438,12.56007,12.56007,0,0,0,4.90722-5.13428,12.96983,12.96983,0,0,0,1.18555-7.39746q-.668-6.34423-5.03613-9.231-4.36964-2.88574-11.42481-2.14355l-3.88379.40869-.12109-1.14893,3.8291-.40283a26.70078,26.70078,0,0,1,9.99121.60791,13.952,13.952,0,0,1,6.876,4.11523,12.97253,12.97253,0,0,1,3.05078,7.44922,12.84007,12.84007,0,0,1-1.543,7.93262,15.243,15.243,0,0,1-5.97949,5.71728,25.38682,25.38682,0,0,1-9.54395,2.85694Z" transform="translate(-51.48535 -55.9352)"/><path class="cls-1" d="M559.84375,63.64955l-6.73633.70362-.14258-.92432,6.68653-1.0293Zm5.249,41.31739-6.52832-42.40039,3.09864-.47706,6.52832,42.4004Zm-5.59863.8623-.14258-.92432,6.63574-1.35546.19239,1.25Zm1.09375-42.40576-.17578-1.14111,19.56934-3.01319.17578,1.14112Zm4.10547,24.855-.15918-1.03272,13.23437-2.59423.24317,1.57617Zm2.24805,16.40381-.17579-1.14111,19.89551-3.06348.17578,1.1416Zm11.28808-12.70069L576.74414,85.588l-.64844-7.46826.97852-.15039L579.208,91.83119Zm3.76953-18.165-3.70214-14.28809,2.44628-.37647,2.17969,14.522Zm3.207,28.05371-.416-12.457.97851-.1504,1.88379,12.23047Z" transform="translate(-51.48535 -55.9352)"/><path class="cls-1" d="M67.11816,128.82582a9.15481,9.15481,0,0,0,3.001-1.0874,5.04823,5.04823,0,0,0,1.94922-2.03516,4.87313,4.87313,0,0,0,.43115-2.96484,4.34353,4.34353,0,0,0-.96289-2.4126,3.37565,3.37565,0,0,0-1.9248-1.02588,9.02551,9.02551,0,0,0-2.81543.00293l-2.02149.27393L66.62012,139.005l3.31836-.08642-.00049.666-7.19434.9751.00049-.6665,2.44922-.69483-1.8291-19.30957-2.605-.01025-.0293-.66211,5.5-.74512a12.70543,12.70543,0,0,1,4.147-.00146,4.49679,4.49679,0,0,1,2.54248,1.33545,4.8796,4.8796,0,0,1,1.11768,2.66406,5.056,5.056,0,0,1-.48,3.04736,6.44254,6.44254,0,0,1-2.04492,2.33545,9.15374,9.15374,0,0,1-3.03516,1.395l.00781.05957a4.155,4.155,0,0,1,1.21241.45654,5.3358,5.3358,0,0,1,1.06933.854,7.26588,7.26588,0,0,1,1.10059,1.53125l1.83789,2.83886a20.41815,20.41815,0,0,0,1.457,2.043,3.05276,3.05276,0,0,0,1.07373.88379,2.20387,2.20387,0,0,0,1.15088.1167,2.74455,2.74455,0,0,0,.84228-.26562,2.88006,2.88006,0,0,0,.79737-.59229l.39941.49072a4.51535,4.51535,0,0,1-.60693.65723,2.71362,2.71362,0,0,1-.7544.46582,3.85873,3.85873,0,0,1-.96484.25147,3.12427,3.12427,0,0,1-1.522-.17188,4.27733,4.27733,0,0,1-1.48194-.99512,11.72477,11.72477,0,0,1-1.53466-1.94189l-1.87793-3.13623a18.14575,18.14575,0,0,0-1.26661-1.75049,3.81829,3.81829,0,0,0-1.03076-.90479,2.9819,2.9819,0,0,0-1.19433-.32275Z" transform="translate(-51.48535 -55.9352)"/><path class="cls-1" d="M85.11865,121.944a3.64223,3.64223,0,0,1,2.90186.65381,3.57038,3.57038,0,0,1,1.20459,2.395,3.73888,3.73888,0,0,1-.19092,1.835,3.86949,3.86949,0,0,1-.95264,1.397,6.8483,6.8483,0,0,1-1.46191,1.04883,15.91646,15.91646,0,0,1-1.689.78857l-3.72705,1.438a10.28931,10.28931,0,0,0,.80225,3.07715,4.25906,4.25906,0,0,0,1.58545,1.91162,3.54172,3.54172,0,0,0,2.36523.46045,5.49286,5.49286,0,0,0,1.394-.34619,4.74376,4.74376,0,0,0,1.29492-.80225,7.43278,7.43278,0,0,0,1.26513-1.43359l.60352.50244a10.20471,10.20471,0,0,1-.86865,1.08447,7.84888,7.84888,0,0,1-1.0503.95508,5.47349,5.47349,0,0,1-1.26074.708,6.20951,6.20951,0,0,1-1.58593.38379,4.58641,4.58641,0,0,1-3.1084-.61426,5.626,5.626,0,0,1-2.03467-2.38721,10.99406,10.99406,0,0,1-.96875-3.46533,11.90946,11.90946,0,0,1,.27441-4.5791,7.65011,7.65011,0,0,1,1.90528-3.42725A5.39457,5.39457,0,0,1,85.11865,121.944Zm2.65332,3.28125a4.03689,4.03689,0,0,0-.3872-1.35889,1.89425,1.89425,0,0,0-.85743-.86523,2.56778,2.56778,0,0,0-1.45556-.1753,3.85453,3.85453,0,0,0-2.31446,1.11963A5.68656,5.68656,0,0,0,81.333,126.591a12.08281,12.08281,0,0,0-.26123,4.04883l3.522-1.3833a9.285,9.285,0,0,0,1.87451-1.00733,2.99312,2.99312,0,0,0,1.30371-3.02392Z" transform="translate(-51.48535 -55.9352)"/><path class="cls-1" d="M98.23877,120.50942a5.57048,5.57048,0,0,1,2.30957.168,3.36364,3.36364,0,0,1,1.46436.88867,2.23018,2.23018,0,0,1,.60156,1.29492,1.41725,1.41725,0,0,1-.2378,1.05029,1.13743,1.13743,0,0,1-.81347.4458,1.34025,1.34025,0,0,1-.76611-.1167,1.50069,1.50069,0,0,1-.52833-.44287l.24561-.53808a1.43254,1.43254,0,0,0,.15576-1.1167,1.15649,1.15649,0,0,0-.792-.65723,3.83565,3.83565,0,0,0-1.57959-.10791,4.01246,4.01246,0,0,0-1.94678.71484,4.6794,4.6794,0,0,0-1.39844,1.6377,7.53322,7.53322,0,0,0-.76123,2.55176,14.83344,14.83344,0,0,0-.001,3.48388,10.76112,10.76112,0,0,0,.83447,3.397,4.20536,4.20536,0,0,0,1.58594,1.917,3.6455,3.6455,0,0,0,2.30762.43945,5.10464,5.10464,0,0,0,1.41064-.35742,5.02984,5.02984,0,0,0,1.37305-.86621,7.11479,7.11479,0,0,0,1.27832-1.48926l.59277.48145a11.40838,11.40838,0,0,1-.95947,1.21533,7.405,7.405,0,0,1-1.11768,1.00537,5.62476,5.62476,0,0,1-1.29883.70752,5.95789,5.95789,0,0,1-1.53173.355,4.53109,4.53109,0,0,1-3.08448-.66064,5.68227,5.68227,0,0,1-1.98486-2.41846,11.00038,11.00038,0,0,1-.91846-3.479,13.315,13.315,0,0,1,.08692-3.67334,8.58281,8.58281,0,0,1,1.03906-2.92773,6.111,6.111,0,0,1,1.87353-2.00391A5.58777,5.58777,0,0,1,98.23877,120.50942Z" transform="translate(-51.48535 -55.9352)"/><path class="cls-1" d="M107.70459,122.09194a2.36967,2.36967,0,0,0-.206-1.09571.66581.66581,0,0,0-.70508-.29687,3.487,3.487,0,0,0-.89893.21777,6.94177,6.94177,0,0,0-1.08057.53613l-.332-.66259a7.15337,7.15337,0,0,1,1.39014-.77491,4.88688,4.88688,0,0,1,1.45557-.38964,1.66276,1.66276,0,0,1,1.18164.23828,1.48452,1.48452,0,0,1,.53467.8999,5.36941,5.36941,0,0,1,.10546,1.31592l.19532,11.00781a1.9,1.9,0,0,0,.21679,1.0498.65337.65337,0,0,0,.62354.229,3.09645,3.09645,0,0,0,.9126-.23438,4.496,4.496,0,0,0,1.05322-.66894l.44287.562a8.72,8.72,0,0,1-.813.66211,4.74344,4.74344,0,0,1-.95947.53955,3.63244,3.63244,0,0,1-1.0752.26465,1.61141,1.61141,0,0,1-1.1206-.229,1.49781,1.49781,0,0,1-.55762-.82226,4.5144,4.5144,0,0,1-.17578-1.09863Zm-1.28516-7.44385a1.64722,1.64722,0,0,1,.24512-1.10693,1.09433,1.09433,0,0,1,.84277-.499,1.30965,1.30965,0,0,1,.70215.10156,1.0102,1.0102,0,0,1,.44727.44092,1.93571,1.93571,0,0,1,.2041.74951,1.72862,1.72862,0,0,1-.23242,1.07569,1.15953,1.15953,0,0,1-1.772.22265A1.48272,1.48272,0,0,1,106.41943,114.64809Z" transform="translate(-51.48535 -55.9352)"/><path class="cls-1" d="M115.84424,121.18764a1.6568,1.6568,0,0,0-.25781-.98779.76643.76643,0,0,0-.68018-.23243,3.31705,3.31705,0,0,0-.87061.21827,8.40325,8.40325,0,0,0-1.08886.50634l-.3208-.63671a7.65475,7.65475,0,0,1,.94824-.57081,6.93813,6.93813,0,0,1,.94775-.39013,4.04281,4.04281,0,0,1,.93262-.19336q1.16675-.09083,1.52148.60351a4.65193,4.65193,0,0,1,.36866,2.01758l.05713,7.27735.09228.02295.7124-4.35889a18.652,18.652,0,0,1,.61573-2.51563,7.6052,7.6052,0,0,1,.89062-1.89013,3.9432,3.9432,0,0,1,1.25928-1.21143,3.79731,3.79731,0,0,1,1.66064-.50635,3.66019,3.66019,0,0,1,2.64112.68164,4.97783,4.97783,0,0,1,1.5581,2.2251,11.6172,11.6172,0,0,1,.66992,3.18262,14.14016,14.14016,0,0,1-.227,4.21533,8.84458,8.84458,0,0,1-1.293,3.09522,6.53444,6.53444,0,0,1-2.0581,1.9663,5.819,5.819,0,0,1-2.52539.79932,7.34081,7.34081,0,0,1-2.05567-.125,12.24987,12.24987,0,0,1-1.62841-.42969l.09277,6.1919,2.59766.12793-.00831.66259-3.61425.34278-.3501-.24365-.10693-8.29688Zm6.70947-1.54736a2.80937,2.80937,0,0,0-1.47754.53662,3.83809,3.83809,0,0,0-1.11865,1.47168,13.22923,13.22923,0,0,0-.86182,2.64013q-.38379,1.64063-.73974,4.01514l-.751,4.63232a14.47754,14.47754,0,0,0,1.648.48829,6.60188,6.60188,0,0,0,2.041.12646,4.25815,4.25815,0,0,0,2.09521-.7207,5.06273,5.06273,0,0,0,1.5625-1.76221,8.656,8.656,0,0,0,.916-2.71924,14.14519,14.14519,0,0,0,.12793-3.561,13.83521,13.83521,0,0,0-.33985-2.23047,6.056,6.056,0,0,0-.65674-1.66358,2.62419,2.62419,0,0,0-1.01123-1.00439A2.59645,2.59645,0,0,0,122.55371,119.64028Z" transform="translate(-51.48535 -55.9352)"/><path class="cls-1" d="M136.69531,117.38442a3.64273,3.64273,0,0,1,2.86133.81347,3.57071,3.57071,0,0,1,1.06982,2.4585,3.74054,3.74054,0,0,1-.29248,1.82178,3.86244,3.86244,0,0,1-1.0288,1.34131,6.82127,6.82127,0,0,1-1.51807.9663,15.91924,15.91924,0,0,1-1.73.69385l-3.80127,1.228a10.28718,10.28718,0,0,0,.62988,3.11719,4.26246,4.26246,0,0,0,1.477,1.99707,3.54392,3.54392,0,0,0,2.33594.59131,5.506,5.506,0,0,0,1.41113-.26856,4.723,4.723,0,0,0,1.33741-.72949,7.40084,7.40084,0,0,0,1.34277-1.36084l.57471.53515a10.05358,10.05358,0,0,1-.92774,1.03467,7.81928,7.81928,0,0,1-1.10156.89551,5.48361,5.48361,0,0,1-1.29785.63672,6.21237,6.21237,0,0,1-1.605.29492,4.58766,4.58766,0,0,1-3.06934-.78564,5.628,5.628,0,0,1-1.89892-2.49707,10.97848,10.97848,0,0,1-.77491-3.51368,11.91731,11.91731,0,0,1,.52832-4.55664,7.651,7.651,0,0,1,2.09327-3.3164A5.39,5.39,0,0,1,136.69531,117.38442Zm2.46778,3.42334a4.04924,4.04924,0,0,0-.31153-1.37842,1.89367,1.89367,0,0,0-.8081-.91162,2.57215,2.57215,0,0,0-1.44385-.25586,3.85753,3.85753,0,0,0-2.37305.98926,5.692,5.692,0,0,0-1.56885,2.5625,12.08281,12.08281,0,0,0-.48583,4.02783l3.59326-1.18555a9.24325,9.24325,0,0,0,1.92773-.90137,2.99282,2.99282,0,0,0,1.47022-2.94677Z" transform="translate(-51.48535 -55.9352)"/><path class="cls-1" d="M154.19336,131.70668a4.0456,4.0456,0,0,0,2.55518-.98047,3.16581,3.16581,0,0,0,.98046-2.68457,2.58859,2.58859,0,0,0-.43554-1.40771,3.62827,3.62827,0,0,0-1.16992-1.01563,15.55883,15.55883,0,0,0-1.9917-.93554,18.16394,18.16394,0,0,1-1.93116-.90772,4.39,4.39,0,0,1-1.41845-1.21533,3.234,3.234,0,0,1-.605-1.85059,4.35932,4.35932,0,0,1,.18066-1.38916,3.62118,3.62118,0,0,1,.7373-1.353,4.04836,4.04836,0,0,1,1.4419-1.0376,6.20579,6.20579,0,0,1,2.292-.47412,4.70128,4.70128,0,0,1,2.05469.30224,2.97481,2.97481,0,0,1,1.25635.937,2.21749,2.21749,0,0,1,.459,1.24121,1.27062,1.27062,0,0,1-.2334.86572,1.00729,1.00729,0,0,1-.79541.34961,1.49037,1.49037,0,0,1-.58984-.09473,1.42726,1.42726,0,0,1-.47754-.27978l.20654-.78955a1.05143,1.05143,0,0,0-.15918-1.2544,2.4451,2.4451,0,0,0-1.835-.43164,4.57618,4.57618,0,0,0-1.9624.46,2.49038,2.49038,0,0,0-1.09522,1.06787,2.81883,2.81883,0,0,0-.29931,1.40918,2.49532,2.49532,0,0,0,.43555,1.40772,3.5239,3.5239,0,0,0,1.10644.94336,15.22711,15.22711,0,0,0,1.68652.813q.91773.3816,1.68457.76856a6.87381,6.87381,0,0,1,1.32813.85889,3.73142,3.73142,0,0,1,.90381,1.11718,3.58544,3.58544,0,0,1,.38183,1.54493,4.57648,4.57648,0,0,1-.5,2.33349,4.43062,4.43062,0,0,1-1.65136,1.75244,5.61056,5.61056,0,0,1-2.74561.749,6.92913,6.92913,0,0,1-2.29248-.24707,3.59814,3.59814,0,0,1-1.56934-.87842,2.00048,2.00048,0,0,1-.59863-1.35547,1.02408,1.02408,0,0,1,.32276-.86963,1.35864,1.35864,0,0,1,.85693-.32226,1.91852,1.91852,0,0,1,.51269.05322,2.11841,2.11841,0,0,1,.48829.17431l-.04248,1.1128a1.48049,1.48049,0,0,0,.4707,1.16552A3.172,3.172,0,0,0,154.19336,131.70668Z" transform="translate(-51.48535 -55.9352)"/><path class="cls-1" d="M176.33252,130.57875a4.69465,4.69465,0,0,1-.55762.436,4.87948,4.87948,0,0,1-.709.39551,7.15015,7.15015,0,0,1-.80176.30761,3.04141,3.04141,0,0,1-.83594.14405,1.81381,1.81381,0,0,1-1.05713-.23975,1.45254,1.45254,0,0,1-.57714-.76367,3.141,3.141,0,0,1-.14014-1.22656l.51562-9.25879a5.18021,5.18021,0,0,0-.31494-2.602,1.37771,1.37771,0,0,0-1.33984-.68165,2.4266,2.4266,0,0,0-1.19092.334,3.07153,3.07153,0,0,0-1.01611,1.19971,15.74093,15.74093,0,0,0-1.03662,2.58056L163.87988,131.715l-.95947.02735.273-21.94678-2.53223-.37744.07227-.63233,3.56836-.10205.39844.28858-.1001,10.147-.46582,8.897.12109.02637,2.27881-7.418a13.34469,13.34469,0,0,1,.73633-2.062,6.16878,6.16878,0,0,1,.90381-1.45117,3.31,3.31,0,0,1,2.57666-1.19922,2.65339,2.65339,0,0,1,1.937.55957,2.8013,2.8013,0,0,1,.82715,1.64209,11.04824,11.04824,0,0,1,.10058,2.458l-.52246,9.019a1.6072,1.6072,0,0,0,.13135.92627.6949.6949,0,0,0,.65234.25146,3.39156,3.39156,0,0,0,1.04493-.19482,3.80017,3.80017,0,0,0,1.00488-.5542Z" transform="translate(-51.48535 -55.9352)"/><path class="cls-1" d="M189.50293,129.17494a2.116,2.116,0,0,0,.16406,1.07813.67293.67293,0,0,0,.63379.292,2.83959,2.83959,0,0,0,1.01709-.208,4.07412,4.07412,0,0,0,.98291-.56787l.42725.56446a5.92613,5.92613,0,0,1-.84717.61132,5.99973,5.99973,0,0,1-.9541.46192,3.0893,3.0893,0,0,1-1.0625.19385,1.82092,1.82092,0,0,1-1.084-.28614,1.62973,1.62973,0,0,1-.61084-.8623,3.81137,3.81137,0,0,1-.13818-1.40821l.44287-7.59667-.15039-.02784-.96387,4.39258a18.35359,18.35359,0,0,1-.73437,2.40967,8.23469,8.23469,0,0,1-.981,1.85791,3.953,3.953,0,0,1-1.335,1.187,3.78241,3.78241,0,0,1-1.76465.42774,3.58889,3.58889,0,0,1-2.54638-.86768,5.22253,5.22253,0,0,1-1.45557-2.36621,11.07464,11.07464,0,0,1-.49121-3.21924,13.51127,13.51127,0,0,1,.48877-3.98144,9.38547,9.38547,0,0,1,1.44677-3.00391,6.6332,6.6332,0,0,1,2.15088-1.90283,5.60852,5.60852,0,0,1,2.63135-.67871,8.39376,8.39376,0,0,1,1.9375.18554,10.55635,10.55635,0,0,1,1.73242.54785l.95215-.6123.332.17578Zm-6.79443,1.25733a2.87575,2.87575,0,0,0,1.40576-.34815A3.225,3.225,0,0,0,185.21,128.945a9.91934,9.91934,0,0,0,.94629-2.21728q.44678-1.41578.9585-3.64258l1.33789-5.62744a6.90172,6.90172,0,0,0-1.68848-.66846,7.53687,7.53687,0,0,0-1.95312-.21484,4.14371,4.14371,0,0,0-2.07764.58154,5.24,5.24,0,0,0-1.689,1.6416A8.23086,8.23086,0,0,0,179.938,121.422a14.0811,14.0811,0,0,0-.35938,3.56006,11.60785,11.60785,0,0,0,.38477,3.1001,3.55647,3.55647,0,0,0,1.0581,1.78662A2.50837,2.50837,0,0,0,182.7085,130.43227Z" transform="translate(-51.48535 -55.9352)"/><path class="cls-1" d="M196.53613,117.83657a1.995,1.995,0,0,0-.13476-.94532.70176.70176,0,0,0-.70459-.34521,3.031,3.031,0,0,0-.855.1499,11.39077,11.39077,0,0,0-1.18555.44922l-.20947-.68994a7.65781,7.65781,0,0,1,.855-.41944,7.22727,7.22727,0,0,1,1.02051-.34472,4.036,4.036,0,0,1,1.00488-.13477,1.4409,1.4409,0,0,1,1.45459.73584,4.36633,4.36633,0,0,1,.19433,2.20508l-.75341,6.95947.12011-.02978,2.28272-6.50879a11.58287,11.58287,0,0,1,.916-1.91992A3.29484,3.29484,0,0,1,201.562,115.904a2.314,2.314,0,0,1,1.24512-.34473,2.0595,2.0595,0,0,1,.87012.18067,1.52353,1.52353,0,0,1,.61474.49511,1.42557,1.42557,0,0,1-.01562,1.56006,3.1818,3.1818,0,0,1-.54053.55469l-.56982-.54a1.47952,1.47952,0,0,0-.52442-.39063,1.50387,1.50387,0,0,0-.585-.12011,1.0171,1.0171,0,0,0-.39014.0747,1.14212,1.14212,0,0,0-.37548.28516,2.67887,2.67887,0,0,0-.39014.58447,7.5517,7.5517,0,0,0-.40527.9751q-.96168,2.40015-1.5918,3.98926-.63062,1.59009-.99121,2.63965-.36036,1.05029-.541,1.78467a9.42205,9.42205,0,0,0-.24023,1.4248l-.21094,2.1001-1.05029-.00049Z" transform="translate(-51.48535 -55.9352)"/><path class="cls-1" d="M209.25146,118.09584a2.36172,2.36172,0,0,0-.09472-1.11084.66568.66568,0,0,0-.67139-.36621,3.4958,3.4958,0,0,0-.916.126,6.9501,6.9501,0,0,0-1.1294.42431l-.26318-.69238a7.13919,7.13919,0,0,1,1.46094-.63086,4.87178,4.87178,0,0,1,1.4873-.24121,1.66476,1.66476,0,0,1,1.15186.356,1.48636,1.48636,0,0,1,.44091.94922,5.33094,5.33094,0,0,1-.02783,1.31982l-.91406,10.97168a1.90309,1.90309,0,0,0,.10986,1.06641.65373.65373,0,0,0,.59766.29052,3.10314,3.10314,0,0,0,.93115-.14111,4.48464,4.48464,0,0,0,1.11524-.55957l.38427.604a8.8075,8.8075,0,0,1-.87549.57666,4.76531,4.76531,0,0,1-1.00927.44043,3.62885,3.62885,0,0,1-1.09619.15429,1.60969,1.60969,0,0,1-1.0918-.34033,1.4967,1.4967,0,0,1-.47168-.87451,4.50812,4.50812,0,0,1-.06445-1.11035Zm-.5288-7.53515a1.64762,1.64762,0,0,1,.35546-1.07666,1.09337,1.09337,0,0,1,.88868-.41162,1.30589,1.30589,0,0,1,.68847.17138,1.00924,1.00924,0,0,1,.40039.48389,1.9311,1.9311,0,0,1,.12793.76611,1.72873,1.72873,0,0,1-.33984,1.04688,1.16005,1.16005,0,0,1-1.78564.04345A1.48353,1.48353,0,0,1,208.72266,110.56069Z" transform="translate(-51.48535 -55.9352)"/><path class="cls-1" d="M230.03223,130.77407a6.72172,6.72172,0,0,1-.82129.53857,5.20054,5.20054,0,0,1-1.02881.44434,3.48311,3.48311,0,0,1-1.11328.1582,1.66747,1.66747,0,0,1-1.32422-.56641,2.36339,2.36339,0,0,1-.34033-1.74707l1.02685-9.37158a4.57824,4.57824,0,0,0-.20556-2.47949,1.41911,1.41911,0,0,0-1.3208-.73145,2.40962,2.40962,0,0,0-1.22071.27539,3.04723,3.04723,0,0,0-1.04248,1.13477,15.66924,15.66924,0,0,0-1.14648,2.57275l-3.896,10.3042-.98974-.01953.80517-13.30664a1.86893,1.86893,0,0,0-.13086-.96289.71506.71506,0,0,0-.68359-.34375,3.12269,3.12269,0,0,0-.84278.1333,10.59054,10.59054,0,0,0-1.20849.42627l-.19629-.69434a7.71633,7.71633,0,0,1,.86328-.40283,6.94509,6.94509,0,0,1,1.0415-.32422,4.2026,4.2026,0,0,1,1.02247-.11474q1.13964.02269,1.4248.77832a5.28323,5.28323,0,0,1,.1665,2.19384l-.83886,8.95508.08935.03174,2.60352-7.1792a15.05029,15.05029,0,0,1,1.22461-2.72119,4.10475,4.10475,0,0,1,1.39453-1.47266,3.36644,3.36644,0,0,1,1.79394-.42919,2.86057,2.86057,0,0,1,1.90821.60791,2.61065,2.61065,0,0,1,.80859,1.5913,9.00227,9.00227,0,0,1,.01318,2.356l-.99414,9.22168a1.8744,1.8744,0,0,0,.102.90234q.1443.30323.6543.313a3.34059,3.34059,0,0,0,.97754-.13037,3.54444,3.54444,0,0,0,1.04541-.519Z" transform="translate(-51.48535 -55.9352)"/><path class="cls-1" d="M242.75684,122.17836l-.09034-.00293-1.021,3.749a16.0513,16.0513,0,0,1-1.23584,3.41211,5.85115,5.85115,0,0,1-1.68848,2.09179,3.57858,3.57858,0,0,1-2.28711.66162,3.62724,3.62724,0,0,1-2.50537-.96631,5.11807,5.11807,0,0,1-1.34814-2.3999,10.91843,10.91843,0,0,1-.34668-3.22265,12.45981,12.45981,0,0,1,1.10791-5.022,7.76462,7.76462,0,0,1,2.60888-3.1875,5.71762,5.71762,0,0,1,3.45459-1.01416,8.07946,8.07946,0,0,1,1.88233.27051,10.81392,10.81392,0,0,1,1.69043.625l1.00879-.56787.354.19141-1,12.39453a19.35366,19.35366,0,0,1-.5625,3.47851,11.53612,11.53612,0,0,1-1.04639,2.66748,7.44793,7.44793,0,0,1-1.4873,1.90332,5.29544,5.29544,0,0,1-1.8667,1.11036,6.17279,6.17279,0,0,1-2.186.30468,7.46737,7.46737,0,0,1-1.79248-.25293,4.39034,4.39034,0,0,1-1.3164-.59765,2.35241,2.35241,0,0,1-.78321-.85059,2.05414,2.05414,0,0,1-.22216-1.01269,1.51219,1.51219,0,0,1,.36279-1.02393,1.13615,1.13615,0,0,1,.91162-.3457,1.19744,1.19744,0,0,1,.43262.08886,1.301,1.301,0,0,1,.353.22168,1.43849,1.43849,0,0,1,.2749.32373l-.2002.624a1.82113,1.82113,0,0,0-.0791,1.04785,1.00106,1.00106,0,0,0,.65479.63672,4.71251,4.71251,0,0,0,1.52295.24414,4.58823,4.58823,0,0,0,2.45068-.59668,5.12083,5.12083,0,0,0,1.95019-2.30811,14.87245,14.87245,0,0,0,1.15967-4.78027Zm-6.10254,8.65772a2.91535,2.91535,0,0,0,1.481-.312,3.3135,3.3135,0,0,0,1.17823-1.16309,10.65317,10.65317,0,0,0,1.03173-2.21777q.49512-1.39453,1.103-3.47608l1.52588-5.44385a9.11918,9.11918,0,0,0-1.687-.72949,7.02973,7.02973,0,0,0-1.91113-.31689,4.23267,4.23267,0,0,0-2.1167.48681,5.01643,5.01643,0,0,0-1.76172,1.57911,8.93955,8.93955,0,0,0-1.22363,2.57226,12.55542,12.55542,0,0,0-.50293,3.49561,8.20711,8.20711,0,0,0,.66211,4.1333A2.50381,2.50381,0,0,0,236.6543,130.83608Z" transform="translate(-51.48535 -55.9352)"/><path class="cls-1" d="M255.90234,119.18471a1.65154,1.65154,0,0,0-.1333-1.01221.76576.76576,0,0,0-.646-.31494,3.32661,3.32661,0,0,0-.89112.1084,8.333,8.333,0,0,0-1.14306.36768l-.23926-.67188a7.67834,7.67834,0,0,1,1.01172-.44873,6.99555,6.99555,0,0,1,.98877-.26953,4.03312,4.03312,0,0,1,.9497-.07568q1.16822.05419,1.43458.7871a4.65183,4.65183,0,0,1,.11523,2.04786l-.84619,7.22851.08838.03418,1.248-4.23681a18.69,18.69,0,0,1,.92334-2.41993,7.58393,7.58393,0,0,1,1.11817-1.76465,3.94,3.94,0,0,1,1.3999-1.04638,3.79761,3.79761,0,0,1,1.71045-.2959,3.65793,3.65793,0,0,1,2.53613,1.00391,4.97869,4.97869,0,0,1,1.27,2.40136,11.60421,11.60421,0,0,1,.27,3.24073,14.138,14.138,0,0,1-.74853,4.15478,8.85538,8.85538,0,0,1-1.667,2.91113,6.54268,6.54268,0,0,1-2.28613,1.6958,5.81909,5.81909,0,0,1-2.605.4795,7.34854,7.34854,0,0,1-2.02441-.3794,12.25136,12.25136,0,0,1-1.5625-.62793l-.67627,6.15479,2.56152.4497-.09033.65625-3.62891-.10839-.31738-.28516.92383-8.24609Zm6.84961-.70264a2.81011,2.81011,0,0,0-1.53271.34912,3.84005,3.84005,0,0,0-1.29248,1.32129,13.22345,13.22345,0,0,0-1.18311,2.51319q-.58447,1.57983-1.23193,3.89209l-1.32031,4.50341a14.59212,14.59212,0,0,0,1.5747.689,6.594,6.594,0,0,0,2.00977.37842,4.26154,4.26154,0,0,0,2.16846-.45459,5.06752,5.06752,0,0,0,1.769-1.55469,8.6546,8.6546,0,0,0,1.24609-2.585,14.11482,14.11482,0,0,0,.56885-3.51758,13.79532,13.79532,0,0,0-.06055-2.25537,6.041,6.041,0,0,0-.44482-1.73242,2.62492,2.62492,0,0,0-.87891-1.12207A2.593,2.593,0,0,0,262.752,118.48207Z" transform="translate(-51.48535 -55.9352)"/><path class="cls-1" d="M272.51074,111.34438l-2.49267-.583.12353-.624,3.56494.189.37354.32031-2.00147,20.74317a1.69961,1.69961,0,0,0,.09961.95166.71872.71872,0,0,0,.644.31933,2.93723,2.93723,0,0,0,.96728-.11377,4.55907,4.55907,0,0,0,1.01514-.44189l.35888.58984a9.40337,9.40337,0,0,1-.8374.4961,5.27426,5.27426,0,0,1-.98242.39892,3.232,3.232,0,0,1-1.08789.12256,1.67051,1.67051,0,0,1-1.04785-.356,1.58819,1.58819,0,0,1-.478-.897,4.93123,4.93123,0,0,1-.04541-1.41406Z" transform="translate(-51.48535 -55.9352)"/><path class="cls-1" d="M288.52881,132.20424a2.11313,2.11313,0,0,0,.08642,1.08692.67325.67325,0,0,0,.61133.33642,2.83845,2.83845,0,0,0,1.02979-.13476,4.09875,4.09875,0,0,0,1.021-.4961l.38575.59375a6.058,6.058,0,0,1-1.87354.94141,3.09793,3.09793,0,0,1-1.07373.11767,1.81608,1.81608,0,0,1-1.06055-.36328,1.62642,1.62642,0,0,1-.54785-.90332,3.81138,3.81138,0,0,1-.03711-1.41455l.98389-7.54541-.14795-.03857-1.2749,4.3125a18.49483,18.49483,0,0,1-.9043,2.35107,8.226,8.226,0,0,1-1.11182,1.78272,3.94888,3.94888,0,0,1-1.416,1.08886,3.77824,3.77824,0,0,1-1.791.3003,3.58567,3.58567,0,0,1-2.47754-1.04688,5.22383,5.22383,0,0,1-1.28271-2.46435,11.07124,11.07124,0,0,1-.26025-3.2461,13.52171,13.52171,0,0,1,.772-3.93652,9.38,9.38,0,0,1,1.65771-2.89258,6.6211,6.6211,0,0,1,2.28125-1.74414A5.59737,5.59737,0,0,1,284.772,118.4a8.38219,8.38219,0,0,1,1.91944.32324,10.57584,10.57584,0,0,1,1.68847.66993l.99366-.54248.31884.19921Zm-6.8667.76856a2.87886,2.87886,0,0,0,1.42676-.24659,3.22986,3.22986,0,0,0,1.17431-1.0581,9.96854,9.96854,0,0,0,1.10254-2.144q.54639-1.37989,1.21582-3.56495l1.73682-5.51757a6.91061,6.91061,0,0,0-1.63672-.78711,7.55408,7.55408,0,0,0-1.93262-.354,4.14659,4.14659,0,0,0-2.11377.43164,5.24777,5.24777,0,0,0-1.80224,1.51709,8.23576,8.23576,0,0,0-1.291,2.53858,14.07463,14.07463,0,0,0-.61279,3.5249,11.6329,11.6329,0,0,0,.16211,3.12012,3.56357,3.56357,0,0,0,.92773,1.85742A2.509,2.509,0,0,0,281.66211,132.9728Z" transform="translate(-51.48535 -55.9352)"/><path class="cls-1" d="M293.63428,119.56557l2.38281-.11865,1.40771-4.6294.59864.03809-.57129,4.71338,4.99951.31933-.11914.92432-4.96973-.31738-1.188,10.5957a3.94912,3.94912,0,0,0,.2627,2.24121,1.89881,1.89881,0,0,0,1.70361.86035,3.57223,3.57223,0,0,0,1.811-.3501,6.89468,6.89468,0,0,0,1.65088-1.14209l.47656.54151a5.929,5.929,0,0,1-1.1665,1.08252,4.96546,4.96546,0,0,1-1.4585.71875,4.4905,4.4905,0,0,1-1.58984.18408,3.17851,3.17851,0,0,1-2.70069-1.25488,5.305,5.305,0,0,1-.43164-3.36426l1.16358-10.20654-2.4253-.15528Z" transform="translate(-51.48535 -55.9352)"/><path class="cls-1" d="M313.05078,113.20131a3.60811,3.60811,0,0,0-2.05566.38818,3.21854,3.21854,0,0,0-1.29785,1.41651,7.345,7.345,0,0,0-.64942,2.28662l-.35254,3.01318,4.84864.3252-.09375.95605-4.81934-.32324-1.27734,10.979q-.21094,1.79-.43653,3.14257a22.03433,22.03433,0,0,1-.50146,2.32666,12.30177,12.30177,0,0,1-.57666,1.645,7.0494,7.0494,0,0,1-.666,1.18848,3.82791,3.82791,0,0,1-.82129.81689,3.62509,3.62509,0,0,1-.93554.49317,2.35553,2.35553,0,0,1-.92579.1333,1.40213,1.40213,0,0,1-1.09521-.479,1.26929,1.26929,0,0,1-.28906-.84668,1.61729,1.61729,0,0,1,.19677-.69336,1.58537,1.58537,0,0,1,.48633-.52344l.77783.50342a1.59979,1.59979,0,0,0,1.55225.38964q.63428-.27318.93262-1.57617.08569-.38524.15722-.77148.07106-.386.14795-.86182.07691-.47607.14209-.99756.06446-.52221.13526-1.11865l1.52978-13.84863-2.72363-.18262.168-.71045,2.65234-.09277.16406-1.55225a13.22146,13.22146,0,0,1,.623-2.78467,6.584,6.584,0,0,1,1.09668-2.01611,4.06747,4.06747,0,0,1,1.69043-1.20947,5.53312,5.53312,0,0,1,2.39551-.30567,4.81708,4.81708,0,0,1,1.9375.47608,2.69314,2.69314,0,0,1,1.07812.959,1.92359,1.92359,0,0,1,.29981,1.13282,1.45446,1.45446,0,0,1-.38086.96679,1.01127,1.01127,0,0,1-.81641.30615,1.65363,1.65363,0,0,1-.7373-.21484,1.421,1.421,0,0,1-.50781-.50049l.30371-.49072a1.12659,1.12659,0,0,0,.10937-1.19531Q314.21777,113.27968,313.05078,113.20131Z" transform="translate(-51.48535 -55.9352)"/><path class="cls-1" d="M318.47852,136.61a4.78849,4.78849,0,0,1-2.91211-1.14941,5.814,5.814,0,0,1-1.70508-2.73486,10.71215,10.71215,0,0,1-.374-3.92041,14.61591,14.61591,0,0,1,.58887-3.28223,8.56933,8.56933,0,0,1,1.32813-2.65918,5.39815,5.39815,0,0,1,2.14941-1.71533,6.36959,6.36959,0,0,1,3.05274-.44922,4.96959,4.96959,0,0,1,2.79785,1.06689,5.73751,5.73751,0,0,1,1.8164,2.63721,9.79384,9.79384,0,0,1,.44532,3.98535,13.96227,13.96227,0,0,1-.60157,3.23633,9.17025,9.17025,0,0,1-1.3457,2.70312,5.64593,5.64593,0,0,1-2.16895,1.78858A6.11125,6.11125,0,0,1,318.47852,136.61Zm.21-.85742a3.952,3.952,0,0,0,2.99121-.85937,6.0971,6.0971,0,0,0,1.72265-2.72217,15.47213,15.47213,0,0,0,.73633-3.88819,12.495,12.495,0,0,0-.17773-3.501,4.27991,4.27991,0,0,0-1.209-2.29444,3.85613,3.85613,0,0,0-2.44531-.93652,4.09962,4.09962,0,0,0-2.33105.43945,4.34547,4.34547,0,0,0-1.582,1.5586,8.11974,8.11974,0,0,0-.95019,2.43017,19.70777,19.70777,0,0,0-.4375,3.05176,11.38062,11.38062,0,0,0,.22363,3.48926,4.58792,4.58792,0,0,0,1.23731,2.311A3.47062,3.47062,0,0,0,318.68848,135.75258Z" transform="translate(-51.48535 -55.9352)"/><path class="cls-1" d="M330.91113,123.70864a2.00512,2.00512,0,0,0-.06738-.95215.701.701,0,0,0-.67871-.394,3.02245,3.02245,0,0,0-.86328.08936,11.309,11.309,0,0,0-1.21387.36475l-.16113-.70313a7.60235,7.60235,0,0,1,.88281-.3584,7.25912,7.25912,0,0,1,1.042-.272,4.04363,4.04363,0,0,1,1.01172-.06348,1.44127,1.44127,0,0,1,1.39942.83643,4.36712,4.36712,0,0,1,.03808,2.21338l-1.24121,6.88916.12207-.02149,2.73535-6.332a11.58552,11.58552,0,0,1,1.04883-1.85058,3.30626,3.30626,0,0,1,1.09473-1.02,2.31973,2.31973,0,0,1,1.2666-.25586,2.05664,2.05664,0,0,1,.85547.24121,1.5243,1.5243,0,0,1,.57812.5376,1.42494,1.42494,0,0,1-.126,1.55468,3.19342,3.19342,0,0,1-.57715.51563l-.53028-.5791a1.47668,1.47668,0,0,0-.49609-.42627,1.508,1.508,0,0,0-.5752-.16114,1.014,1.014,0,0,0-.39453.04737,1.135,1.135,0,0,0-.39453.25781,2.681,2.681,0,0,0-.43066.55566,7.61369,7.61369,0,0,0-.47266.94385q-1.12792,2.32617-1.86816,3.86719-.74121,1.54248-1.17481,2.56348-.43359,1.02246-.665,1.74218a9.43664,9.43664,0,0,0-.34082,1.4043l-.35839,2.08008-1.04688-.07422Z" transform="translate(-51.48535 -55.9352)"/><path class="cls-1" d="M351.73242,127.23305a4.41286,4.41286,0,0,0-.12988-2.415,1.47307,1.47307,0,0,0-1.32617-.81543,2.10858,2.10858,0,0,0-1.19043.24707,3.09452,3.09452,0,0,0-1.041,1.11426,14.89878,14.89878,0,0,0-1.0957,2.314l-4.08984,10.23731-.98731-.06934,1.47559-13.249a1.751,1.751,0,0,0-.09766-.96924.72012.72012,0,0,0-.64941-.37695,3.1276,3.1276,0,0,0-.84864.09082,10.70363,10.70363,0,0,0-1.22851.36426l-.16114-.70313a7.67017,7.67017,0,0,1,.88184-.3584,7.2297,7.2297,0,0,1,1.042-.27246,4.02181,4.02181,0,0,1,1.01172-.064q1.16748.082,1.42774.86767a4.829,4.829,0,0,1,.042,2.18311l-1.37891,8.895.11719.03857,2.67187-7.18017a15.06249,15.06249,0,0,1,1.23633-2.6045,3.18438,3.18438,0,0,1,3.21387-1.65283,2.76462,2.76462,0,0,1,1.72852.64795,2.69218,2.69218,0,0,1,.78808,1.61963,8.07856,8.07856,0,0,1-.12695,2.65283l-1.39942,7.05908.14746.04,2.69043-7.02783a15.93461,15.93461,0,0,1,1.29-2.72119,3.7069,3.7069,0,0,1,1.40625-1.38965,3.44253,3.44253,0,0,1,1.82715-.32226,2.85968,2.85968,0,0,1,1.875.7041,2.68107,2.68107,0,0,1,.74219,1.63086,8.35557,8.35557,0,0,1-.08887,2.3247l-1.46191,9.21973a1.94488,1.94488,0,0,0,.042.89062c.07617.19581.30469.30713.68359.3335a2.96568,2.96568,0,0,0,.95411-.09814,4.94462,4.94462,0,0,0,1.09961-.44873l.34863.59619a6.16341,6.16341,0,0,1-.86231.4956,5.80615,5.80615,0,0,1-1.0498.39209,3.34865,3.34865,0,0,1-1.10547.10254,1.94741,1.94741,0,0,1-.98535-.31006,1.35634,1.35634,0,0,1-.53125-.77441,3.19136,3.19136,0,0,1-.02832-1.31006l1.46875-9.31006a4.45533,4.45533,0,0,0-.0957-2.48779,1.50891,1.50891,0,0,0-1.35645-.80225,2.21594,2.21594,0,0,0-1.14258.20508,2.93791,2.93791,0,0,0-1.05273,1.06836,15.39616,15.39616,0,0,0-1.2295,2.51514l-4.17382,10.14111-.98828-.06934Z" transform="translate(-51.48535 -55.9352)"/><path class="cls-1" d="M380.00488,117.8517a3.60268,3.60268,0,0,0-2.05468.3916,3.21407,3.21407,0,0,0-1.2959,1.41846,7.32668,7.32668,0,0,0-.64649,2.2876l-.34765,3.01367,4.84961.31787-.09278.95606-4.81933-.31641L374.33594,136.902q-.208,1.79-.43164,3.14307a22.008,22.008,0,0,1-.498,2.32764,12.43928,12.43928,0,0,1-.57422,1.646,7.05108,7.05108,0,0,1-.66406,1.189,3.82092,3.82092,0,0,1-.82031.81836,3.63459,3.63459,0,0,1-.93457.49463,2.35758,2.35758,0,0,1-.92579.13476,1.40255,1.40255,0,0,1-1.0957-.47754,1.275,1.275,0,0,1-.291-.84619,1.62856,1.62856,0,0,1,.19629-.69336,1.58493,1.58493,0,0,1,.48535-.52441l.77832.50195a1.59935,1.59935,0,0,0,1.55371.38721q.63281-.27393.92969-1.57715c.05664-.25732.10937-.51465.15625-.77148q.07031-.38673.14648-.86231.07617-.47607.14062-.998.06445-.52221.13379-1.11865l1.50977-13.85107-2.72461-.17822.167-.71094,2.65235-.09668.16113-1.55274a13.29723,13.29723,0,0,1,.61914-2.78515,6.57169,6.57169,0,0,1,1.09473-2.01807,4.06558,4.06558,0,0,1,1.6875-1.21191,5.53821,5.53821,0,0,1,2.3955-.30908,4.81235,4.81235,0,0,1,1.93848.47314,2.69321,2.69321,0,0,1,1.0791.95752,1.93069,1.93069,0,0,1,.30176,1.13232,1.45579,1.45579,0,0,1-.37891.96729,1.01289,1.01289,0,0,1-.81738.30713,1.65062,1.65062,0,0,1-.7373-.21387,1.42508,1.42508,0,0,1-.50879-.49951l.30273-.49121a1.1241,1.1241,0,0,0,.1084-1.19531Q381.17138,117.92812,380.00488,117.8517Z" transform="translate(-51.48535 -55.9352)"/><path class="cls-1" d="M385.4502,141.21791a4.79309,4.79309,0,0,1-2.9209-1.126,5.81616,5.81616,0,0,1-1.72657-2.7212,10.6921,10.6921,0,0,1-.40625-3.917,14.58,14.58,0,0,1,.5625-3.28662,8.546,8.546,0,0,1,1.30567-2.66992,5.40416,5.40416,0,0,1,2.13574-1.73291,6.3627,6.3627,0,0,1,3.04981-.47363,4.965,4.965,0,0,1,2.80566,1.04345,5.73269,5.73269,0,0,1,1.83789,2.62256,9.77027,9.77027,0,0,1,.47754,3.98194,13.95692,13.95692,0,0,1-.5752,3.24072,9.161,9.161,0,0,1-1.32324,2.71387,5.64369,5.64369,0,0,1-2.15527,1.80664A6.11675,6.11675,0,0,1,385.4502,141.21791Zm.20312-.85937a3.95325,3.95325,0,0,0,2.98535-.88379,6.11063,6.11063,0,0,0,1.7002-2.73584,15.44391,15.44391,0,0,0,.70508-3.894,12.566,12.566,0,0,0-.20606-3.49952,4.28043,4.28043,0,0,0-1.22754-2.28418,3.85974,3.85974,0,0,0-2.45312-.917,4.1064,4.1064,0,0,0-2.32813.458,4.34084,4.34084,0,0,0-1.56836,1.57227,8.08827,8.08827,0,0,0-.93164,2.4375,19.7323,19.7323,0,0,0-.41308,3.05517,11.444,11.444,0,0,0,.252,3.48731,4.594,4.594,0,0,0,1.25683,2.30127A3.46915,3.46915,0,0,0,385.65332,140.35854Z" transform="translate(-51.48535 -55.9352)"/><path class="cls-1" d="M397.63672,128.17494a1.99572,1.99572,0,0,0-.083-.95068.7021.7021,0,0,0-.68555-.3833,3.02345,3.02345,0,0,0-.86132.103,11.40025,11.40025,0,0,0-1.208.38427l-.17188-.70019a7.53951,7.53951,0,0,1,.877-.37256,7.212,7.212,0,0,1,1.03711-.28857,4.05109,4.05109,0,0,1,1.01074-.08008,1.4415,1.4415,0,0,1,1.41308.814,4.37054,4.37054,0,0,1,.07325,2.21241l-1.12989,6.9082.1211-.02344,2.63379-6.375a11.54179,11.54179,0,0,1,1.01855-1.86719,3.30393,3.30393,0,0,1,1.07813-1.03759,2.31689,2.31689,0,0,1,1.26269-.27637,2.05491,2.05491,0,0,1,.8584.22754,1.51761,1.51761,0,0,1,.58691.52783,1.42584,1.42584,0,0,1-.10058,1.55713,3.15327,3.15327,0,0,1-.56934.52441l-.53906-.57031a1.48766,1.48766,0,0,0-.50293-.41846,1.51281,1.51281,0,0,0-.57813-.15185,1.01918,1.01918,0,0,0-.39355.05371,1.14113,1.14113,0,0,0-.38965.26416,2.69037,2.69037,0,0,0-.42187.5625,7.60531,7.60531,0,0,0-.457.95166q-1.0913,2.34375-1.80664,3.897-.7163,1.55347-1.13281,2.58154-.41748,1.02906-.63769,1.75293a9.49145,9.49145,0,0,0-.31739,1.40967l-.32421,2.08545-1.04883-.05762Z" transform="translate(-51.48535 -55.9352)"/><path class="cls-1" d="M413.27148,127.36733l2.37989-.165,1.3164-4.65674.59961.02637-.47851,4.72363,5.00488.2207-.10156.92676-4.97461-.21973-.97949,10.61719a3.96038,3.96038,0,0,0,.30664,2.23584,1.90158,1.90158,0,0,0,1.7207.82666,3.57246,3.57246,0,0,0,1.80371-.38623,6.87827,6.87827,0,0,0,1.62793-1.17432l.48731.53223a5.9703,5.9703,0,0,1-1.14454,1.10547,4.95955,4.95955,0,0,1-1.44433.74707,4.48145,4.48145,0,0,1-1.58594.21533,3.17772,3.17772,0,0,1-2.72461-1.20117,5.29531,5.29531,0,0,1-.49805-3.35547l.96192-10.22754-2.42774-.10693Z" transform="translate(-51.48535 -55.9352)"/><path class="cls-1" d="M438.04492,142.49037a4.623,4.623,0,0,1-.584.40039,4.83677,4.83677,0,0,1-.73242.35059,7.241,7.241,0,0,1-.81934.25732,3.07919,3.07919,0,0,1-.84375.09131,1.819,1.819,0,0,1-1.04-.30566,1.46021,1.46021,0,0,1-.52832-.79834,3.14992,3.14992,0,0,1-.0625-1.23291l1.09375-9.208a5.179,5.179,0,0,0-.15137-2.6167,1.37959,1.37959,0,0,0-1.29492-.76465,2.42648,2.42648,0,0,0-1.209.25928,3.062,3.062,0,0,0-1.08985,1.1333,15.86863,15.86863,0,0,0-1.19629,2.51074l-4.041,10.27881-.96-.03271,1.64551-21.88672-2.50391-.53565.1123-.62646,3.56739.12158.37988.313-.73438,10.12061-1.02246,8.85058.11914.03418,2.73829-7.26123a13.39762,13.39762,0,0,1,.86425-2.01172,6.18254,6.18254,0,0,1,.99317-1.39209,3.31162,3.31162,0,0,1,2.64648-1.03564,2.65552,2.65552,0,0,1,1.89844.68017,2.80226,2.80226,0,0,1,.72266,1.69043,11.03891,11.03891,0,0,1-.05372,2.45948l-1.08593,8.96826a1.61777,1.61777,0,0,0,.07324.9331.6962.6962,0,0,0,.63574.292,3.38035,3.38035,0,0,0,1.05469-.12939,3.80958,3.80958,0,0,0,1.03808-.49023Z" transform="translate(-51.48535 -55.9352)"/><path class="cls-1" d="M446.73828,127.84828a3.64331,3.64331,0,0,1,2.7832,1.04932,3.56861,3.56861,0,0,1,.86133,2.53857,3.73718,3.73718,0,0,1-.44336,1.791,3.86718,3.86718,0,0,1-1.13672,1.25147,6.85589,6.85589,0,0,1-1.59277.83642,15.95965,15.95965,0,0,1-1.78223.54736l-3.89062.90772a10.30013,10.30013,0,0,0,.36816,3.1582,4.26052,4.26052,0,0,0,1.30567,2.11328,3.54861,3.54861,0,0,0,2.27929.78369,5.53641,5.53641,0,0,0,1.42872-.1499,4.73628,4.73628,0,0,0,1.39257-.61572,7.39984,7.39984,0,0,0,1.45215-1.24414l.52735.58105a10.00573,10.00573,0,0,1-1.00977.95362,7.847,7.847,0,0,1-1.17285.80078,5.46242,5.46242,0,0,1-1.34668.52637,6.20414,6.20414,0,0,1-1.62305.16064,4.59137,4.59137,0,0,1-2.99414-1.03906,5.6233,5.6233,0,0,1-1.68359-2.646,10.965,10.965,0,0,1-.47949-3.56592,11.90232,11.90232,0,0,1,.90527-4.49707,7.65211,7.65211,0,0,1,2.3623-3.13037A5.39213,5.39213,0,0,1,446.73828,127.84828Zm2.17383,3.6167a4.0672,4.0672,0,0,0-.19531-1.39941,1.9,1.9,0,0,0-.7295-.97559,2.57681,2.57681,0,0,0-1.418-.375,3.85852,3.85852,0,0,0-2.44727.78809,5.692,5.692,0,0,0-1.77637,2.42285,12.06179,12.06179,0,0,0-.81933,3.97363l3.67871-.88232a9.24345,9.24345,0,0,0,1.99609-.73779,2.996,2.996,0,0,0,1.71094-2.81446Z" transform="translate(-51.48535 -55.9352)"/><path class="cls-1" d="M466.4082,121.089a3.60424,3.60424,0,0,0-2.02636.51757,3.22027,3.22027,0,0,0-1.20606,1.49561,7.33667,7.33667,0,0,0-.5039,2.32324l-.16114,3.0293,4.86035.01807-.03418.96-4.8291-.01807-.58105,11.03809q-.09669,1.79955-.23731,3.16406a22.22366,22.22366,0,0,1-.35351,2.35351,12.23675,12.23675,0,0,1-.47168,1.67823,7.11083,7.11083,0,0,1-.58887,1.22851,3.83854,3.83854,0,0,1-.76855.86719,3.64834,3.64834,0,0,1-.90235.55176,2.37186,2.37186,0,0,1-.916.1914,1.40453,1.40453,0,0,1-1.12305-.40918,1.27411,1.27411,0,0,1-.3418-.82617,1.62362,1.62362,0,0,1,.15235-.70508,1.5921,1.5921,0,0,1,.45214-.55322l.8086.45313a1.599,1.599,0,0,0,1.57422.29052q.61522-.31273.83105-1.63183.06006-.38966.10742-.7793.04688-.39038.09375-.87012.04542-.47973.07813-1.00439.03222-.52515.06445-1.125l.65137-13.91748-2.72949-.01025.12207-.71973,2.6416-.25977.06543-1.56006a13.33912,13.33912,0,0,1,.44531-2.81835,6.60206,6.60206,0,0,1,.96777-2.08155,4.07685,4.07685,0,0,1,1.61036-1.314,5.54034,5.54034,0,0,1,2.37207-.45606,4.804,4.804,0,0,1,1.96289.35254,2.68632,2.68632,0,0,1,1.13672.88916,1.91775,1.91775,0,0,1,.37109,1.11133,1.44915,1.44915,0,0,1-.31836.98877,1.01072,1.01072,0,0,1-.79687.35693,1.65118,1.65118,0,0,1-.749-.16748,1.42208,1.42208,0,0,1-.53808-.46728l.27148-.50879a1.12808,1.12808,0,0,0,.03516-1.2002Q467.57764,121.0934,466.4082,121.089Z" transform="translate(-51.48535 -55.9352)"/><path class="cls-1" d="M479.11621,141.54408a2.11764,2.11764,0,0,0,.16016,1.07862.67526.67526,0,0,0,.63281.29394,2.83433,2.83433,0,0,0,1.01855-.20507,4.067,4.067,0,0,0,.98438-.56446l.42578.56592a5.86726,5.86726,0,0,1-.84961.60791,5.99258,5.99258,0,0,1-.95508.45947,3.10461,3.10461,0,0,1-1.06347.19043,1.82085,1.82085,0,0,1-1.083-.28955,1.63312,1.63312,0,0,1-.6084-.86426,3.84461,3.84461,0,0,1-.13379-1.40869l.4668-7.59472-.15039-.02881-.97754,4.38965a18.51458,18.51458,0,0,1-.74121,2.40722,8.21515,8.21515,0,0,1-.98731,1.855,3.941,3.941,0,0,1-1.33886,1.18262,3.77786,3.77786,0,0,1-1.76563.42236,3.58839,3.58839,0,0,1-2.54394-.87548,5.22133,5.22133,0,0,1-1.44825-2.3711,11.05693,11.05693,0,0,1-.48047-3.22021,13.50149,13.50149,0,0,1,.501-3.98047,9.375,9.375,0,0,1,1.45606-2.999,6.62193,6.62193,0,0,1,2.15722-1.896,5.59363,5.59363,0,0,1,2.63281-.67041,8.40767,8.40767,0,0,1,1.9375.19092,10.60218,10.60218,0,0,1,1.73047.55371l.95411-.60938.33105.17676Zm-6.79785,1.23584a2.88175,2.88175,0,0,0,1.40625-.34375,3.22142,3.22142,0,0,0,1.09863-1.13574,9.90442,9.90442,0,0,0,.9541-2.21435q.45117-1.4143.96973-3.63916l1.35547-5.62354a6.91973,6.91973,0,0,0-1.68652-.67383,7.56132,7.56132,0,0,0-1.95215-.22119,4.1473,4.1473,0,0,0-2.0791.5752,5.24142,5.24142,0,0,0-1.69434,1.63672,8.25233,8.25233,0,0,0-1.11523,2.6206,14.10829,14.10829,0,0,0-.37012,3.55908,11.5897,11.5897,0,0,0,.375,3.10157,3.55821,3.55821,0,0,0,1.05176,1.78955A2.51159,2.51159,0,0,0,472.31836,142.77992Z" transform="translate(-51.48535 -55.9352)"/><path class="cls-1" d="M494.19824,131.88588a4.4181,4.4181,0,0,0-.38379-2.38818,1.472,1.472,0,0,0-1.40429-.67139,2.1044,2.1044,0,0,0-1.15821.37061,3.09057,3.09057,0,0,0-.918,1.21728,14.8682,14.8682,0,0,0-.8457,2.416l-2.99219,10.61084-.98925.03467.07519-13.33106a1.74971,1.74971,0,0,0-.19824-.95361.721.721,0,0,0-.68652-.30615,3.10945,3.10945,0,0,0-.834.17919,10.49656,10.49656,0,0,0-1.18359.4917l-.23438-.68261a7.74812,7.74812,0,0,1,.83985-.44922,7.20861,7.20861,0,0,1,1.00781-.38037,4.04189,4.04189,0,0,1,1-.16993,1.41984,1.41984,0,0,1,1.51074.7129,4.83278,4.83278,0,0,1,.27051,2.1665l-.4375,8.99072.12109.02588,1.90235-7.4209a15.08284,15.08284,0,0,1,.95605-2.71972,3.185,3.185,0,0,1,3.02344-1.98145,2.7665,2.7665,0,0,1,1.78711.46289,2.69005,2.69005,0,0,1,.95312,1.52783,8.08538,8.08538,0,0,1,.15332,2.65088l-.65136,7.16748.15136.02442,1.9375-7.272a15.86151,15.86151,0,0,1,.99707-2.8413,3.708,3.708,0,0,1,1.252-1.5293,3.43531,3.43531,0,0,1,1.7832-.5127,2.85825,2.85825,0,0,1,1.93848.50293,2.68392,2.68392,0,0,1,.91015,1.544,8.38882,8.38882,0,0,1,.15528,2.32129l-.48536,9.32226a1.9487,1.9487,0,0,0,.13575.88086q.145.28052.71484.26026a2.97786,2.97786,0,0,0,.93848-.19776,4.94694,4.94694,0,0,0,1.0459-.56152l.41015.55566a6.19115,6.19115,0,0,1-.80566.5835,5.82456,5.82456,0,0,1-1.00293.50049,3.36265,3.36265,0,0,1-1.08789.21777,1.9395,1.9395,0,0,1-1.0127-.20459,1.35776,1.35776,0,0,1-.61035-.71435,3.186,3.186,0,0,1-.166-1.29981l.48243-9.4126a4.462,4.462,0,0,0-.35547-2.46435,1.51119,1.51119,0,0,0-1.4336-.65528,2.21393,2.21393,0,0,0-1.11523.32422,2.94552,2.94552,0,0,0-.93457,1.17285,15.50692,15.50692,0,0,0-.959,2.63038l-3.085,10.52392-.98925.03418Z" transform="translate(-51.48535 -55.9352)"/><path class="cls-1" d="M510.22559,129.32826a2.34443,2.34443,0,0,0-.168-1.102.66554.66554,0,0,0-.69434-.32129,3.49,3.49,0,0,0-.90527.187,6.91681,6.91681,0,0,0-1.09863.498l-.3086-.67334a7.12352,7.12352,0,0,1,1.416-.72656,4.88364,4.88364,0,0,1,1.46777-.33935,1.66516,1.66516,0,0,1,1.17285.2788,1.48331,1.48331,0,0,1,.50293.918,5.37281,5.37281,0,0,1,.06055,1.31885l-.18457,11.0083a1.89612,1.89612,0,0,0,.17969,1.05615.653.653,0,0,0,.61523.25049,3.08886,3.08886,0,0,0,.91992-.20263,4.4905,4.4905,0,0,0,1.07617-.63184l.42383.57666a8.85164,8.85164,0,0,1-.83594.63379,4.76377,4.76377,0,0,1-.97753.50635,3.64456,3.64456,0,0,1-1.084.22656,1.61061,1.61061,0,0,1-1.1123-.26709,1.4999,1.4999,0,0,1-.52832-.84131,4.48743,4.48743,0,0,1-.1377-1.104Zm-1.02637-7.48388a1.64336,1.64336,0,0,1,.2832-1.09766,1.09294,1.09294,0,0,1,.85938-.46973,1.3124,1.3124,0,0,1,.69824.12549,1.01517,1.01517,0,0,1,.43164.45655,1.93549,1.93549,0,0,1,.17773.75586,1.718,1.718,0,0,1-.26953,1.06689,1.15925,1.15925,0,0,1-1.77832.16162A1.47677,1.47677,0,0,1,509.19922,121.84438Z" transform="translate(-51.48535 -55.9352)"/><path class="cls-1" d="M517.44727,120.04311l-2.54493-.27735.04688-.63476,3.56152-.24317.41016.273.52051,20.833a1.69874,1.69874,0,0,0,.21386.93262.71785.71785,0,0,0,.67774.23926,2.931,2.931,0,0,0,.94629-.23,4.55042,4.55042,0,0,0,.9541-.56153l.42773.542a9.33022,9.33022,0,0,1-.77148.59423,5.23052,5.23052,0,0,1-.92676.51416,3.219,3.219,0,0,1-1.06543.25342,1.671,1.671,0,0,1-1.083-.22705,1.59173,1.59173,0,0,1-.583-.832,4.9355,4.9355,0,0,1-.21583-1.39844Z" transform="translate(-51.48535 -55.9352)"/><path class="cls-1" d="M530.84375,143.66225a13.43315,13.43315,0,0,1-.82617,1.98144,6.17027,6.17027,0,0,1-.99512,1.4087,3.951,3.951,0,0,1-1.20605.86914,4.50113,4.50113,0,0,1-1.48926.3667,2.61791,2.61791,0,0,1-1.77735-.36231,1.53233,1.53233,0,0,1-.69824-1.145,1.43233,1.43233,0,0,1,.23535-.95312,1.8234,1.8234,0,0,1,.92383-.64991l.5166.769a6.92921,6.92921,0,0,0,.56739.65966,1.43933,1.43933,0,0,0,.49609.34961,1.15473,1.15473,0,0,0,.50195.063,2.11182,2.11182,0,0,0,1.0918-.438,4.06215,4.06215,0,0,0,1.0332-1.32128,15.63711,15.63711,0,0,0,1.03516-2.541l.54883-1.70215-.44824.0376a3.0893,3.0893,0,0,1-1.55957-.29,3.94247,3.94247,0,0,1-1.499-1.34863,8.18042,8.18042,0,0,1-1.07031-2.168,18.81787,18.81787,0,0,1-.69043-2.832q-.26807-1.57251-.41992-3.3667c-.02637-.31836-.04981-.64746-.06738-.9878-.01954-.33935-.03223-.6748-.04-1.00488q-.01173-.49584-.03711-.79492a1.70411,1.70411,0,0,0-.21973-1.00488.7777.7777,0,0,0-.72754-.23975,3.17054,3.17054,0,0,0-.98828.24854q-.479.20653-.93945.45556l-.3545-.63232a5.70019,5.70019,0,0,1,.78418-.51758,7.22378,7.22378,0,0,1,.95606-.44189,3.65493,3.65493,0,0,1,.98926-.23389,1.63927,1.63927,0,0,1,1.46972.478,2.40106,2.40106,0,0,1,.48243,1.61523q.02783.32959.042.85449.01464.52589.03027,1.06641c.00977.36035.02637.67041.04785.9292q.16552,1.97315.38477,3.48974a17.52539,17.52539,0,0,0,.5498,2.603,7.862,7.862,0,0,0,.752,1.77344,6.50611,6.50611,0,0,0,.77441.97314,1.51293,1.51293,0,0,0,.69727.40821,2.7722,2.7722,0,0,0,.87695.04638l.50781-.043,3.10254-9.62451a7.22324,7.22324,0,0,0,.37012-1.50634,1.88169,1.88169,0,0,0-.13672-1.08741,1.14071,1.14071,0,0,0-.85938-.54492l-1.0166-.27539a2.16169,2.16169,0,0,1,.14453-1.32178,1.17168,1.17168,0,0,1,1.04688-.61523,1.48211,1.48211,0,0,1,1.01465.2456,2.15867,2.15867,0,0,1,.668.78663,2.88541,2.88541,0,0,1,.30273,1.08837A5.68494,5.68494,0,0,1,535.708,128.32a9.71645,9.71645,0,0,1-.23926,1.26953q-.18018.72291-.52832,1.7754-.34717,1.05321-.84961,2.60058Z" transform="translate(-51.48535 -55.9352)"/><path class="cls-1" d="M542.19336,125.52309a6.00037,6.00037,0,0,1,.75293-.66211,5.25115,5.25115,0,0,1,.96094-.56592,3.619,3.619,0,0,1,1.09668-.30957,1.66381,1.66381,0,0,1,1.38867.38086,2.28228,2.28228,0,0,1,.54492,1.688l.293,9.45019a4.7586,4.7586,0,0,0,.55078,2.38184,1.37973,1.37973,0,0,0,1.39551.56152,2.32123,2.32123,0,0,0,1.15625-.438,3.21888,3.21888,0,0,0,.8789-1.26563,14.66161,14.66161,0,0,0,.79981-2.707l2.46-10.709.9834-.11523,1.01172,13.26221a1.86132,1.86132,0,0,0,.26172.95117.72638.72638,0,0,0,.72265.23242,3.27149,3.27149,0,0,0,.80371-.23047,6.39777,6.39777,0,0,0,1.09278-.59619l.34863.65381c-.167.1206-.35938.249-.57422.38476a5.34556,5.34556,0,0,1-.69727.36866q-.37353.16406-.75.29931a3.35352,3.35352,0,0,1-.73437.17676,1.398,1.398,0,0,1-1.53223-.57568,5.06561,5.06561,0,0,1-.47851-2.14893l-.35938-8.98926-.14941.01758-1.54492,7.43067a17.11264,17.11264,0,0,1-.87012,2.88086,3.95569,3.95569,0,0,1-1.18164,1.64892,3.45462,3.45462,0,0,1-1.71973.65479,2.38538,2.38538,0,0,1-2.57324-.95215,6.59,6.59,0,0,1-.75195-3.189l-.27149-9.27148a1.73053,1.73053,0,0,0-.19629-.89844c-.12109-.17676-.37109-.24316-.748-.19922a2.955,2.955,0,0,0-.93457.27588,4.48931,4.48931,0,0,0-.97754.67334Z" transform="translate(-51.48535 -55.9352)"/><path class="cls-1" d="M576.25391,134.80922a6.64806,6.64806,0,0,1-.72266.665,5.20289,5.20289,0,0,1-.94336.60547,3.48049,3.48049,0,0,1-1.07324.33691,1.66382,1.66382,0,0,1-1.39746-.34423,2.35619,2.35619,0,0,1-.62012-1.66895l-.50781-9.41357a4.57572,4.57572,0,0,0-.60547-2.41358,1.41859,1.41859,0,0,0-1.42188-.50732,2.4085,2.4085,0,0,0-1.15918.47021,3.03908,3.03908,0,0,0-.84472,1.28858,15.6439,15.6439,0,0,0-.71387,2.72461l-2.17187,10.80029-.98047.14111-1.36524-13.26074a1.85578,1.85578,0,0,0-.28515-.92871.71317.71317,0,0,0-.7295-.22852,3.11529,3.11529,0,0,0-.81054.26856,10.63029,10.63029,0,0,0-1.12305.6167l-.30664-.65332a7.74981,7.74981,0,0,1,.78613-.5376,7.056,7.056,0,0,1,.97559-.48926,4.22069,4.22069,0,0,1,.99023-.27881,1.36832,1.36832,0,0,1,1.53223.53711,5.27647,5.27647,0,0,1,.52051,2.1377l.626,8.97217.09278.01709,1.40429-7.50733a15.05033,15.05033,0,0,1,.76661-2.88379,4.10988,4.10988,0,0,1,1.13671-1.6792,3.37292,3.37292,0,0,1,1.7002-.71484,2.86335,2.86335,0,0,1,1.98242.29053,2.60926,2.60926,0,0,1,1.05567,1.439,8.99142,8.99142,0,0,1,.3955,2.32227l.51563,9.26123a1.86554,1.86554,0,0,0,.24707.87353.66515.66515,0,0,0,.69629.20313,3.36325,3.36325,0,0,0,.94336-.2876,3.544,3.544,0,0,0,.94726-.68213Z" transform="translate(-51.48535 -55.9352)"/><path class="cls-1" d="M578.37891,121.92934a2.37332,2.37332,0,0,0-.28321-1.07813.66717.66717,0,0,0-.72461-.2456,3.4655,3.4655,0,0,0-.88086.28174,6.86675,6.86675,0,0,0-1.04.61181l-.37793-.6372a7.11686,7.11686,0,0,1,1.33105-.87256,4.88486,4.88486,0,0,1,1.42383-.49268,1.66442,1.66442,0,0,1,1.19531.15332,1.48355,1.48355,0,0,1,.59766.85938,5.32657,5.32657,0,0,1,.19922,1.30468l.98242,10.96631a1.90067,1.90067,0,0,0,.291,1.03125.65315.65315,0,0,0,.63868.1836,3.09768,3.09768,0,0,0,.89355-.29883,4.48468,4.48468,0,0,0,1.00195-.74219l.48243.52832a8.62112,8.62112,0,0,1-.76368.71875,4.76036,4.76036,0,0,1-.918.60693,3.65032,3.65032,0,0,1-1.05371.34034,1.60961,1.60961,0,0,1-1.13476-.148,1.49835,1.49835,0,0,1-.61426-.78028,4.47461,4.47461,0,0,1-.25391-1.083Zm-1.81348-7.33252a1.64545,1.64545,0,0,1,.165-1.12158,1.09274,1.09274,0,0,1,.80469-.55811,1.3092,1.3092,0,0,1,.708.05078,1.0147,1.0147,0,0,1,.47754.40772,1.92445,1.92445,0,0,1,.25684.73291,1.72082,1.72082,0,0,1-.15527,1.08984,1.15955,1.15955,0,0,1-1.751.34863A1.47619,1.47619,0,0,1,576.56543,114.59682Z" transform="translate(-51.48535 -55.9352)"/><path class="cls-1" d="M583.46484,119.23158l2.28418-.686.25684-4.832.59082-.10645.5752,4.71241,4.93066-.88868.10547.92578-4.90039.88331,1.38769,10.57177a3.94756,3.94756,0,0,0,.792,2.1128,1.89837,1.89837,0,0,0,1.86036.42675,3.56526,3.56526,0,0,0,1.67382-.77441,6.86878,6.86878,0,0,0,1.32911-1.50439l.59277.41113a5.93025,5.93025,0,0,1-.87305,1.33105,4.97164,4.97164,0,0,1-1.24316,1.04737,4.48614,4.48614,0,0,1-1.5.56,3.17882,3.17882,0,0,1-2.92285-.5708,5.30851,5.30851,0,0,1-1.22559-3.16259l-1.31836-10.1875-2.3916.43115Z" transform="translate(-51.48535 -55.9352)"/></svg>